# Arm6_R: 1540 verts, 2930 tris
v -0.02388910 0.04155987 0.02145793
v -0.01936588 0.04662189 0.01512076
v -0.02537870 0.03794424 0.01744337
v -0.02106270 0.04554850 0.02498476
v -0.02656030 0.03518983 0.02825299
v -0.02392348 0.03982236 0.03092233
v -0.02817310 0.03155202 0.02430579
v -0.02742910 0.02795270 0.03512476
v -0.02955789 0.02440728 0.03128808
v -0.02658190 0.02038784 0.04162342
v -0.02500509 0.03337440 0.03682955
v -0.02430190 0.02664833 0.04241013
v -0.02438110 0.03426477 0.03696921
v -0.02374190 0.02778442 0.04248168
v -0.02328591 0.04042048 0.03113720
v -0.02287149 0.03455204 0.03685108
v -0.01735548 0.03339979 0.03583480
v -0.02236590 0.02837143 0.04221122
v -0.02187471 0.04042417 0.03121401
v -0.01921229 0.04558214 0.02559886
v -0.01650190 0.03842756 0.03101185
v -0.01429467 0.04270377 0.02635931
v -0.01061067 0.04609928 0.02194482
v -0.01476349 0.04968199 0.02026453
v -0.00563068 0.04866923 0.01777895
v -0.00893311 0.05269016 0.01538726
v 0.00011969 0.05029152 0.01416903
v -0.00220108 0.05458997 0.01116170
v 0.00621729 0.05072368 0.01150044
v 0.01264128 0.04983721 0.00990429
v 0.00516372 0.05511193 0.00793895
v 0.01291890 0.05404202 0.00601391
v 0.00478930 0.05588636 0.00697266
v 0.00450530 0.05595529 0.00639488
v -0.00293550 0.05540725 0.01028599
v 0.01289649 0.05483744 0.00489596
v 0.02098131 0.05239300 0.00408594
v 0.01277332 0.05488443 0.00427534
v 0.02102131 0.05239382 0.00344665
v 0.01110449 0.05135408 -0.00105837
v 0.00233731 0.05264586 0.00120220
v 0.00967889 0.04770164 -0.00506439
v 0.01989488 0.04855050 -0.00196173
v 0.01849808 0.04488372 -0.00596552
v 0.02817969 0.04446102 -0.00150810
v 0.02680449 0.04078083 -0.00550893
v 0.03542770 0.03930987 0.00031053
v 0.02880930 0.04865470 0.00391491
v 0.02862372 0.04873617 0.00453386
v 0.03569969 0.04384148 0.00568753
v 0.04129490 0.03814999 0.00873031
v 0.03539008 0.04401792 0.00626717
v 0.04089249 0.03841394 0.00926902
v 0.03461489 0.04368246 0.00726574
v 0.03981971 0.03828250 0.01020043
v 0.03101968 0.04109786 0.01093296
v 0.02810048 0.04815047 0.00566610
v 0.02070131 0.05162211 0.00529629
v 0.02562370 0.04479835 0.00960827
v 0.01929650 0.04776788 0.00929135
v 0.03532928 0.03662803 0.01336335
v 0.03861731 0.03149924 0.01676446
v 0.04072288 0.02618226 0.02076503
v 0.04366931 0.03227769 0.01418167
v 0.04493569 0.03222139 0.01333347
v 0.04613329 0.02605332 0.01886600
v 0.04736210 0.02576565 0.01821149
v 0.04686209 0.01994806 0.02407946
v 0.04557010 0.01425868 0.02966279
v 0.04132451 0.02112752 0.02507932
v 0.04797169 0.01936632 0.02367560
v 0.04663409 0.01333833 0.02948996
v 0.04822210 0.01872136 0.02334565
v 0.04670850 0.01248130 0.02924243
v 0.04773968 0.02528497 0.01779668
v 0.04728530 0.01314149 0.01929936
v 0.04727410 0.01996715 0.01314192
v 0.04590849 0.00942298 0.01533213
v 0.04513649 0.00659345 0.02605042
v 0.04396771 0.00268716 0.02216798
v 0.04113568 0.00061993 0.03300662
v 0.04340528 0.00689773 0.03519864
v 0.03983492 -0.00368515 0.02953172
v 0.03568529 -0.00443097 0.03969566
v 0.02916769 -0.00793358 0.04540493
v 0.03446211 -0.00904596 0.03645693
v 0.03859571 0.00230725 0.04090791
v 0.03256129 -0.00095121 0.04607004
v 0.03892688 0.00351403 0.04100290
v 0.03302769 0.00030101 0.04608971
v 0.03824772 0.00485729 0.04081643
v 0.04353489 0.00796063 0.03536598
v 0.04257091 0.00916301 0.03534563
v 0.03768529 0.01204606 0.03456784
v 0.03398370 0.00835901 0.03924962
v 0.04025329 0.01641045 0.02970463
v 0.02936448 0.00576341 0.04331194
v 0.03267168 0.00172392 0.04571916
v 0.02378048 0.00440895 0.04665133
v 0.01736688 0.00417047 0.04931011
v 0.02592048 0.00008292 0.04975147
v 0.02607331 -0.00143624 0.05034877
v 0.01840772 -0.00020043 0.05286019
v 0.01842050 -0.00172938 0.05362331
v 0.01061330 0.00069781 0.05499787
v 0.01045809 -0.00066839 0.05578002
v 0.01070771 0.00494056 0.05114066
v 0.00295410 0.00288668 0.05589710
v 0.00436292 0.00675549 0.05188692
v 0.00256529 0.00169117 0.05665807
v -0.00420828 0.00644799 0.05533897
v -0.01065149 0.01107409 0.05352888
v -0.00489149 0.00527602 0.05614260
v -0.00157227 0.00970548 0.05142320
v -0.00708031 0.01365498 0.04987247
v -0.01176028 0.01819666 0.04746946
v -0.01612987 0.01639518 0.05072029
v -0.01510109 0.02301384 0.04433522
v -0.01692347 0.02810797 0.04042138
v -0.02016668 0.02222190 0.04693544
v -0.02133388 0.02135342 0.04737411
v -0.02180909 0.02008738 0.04736949
v -0.01718268 0.01531479 0.05137079
v -0.01758026 0.01408026 0.05143940
v -0.01158347 0.00989010 0.05433211
v -0.01191387 0.00879733 0.05445883
v -0.01291070 0.00382144 0.05430203
v -0.00516829 0.00435146 0.05629502
v -0.00598507 0.00066538 0.05636316
v 0.00229893 0.00085530 0.05681284
v 0.00118690 -0.00222026 0.05696353
v 0.01013570 -0.00157014 0.05592773
v 0.00835409 -0.00491190 0.05604571
v 0.01800851 -0.00277958 0.05374254
v 0.01540370 -0.00719219 0.05367707
v 0.02559251 -0.00262443 0.05040629
v 0.02227811 -0.00866360 0.04994872
v 0.02100129 -0.01123952 0.04984660
v 0.01967172 -0.01316806 0.05033792
v 0.02728209 -0.01444750 0.04240850
v 0.01452050 -0.00869052 0.05373680
v 0.00779328 -0.00592337 0.05614978
v 0.01380448 -0.00981023 0.05398843
v 0.00737810 -0.00668817 0.05634885
v 0.01325888 -0.01068223 0.05446361
v 0.01284051 -0.01153436 0.05520133
v 0.00705252 -0.00734431 0.05673158
v 0.01870450 -0.01446929 0.05106367
v 0.02300610 -0.01882251 0.04682173
v 0.01811890 -0.01550783 0.05193028
v 0.01763329 -0.01669767 0.05314737
v 0.02228212 -0.02003689 0.04784992
v 0.02509011 -0.02510250 0.04320038
v 0.02176370 -0.02130743 0.04914428
v 0.02107648 -0.02416282 0.05145420
v 0.02456049 -0.02642108 0.04455262
v 0.02597970 -0.03181284 0.03953706
v 0.02394609 -0.02962136 0.04723811
v 0.01663808 -0.03006884 0.04421813
v 0.02546529 -0.03516350 0.04246279
v 0.02557410 -0.04057446 0.03731248
v 0.01784129 -0.03445877 0.04043496
v 0.01792769 -0.03874577 0.03635601
v 0.01689410 -0.04276476 0.03213515
v 0.01477889 -0.04636176 0.02793781
v 0.02426848 -0.04564857 0.03198598
v 0.02468051 -0.04233878 0.02883761
v 0.02159890 -0.05018836 0.02668699
v 0.01766848 -0.05402091 0.02161846
v 0.02198848 -0.04695850 0.02347189
v 0.01806931 -0.05094525 0.01838828
v 0.02250690 -0.04562186 0.02205995
v 0.02519888 -0.04099622 0.02742831
v 0.02313408 -0.04437317 0.02063595
v 0.01858691 -0.04962591 0.01697971
v 0.01922368 -0.04845230 0.01552865
v 0.01358771 -0.05292251 0.01245065
v 0.01422452 -0.05187842 0.01099172
v 0.00765490 -0.05541616 0.00874305
v 0.01307411 -0.05420421 0.01384179
v 0.01262850 -0.05699833 0.01697693
v 0.00715570 -0.05664066 0.01008822
v 0.00049329 -0.05815531 0.00732102
v 0.00667090 -0.05900569 0.01293983
v 0.00295329 -0.05334672 0.01704652
v 0.00002689 -0.05996724 0.00966114
v -0.00704990 -0.05984583 0.00726901
v -0.00231071 -0.05410768 0.01445040
v -0.00791631 -0.05401194 0.01255533
v -0.01364989 -0.05306085 0.01143460
v -0.01928911 -0.05129120 0.01113051
v -0.01428671 -0.05864439 0.00585458
v -0.01386909 -0.05792983 0.00454053
v -0.02140588 -0.05641078 0.00547089
v -0.02092991 -0.05593656 0.00433377
v -0.02813310 -0.05323093 0.00613463
v -0.02461948 -0.04877151 0.01165637
v -0.03421149 -0.04922550 0.00782014
v -0.02750668 -0.05259786 0.00481753
v -0.03338427 -0.04816302 0.00604740
v -0.02709951 -0.05157463 0.00371849
v -0.02052431 -0.05493737 0.00325968
v -0.02688508 -0.05092984 0.00290996
v -0.03296990 -0.04707829 0.00488029
v -0.03794669 -0.04179161 0.00684948
v -0.03278751 -0.04634935 0.00394109
v -0.03283948 -0.04583104 0.00291451
v -0.03781070 -0.04090059 0.00568335
v -0.04171070 -0.03499085 0.00837223
v -0.03800110 -0.04004828 0.00411585
v -0.03841547 -0.03937902 0.00179892
v -0.04199389 -0.03361294 0.00621885
v -0.04437708 -0.02724425 0.00991409
v -0.04302668 -0.03098988 0.00161346
v -0.04296349 -0.03247323 -0.00369762
v -0.04539470 -0.02288516 -0.00477705
v -0.04485630 -0.02407027 0.00587888
v -0.04526748 -0.01787892 0.00045014
v -0.04520668 -0.01763792 0.01120794
v -0.04536828 -0.02119346 0.01464716
v -0.04477390 -0.01206845 0.01644768
v -0.04434189 -0.01228261 0.00603609
v -0.04343389 -0.00698534 0.01133613
v -0.04387630 -0.00604246 0.00022133
v -0.04359230 -0.00434187 0.00031817
v -0.04400748 -0.00603059 -0.00147637
v -0.04093551 -0.00656992 0.00003714
v -0.04112748 -0.00686794 -0.00152808
v -0.04071230 -0.00517922 0.00026643
v -0.03818349 0.00153985 -0.00697538
v -0.04095067 0.00269149 -0.00705333
v -0.03890347 -0.00008018 -0.00873500
v -0.03463148 0.00782040 -0.01412488
v -0.03529867 0.00620791 -0.01591339
v -0.03724507 0.00924845 -0.01442037
v -0.03035230 0.01257934 -0.02007781
v -0.03268990 0.01429164 -0.02075322
v -0.02466268 0.01587115 -0.02527705
v -0.03101949 0.01096531 -0.02186536
v -0.02532987 0.01425644 -0.02706292
v -0.03335547 0.01267905 -0.02254173
v -0.02719707 0.01624114 -0.02816372
v -0.03791307 0.00763665 -0.01620974
v -0.03478107 0.00923127 -0.02636733
v -0.03934111 0.00419114 -0.02003557
v -0.03244428 0.00751836 -0.02569025
v -0.02861790 0.01279088 -0.03198907
v -0.02116828 0.01476738 -0.03668385
v -0.02674908 0.01080636 -0.03088750
v -0.02741551 0.00919080 -0.03267410
v -0.01989231 0.01262440 -0.03521339
v -0.02055630 0.01100748 -0.03699825
v -0.01215629 0.01289151 -0.03848368
v -0.01281547 0.01127137 -0.04026822
v -0.01275229 0.01506133 -0.04023827
v -0.00382190 0.01156063 -0.04055057
v -0.00447149 0.00993633 -0.04233547
v -0.00373311 0.01363171 -0.04247130
v 0.00460848 0.00880352 -0.04137497
v 0.00396928 0.00717533 -0.04315951
v 0.01250452 0.00487684 -0.04094093
v 0.00532851 0.01068113 -0.04334863
v 0.00668048 0.01416991 -0.03953199
v 0.01382531 0.00646982 -0.04286749
v 0.01515889 0.00996961 -0.03905275
v 0.02115010 0.00126048 -0.04102693
v 0.02247728 0.00476571 -0.03721434
v 0.02678131 -0.00468909 -0.03785689
v 0.01924371 0.00006834 -0.03926529
v 0.02437648 -0.00537248 -0.03638437
v 0.01861648 -0.00156256 -0.04105195
v 0.02374929 -0.00700260 -0.03817191
v 0.01187329 0.00324526 -0.04272674
v 0.02053408 -0.00038035 -0.04280938
v 0.01320690 0.00483127 -0.04465017
v 0.02616052 -0.00632756 -0.03963877
v 0.01943730 -0.00333041 -0.04601043
v 0.02505330 -0.00927508 -0.04283847
v 0.01210369 0.00188579 -0.04785328
v 0.01752929 -0.00452196 -0.04424964
v 0.02264532 -0.00995565 -0.04137023
v 0.01078128 0.00029359 -0.04592762
v 0.01690292 -0.00615370 -0.04603703
v 0.01015090 -0.00133875 -0.04771333
v 0.01882290 -0.00497133 -0.04779287
v 0.02201971 -0.01158645 -0.04315691
v 0.02541169 -0.01746537 -0.03918672
v 0.02443489 -0.01091507 -0.04462019
v 0.02289728 -0.01497588 -0.04903302
v 0.02815088 -0.01734268 -0.04027003
v 0.02988771 -0.02401668 -0.03492383
v 0.02667331 -0.02118598 -0.04445465
v 0.02197012 -0.02587074 -0.05035497
v 0.02851571 -0.02752429 -0.03875144
v 0.02835649 -0.03374339 -0.03208733
v 0.02422851 -0.03226760 -0.04521914
v 0.02346691 -0.03239118 -0.04556852
v 0.02463888 -0.03855674 -0.03940345
v 0.02312049 -0.04443682 -0.03315693
v 0.02401008 -0.03866063 -0.03997273
v 0.02268127 -0.03851554 -0.04016177
v 0.02263411 -0.04451831 -0.03400020
v 0.02134451 -0.04413756 -0.03452332
v 0.01951407 -0.04971601 -0.02797262
v 0.01830849 -0.04915706 -0.02879505
v 0.01984691 -0.04965375 -0.02685727
v 0.01488451 -0.05401533 -0.02223874
v 0.01395172 -0.05339043 -0.02329293
v 0.01505489 -0.05396592 -0.02091466
v 0.00894608 -0.05715439 -0.01715135
v 0.00898289 -0.05713027 -0.01573546
v 0.00834131 -0.05646864 -0.01839254
v 0.00192213 -0.05891605 -0.01301604
v 0.00155491 -0.05808755 -0.01441230
v 0.00189170 -0.05894377 -0.01166007
v -0.00580750 -0.05928906 -0.00993531
v -0.00585227 -0.05936972 -0.00873804
v -0.00598989 -0.05836518 -0.01138295
v -0.01382828 -0.05830040 -0.00796992
v -0.01380348 -0.05745437 -0.00932050
v -0.02173547 -0.05594338 -0.00720579
v -0.01386027 -0.05840831 -0.00694840
v -0.02174267 -0.05606256 -0.00627159
v -0.01291070 -0.05583316 -0.00026119
v -0.00517068 -0.05648163 -0.00077010
v -0.01295309 -0.05583403 0.00096985
v -0.02032909 -0.05373657 -0.00005703
v -0.02723150 -0.05020581 0.00000218
v -0.02022590 -0.05381427 0.00101047
v -0.02020111 -0.05397915 0.00180938
v -0.02697710 -0.05033535 0.00124054
v -0.03308110 -0.04550727 0.00155934
v -0.02685151 -0.05055019 0.00215944
v -0.03344831 -0.04537045 -0.00024741
v -0.03569707 -0.04758027 -0.00824250
v -0.03879627 -0.03938642 -0.00116240
v -0.04116906 -0.04193495 -0.01094458
v -0.04524669 -0.03570946 -0.01483384
v -0.04123067 -0.04188495 -0.01228670
v -0.04528669 -0.03575045 -0.01623355
v -0.03574027 -0.04747527 -0.00942934
v -0.04041309 -0.04155276 -0.01367730
v -0.03499231 -0.04693795 -0.01087513
v -0.03602347 -0.03979356 -0.01692550
v -0.04439310 -0.03569049 -0.01746892
v -0.03931626 -0.03494090 -0.02005847
v -0.04654430 -0.02955530 -0.02223192
v -0.04109711 -0.02985708 -0.02400343
v -0.04700750 -0.02342308 -0.02764911
v -0.04763469 -0.02934099 -0.02118008
v -0.04824427 -0.02297263 -0.02682362
v -0.04768189 -0.02918516 -0.01986990
v -0.04553708 -0.02513934 -0.00895818
v -0.04839867 -0.02269341 -0.02571718
v -0.04649147 -0.01793454 -0.01586369
v -0.04736589 -0.01657444 -0.03197004
v -0.04455151 -0.01117187 -0.03822323
v -0.04713386 -0.01697360 -0.03281354
v -0.04579710 -0.01123948 -0.02332821
v -0.04500107 -0.00846458 -0.01969468
v -0.04328426 -0.00537894 -0.03066465
v -0.04186429 -0.00192595 -0.02682831
v -0.03884510 -0.00064814 -0.03732954
v -0.03272747 0.00276022 -0.04310492
v -0.03729867 0.00311104 -0.03315894
v -0.03998670 -0.00679535 -0.04410157
v -0.03970670 -0.00741216 -0.04447856
v -0.03395390 -0.00361820 -0.04935360
v -0.03371949 -0.00430210 -0.04959040
v -0.02679948 -0.00178110 -0.05376261
v -0.02667789 -0.00247408 -0.05391327
v -0.01886749 -0.00142625 -0.05711169
v -0.02527227 0.00467219 -0.04784949
v -0.01681790 0.00491601 -0.05142301
v -0.02366108 0.00863067 -0.04347061
v -0.01521549 0.00890818 -0.04702176
v -0.03112668 0.00666445 -0.03877845
v -0.02239470 0.00648751 -0.04199530
v -0.01463308 0.00673876 -0.04526320
v -0.02173147 0.00810451 -0.04021045
v -0.02926430 0.00467794 -0.03767187
v -0.03496508 0.00139692 -0.03247773
v -0.02859949 0.00629342 -0.03588605
v -0.03430027 0.00301094 -0.03069016
v -0.03046588 0.00827787 -0.03698924
v -0.03663630 0.00472360 -0.03136964
v -0.02300429 0.01024716 -0.04168329
v -0.02928027 0.01117678 -0.03377743
v -0.02182669 0.01315081 -0.03847195
v -0.03544587 0.00761860 -0.02815664
v -0.04000749 0.00258008 -0.02182504
v -0.03311071 0.00590518 -0.02747709
v -0.03738827 0.00116930 -0.02149510
v -0.04097547 -0.00503003 -0.01431277
v -0.03672108 0.00278178 -0.01970659
v -0.04039630 -0.00341030 -0.01250085
v -0.04322189 -0.00240585 -0.01256322
v -0.04192189 -0.01032158 -0.00546727
v -0.04211310 -0.01183418 -0.00562962
v -0.04226350 -0.01198198 -0.00730807
v -0.04484986 -0.00969731 -0.00536036
v -0.04507150 -0.01141219 -0.00546299
v -0.04519147 -0.01135382 -0.00720155
v -0.04379867 -0.00401878 -0.01437903
v -0.04572829 -0.01431298 -0.01065333
v -0.04582027 -0.01600773 -0.01081988
v -0.04457148 -0.00691347 -0.01777298
v -0.04277228 -0.01475639 -0.01080896
v -0.04169787 -0.00777184 -0.01773816
v -0.04307388 -0.01628240 -0.01279272
v -0.04285468 -0.01620689 -0.01109735
v -0.04213628 -0.00935235 -0.01964727
v -0.04602670 -0.01581527 -0.01264909
v -0.03921069 -0.00327767 -0.02651717
v -0.03854589 -0.00166433 -0.02472875
v -0.04120111 -0.00031414 -0.02503894
v -0.04167227 0.00106907 -0.00881190
v -0.01340189 0.01344095 -0.04202518
v -0.01456590 0.01052949 -0.04523413
v -0.00437307 0.01200488 -0.04425756
v -0.00551548 0.00908240 -0.04746459
v 0.00470051 0.00904812 -0.04513348
v 0.00357971 0.00611205 -0.04833835
v 0.00285811 0.00423681 -0.04636493
v -0.00560827 0.00701216 -0.04554315
v 0.00221891 0.00260701 -0.04814928
v 0.00295252 0.00447904 -0.05012320
v -0.00625711 0.00538786 -0.04732805
v -0.00615387 0.00745557 -0.04925087
v -0.00775151 0.00339957 -0.05370358
v -0.01052270 -0.00263312 -0.05921596
v 0.00135970 0.00034926 -0.05463764
v -0.00220747 -0.00526330 -0.06002578
v 0.00989971 -0.00393211 -0.05418885
v 0.00561890 -0.00911605 -0.05952841
v 0.01725330 -0.00913864 -0.05232123
v 0.01148609 0.00024726 -0.04963676
v 0.01249408 -0.01399133 -0.05770856
v 0.01801089 -0.01967444 -0.05459102
v 0.01171650 -0.01424645 -0.05775126
v 0.01715969 -0.01985806 -0.05468995
v 0.01063971 -0.01485258 -0.05717418
v 0.00497732 -0.00948248 -0.05953421
v 0.00415010 -0.01035770 -0.05881830
v -0.00266671 -0.00575365 -0.06002476
v -0.00323792 -0.00684132 -0.05923121
v -0.01077390 -0.00322181 -0.05924924
v -0.01101952 -0.00436613 -0.05854730
v -0.01891389 -0.00208094 -0.05720186
v -0.01878347 -0.00323785 -0.05664900
v -0.01776671 -0.00761028 -0.05305776
v -0.02617149 -0.00370466 -0.05345350
v -0.03293309 -0.00554811 -0.04924405
v -0.02388348 -0.00799806 -0.05041213
v -0.02965950 -0.00957197 -0.04681670
v -0.03466510 -0.01208524 -0.04264769
v -0.03879389 -0.00849081 -0.04436291
v -0.03837389 -0.01541972 -0.03820957
v -0.04060907 -0.01963728 -0.03351710
v -0.04327468 -0.01252066 -0.03900347
v -0.04427790 -0.01168553 -0.03880599
v -0.04597229 -0.01761119 -0.03334204
v -0.04149469 -0.02461062 -0.02864173
v -0.01133227 -0.00854509 -0.05463137
v -0.00467549 -0.01066465 -0.05521673
v 0.00164532 -0.01367169 -0.05486388
v 0.00702052 -0.01739662 -0.05350295
v 0.01129088 -0.02187620 -0.05104187
v 0.01580052 -0.02026710 -0.05419939
v 0.01453008 -0.02699571 -0.04760467
v 0.01658692 -0.03228392 -0.04355717
v 0.01959571 -0.02626497 -0.05017382
v 0.02112287 -0.02601473 -0.05054793
v 0.02200450 -0.03246053 -0.04543453
v 0.01714768 -0.03729634 -0.03919083
v 0.01604051 -0.04195602 -0.03451342
v 0.01344132 -0.04625246 -0.02960638
v 0.00971088 -0.04987607 -0.02489319
v 0.00506210 -0.05242691 -0.02083374
v -0.00055309 -0.05377039 -0.01754532
v -0.00699711 -0.05401011 -0.01496281
v -0.01367550 -0.05323510 -0.01320349
v -0.02002110 -0.05139939 -0.01250597
v -0.02146191 -0.05523644 -0.00847645
v -0.02593150 -0.04840632 -0.01298930
v -0.02859711 -0.05162560 -0.00906045
v -0.03139629 -0.04439761 -0.01453551
v -0.02914190 -0.05225538 -0.00771071
v -0.02912430 -0.05237920 -0.00669484
v -0.01397548 0.00835983 -0.04347795
v -0.01303711 -0.05595675 0.00188512
v -0.02029071 -0.05431941 0.00248842
v -0.01319308 -0.05628504 0.00263450
v -0.00585308 -0.05688288 0.00339811
v -0.01345391 -0.05690983 0.00344182
v -0.00618510 -0.05755149 0.00433769
v 0.00096211 -0.05700513 0.00606129
v -0.00662031 -0.05862731 0.00550472
v 0.00142450 -0.05624482 0.00489060
v 0.00824050 -0.05452412 0.00736292
v 0.00204610 -0.05572030 0.00331745
v 0.00927329 -0.05367066 0.00519068
v 0.00263252 -0.05546588 0.00100039
v -0.00554590 -0.05651412 0.00237130
v -0.00530429 -0.05639476 0.00102220
v 0.01137728 -0.05281358 0.00005522
v 0.00267090 -0.05567698 -0.00193158
v 0.01023731 -0.05337156 -0.00468876
v 0.01687812 -0.04966105 -0.01012144
v 0.01828608 -0.04844250 -0.00658959
v 0.02226848 -0.04497272 -0.01715352
v 0.02619170 -0.03961217 -0.02470504
v 0.02328209 -0.04362432 -0.01462529
v 0.02308768 -0.04367356 -0.01277107
v 0.02083010 -0.04190858 -0.01464176
v 0.02745651 -0.03757699 -0.02172722
v 0.02994770 -0.03102369 -0.02861870
v 0.02483329 -0.03613102 -0.02158793
v 0.02568687 -0.03472075 -0.01969146
v 0.02713889 -0.03007877 -0.02817658
v 0.02797488 -0.02857849 -0.02635348
v 0.02703251 -0.02362833 -0.03417168
v 0.02767252 -0.02200038 -0.03238954
v 0.02604288 -0.01583549 -0.03740156
v 0.03052768 -0.02238558 -0.03314279
v 0.02877888 -0.01570676 -0.03848868
v 0.03168048 -0.01945669 -0.02994446
v 0.03077968 -0.02954155 -0.02678332
v 0.03224372 -0.02682176 -0.02351411
v 0.02830051 -0.03618423 -0.01982094
v 0.02984451 -0.03357445 -0.01647796
v 0.02418932 -0.04237601 -0.01263697
v 0.02594851 -0.03988393 -0.00924919
v 0.02174930 -0.04064428 -0.01266226
v 0.02077731 -0.04178598 -0.01288600
v 0.02339891 -0.03831194 -0.00925603
v 0.02588290 -0.03985792 -0.00751027
v 0.02179889 -0.04475671 -0.00149263
v 0.02687491 -0.03844491 -0.00742716
v 0.02340769 -0.03817704 -0.00757710
v 0.02432608 -0.03687139 -0.00743494
v 0.02799090 -0.03073613 -0.01454893
v 0.03067092 -0.03207808 -0.01465367
v 0.02716130 -0.03223784 -0.01637110
v 0.03010367 -0.02440567 -0.02129822
v 0.02939571 -0.02599739 -0.02308801
v 0.03295091 -0.02523387 -0.02172233
v 0.02946848 -0.01751490 -0.02739144
v 0.02882289 -0.01914293 -0.02917437
v 0.03232449 -0.01782720 -0.02816328
v 0.02780532 -0.01126563 -0.03241273
v 0.03053731 -0.01113135 -0.03350847
v 0.02717170 -0.01289484 -0.03419877
v 0.02990612 -0.01276727 -0.03528979
v 0.03189567 -0.00763771 -0.02969872
v 0.02916449 -0.00777168 -0.02859982
v 0.03371009 -0.01434407 -0.02435411
v 0.02811731 -0.00118639 -0.03404566
v 0.02571010 -0.00186426 -0.03257448
v 0.02633971 -0.00023421 -0.03078773
v 0.02056131 0.00358207 -0.03545597
v 0.01382608 0.00838369 -0.03712851
v 0.02119011 0.00521295 -0.03366849
v 0.02309569 0.00640502 -0.03543173
v 0.01445970 0.01001441 -0.03534264
v 0.00659251 0.01392531 -0.03577349
v 0.01578049 0.01160739 -0.03726919
v 0.00731091 0.01580302 -0.03774716
v 0.01700529 0.01484749 -0.03374192
v 0.01567330 0.01326088 -0.03181682
v 0.00855412 0.01903218 -0.03421718
v 0.02431411 0.00965074 -0.03190584
v 0.02996849 0.00369508 -0.02873919
v 0.02239970 0.00846538 -0.03014730
v 0.02756452 0.00301177 -0.02726589
v 0.02302770 0.01009636 -0.02835983
v 0.01630611 0.01489162 -0.03003175
v 0.02819332 0.00464181 -0.02547914
v 0.02493171 0.01128987 -0.03012403
v 0.01762609 0.01648450 -0.03195829
v 0.03059091 0.00533261 -0.02695804
v 0.02620529 0.01466673 -0.02645290
v 0.03187488 0.00870778 -0.02328755
v 0.01890611 0.01985660 -0.02828589
v 0.02429170 0.01348163 -0.02469278
v 0.02947329 0.00802073 -0.02181143
v 0.01757411 0.01826992 -0.02636158
v 0.02492050 0.01511243 -0.02290611
v 0.02682289 0.01630688 -0.02466958
v 0.03010291 0.00965077 -0.02002468
v 0.01820769 0.01990082 -0.02457491
v 0.01952771 0.02149438 -0.02650232
v 0.01039729 0.02377948 -0.02499850
v 0.01111168 0.02565862 -0.02697310
v 0.00207891 0.02647926 -0.02416751
v 0.00975651 0.02215120 -0.02678300
v 0.01048212 0.02402629 -0.02875883
v 0.00142689 0.02485514 -0.02595165
v -0.00681629 0.02613862 -0.02387758
v 0.00151329 0.02692715 -0.02787167
v -0.00742030 0.02830952 -0.02562907
v 0.00019092 0.02357777 -0.03154877
v 0.00011091 0.02150492 -0.02962945
v -0.00876269 0.02497287 -0.02930824
v 0.00918369 0.02066529 -0.03243234
v 0.00846772 0.01878682 -0.03045860
v 0.00782690 0.01715863 -0.03224311
v -0.00053950 0.01988155 -0.03141367
v -0.00881629 0.02118166 -0.02934208
v -0.00044990 0.02195187 -0.03333433
v -0.00941467 0.02335241 -0.03109595
v -0.00171628 0.01873451 -0.03686710
v -0.01070270 0.02014615 -0.03462984
v -0.00180111 0.01666250 -0.03494706
v -0.00245152 0.01503837 -0.03673119
v -0.01010189 0.01797609 -0.03287764
v -0.01076188 0.01635585 -0.03466217
v -0.01781711 0.01769786 -0.02960542
v -0.01848187 0.01608085 -0.03139027
v -0.01909709 0.01984030 -0.03107261
v -0.01779551 0.02303706 -0.02753698
v -0.02653307 0.01785524 -0.02637537
v -0.02522268 0.02104733 -0.02283846
v -0.03137469 0.01748066 -0.01721440
v -0.02335309 0.01906341 -0.02173855
v -0.02268667 0.02067888 -0.01995273
v -0.02903709 0.01576770 -0.01653891
v -0.01651630 0.02089487 -0.02606818
v -0.01585149 0.02251178 -0.02428335
v -0.01713628 0.02465363 -0.02574888
v -0.00815711 0.02280189 -0.02755756
v -0.02455949 0.02266161 -0.02104931
v -0.01577868 0.02798247 -0.02206729
v -0.01449470 0.02584070 -0.02060098
v -0.02319388 0.02598417 -0.01736630
v -0.02132110 0.02400152 -0.01626894
v -0.02933869 0.02241352 -0.01174184
v -0.03070907 0.01909333 -0.01542508
v -0.03388590 0.01736482 -0.00540762
v -0.02699947 0.02070114 -0.01106723
v -0.02633228 0.02231508 -0.00928047
v -0.03125867 0.01595553 -0.00513332
v -0.03462190 0.00958789 0.00190112
v -0.03059067 0.01756803 -0.00334560
v -0.03321790 0.01897738 -0.00361832
v -0.03390507 0.01120816 0.00366312
v -0.03662108 0.01247574 0.00357914
v -0.03463549 0.00965487 0.00357561
v -0.03735470 0.01091651 0.00352117
v -0.04044827 0.00474816 0.01029839
v -0.03733868 0.01085470 0.00181801
v -0.03881549 0.00751774 -0.00180887
v -0.03526029 0.01404692 -0.00909190
v -0.03608350 0.00628536 -0.00170269
v -0.04215950 0.00065366 0.00569435
v -0.04260987 -0.00099104 0.00560237
v -0.03935150 -0.00040114 0.00570389
v -0.03972749 -0.00179831 0.00545033
v -0.03990668 -0.00204333 0.00390789
v -0.03680109 0.00466499 -0.00346470
v -0.04271468 -0.00098716 0.00389663
v -0.03953227 0.00589738 -0.00357086
v -0.03592748 0.01243579 -0.01088216
v -0.03330669 0.01101576 -0.01059553
v -0.03263868 0.01262834 -0.00880702
v -0.02836990 0.01738164 -0.01475215
v -0.04250830 -0.00154080 0.01678058
v -0.03861469 0.00896972 0.01462269
v -0.03516668 0.01575926 0.00714547
v -0.03588346 0.00774401 0.01443474
v -0.04046110 0.00238652 0.02128803
v -0.04016026 0.00231508 0.02298530
v -0.03771709 0.00125128 0.02087307
v -0.03678669 0.00273710 0.02264860
v -0.03742188 0.00120530 0.02247933
v -0.03953070 0.00387240 0.02306516
v -0.03504828 0.00936133 0.01615119
v -0.03777870 0.01058999 0.01632843
v -0.03173470 0.01610527 0.00894791
v -0.02856588 0.02245266 0.00205620
v -0.03245310 0.01448414 0.00718597
v -0.03444828 0.01737954 0.00890665
v -0.03300671 0.02063603 0.01244435
v -0.03120031 0.02385195 0.00179497
v -0.02665948 0.02890387 -0.00453958
v -0.02986111 0.02708920 0.00538926
v -0.02532267 0.03214266 -0.00094626
v -0.02721948 0.02569937 0.00564070
v -0.02655310 0.02731188 0.00742840
v -0.02298188 0.03043335 -0.00027354
v -0.03027467 0.01939875 0.01239019
v -0.02955708 0.02101996 0.01415291
v -0.03315066 0.01255105 0.01937639
v -0.03220748 0.01412129 0.02108794
v -0.03586348 0.01376980 0.01976687
v -0.03470749 0.00559586 0.02601319
v -0.03737949 0.00677182 0.02668939
v -0.03425869 0.00546544 0.02755555
v -0.03357066 0.00695520 0.02777007
v -0.03624190 0.00813011 0.02845198
v -0.03690027 0.00661692 0.02837249
v -0.03492106 0.01534138 0.02146785
v -0.03378028 0.01074271 0.03197558
v -0.03310188 0.01838982 0.02476755
v -0.03310589 0.01050622 0.03362992
v -0.03112349 0.00972234 0.03105460
v -0.03036508 0.01730152 0.02421117
v -0.03051547 0.00953449 0.03250626
v -0.02988347 0.01106609 0.03275273
v -0.02943386 0.01887371 0.02592576
v -0.03253788 0.01208335 0.03368287
v -0.03014831 0.01470513 0.03683328
v -0.03217148 0.01996341 0.02647232
v -0.03049068 0.02283384 0.02958487
v -0.03018989 0.02699754 0.01935644
v -0.02889151 0.02993115 0.02254546
v -0.02743067 0.02582820 0.01923437
v -0.02724671 0.03341454 0.01241353
v -0.02271470 0.03847181 0.00607684
v -0.02604269 0.03633329 0.01565391
v -0.02459707 0.03203709 0.01265168
v -0.02526349 0.03042450 0.01086318
v -0.02036991 0.03676540 0.00674603
v -0.02103710 0.03515138 0.00495849
v -0.01471071 0.04008032 0.00153723
v -0.00791950 0.04194371 -0.00280287
v -0.01659388 0.04205801 0.00044679
v -0.01537470 0.03846485 -0.00024856
v -0.00858187 0.04032670 -0.00458772
v -0.01725549 0.04044467 -0.00134163
v -0.00987868 0.04246486 -0.00604885
v -0.01852989 0.03733667 -0.00478569
v -0.02337951 0.03685925 0.00428752
v -0.02465710 0.03375515 0.00084226
v -0.02791146 0.03180266 0.01062335
v -0.02919468 0.02870101 0.00717864
v -0.03090748 0.02537650 0.01759531
v -0.02814750 0.02420777 0.01747076
v -0.03228830 0.02225708 0.01420546
v -0.02231550 0.03204729 0.00151323
v -0.01664910 0.03535762 -0.00369351
v -0.01731390 0.03374290 -0.00547940
v -0.00984668 0.03721310 -0.00803121
v -0.00221391 0.03753782 -0.01131292
v -0.01114430 0.03935313 -0.00949093
v -0.01051068 0.03559611 -0.00981686
v -0.01180267 0.03773656 -0.01127903
v -0.00287309 0.03591758 -0.01309745
v 0.00530453 0.03466744 -0.01517645
v -0.00348749 0.03808890 -0.01484574
v 0.00538130 0.03674122 -0.01709506
v -0.00479631 0.03483272 -0.01843572
v -0.01312589 0.03448913 -0.01487070
v -0.00417948 0.03266134 -0.01668902
v 0.00409412 0.03347402 -0.02068311
v 0.01301732 0.03059851 -0.02157364
v 0.00402212 0.03139854 -0.01876517
v 0.01230449 0.02871852 -0.01959974
v 0.00337171 0.02977442 -0.02054928
v 0.00345330 0.03184727 -0.02246859
v -0.00483870 0.03104128 -0.01847277
v 0.01166448 0.02709024 -0.02138425
v 0.01945328 0.02322491 -0.02096443
v 0.01238770 0.02896625 -0.02335856
v 0.02078451 0.02481151 -0.02288953
v 0.02807411 0.01962937 -0.02105973
v 0.02616209 0.01844256 -0.01929944
v 0.03375729 0.01366526 -0.01789707
v 0.03135971 0.01297455 -0.01641819
v 0.03763169 0.00717676 -0.01355284
v 0.03249730 0.01034607 -0.02150645
v 0.03634928 0.00386571 -0.01716143
v 0.03362769 0.00371072 -0.01604753
v 0.03825492 -0.00287784 -0.01181869
v 0.03858288 -0.01002460 -0.00549633
v 0.03956288 0.00042279 -0.00820987
v 0.03539008 -0.00256916 -0.01107624
v 0.03474292 -0.00419643 -0.01285925
v 0.03569411 -0.00941259 -0.00502315
v 0.03507489 -0.01106289 -0.00679499
v 0.03496131 -0.01695444 0.00208026
v 0.03782772 -0.01778348 0.00179936
v 0.03441728 -0.01838636 0.00185753
v 0.03430051 -0.01859021 0.00031658
v 0.03716611 -0.01942146 0.00003751
v 0.03723248 -0.01941738 0.00175853
v 0.03551649 -0.02260224 -0.00366617
v 0.03796371 -0.01167771 -0.00726468
v 0.03669409 -0.01508872 -0.01090743
v 0.03760852 -0.00450732 -0.01359986
v 0.03627728 -0.00786216 -0.01726836
v 0.03571571 0.00223140 -0.01894294
v 0.03299168 0.00208161 -0.01783359
v 0.03441170 -0.00113480 -0.02261190
v 0.03168610 -0.00128305 -0.02150352
v 0.03341330 -0.00755886 -0.01652217
v 0.03105091 -0.00291150 -0.02328962
v 0.03276690 -0.00918595 -0.01830440
v 0.03377889 -0.00276911 -0.02439341
v 0.03252929 -0.00600331 -0.02791725
v 0.03563250 -0.00949165 -0.01904956
v 0.03435649 -0.01271450 -0.02257212
v 0.03607568 -0.01674267 -0.01267649
v 0.03484610 -0.02001226 -0.01617669
v 0.03472370 -0.02414954 -0.00546123
v 0.03319968 -0.01605935 -0.01221371
v 0.03195328 -0.02302143 -0.00524497
v 0.03381728 -0.01440990 -0.01044178
v 0.03274688 -0.02147108 -0.00345102
v 0.02968129 -0.02779765 0.00361627
v 0.02887491 -0.02926300 0.00357218
v 0.03233651 -0.02918605 0.00351379
v 0.02878288 -0.02930266 0.00183384
v 0.03143891 -0.03069021 0.00173128
v 0.02966927 -0.03368933 -0.00181298
v 0.03151091 -0.03068599 0.00344505
v 0.02891091 -0.03590649 0.00917422
v 0.02569570 -0.04028920 0.00395031
v 0.03139089 -0.03113114 0.01461595
v 0.02591409 -0.04037339 0.01437739
v 0.02851490 -0.03563558 0.01980523
v 0.02229251 -0.04466915 0.00923478
v 0.02422608 -0.04264186 0.01850171
v 0.02691731 -0.03788899 0.02397628
v 0.02035889 -0.04689389 0.01331532
v 0.01539411 -0.05062123 0.00870817
v 0.01750688 -0.04905608 0.00406518
v 0.02834372 -0.03268216 0.02951133
v 0.02582769 -0.03971169 0.02603284
v 0.02719168 -0.03456010 0.03148260
v 0.02720050 -0.02916171 0.03685129
v 0.02654132 -0.03586477 0.03284551
v 0.02602052 -0.03720959 0.03424862
v 0.02650532 -0.03047371 0.03814979
v 0.02583331 -0.02380619 0.04201843
v 0.02848128 -0.02725521 0.03502106
v 0.03034848 -0.02516589 0.03078609
v 0.02727808 -0.02190130 0.04044404
v 0.02963251 -0.01975500 0.03643170
v 0.02443570 -0.01704867 0.04565530
v 0.03329491 -0.01606022 0.03166554
v 0.03387889 -0.01632618 0.02997968
v 0.03395728 -0.01451632 0.03170734
v 0.03069090 -0.01499504 0.03066439
v 0.03130611 -0.01344629 0.03083356
v 0.03122529 -0.01525637 0.02911235
v 0.03558849 -0.00967960 0.02257630
v 0.03910931 -0.00296031 0.01544059
v 0.03832611 -0.01074160 0.02316949
v 0.03593091 -0.00787936 0.02428081
v 0.03866929 -0.00894090 0.02486993
v 0.03963250 -0.00123389 0.01717826
v 0.04126848 0.00547273 0.01069189
v 0.04247569 -0.00218199 0.01729687
v 0.04344290 0.00095618 0.02044122
v 0.04416131 0.00477762 0.01035974
v 0.04403328 0.01172329 0.00414040
v 0.04529008 0.00776909 0.01356465
v 0.04519647 0.01467660 0.00736522
v 0.04240049 0.00849952 0.01385627
v 0.04232691 0.01499570 0.00809217
v 0.04301809 0.01014983 0.01562812
v 0.04063410 0.00199054 0.02025203
v 0.04115571 0.00371518 0.02198827
v 0.03670048 -0.00435686 0.02727236
v 0.03716768 -0.00249036 0.02889224
v 0.03166770 -0.00968943 0.03387874
v 0.03936051 -0.00555534 0.02793232
v 0.03414449 -0.01098507 0.03490707
v 0.03341488 -0.01055273 0.03649660
v 0.03115009 -0.00916228 0.03518699
v 0.03197650 -0.00775454 0.03544188
v 0.04296850 0.01662381 0.00987588
v 0.04106449 0.02292739 0.00493918
v 0.04583729 0.01630770 0.00914623
v 0.04377330 0.02311587 0.00380665
v 0.04517888 0.02678906 0.00780256
v 0.03979410 0.02964586 -0.00053290
v 0.03741092 0.02893111 0.00095563
v 0.03406128 0.03562347 -0.00368807
v 0.04117249 0.03332887 0.00346444
v 0.03216371 0.03442098 -0.00192458
v 0.02548608 0.03918541 -0.00358374
v 0.03154129 0.03278848 -0.00371190
v 0.02485890 0.03755230 -0.00536858
v 0.03345088 0.03398095 -0.00547115
v 0.03678850 0.02729862 -0.00083166
v 0.03917807 0.02800502 -0.00231454
v 0.04043487 0.02129658 0.00315332
v 0.04314688 0.02147995 0.00202531
v 0.04200929 0.01851606 -0.00120087
v 0.03806127 0.02503309 -0.00554152
v 0.03929728 0.01833523 -0.00007232
v 0.03567571 0.02432376 -0.00405434
v 0.03866528 0.01670526 -0.00185827
v 0.04116610 0.01203896 0.00487330
v 0.04052290 0.01041161 0.00308949
v 0.04339088 0.01009305 0.00235930
v 0.04064530 0.00382404 0.00891988
v 0.04353889 0.00312687 0.00859115
v 0.04234050 -0.00005463 0.00518342
v 0.04195088 -0.00391211 0.01557004
v 0.04094847 -0.00726809 0.01223451
v 0.03807968 -0.00639430 0.01220056
v 0.03771328 -0.01421367 0.01975076
v 0.03492288 -0.01321093 0.01930423
v 0.03376287 -0.01989586 0.02638985
v 0.03321408 -0.02145287 0.02631398
v 0.03101810 -0.01888867 0.02573867
v 0.03086370 -0.02063536 0.02395962
v 0.03046531 -0.02049265 0.02561124
v 0.03360771 -0.02164430 0.02460856
v 0.03456849 -0.01495352 0.01754971
v 0.03756770 -0.00812760 0.01046600
v 0.03735808 -0.01595642 0.01799463
v 0.04043487 -0.00900680 0.01051094
v 0.03655170 -0.01944682 0.01439362
v 0.03308610 -0.02520662 0.02093278
v 0.03375648 -0.01839712 0.01411765
v 0.03940772 -0.01252318 0.00703475
v 0.03653091 -0.01167662 0.00709037
v 0.04047011 -0.00502801 -0.00014114
v 0.03757089 -0.00441513 0.00026924
v 0.04020928 0.00205220 -0.00642948
v 0.04171890 -0.00170699 0.00341499
v 0.04150528 0.00532488 -0.00285082
v 0.03882130 -0.00105120 0.00377923
v 0.03863891 0.00564225 -0.00211727
v 0.03944291 0.00059833 0.00555197
v 0.03928369 0.00726892 -0.00033258
v 0.04215091 0.00695522 -0.00106971
v 0.03745087 0.01355938 -0.00528728
v 0.04016608 0.01373095 -0.00641166
v 0.03681649 0.01193026 -0.00707251
v 0.03386210 0.01953122 -0.00926762
v 0.03625010 0.02023579 -0.01075353
v 0.02864689 0.02500737 -0.01214887
v 0.03323492 0.01790117 -0.01105437
v 0.02801971 0.02337572 -0.01393546
v 0.03562931 0.01859656 -0.01253533
v 0.02993092 0.02456480 -0.01569600
v 0.03437971 0.01530449 -0.01611527
v 0.03953489 0.01209579 -0.00819308
v 0.03826369 0.00881184 -0.01177223
v 0.03554610 0.00864869 -0.01065191
v 0.03734292 0.00236309 -0.00568886
v 0.03491010 0.00701956 -0.01243714
v 0.03198852 0.01460460 -0.01463144
v 0.02679009 0.02007346 -0.01751277
v 0.02008609 0.02485555 -0.01917934
v 0.02869171 0.02126858 -0.01927713
v 0.02140531 0.02644929 -0.02110597
v 0.02265171 0.02974008 -0.01752348
v 0.01428132 0.03387827 -0.01798844
v 0.02131972 0.02815254 -0.01559908
v 0.01355972 0.03200150 -0.01601407
v 0.02195172 0.02978326 -0.01381321
v 0.01419968 0.03363054 -0.01422962
v 0.02327012 0.03137776 -0.01573992
v 0.02446050 0.03453225 -0.01230535
v 0.03054689 0.02620496 -0.01391348
v 0.01490931 0.03551138 -0.01620360
v 0.00602131 0.03836788 -0.01530958
v 0.01611728 0.03865552 -0.01276799
v 0.00725169 0.04150023 -0.01187118
v 0.01539731 0.03677790 -0.01079354
v 0.02312931 0.03294473 -0.01038174
v 0.01603570 0.03840770 -0.00900916
v 0.00717969 0.03942493 -0.00995242
v 0.00782771 0.04104981 -0.00816836
v -0.00096507 0.04065837 -0.00787174
v -0.00030751 0.04227945 -0.00608650
v -0.00158510 0.04282976 -0.00961843
v -0.00283709 0.03970928 -0.01305884
v -0.00093551 0.04445099 -0.00783161
v 0.00789013 0.04312697 -0.01008489
v 0.00023808 0.04738618 -0.00459449
v -0.00922188 0.04408143 -0.00426075
v -0.00803389 0.04700958 -0.00102213
v -0.01539788 0.04498149 0.00368669
v -0.00673227 0.04487194 0.00043655
v -0.01351471 0.04300388 0.00477791
v -0.00607147 0.04648978 0.00222211
v 0.00086370 0.04521625 -0.00284955
v 0.00151973 0.04683732 -0.00106432
v 0.00897569 0.04399942 -0.00493272
v 0.00962209 0.04562448 -0.00314786
v 0.01715650 0.04137055 -0.00577725
v 0.00904293 0.04607405 -0.00685060
v 0.01787409 0.04324901 -0.00775099
v 0.02619008 0.03914153 -0.00729236
v 0.01674289 0.04028947 -0.01098245
v 0.02507729 0.03617164 -0.01052196
v 0.03234371 0.03100647 -0.00869869
v 0.02375812 0.03457621 -0.00859595
v 0.03044452 0.02980643 -0.00693464
v 0.02982048 0.02817394 -0.00872196
v 0.03505091 0.02269212 -0.00584172
v 0.03173088 0.02936471 -0.01048186
v 0.03744367 0.02339301 -0.00732324
v 0.04138049 0.01688014 -0.00298219
v 0.01779251 0.04300043 -0.00399209
v 0.00088530 0.04900834 -0.00280695
v -0.00737791 0.04862691 0.00076589
v -0.01473789 0.04659567 0.00547583
v -0.00590911 0.05225424 0.00477767
v -0.00336108 0.05547684 0.00975396
v -0.01325707 0.05021673 0.00948905
v -0.01047067 0.05351142 0.01414211
v -0.01648430 0.05016677 0.01930403
v -0.00994029 0.05349048 0.01461375
v -0.01589550 0.05027512 0.01969355
v -0.02044348 0.04586964 0.02528373
v -0.02085146 0.04300398 0.01110643
v -0.01285071 0.04461944 0.00656451
v -0.01850509 0.04129984 0.01177539
v -0.02272190 0.03657770 0.01766997
v -0.01916990 0.03968506 0.00998792
v -0.02338747 0.03496519 0.01588225
v -0.02151388 0.04139131 0.00931714
v -0.02610988 0.02882536 0.02235187
v -0.02539229 0.03044588 0.02411545
v -0.02772669 0.02190770 0.02890530
v -0.02748589 0.01399639 0.03570088
v -0.02679309 0.02347778 0.03061606
v -0.02632350 0.01557824 0.03725609
v -0.02670669 0.01399066 0.03694851
v -0.02898988 0.01629536 0.03837560
v -0.02925066 0.01448682 0.03838048
v -0.02714666 0.00730782 0.04403874
v -0.03274106 0.00520550 0.03827288
v -0.02391228 0.01322244 0.04704796
v -0.02683949 0.00298656 0.04670663
v -0.02007069 0.00478186 0.05071360
v -0.02038507 0.00247930 0.05116372
v -0.01924109 0.00748943 0.05086199
v -0.01327390 0.00214911 0.05432619
v -0.00624027 -0.00045164 0.05644890
v -0.01349711 0.00085171 0.05455306
v -0.01367630 -0.00015536 0.05501286
v -0.00644030 -0.00129261 0.05663391
v 0.00058131 -0.00382467 0.05726388
v -0.00664029 -0.00199355 0.05701151
v 0.00034452 -0.00443743 0.05763100
v -0.00691547 -0.00275673 0.05768158
v 0.00005813 -0.00515613 0.05828777
v -0.00733151 -0.00379484 0.05876040
v -0.01394429 -0.00106261 0.05574568
v -0.01437067 -0.00217292 0.05688241
v -0.02078990 -0.00029492 0.05272014
v -0.02720670 -0.00068755 0.04885361
v -0.02053308 0.00086761 0.05186360
v -0.02122907 -0.00150263 0.05393579
v -0.02765869 -0.00198308 0.05014727
v -0.02246746 -0.00357723 0.05574997
v -0.02911147 -0.00453860 0.05247207
v -0.02012987 -0.00943747 0.05096159
v -0.01539068 -0.00369940 0.05814217
v -0.01452350 -0.00953397 0.05285674
v -0.00815391 -0.00489998 0.05955652
v -0.00879068 -0.01048505 0.05397747
v -0.00103469 -0.00713359 0.05994021
v -0.00315151 -0.01225327 0.05428060
v 0.00569329 -0.01031430 0.05927653
v -0.00035629 -0.00616919 0.05934396
v 0.00630612 -0.00912758 0.05848429
v 0.00673013 -0.00808963 0.05740388
v 0.01239171 -0.01263646 0.05633963
v 0.01177091 -0.01431896 0.05759097
v 0.00699329 -0.01794703 0.05241984
v 0.01696529 -0.01899530 0.05495017
v 0.01110849 -0.02165086 0.05032774
v 0.01436452 -0.02574346 0.04755833
v 0.00217891 -0.01477448 0.05375489
v -0.02539391 -0.01019859 0.04836386
v -0.03011231 -0.01178882 0.04516606
v -0.03410586 -0.01414758 0.04148832
v -0.03506907 -0.00654758 0.04843513
v -0.04010910 -0.00952432 0.04379273
v -0.03342589 -0.00374906 0.04572811
v -0.03834347 -0.00666267 0.04084218
v -0.03296107 -0.00240532 0.04437816
v -0.03786830 -0.00530406 0.03945616
v -0.03266829 -0.00093419 0.04320758
v -0.03249787 0.00146341 0.04166327
v -0.02694668 0.00070436 0.04783894
v -0.03753470 -0.00385238 0.03816452
v -0.03724827 -0.00155769 0.03635638
v -0.04139546 -0.00774487 0.03287447
v -0.04103788 -0.00555589 0.03091856
v -0.04408110 -0.01237924 0.02745070
v -0.04175390 -0.00916270 0.03423104
v -0.04223388 -0.01052294 0.03563328
v -0.04444269 -0.01376720 0.02884127
v -0.04578828 -0.01891986 0.02344470
v -0.04492186 -0.01512526 0.03024895
v -0.04670829 -0.01789751 0.03342529
v -0.04626507 -0.02027269 0.02485585
v -0.04625310 -0.02579670 0.01969356
v -0.04801387 -0.02297077 0.02809871
v -0.04790510 -0.02838248 0.02294848
v -0.04036750 -0.02479938 0.02905598
v -0.03933391 -0.02078047 0.03327603
v -0.04028109 -0.02908646 0.02497623
v -0.03907789 -0.03347724 0.02119314
v -0.04638590 -0.03392387 0.01817308
v -0.03680429 -0.03780167 0.01785284
v -0.03354830 -0.04189437 0.01508344
v -0.04351710 -0.03938326 0.01395707
v -0.03940510 -0.04454993 0.01046101
v -0.04226669 -0.03731714 0.01109050
v -0.03836907 -0.04296027 0.00810947
v -0.04183468 -0.03606689 0.00974593
v -0.04491147 -0.03153212 0.01501887
v -0.04446186 -0.03022465 0.01362757
v -0.04427627 -0.02900367 0.01217578
v -0.04578670 -0.02445719 0.01828536
v -0.04550990 -0.02314136 0.01684174
v -0.04545230 -0.01755726 0.02202691
v -0.04515470 -0.01551559 0.01990893
v -0.04371866 -0.01027287 0.02540902
v -0.04328269 -0.00688677 0.02190889
v -0.04071707 -0.00223813 0.02731351
v -0.03715390 0.00185819 0.03276720
v -0.02943310 -0.04559820 0.01299132
v -0.03721947 -0.01718432 0.03747346
v -0.04403948 -0.01335679 0.03872498
v 0.00084372 -0.00313051 0.05707433
v 0.00595488 0.03629164 -0.01339153
v 0.03669728 0.00073658 -0.00747194
v 0.03694848 -0.00606458 -0.00150269
v 0.03984770 -0.00667951 -0.00190966
v 0.03601650 -0.01340678 0.00535550
v 0.03327888 -0.02008509 0.01233914
v 0.03889168 -0.01426027 0.00531102
v 0.03607410 -0.02113487 0.01261430
v 0.03270048 -0.02690741 0.01914590
v 0.03466371 -0.02532750 0.00809812
v 0.03249010 -0.02677481 0.02085721
v 0.02993812 -0.02581346 0.01875052
v 0.03032288 -0.02411496 0.02053844
v 0.02971009 -0.02572762 0.02046011
v 0.02997169 -0.03054239 0.02524236
v 0.04537009 0.03186282 0.01284608
v 0.02878932 -0.03516383 -0.00188428
v 0.02878050 -0.03519916 -0.00359573
v 0.02619890 -0.03365713 -0.00186927
v 0.02704610 -0.03223986 -0.00179140
v 0.02615727 -0.03374893 -0.00357423
v 0.02963089 -0.02756906 -0.01067743
v 0.03042368 -0.02601786 -0.00888357
v 0.03237652 -0.02877054 -0.01080835
v 0.03136128 -0.02094561 -0.01752691
v 0.03423570 -0.02167089 -0.01794368
v 0.03084530 -0.01404381 -0.02360679
v 0.03197168 -0.01929302 -0.01575611
v 0.03149170 -0.01241662 -0.02182457
v 0.02980050 -0.00614331 -0.02681451
v 0.03316768 -0.02722173 -0.00901343
v 0.02874049 0.00045191 -0.03226455
v -0.01249709 0.03073166 -0.01519337
v -0.00544829 0.03321234 -0.02022265
v -0.01378507 0.03287265 -0.01665881
v -0.00676827 0.02992998 -0.02384135
v 0.00215411 0.02855305 -0.02608610
v -0.00615711 0.02775876 -0.02209307
v -0.01511950 0.02959894 -0.02027918
v -0.02252988 0.02759827 -0.01557795
v -0.01383071 0.02745771 -0.01881613
v -0.02065467 0.02561624 -0.01448307
v -0.02118749 0.03086738 -0.01195470
v -0.02867307 0.02402533 -0.00995247
v -0.02732510 0.02729121 -0.00632889
v -0.03186750 0.02224099 0.00000548
v -0.02498507 0.02558038 -0.00565602
v -0.02923388 0.02084101 0.00026842
v -0.02431788 0.02719440 -0.00386848
v -0.01931228 0.02888535 -0.01085980
v -0.01864590 0.03050090 -0.00907322
v -0.01183228 0.03234849 -0.01340932
v -0.02052431 0.03248148 -0.01016635
v -0.01919231 0.03572350 -0.00657335
v -0.01975708 0.01822373 -0.03286072
v -0.01135468 0.01852653 -0.03641684
v -0.00235791 0.01710861 -0.03865266
v 0.00595169 0.01229712 -0.03755801
v 0.00767250 -0.05175565 0.02024505
v 0.01166529 -0.04939689 0.02392279
v -0.02019229 -0.05390452 0.00805562
v -0.02627630 -0.05103600 0.00865336
v -0.02075071 -0.05525909 0.00653788
v -0.01375790 -0.05592241 0.00841039
v -0.01392188 -0.05740106 0.00691397
v -0.00722032 -0.05701373 0.00970360
v -0.00698428 -0.05855836 0.00828696
v -0.00083070 -0.05713457 0.01188584
v -0.00020352 -0.05868745 0.01060268
v 0.00516452 -0.05628103 0.01487385
v 0.00615892 -0.05778178 0.01377360
v 0.01053571 -0.05448590 0.01855116
v 0.01185970 -0.05587716 0.01767632
v 0.01507649 -0.05181858 0.02277843
v 0.01667890 -0.05304641 0.02216212
v 0.01861328 -0.04838165 0.02739145
v 0.02043089 -0.04939858 0.02705788
v 0.02100848 -0.04430701 0.03221377
v 0.02297410 -0.04507386 0.03217587
v 0.02217092 -0.03975073 0.03706083
v 0.02205571 -0.03488759 0.04174440
v 0.02420692 -0.04023845 0.03731971
v 0.02497491 -0.04056624 0.03755446
v 0.02408451 -0.03507791 0.04229016
v 0.02485012 -0.03528186 0.04264515
v 0.02261090 -0.02979057 0.04689813
v 0.01984209 -0.02458019 0.05096548
v 0.02334289 -0.02987736 0.04735549
v 0.02066688 -0.02990599 0.04608640
v 0.01805810 -0.02499644 0.04991947
v 0.01433010 -0.02034668 0.05309600
v 0.01588611 -0.01964637 0.05433619
v 0.00962610 -0.01613627 0.05549258
v 0.01089329 -0.01517833 0.05688053
v 0.00412612 -0.01252790 0.05702019
v -0.00195789 -0.00965929 0.05761793
v 0.00505652 -0.01134910 0.05850094
v -0.00140028 -0.00830480 0.05913488
v 0.00538449 -0.01100738 0.05922882
v -0.00122671 -0.00789005 0.05987793
v 0.01135173 -0.01492232 0.05757201
v 0.00431571 -0.01484610 0.06295376
v 0.00394292 -0.01497797 0.06293004
v -0.00290427 -0.01144138 0.06366244
v 0.00322371 -0.01831802 0.06635239
v 0.00973172 -0.01839921 0.06144954
v 0.01531491 -0.02339512 0.05860445
v 0.00973010 -0.01877534 0.06132251
v 0.00831809 -0.02166034 0.06493711
v 0.00834532 -0.02203612 0.06482212
v 0.00693168 -0.02340993 0.06297747
v 0.00284529 -0.01842697 0.06634886
v 0.00143170 -0.01980163 0.06450347
v 0.00267572 -0.01644384 0.06104879
v 0.00023332 -0.02303682 0.06783329
v -0.00465231 -0.01693294 0.06510202
v -0.01108670 -0.01491437 0.06474636
v -0.00585069 -0.02016831 0.06843103
v -0.00418749 -0.01511170 0.06703920
v -0.00340829 -0.01357532 0.06164653
v -0.00277710 -0.01180979 0.06358932
v -0.01062188 -0.01309306 0.06668435
v -0.00433950 -0.01475234 0.06709474
v -0.01029949 -0.01288307 0.06676617
v -0.00924110 -0.00945513 0.06331327
v -0.00820751 -0.00570075 0.05949308
v -0.00954747 -0.00968596 0.06321666
v -0.01699867 -0.00815979 0.06177843
v -0.01676750 -0.00848122 0.06178742
v -0.01531147 -0.00451538 0.05808748
v -0.02329067 -0.00804041 0.05962932
v -0.01842589 -0.01152737 0.06515853
v -0.01817951 -0.01183141 0.06518990
v -0.02434429 -0.01141538 0.06313720
v -0.02456826 -0.01171065 0.06300688
v -0.02401308 -0.01370306 0.06127102
v -0.02349071 -0.00835420 0.05949120
v -0.02276987 -0.01034527 0.05781631
v -0.03011231 -0.00929689 0.05619214
v -0.03149947 -0.01269699 0.05955300
v -0.02876510 -0.01119881 0.05482830
v -0.03040589 -0.00905366 0.05608407
v -0.02875871 -0.00531196 0.05247341
v -0.03569631 -0.01082074 0.05246182
v -0.03179707 -0.01247609 0.05942307
v -0.03677229 -0.01413794 0.05601616
v -0.03687066 -0.01449212 0.05587569
v -0.03576430 -0.01118544 0.05232159
v -0.03538031 -0.01635088 0.05460559
v -0.03000831 -0.01455643 0.05828379
v -0.03413629 -0.01299309 0.05115090
v -0.03992108 -0.01901812 0.05037913
v -0.03657869 -0.01958625 0.05793463
v -0.04111947 -0.02225501 0.05370830
v -0.03609547 -0.02027460 0.05771756
v -0.03120750 -0.01779180 0.06161280
v -0.03085627 -0.01852384 0.06130526
v -0.02521147 -0.01693843 0.06460004
v -0.02500829 -0.01769214 0.06421991
v -0.01882266 -0.01705994 0.06678234
v -0.01228509 -0.01815042 0.06807626
v -0.01762428 -0.01382381 0.06345322
v -0.01877550 -0.01780962 0.06634792
v -0.01239948 -0.01887347 0.06761024
v -0.00612268 -0.02084232 0.06795606
v -0.00018830 -0.02364026 0.06737293
v 0.00517650 -0.02715972 0.06588302
v 0.00976529 -0.03126609 0.06354513
v 0.00573330 -0.02664521 0.06630647
v 0.01043730 -0.03085484 0.06390902
v 0.01416530 -0.03550460 0.06073249
v 0.01163649 -0.02761879 0.06057912
v 0.01287970 -0.02426186 0.05712452
v 0.01378369 -0.02690173 0.06204999
v 0.01536450 -0.03226848 0.05740337
v 0.01751170 -0.03155073 0.05887338
v 0.01797251 -0.03717878 0.05357040
v 0.01660771 -0.02891086 0.05394789
v 0.01884851 -0.02831664 0.05533221
v 0.01921648 -0.03382109 0.05011570
v 0.02172932 -0.03373983 0.05109973
v 0.02052769 -0.03722779 0.05444368
v 0.02208132 -0.03380049 0.05092812
v 0.01898612 -0.02797408 0.05547628
v 0.02086210 -0.03730349 0.05425027
v 0.02344932 -0.03870707 0.04665256
v 0.02319011 -0.03898139 0.04653137
v 0.02214770 -0.04191832 0.05022919
v 0.02358612 -0.04447748 0.04109374
v 0.02244128 -0.04896448 0.03632089
v 0.02229170 -0.04796297 0.04440608
v 0.02331809 -0.04435204 0.04135770
v 0.02072052 -0.04366590 0.04108935
v 0.02204928 -0.04783101 0.04468628
v 0.02088770 -0.05238654 0.03983995
v 0.01947650 -0.04702352 0.04454483
v 0.01936130 -0.04216123 0.04922849
v 0.01831488 -0.05157989 0.03969778
v 0.01827812 -0.05025965 0.04787393
v 0.01711649 -0.05481602 0.04302687
v 0.01816291 -0.04539643 0.05255828
v 0.01741332 -0.05019306 0.04790423
v 0.01730050 -0.04545082 0.05247291
v 0.01627969 -0.05463846 0.04317707
v 0.01394371 -0.05861290 0.03847253
v 0.01472129 -0.05889067 0.03820456
v 0.01049489 -0.06196611 0.03397250
v 0.00606451 -0.06456744 0.02984958
v 0.01118531 -0.06232760 0.03359153
v 0.01238288 -0.05909240 0.03026172
v 0.00664372 -0.06499491 0.02936427
v 0.00784211 -0.06175954 0.02603526
v 0.00127172 -0.06679004 0.02568696
v 0.00247092 -0.06355399 0.02235706
v -0.00472350 -0.06764341 0.02269972
v 0.00082531 -0.06631820 0.02626185
v -0.00502348 -0.06715048 0.02334807
v -0.01125469 -0.06703242 0.02121921
v -0.01111231 -0.06752274 0.02051671
v -0.01763148 -0.06596840 0.01995767
v -0.02390747 -0.06400039 0.01961114
v -0.01764989 -0.06643142 0.01922350
v -0.01645150 -0.06319613 0.01589368
v -0.02408347 -0.06441354 0.01886873
v -0.02288589 -0.06117749 0.01553883
v -0.03016748 -0.06154502 0.01946647
v -0.03566751 -0.05793663 0.02099329
v -0.02984270 -0.06120169 0.02019419
v -0.02896990 -0.05830889 0.01613738
v -0.02772669 -0.05495118 0.01268189
v -0.03446907 -0.05470050 0.01766419
v -0.03038430 -0.05968354 0.01429199
v -0.02899308 -0.05641696 0.01080144
v -0.03588347 -0.05607516 0.01581880
v -0.03067870 -0.05956870 0.01405853
v -0.03577308 -0.05622646 0.01547300
v -0.02928347 -0.05632598 0.01054705
v -0.03470029 -0.05277135 0.01205114
v -0.02206349 -0.05972916 0.00983742
v -0.02763071 -0.05281663 0.00671210
v -0.02101950 -0.05593404 0.00606300
v -0.03359789 -0.04890178 0.00836892
v -0.02720670 -0.05221489 0.00717183
v -0.03304347 -0.04838565 0.00879224
v -0.03803629 -0.04391837 0.01133666
v -0.03177547 -0.04742762 0.01018018
v -0.03648028 -0.04321798 0.01257763
v -0.04020747 -0.03856822 0.01575419
v -0.04199146 -0.03898455 0.01470736
v -0.04281548 -0.03365961 0.01958654
v -0.04475950 -0.03377417 0.01877472
v -0.04420508 -0.02867725 0.02392846
v -0.04623388 -0.02848683 0.02338268
v -0.04432029 -0.02381403 0.02861281
v -0.04635628 -0.02332621 0.02835395
v -0.04315790 -0.01925774 0.03345908
v -0.04512266 -0.01849080 0.03349779
v -0.04076346 -0.01518309 0.03828137
v -0.03722748 -0.01174523 0.04289512
v -0.04258107 -0.01416617 0.03861496
v -0.04335707 -0.01388655 0.03888516
v -0.03882908 -0.01051825 0.04351151
v -0.03400988 -0.00768758 0.04799652
v -0.03952106 -0.01015700 0.04389008
v -0.03458671 -0.00725834 0.04848325
v -0.04108428 -0.01398532 0.04744676
v -0.04456667 -0.01737114 0.04290254
v -0.04077948 -0.01413093 0.04765354
v -0.04241708 -0.01745353 0.05076218
v -0.04212030 -0.01757537 0.05098991
v -0.04569229 -0.02063769 0.04648879
v -0.04565629 -0.02101238 0.04637608
v -0.04345707 -0.02245513 0.04576530
v -0.04450029 -0.01774734 0.04279965
v -0.04714507 -0.02224976 0.03747280
v -0.04221309 -0.01909733 0.04231061
v -0.04460829 -0.02317359 0.03748846
v -0.04585227 -0.02653139 0.04094315
v -0.04842428 -0.02572474 0.04080097
v -0.04701389 -0.03108776 0.03609609
v -0.04705070 -0.02976590 0.04427210
v -0.04821228 -0.03432295 0.03942591
v -0.04631070 -0.03020340 0.04439084
v -0.04465550 -0.02569193 0.04909528
v -0.04397386 -0.02622989 0.04909466
v -0.04052509 -0.02287593 0.05359463
v -0.04744428 -0.03464880 0.03966370
v -0.04733146 -0.03939197 0.03509430
v -0.04809707 -0.03918618 0.03474156
v -0.04597710 -0.04425184 0.03085907
v -0.04343227 -0.04904087 0.02712083
v -0.04670829 -0.04416777 0.03039956
v -0.04410027 -0.04907724 0.02656729
v -0.04550990 -0.04093240 0.02707052
v -0.04290108 -0.04584195 0.02323747
v -0.04426588 -0.03757470 0.02361584
v -0.04806508 -0.04088349 0.02619727
v -0.04689869 -0.03595004 0.03141246
v -0.04945387 -0.03590199 0.03053927
v -0.04565467 -0.03259243 0.02795698
v -0.04824027 -0.03241448 0.02719939
v -0.04576987 -0.02772997 0.03264141
v -0.04836749 -0.02704374 0.03237303
v -0.04855307 -0.02669459 0.03240709
v -0.04958666 -0.03028103 0.03595473
v -0.04974588 -0.02992461 0.03600493
v -0.04866990 -0.02570410 0.04049418
v -0.04740909 -0.02220759 0.03717991
v -0.04596027 -0.01831526 0.03364416
v -0.04722108 -0.02325862 0.02838655
v -0.04709548 -0.02854300 0.02329586
v -0.04558829 -0.03394836 0.01858558
v -0.04841627 -0.03246500 0.02684827
v -0.04704827 -0.03737166 0.02257190
v -0.04960269 -0.03596925 0.03018181
v -0.04831628 -0.04058416 0.02615995
v -0.04677948 -0.03765680 0.02263111
v -0.04395307 -0.04319808 0.01802375
v -0.04275388 -0.03928357 0.01442064
v -0.04389867 -0.04307923 0.01839855
v -0.04507388 -0.04668713 0.02139597
v -0.04028267 -0.04777703 0.01489557
v -0.04162029 -0.05099343 0.01845344
v -0.03997630 -0.04797084 0.01505576
v -0.03871068 -0.04432708 0.01097412
v -0.03478107 -0.05262044 0.01240824
v -0.04132108 -0.05120870 0.01859086
v -0.03792991 -0.04713392 0.01660623
v -0.03917307 -0.05049087 0.02006165
v -0.03322667 -0.05134279 0.01420870
v -0.04037227 -0.05372700 0.02339074
v -0.03979630 -0.05357578 0.02402278
v -0.03520750 -0.05768230 0.02168333
v -0.04504908 -0.04655987 0.02176669
v -0.04165787 -0.04248416 0.01978276
v -0.03867787 -0.01566041 0.04692364
v -0.02830910 -0.00578288 0.05190003
v -0.03268589 -0.00907799 0.04712160
v -0.02731470 -0.00728278 0.05079969
v -0.02131867 -0.00642942 0.05378693
v -0.01492991 -0.00655170 0.05597010
v -0.02194671 -0.00487730 0.05507016
v -0.01516590 -0.00500554 0.05738659
v -0.02224349 -0.00438420 0.05572010
v -0.00822830 -0.00616368 0.05875888
v -0.00839228 -0.00764150 0.05726316
v -0.01403870 -0.05812326 0.00644784
v -0.01572671 -0.06171702 0.01018675
v -0.00693469 -0.05930872 0.00785343
v -0.00796909 -0.06301153 0.01172232
v -0.00000348 -0.05943980 0.01022082
v -0.00167709 -0.06313081 0.01387140
v 0.00651249 -0.05851290 0.01346760
v 0.00543809 -0.06211841 0.01741674
v 0.01233968 -0.05656566 0.01745766
v 0.01072850 -0.06035058 0.02103891
v 0.01727490 -0.05366710 0.02205083
v 0.01611652 -0.05718592 0.02605478
v 0.02111091 -0.04993822 0.02705583
v 0.02371411 -0.04550960 0.03229684
v 0.01959891 -0.05380017 0.03059819
v 0.01945009 -0.05364770 0.03093182
v 0.01823811 -0.05724903 0.03392213
v 0.01496209 -0.06043319 0.02964874
v 0.01811890 -0.05709804 0.03426476
v 0.01591968 -0.05565530 0.03487554
v 0.01458210 -0.06053505 0.02965093
v 0.01572851 -0.05726409 0.02607711
v 0.01071329 -0.06020967 0.02140907
v 0.01362690 -0.05573461 0.02680703
v 0.00908608 -0.05840185 0.02258056
v 0.00933251 -0.06361830 0.02476516
v 0.00396132 -0.06541351 0.02108706
v 0.00931730 -0.06374887 0.02439395
v 0.00434289 -0.06541147 0.02098715
v 0.00506129 -0.06209890 0.01753940
v -0.00156031 -0.06304082 0.01423945
v 0.00371408 -0.06019706 0.01890246
v -0.00228110 -0.06104966 0.01591515
v -0.00352512 -0.06440736 0.01936982
v -0.00296989 -0.06639977 0.01763396
v -0.00991311 -0.06428661 0.01718762
v -0.00935869 -0.06627910 0.01545095
v -0.00867071 -0.06092890 0.01373213
v -0.00828271 -0.06291380 0.01194325
v -0.01520829 -0.05983834 0.01243899
v -0.01550350 -0.06170897 0.01051480
v -0.01691627 -0.06501745 0.01395571
v -0.02335071 -0.06299965 0.01360094
v -0.01715631 -0.06500373 0.01364397
v -0.02311630 -0.06313438 0.01331618
v -0.02227387 -0.05958523 0.01014136
v -0.02164268 -0.05781969 0.01208414
v -0.00902991 -0.06635935 0.01525239
v -0.00311151 -0.06647220 0.01727381
v 0.01716370 -0.05229760 0.03142087
v 0.01955890 -0.04822210 0.03624307
v 0.02209572 -0.04914611 0.03625794
v 0.01594610 -0.04059095 0.05670814
v 0.01340131 -0.03580117 0.06044631
v 0.01677412 -0.04041483 0.05690030
v 0.02191572 -0.04220929 0.05010165
v 0.02060532 -0.03880344 0.04577378
v 0.02121491 -0.05218338 0.03991682
v 0.01761889 -0.03120035 0.05901505
v 0.02050852 -0.02454129 0.05152037
v 0.01646370 -0.01949692 0.05496680
v 0.01416611 -0.02689338 0.06195749
v 0.01492610 -0.02342417 0.05867492
v 0.00817489 -0.02005222 0.05952197
v -0.01638030 -0.01046687 0.05999863
v -0.00984268 -0.01155667 0.06129168
f 1 4 1010
f 1 1010 2
f 2 1014 3
f 2 3 1
f 1 3 7
f 1 7 5
f 6 4 1
f 6 1 5
f 8 11 6
f 8 6 5
f 5 7 9
f 5 9 8
f 8 9 1028
f 8 1028 10
f 10 12 11
f 10 11 8
f 14 13 11
f 14 11 12
f 13 15 6
f 13 6 11
f 18 16 13
f 18 13 14
f 16 19 15
f 16 15 13
f 17 16 18
f 17 18 119
f 21 19 16
f 21 16 17
f 19 20 1013
f 19 1013 15
f 22 20 19
f 22 19 21
f 23 24 20
f 23 20 22
f 25 26 24
f 25 24 23
f 27 28 26
f 27 26 25
f 29 31 28
f 29 28 27
f 30 32 31
f 30 31 29
f 36 33 31
f 36 31 32
f 28 31 33
f 28 33 35
f 35 33 34
f 35 34 1007
f 38 34 33
f 38 33 36
f 39 38 36
f 39 36 37
f 37 36 32
f 37 32 58
f 34 38 40
f 34 40 41
f 39 43 40
f 39 40 38
f 40 42 1003
f 40 1003 41
f 43 44 42
f 43 42 40
f 43 45 46
f 43 46 44
f 45 43 39
f 45 39 48
f 46 45 47
f 46 47 880
f 50 47 45
f 50 45 48
f 48 39 37
f 48 37 49
f 50 48 49
f 50 49 52
f 50 51 881
f 50 881 47
f 52 53 51
f 52 51 50
f 52 49 57
f 52 57 54
f 54 55 53
f 54 53 52
f 61 55 54
f 61 54 56
f 56 54 57
f 56 57 59
f 49 37 58
f 49 58 57
f 59 57 58
f 59 58 60
f 60 58 32
f 60 32 30
f 62 64 55
f 62 55 61
f 63 66 64
f 63 64 62
f 55 64 65
f 55 65 53
f 64 66 67
f 64 67 65
f 66 68 71
f 66 71 67
f 70 68 66
f 70 66 63
f 68 69 72
f 68 72 71
f 96 69 68
f 96 68 70
f 71 72 74
f 71 74 73
f 67 71 73
f 67 73 75
f 76 73 74
f 76 74 79
f 75 73 76
f 75 76 77
f 77 76 78
f 77 78 875
f 76 79 80
f 76 80 78
f 79 74 82
f 79 82 81
f 79 81 83
f 79 83 80
f 82 87 84
f 82 84 81
f 86 83 81
f 86 81 84
f 84 87 88
f 84 88 85
f 86 84 85
f 86 85 140
f 86 140 870
f 89 90 88
f 89 88 87
f 92 89 87
f 92 87 82
f 91 98 90
f 91 90 89
f 93 91 89
f 93 89 92
f 69 93 92
f 69 92 72
f 72 92 82
f 72 82 74
f 94 93 69
f 94 69 96
f 95 91 93
f 95 93 94
f 97 98 91
f 97 91 95
f 99 101 98
f 99 98 97
f 100 103 101
f 100 101 99
f 98 101 102
f 98 102 90
f 101 103 104
f 101 104 102
f 103 105 106
f 103 106 104
f 107 105 103
f 107 103 100
f 105 108 110
f 105 110 106
f 109 108 105
f 109 105 107
f 114 111 108
f 114 108 109
f 108 111 113
f 108 113 110
f 111 112 125
f 111 125 113
f 115 112 111
f 115 111 114
f 116 117 112
f 116 112 115
f 118 120 117
f 118 117 116
f 119 18 120
f 119 120 118
f 117 120 121
f 117 121 123
f 120 18 14
f 120 14 121
f 121 14 12
f 121 12 122
f 123 121 122
f 123 122 124
f 125 123 124
f 125 124 126
f 112 117 123
f 112 123 125
f 113 125 126
f 113 126 128
f 127 126 124
f 127 124 1036
f 129 128 126
f 129 126 127
f 110 113 128
f 110 128 130
f 131 130 128
f 131 128 129
f 132 130 131
f 132 131 133
f 106 110 130
f 106 130 132
f 104 106 132
f 104 132 134
f 134 132 133
f 134 133 135
f 137 136 134
f 137 134 135
f 102 104 134
f 102 134 136
f 90 102 136
f 90 136 88
f 85 88 136
f 85 136 137
f 141 138 137
f 141 137 135
f 138 140 85
f 138 85 137
f 138 139 840
f 138 840 140
f 141 143 139
f 141 139 138
f 142 144 143
f 142 143 141
f 142 141 135
f 142 135 133
f 144 147 145
f 144 145 143
f 143 145 148
f 143 148 139
f 145 146 150
f 145 150 148
f 147 1067 146
f 147 146 145
f 148 150 152
f 148 152 149
f 139 148 149
f 139 149 840
f 150 151 154
f 150 154 152
f 146 1068 151
f 146 151 150
f 152 153 835
f 152 835 149
f 154 156 153
f 154 153 152
f 158 156 154
f 158 154 155
f 151 1071 155
f 151 155 154
f 157 156 158
f 157 158 160
f 156 157 834
f 156 834 153
f 1073 159 158
f 1073 158 155
f 159 162 160
f 159 160 158
f 833 157 160
f 833 160 161
f 162 163 161
f 162 161 160
f 163 164 166
f 163 166 161
f 164 165 168
f 164 168 166
f 167 166 168
f 167 168 170
f 161 166 167
f 161 167 833
f 165 1188 169
f 165 169 168
f 168 169 171
f 168 171 170
f 175 172 170
f 175 170 171
f 172 173 167
f 172 167 170
f 174 829 173
f 174 173 172
f 176 174 172
f 176 172 175
f 178 176 175
f 178 175 177
f 177 175 171
f 177 171 180
f 500 178 177
f 500 177 179
f 179 177 180
f 179 180 182
f 169 181 180
f 169 180 171
f 180 181 184
f 180 184 182
f 497 179 182
f 497 182 183
f 182 184 186
f 182 186 183
f 1187 185 184
f 1187 184 181
f 185 188 186
f 185 186 184
f 183 186 187
f 183 187 498
f 188 189 187
f 188 187 186
f 189 190 192
f 189 192 187
f 190 191 194
f 190 194 192
f 193 192 194
f 193 194 195
f 498 187 192
f 498 192 193
f 195 194 196
f 195 196 199
f 191 197 196
f 191 196 194
f 197 1125 198
f 197 198 196
f 196 198 200
f 196 200 199
f 204 201 199
f 204 199 200
f 201 202 195
f 201 195 199
f 203 492 202
f 203 202 201
f 206 203 201
f 206 201 204
f 208 206 204
f 208 204 205
f 205 204 200
f 205 200 1112
f 210 207 206
f 210 206 208
f 207 333 203
f 207 203 206
f 209 208 205
f 209 205 1113
f 212 210 208
f 212 208 209
f 211 332 207
f 211 207 210
f 214 211 210
f 214 210 212
f 212 209 1116
f 212 1116 213
f 214 212 213
f 214 213 217
f 216 353 215
f 216 215 214
f 214 215 336
f 214 336 211
f 214 217 218
f 214 218 216
f 219 222 218
f 219 218 217
f 217 213 220
f 217 220 219
f 219 220 1120
f 219 1120 221
f 221 223 222
f 221 222 219
f 226 401 402
f 226 402 218
f 226 218 222
f 226 222 224
f 224 222 223
f 224 223 656
f 224 656 661
f 224 661 225
f 224 225 229
f 224 229 227
f 226 224 227
f 226 227 228
f 229 228 227
f 229 230 232
f 229 232 228
f 225 231 230
f 225 230 229
f 231 235 233
f 231 233 230
f 230 233 234
f 230 234 232
f 239 234 233
f 239 233 236
f 235 237 236
f 235 236 233
f 237 622 238
f 237 238 236
f 240 239 236
f 240 236 238
f 242 241 239
f 242 239 240
f 241 243 234
f 241 234 239
f 242 247 244
f 242 244 241
f 241 244 245
f 241 245 243
f 245 244 246
f 245 246 395
f 244 247 249
f 244 249 246
f 248 247 242
f 248 242 1183
f 247 248 251
f 247 251 249
f 249 251 252
f 249 252 250
f 250 392 246
f 250 246 249
f 248 255 253
f 248 253 251
f 251 253 254
f 251 254 252
f 257 254 253
f 257 253 256
f 255 258 256
f 255 256 253
f 260 257 256
f 260 256 259
f 258 262 259
f 258 259 256
f 273 260 259
f 273 259 261
f 262 264 261
f 262 261 259
f 263 262 258
f 263 258 1185
f 263 265 264
f 263 264 262
f 264 265 267
f 264 267 266
f 264 266 269
f 264 269 261
f 558 268 266
f 558 266 267
f 266 268 270
f 266 270 269
f 272 271 269
f 272 269 270
f 261 269 271
f 261 271 273
f 276 274 271
f 276 271 272
f 274 275 273
f 274 273 271
f 279 275 274
f 279 274 277
f 276 278 277
f 276 277 274
f 277 278 281
f 277 281 280
f 279 277 280
f 279 280 282
f 286 283 280
f 286 280 281
f 282 280 283
f 282 283 284
f 285 437 284
f 285 284 283
f 288 285 283
f 288 283 286
f 287 286 281
f 287 281 524
f 290 288 286
f 290 286 287
f 288 290 292
f 288 292 289
f 288 289 436
f 288 436 285
f 290 291 294
f 290 294 292
f 291 290 287
f 291 287 522
f 292 293 439
f 292 439 289
f 294 296 293
f 294 293 292
f 295 298 296
f 295 296 294
f 291 517 295
f 291 295 294
f 297 473 293
f 297 293 296
f 300 297 296
f 300 296 298
f 512 299 298
f 512 298 295
f 302 300 298
f 302 298 299
f 303 301 300
f 303 300 302
f 301 474 297
f 301 297 300
f 305 303 302
f 305 302 304
f 304 302 299
f 304 299 306
f 308 305 304
f 308 304 307
f 307 304 306
f 307 306 309
f 312 308 307
f 312 307 310
f 310 307 309
f 310 309 311
f 313 310 311
f 313 311 315
f 314 312 310
f 314 310 313
f 318 314 313
f 318 313 316
f 316 313 315
f 316 315 317
f 319 316 317
f 319 317 322
f 320 318 316
f 320 316 319
f 484 320 319
f 484 319 321
f 321 319 322
f 321 322 323
f 327 323 322
f 327 322 324
f 322 317 325
f 322 325 324
f 326 324 325
f 326 325 505
f 329 327 324
f 329 324 326
f 489 323 327
f 489 327 328
f 331 328 327
f 331 327 329
f 329 326 491
f 329 491 330
f 331 329 330
f 331 330 333
f 332 334 328
f 332 328 331
f 332 331 333
f 332 333 207
f 333 330 492
f 333 492 203
f 211 336 334
f 211 334 332
f 334 335 489
f 334 489 328
f 336 337 335
f 336 335 334
f 338 337 336
f 338 336 215
f 340 339 337
f 340 337 338
f 339 341 335
f 339 335 337
f 345 342 339
f 345 339 340
f 342 343 341
f 342 341 339
f 487 343 342
f 487 342 344
f 344 342 345
f 344 345 346
f 346 345 347
f 346 347 348
f 347 345 340
f 347 340 350
f 348 347 349
f 348 349 463
f 349 347 350
f 349 350 351
f 351 350 352
f 351 352 354
f 350 340 338
f 350 338 352
f 352 338 215
f 352 215 353
f 355 354 352
f 355 352 353
f 356 354 355
f 356 355 359
f 358 351 354
f 358 354 356
f 461 358 356
f 461 356 357
f 357 356 359
f 357 359 361
f 360 362 361
f 360 361 359
f 360 359 355
f 360 355 413
f 365 363 361
f 365 361 362
f 363 366 357
f 363 357 361
f 364 368 366
f 364 366 363
f 377 364 363
f 377 363 365
f 367 461 357
f 367 357 366
f 369 367 366
f 369 366 368
f 371 369 368
f 371 368 370
f 373 370 368
f 373 368 364
f 449 371 370
f 449 370 372
f 372 370 373
f 372 373 374
f 373 375 376
f 373 376 374
f 373 364 377
f 373 377 375
f 376 375 378
f 376 378 379
f 375 377 381
f 375 381 378
f 380 490 379
f 380 379 378
f 383 380 378
f 383 378 381
f 377 365 382
f 377 382 381
f 381 382 384
f 381 384 383
f 386 385 383
f 386 383 384
f 385 387 380
f 385 380 383
f 388 385 386
f 388 386 390
f 387 385 388
f 387 388 389
f 389 388 250
f 389 250 252
f 388 390 392
f 388 392 250
f 390 386 416
f 390 416 391
f 390 391 393
f 390 393 392
f 392 393 395
f 392 395 246
f 391 404 394
f 391 394 393
f 396 395 393
f 396 393 394
f 397 245 395
f 397 395 396
f 401 397 396
f 401 396 398
f 394 400 398
f 394 398 396
f 398 400 399
f 402 401 398
f 402 398 399
f 226 417 397
f 226 397 401
f 403 402 399
f 403 399 400
f 405 406 216
f 405 216 218
f 405 218 402
f 405 402 403
f 404 403 400
f 404 400 394
f 405 403 404
f 405 404 407
f 406 405 408
f 406 408 411
f 405 407 409
f 405 409 408
f 412 410 408
f 412 408 409
f 408 410 411
f 413 406 411
f 413 411 410
f 360 413 410
f 360 410 412
f 406 413 355
f 406 355 353
f 406 353 216
f 409 415 414
f 409 414 412
f 362 360 412
f 362 412 414
f 382 414 415
f 382 415 384
f 365 362 414
f 365 414 382
f 416 386 384
f 416 384 415
f 407 416 415
f 407 415 409
f 404 391 416
f 404 416 407
f 417 243 245
f 417 245 397
f 243 417 232
f 243 232 234
f 417 226 228
f 417 228 232
f 387 389 418
f 387 418 419
f 418 389 252
f 418 252 254
f 420 421 419
f 420 419 418
f 420 418 254
f 420 254 257
f 422 423 421
f 422 421 420
f 422 420 257
f 422 257 260
f 422 275 279
f 422 279 423
f 275 422 260
f 275 260 273
f 421 423 424
f 421 424 425
f 423 279 282
f 423 282 424
f 426 428 425
f 426 425 424
f 284 426 424
f 284 424 282
f 437 427 426
f 437 426 284
f 427 429 428
f 427 428 426
f 428 379 490
f 428 490 425
f 429 376 379
f 429 379 428
f 427 432 430
f 427 430 429
f 429 430 374
f 429 374 376
f 431 372 374
f 431 374 430
f 430 432 433
f 430 433 431
f 432 434 435
f 432 435 433
f 427 437 434
f 427 434 432
f 434 436 438
f 434 438 435
f 434 437 285
f 434 285 436
f 289 439 438
f 289 438 436
f 435 438 440
f 435 440 443
f 441 440 438
f 441 438 439
f 469 442 440
f 469 440 441
f 443 440 442
f 443 442 444
f 445 443 444
f 445 444 446
f 433 435 443
f 433 443 445
f 447 445 446
f 447 446 448
f 431 433 445
f 431 445 447
f 449 447 448
f 449 448 450
f 372 431 447
f 372 447 449
f 450 452 371
f 450 371 449
f 451 450 448
f 451 448 464
f 454 452 450
f 454 450 451
f 455 453 452
f 455 452 454
f 452 453 369
f 452 369 371
f 456 457 453
f 456 453 455
f 458 460 457
f 458 457 456
f 459 462 460
f 459 460 458
f 460 462 358
f 460 358 461
f 457 460 461
f 457 461 367
f 462 349 351
f 462 351 358
f 463 349 462
f 463 462 459
f 453 457 367
f 453 367 369
f 464 448 446
f 464 446 465
f 465 446 444
f 465 444 466
f 466 444 442
f 466 442 467
f 467 442 469
f 467 469 468
f 468 469 472
f 468 472 470
f 470 472 474
f 470 474 471
f 472 469 441
f 472 441 473
f 474 472 473
f 474 473 297
f 471 474 301
f 471 301 475
f 473 441 439
f 473 439 293
f 475 301 303
f 475 303 476
f 476 303 305
f 476 305 477
f 477 305 308
f 477 308 478
f 478 308 312
f 478 312 479
f 479 312 314
f 479 314 480
f 480 314 318
f 480 318 481
f 481 318 320
f 481 320 482
f 482 320 484
f 482 484 483
f 483 484 486
f 483 486 485
f 485 486 343
f 485 343 487
f 343 486 488
f 343 488 341
f 486 484 321
f 486 321 488
f 341 488 489
f 341 489 335
f 488 321 323
f 488 323 489
f 419 421 425
f 419 425 490
f 387 419 490
f 387 490 380
f 330 491 493
f 330 493 492
f 492 493 495
f 492 495 202
f 491 504 494
f 491 494 493
f 493 494 496
f 493 496 495
f 495 496 498
f 495 498 193
f 202 495 193
f 202 193 195
f 494 499 497
f 494 497 496
f 496 497 183
f 496 183 498
f 499 500 179
f 499 179 497
f 501 502 500
f 501 500 499
f 504 501 499
f 504 499 494
f 503 506 502
f 503 502 501
f 505 503 501
f 505 501 504
f 326 505 504
f 326 504 491
f 505 325 507
f 505 507 503
f 503 507 508
f 503 508 506
f 325 317 315
f 325 315 507
f 507 315 311
f 507 311 508
f 506 508 509
f 506 509 510
f 508 311 309
f 508 309 509
f 309 306 511
f 309 511 509
f 513 514 510
f 513 510 509
f 513 509 511
f 306 299 512
f 306 512 511
f 513 511 512
f 513 512 516
f 514 513 515
f 514 515 535
f 513 516 518
f 513 518 515
f 516 512 295
f 516 295 517
f 516 517 520
f 516 520 518
f 521 519 518
f 521 518 520
f 519 534 515
f 519 515 518
f 517 291 522
f 517 522 520
f 523 521 520
f 523 520 522
f 522 287 524
f 522 524 523
f 525 528 521
f 525 521 523
f 526 525 523
f 526 523 524
f 554 527 525
f 554 525 526
f 527 529 528
f 527 528 525
f 528 529 531
f 528 531 530
f 528 530 519
f 528 519 521
f 530 531 533
f 530 533 532
f 530 532 534
f 530 534 519
f 533 537 538
f 533 538 510
f 533 510 514
f 533 514 532
f 532 514 535
f 532 535 534
f 515 534 535
f 537 533 536
f 537 536 540
f 533 531 544
f 533 544 536
f 1146 1145 818
f 1146 818 538
f 1146 538 537
f 1146 537 539
f 539 537 540
f 539 540 541
f 536 541 540
f 542 541 536
f 542 536 544
f 543 539 541
f 543 541 542
f 547 543 542
f 547 542 545
f 545 542 544
f 545 544 546
f 548 545 546
f 548 546 549
f 550 547 545
f 550 545 548
f 549 553 551
f 549 551 548
f 552 550 548
f 552 548 551
f 268 552 551
f 268 551 270
f 553 272 270
f 553 270 551
f 554 276 272
f 554 272 553
f 527 554 553
f 527 553 549
f 276 554 526
f 276 526 278
f 558 555 552
f 558 552 268
f 555 557 550
f 555 550 552
f 557 555 556
f 557 556 1155
f 555 558 559
f 555 559 556
f 558 267 561
f 558 561 559
f 556 559 560
f 556 560 1158
f 559 561 563
f 559 563 560
f 565 563 561
f 565 561 562
f 267 265 562
f 267 562 561
f 564 1160 560
f 564 560 563
f 567 564 563
f 567 563 565
f 568 567 565
f 568 565 566
f 562 1186 566
f 562 566 565
f 571 569 567
f 571 567 568
f 567 569 572
f 567 572 564
f 572 569 570
f 572 570 574
f 569 571 607
f 569 607 570
f 573 572 574
f 573 574 575
f 573 1160 564
f 573 564 572
f 575 574 576
f 575 576 578
f 577 576 574
f 577 574 570
f 580 579 576
f 580 576 577
f 579 581 578
f 579 578 576
f 580 584 582
f 580 582 579
f 583 581 579
f 583 579 582
f 583 582 585
f 583 585 586
f 582 584 587
f 582 587 585
f 586 585 588
f 586 588 590
f 591 588 585
f 591 585 587
f 589 771 590
f 589 590 588
f 592 589 588
f 592 588 591
f 594 592 591
f 594 591 593
f 587 596 593
f 587 593 591
f 1165 594 593
f 1165 593 595
f 596 598 595
f 596 595 593
f 597 600 598
f 597 598 596
f 584 597 596
f 584 596 587
f 598 599 1166
f 598 1166 595
f 600 601 599
f 600 599 598
f 600 602 604
f 600 604 601
f 597 605 602
f 597 602 600
f 602 605 606
f 602 606 603
f 604 602 603
f 604 603 631
f 597 584 580
f 597 580 605
f 605 580 577
f 605 577 606
f 570 607 606
f 570 606 577
f 607 608 603
f 607 603 606
f 571 610 608
f 571 608 607
f 610 611 609
f 610 609 608
f 608 609 631
f 608 631 603
f 610 612 613
f 610 613 611
f 571 568 612
f 571 612 610
f 612 568 566
f 612 566 614
f 613 612 614
f 613 614 616
f 1186 615 614
f 1186 614 566
f 615 617 616
f 615 616 614
f 618 616 617
f 618 617 619
f 620 613 616
f 620 616 618
f 238 618 619
f 238 619 240
f 622 620 618
f 622 618 238
f 620 622 623
f 620 623 621
f 620 621 611
f 620 611 613
f 623 622 237
f 623 237 624
f 623 624 627
f 623 627 625
f 621 623 625
f 621 625 628
f 626 629 628
f 626 628 625
f 625 627 666
f 625 666 626
f 611 621 628
f 611 628 609
f 629 631 609
f 629 609 628
f 630 604 631
f 630 631 629
f 632 630 629
f 632 629 626
f 630 632 635
f 630 635 633
f 630 633 601
f 630 601 604
f 601 633 634
f 601 634 599
f 633 635 636
f 633 636 634
f 635 637 640
f 635 640 636
f 635 632 638
f 635 638 637
f 637 638 653
f 637 653 639
f 637 639 642
f 637 642 640
f 636 640 641
f 636 641 1170
f 640 642 644
f 640 644 641
f 639 651 643
f 639 643 642
f 646 644 642
f 646 642 643
f 645 1172 641
f 645 641 644
f 647 645 644
f 647 644 646
f 649 647 646
f 649 646 648
f 646 643 648
f 651 649 648
f 651 648 643
f 652 655 650
f 652 650 649
f 652 649 651
f 647 649 650
f 647 650 668
f 647 668 669
f 651 639 653
f 651 653 652
f 652 653 665
f 652 665 654
f 655 652 654
f 655 654 657
f 656 223 667
f 656 667 650
f 656 650 655
f 656 655 657
f 656 657 658
f 657 659 658
f 657 654 660
f 657 660 659
f 662 661 659
f 662 659 660
f 661 656 658
f 661 658 659
f 661 662 231
f 661 231 225
f 662 663 235
f 662 235 231
f 663 662 660
f 663 660 664
f 624 663 664
f 624 664 627
f 624 237 235
f 624 235 663
f 627 664 665
f 627 665 666
f 654 665 664
f 654 664 660
f 653 638 666
f 653 666 665
f 638 632 626
f 638 626 666
f 671 668 650
f 671 650 667
f 669 668 670
f 669 670 681
f 668 671 673
f 668 673 670
f 672 671 667
f 672 667 1122
f 672 1122 1123
f 671 672 675
f 671 675 673
f 674 677 670
f 674 670 673
f 674 673 675
f 672 676 674
f 672 674 675
f 676 678 677
f 676 677 674
f 678 682 679
f 678 679 677
f 677 679 681
f 677 681 670
f 682 684 680
f 682 680 679
f 679 680 1176
f 679 1176 681
f 695 683 682
f 695 682 678
f 683 686 684
f 683 684 682
f 684 685 1177
f 684 1177 680
f 687 685 684
f 687 684 686
f 686 683 691
f 686 691 688
f 687 686 688
f 687 688 690
f 692 689 688
f 692 688 691
f 690 688 689
f 690 689 740
f 694 692 691
f 694 691 693
f 683 695 693
f 683 693 691
f 699 694 693
f 699 693 696
f 695 697 696
f 695 696 693
f 697 701 698
f 697 698 696
f 699 696 698
f 700 702 694
f 700 694 699
f 701 700 699
f 701 699 698
f 700 701 1124
f 700 1124 1031
f 700 1031 705
f 700 705 703
f 703 704 702
f 703 702 700
f 704 703 706
f 704 706 707
f 703 705 708
f 703 708 706
f 709 710 707
f 709 707 706
f 709 706 708
f 705 711 709
f 705 709 708
f 711 713 710
f 711 710 709
f 711 705 1031
f 711 1031 1030
f 711 1030 1029
f 711 1029 712
f 712 714 713
f 712 713 711
f 713 715 717
f 713 717 710
f 714 716 715
f 714 715 713
f 716 720 718
f 716 718 715
f 715 718 721
f 715 721 717
f 1020 719 718
f 1020 718 720
f 718 719 723
f 718 723 721
f 724 722 721
f 724 721 723
f 717 721 722
f 717 722 738
f 719 727 725
f 719 725 723
f 728 724 723
f 728 723 725
f 725 726 729
f 725 729 728
f 727 978 726
f 727 726 725
f 731 730 728
f 731 728 729
f 730 733 724
f 730 724 728
f 745 732 730
f 745 730 731
f 730 732 734
f 730 734 733
f 733 735 722
f 733 722 724
f 733 734 736
f 733 736 735
f 737 735 736
f 737 736 739
f 735 737 738
f 735 738 722
f 737 704 707
f 737 707 738
f 704 737 739
f 704 739 702
f 739 736 689
f 739 689 692
f 702 739 692
f 702 692 694
f 710 717 738
f 710 738 707
f 736 734 740
f 736 740 689
f 734 732 741
f 734 741 740
f 742 690 740
f 742 740 741
f 741 743 746
f 741 746 742
f 732 745 743
f 732 743 741
f 745 974 744
f 745 744 743
f 743 744 748
f 743 748 746
f 747 1182 742
f 747 742 746
f 750 747 746
f 750 746 748
f 749 748 744
f 749 744 1129
f 751 750 748
f 751 748 749
f 751 755 752
f 751 752 750
f 753 747 750
f 753 750 752
f 753 752 754
f 753 754 1180
f 752 755 757
f 752 757 754
f 954 756 755
f 954 755 751
f 755 756 758
f 755 758 757
f 762 759 757
f 762 757 758
f 759 761 754
f 759 754 757
f 764 760 759
f 764 759 762
f 760 1162 761
f 760 761 759
f 763 762 758
f 763 758 950
f 765 764 762
f 765 762 763
f 764 594 1165
f 764 1165 760
f 764 765 592
f 764 592 594
f 766 765 763
f 766 763 767
f 592 765 766
f 592 766 589
f 768 766 767
f 768 767 769
f 768 771 589
f 768 589 766
f 770 768 769
f 770 769 947
f 768 770 772
f 768 772 771
f 771 772 773
f 771 773 590
f 772 774 777
f 772 777 773
f 770 776 774
f 770 774 772
f 776 1132 775
f 776 775 774
f 774 775 779
f 774 779 777
f 778 793 773
f 778 773 777
f 777 779 780
f 777 780 778
f 779 781 784
f 779 784 780
f 775 782 781
f 775 781 779
f 782 786 783
f 782 783 781
f 784 781 783
f 785 788 780
f 785 780 784
f 786 785 784
f 786 784 783
f 785 786 1138
f 785 1138 812
f 785 812 787
f 788 785 787
f 788 787 789
f 790 788 789
f 790 789 791
f 788 790 778
f 788 778 780
f 792 790 791
f 792 791 794
f 790 792 793
f 790 793 778
f 792 583 586
f 792 586 793
f 583 792 794
f 583 794 581
f 794 791 796
f 794 796 795
f 581 794 795
f 581 795 578
f 798 797 795
f 798 795 796
f 797 575 578
f 797 578 795
f 801 799 797
f 801 797 798
f 799 573 575
f 799 575 797
f 799 801 802
f 799 802 800
f 573 799 800
f 573 800 1160
f 801 803 804
f 801 804 802
f 803 801 798
f 803 798 806
f 803 805 1159
f 803 1159 804
f 805 803 806
f 805 806 807
f 806 798 796
f 806 796 808
f 807 806 808
f 807 808 809
f 789 787 809
f 789 809 808
f 791 789 808
f 791 808 796
f 787 812 810
f 787 810 809
f 813 807 809
f 813 809 810
f 813 810 811
f 812 816 811
f 812 811 810
f 814 805 807
f 814 807 813
f 816 814 813
f 816 813 811
f 816 817 818
f 816 818 1145
f 816 1145 815
f 816 815 814
f 815 1159 805
f 815 805 814
f 812 1138 819
f 812 819 817
f 812 817 816
f 818 817 820
f 818 820 822
f 817 819 821
f 817 821 820
f 820 821 824
f 820 824 823
f 822 820 823
f 822 823 825
f 823 824 829
f 823 829 174
f 825 823 174
f 825 174 176
f 826 825 176
f 826 176 178
f 827 822 825
f 827 825 826
f 506 827 826
f 506 826 502
f 502 826 178
f 502 178 500
f 538 818 822
f 538 822 827
f 510 538 827
f 510 827 506
f 828 824 821
f 828 821 1143
f 830 829 824
f 830 824 828
f 832 173 829
f 832 829 830
f 831 830 828
f 831 828 836
f 834 832 830
f 834 830 831
f 833 167 173
f 833 173 832
f 157 833 832
f 157 832 834
f 153 834 831
f 153 831 835
f 835 831 836
f 835 836 838
f 836 828 1143
f 836 1143 837
f 838 836 837
f 838 837 839
f 840 838 839
f 840 839 140
f 149 835 838
f 149 838 840
f 869 870 140
f 869 140 839
f 869 839 841
f 869 841 843
f 842 841 839
f 842 839 837
f 842 837 908
f 842 908 907
f 841 842 846
f 841 846 844
f 843 841 844
f 843 844 845
f 846 845 844
f 842 849 847
f 842 847 846
f 850 845 846
f 850 846 847
f 849 902 848
f 849 848 847
f 852 850 847
f 852 847 848
f 851 843 845
f 851 845 850
f 854 851 850
f 854 850 852
f 853 852 848
f 853 848 899
f 856 854 852
f 856 852 853
f 855 868 851
f 855 851 854
f 858 855 854
f 858 854 856
f 857 856 853
f 857 853 896
f 859 858 856
f 859 856 857
f 858 859 861
f 858 861 860
f 855 858 860
f 855 860 863
f 873 862 860
f 873 860 861
f 862 864 863
f 862 863 860
f 864 866 865
f 864 865 863
f 868 855 863
f 868 863 865
f 866 872 867
f 866 867 865
f 869 868 865
f 869 865 867
f 869 843 851
f 869 851 868
f 870 869 867
f 870 867 871
f 86 870 871
f 86 871 872
f 867 872 871
f 83 86 872
f 83 872 866
f 80 83 866
f 80 866 864
f 78 80 864
f 78 864 862
f 875 78 862
f 875 862 873
f 861 889 874
f 861 874 873
f 876 875 873
f 876 873 874
f 877 77 875
f 877 875 876
f 881 877 876
f 881 876 878
f 878 876 874
f 878 874 879
f 880 878 879
f 880 879 882
f 881 878 880
f 881 880 47
f 51 1144 877
f 51 877 881
f 46 880 882
f 46 882 883
f 883 882 884
f 883 884 885
f 887 884 882
f 887 882 879
f 886 991 885
f 886 885 884
f 888 886 884
f 888 884 887
f 890 888 887
f 890 887 889
f 889 887 879
f 889 879 874
f 859 890 889
f 859 889 861
f 888 890 891
f 888 891 892
f 890 859 857
f 890 857 891
f 892 891 893
f 892 893 894
f 891 857 896
f 891 896 893
f 895 998 894
f 895 894 893
f 897 895 893
f 897 893 896
f 896 853 899
f 896 899 897
f 898 1001 895
f 898 895 897
f 900 898 897
f 900 897 899
f 902 900 899
f 902 899 848
f 898 900 901
f 898 901 931
f 900 902 903
f 900 903 901
f 902 849 905
f 902 905 903
f 903 905 906
f 903 906 904
f 901 903 904
f 901 904 929
f 842 907 905
f 842 905 849
f 905 907 909
f 905 909 906
f 907 908 911
f 907 911 909
f 906 909 910
f 906 910 913
f 910 909 911
f 908 912 910
f 908 910 911
f 912 915 913
f 912 913 910
f 915 916 914
f 915 914 913
f 904 906 913
f 904 913 914
f 912 918 917
f 912 917 915
f 916 915 917
f 916 917 920
f 917 918 1141
f 917 1141 919
f 920 917 919
f 920 919 921
f 922 920 921
f 922 921 923
f 925 916 920
f 925 920 922
f 924 922 923
f 924 923 946
f 926 925 922
f 926 922 924
f 925 926 928
f 925 928 927
f 916 925 927
f 916 927 914
f 930 929 927
f 930 927 928
f 929 904 914
f 929 914 927
f 931 901 929
f 931 929 930
f 933 931 930
f 933 930 932
f 928 934 932
f 928 932 930
f 936 933 932
f 936 932 935
f 934 938 935
f 934 935 932
f 961 936 935
f 961 935 937
f 938 939 937
f 938 937 935
f 940 941 939
f 940 939 938
f 943 940 938
f 943 938 934
f 940 942 951
f 940 951 941
f 940 943 944
f 940 944 942
f 943 926 924
f 943 924 944
f 926 943 934
f 926 934 928
f 942 944 945
f 942 945 948
f 944 924 946
f 944 946 945
f 1130 947 945
f 1130 945 946
f 947 769 948
f 947 948 945
f 769 767 949
f 769 949 948
f 951 942 948
f 951 948 949
f 950 949 767
f 950 767 763
f 952 951 949
f 952 949 950
f 952 953 941
f 952 941 951
f 756 952 950
f 756 950 758
f 954 953 952
f 954 952 756
f 941 953 955
f 941 955 939
f 953 954 956
f 953 956 955
f 955 956 958
f 955 958 957
f 957 937 939
f 957 939 955
f 962 959 957
f 962 957 958
f 959 961 937
f 959 937 957
f 959 960 999
f 959 999 961
f 964 960 959
f 964 959 962
f 964 962 963
f 964 963 965
f 963 962 958
f 963 958 1129
f 960 964 966
f 960 966 967
f 964 965 969
f 964 969 966
f 967 966 968
f 967 968 995
f 966 969 970
f 966 970 968
f 965 973 971
f 965 971 969
f 969 971 972
f 969 972 970
f 726 972 971
f 726 971 729
f 973 731 729
f 973 729 971
f 745 731 973
f 745 973 974
f 965 963 974
f 965 974 973
f 974 963 1129
f 974 1129 744
f 975 976 970
f 975 970 972
f 978 975 972
f 978 972 726
f 989 976 975
f 989 975 977
f 978 979 977
f 978 977 975
f 978 727 980
f 978 980 979
f 979 980 982
f 979 982 981
f 977 979 981
f 977 981 984
f 1015 983 981
f 1015 981 982
f 983 985 984
f 983 984 981
f 986 984 985
f 986 985 987
f 989 977 984
f 989 984 986
f 988 986 987
f 988 987 1002
f 990 989 986
f 990 986 988
f 990 992 976
f 990 976 989
f 991 990 988
f 991 988 885
f 990 991 993
f 990 993 992
f 992 993 995
f 992 995 968
f 976 992 968
f 976 968 970
f 993 994 996
f 993 996 995
f 993 991 886
f 993 886 994
f 995 996 997
f 995 997 967
f 994 892 894
f 994 894 996
f 998 997 996
f 998 996 894
f 1000 999 997
f 1000 997 998
f 999 960 967
f 999 967 997
f 1000 936 961
f 1000 961 999
f 1000 1001 933
f 1000 933 936
f 1001 1000 998
f 1001 998 895
f 1001 898 931
f 1001 931 933
f 888 892 994
f 888 994 886
f 885 988 1002
f 885 1002 883
f 44 46 883
f 44 883 1002
f 42 44 1002
f 42 1002 987
f 1003 42 987
f 1003 987 985
f 1004 1003 985
f 1004 985 983
f 1004 1006 41
f 1004 41 1003
f 1005 1004 983
f 1005 983 1015
f 1004 1005 1008
f 1004 1008 1006
f 1008 1009 1007
f 1008 1007 1006
f 1006 1007 34
f 1006 34 41
f 1008 1005 1014
f 1008 1014 2
f 2 1010 1009
f 2 1009 1008
f 1011 35 1007
f 1011 1007 1009
f 1012 1011 1009
f 1012 1009 1010
f 26 28 35
f 26 35 1011
f 24 26 1011
f 24 1011 1012
f 20 24 1012
f 20 1012 1013
f 1013 1012 1010
f 1013 1010 4
f 15 1013 4
f 15 4 6
f 1014 1005 1015
f 1014 1015 1016
f 982 1018 1016
f 982 1016 1015
f 3 1014 1016
f 3 1016 1017
f 1018 1019 1017
f 1018 1017 1016
f 1020 720 1019
f 1020 1019 1018
f 980 1020 1018
f 980 1018 982
f 980 727 719
f 980 719 1020
f 1022 1017 1019
f 1022 1019 1021
f 720 716 1021
f 720 1021 1019
f 1025 1022 1021
f 1025 1021 1023
f 716 714 1023
f 716 1023 1021
f 714 712 1024
f 714 1024 1023
f 1026 1025 1023
f 1026 1023 1024
f 9 7 1022
f 9 1022 1025
f 1028 9 1025
f 1028 1025 1026
f 1026 1024 1027
f 1029 1028 1026
f 1029 1026 1027
f 1028 1029 1030
f 1028 1030 1032
f 1028 1032 10
f 712 1029 1027
f 712 1027 1024
f 1031 1085 1033
f 1031 1033 1030
f 1030 1034 1036
f 1030 1036 1032
f 1030 1033 1035
f 1030 1035 1034
f 1034 1035 1039
f 1034 1039 1037
f 1034 1037 127
f 1034 127 1036
f 1037 1038 129
f 1037 129 127
f 1037 1039 1041
f 1037 1041 1038
f 1035 1052 1040
f 1035 1040 1039
f 1039 1040 1043
f 1039 1043 1041
f 1038 1041 1042
f 1038 1042 1128
f 1041 1043 1044
f 1041 1044 1042
f 1040 1048 1045
f 1040 1045 1043
f 1043 1045 1046
f 1043 1046 1044
f 1045 1047 1065
f 1045 1065 1046
f 1048 1049 1047
f 1048 1047 1045
f 1052 1050 1048
f 1052 1048 1040
f 1050 1053 1049
f 1050 1049 1048
f 1051 1054 1053
f 1051 1053 1050
f 1086 1051 1050
f 1086 1050 1052
f 1056 1055 1053
f 1056 1053 1054
f 1055 1058 1049
f 1055 1049 1053
f 1075 1057 1055
f 1075 1055 1056
f 1057 1059 1058
f 1057 1058 1055
f 1059 1061 1060
f 1059 1060 1058
f 1058 1060 1047
f 1058 1047 1049
f 1061 1063 1062
f 1061 1062 1060
f 1047 1060 1062
f 1047 1062 1065
f 1063 1074 1064
f 1063 1064 1062
f 1062 1064 1066
f 1062 1066 1065
f 1046 1065 1066
f 1046 1066 1067
f 1067 1066 1068
f 1067 1068 146
f 1064 1069 1068
f 1064 1068 1066
f 1068 1069 1071
f 1068 1071 151
f 1074 1070 1069
f 1074 1069 1064
f 1070 1072 1071
f 1070 1071 1069
f 1072 1073 155
f 1072 155 1071
f 1044 1046 1067
f 1044 1067 147
f 1076 1075 1056
f 1076 1056 1078
f 1077 1076 1078
f 1077 1078 1079
f 1078 1080 1081
f 1078 1081 1079
f 1056 1054 1080
f 1056 1080 1078
f 1083 1081 1080
f 1083 1080 1082
f 1082 1080 1054
f 1082 1054 1051
f 1087 1083 1082
f 1087 1082 1084
f 1084 1082 1051
f 1084 1051 1086
f 1085 1084 1086
f 1085 1086 1033
f 1088 1087 1084
f 1088 1084 1085
f 1090 1089 1087
f 1090 1087 1088
f 1089 1092 1083
f 1089 1083 1087
f 1121 1091 1089
f 1121 1089 1090
f 1091 1094 1092
f 1091 1092 1089
f 1092 1093 1081
f 1092 1081 1083
f 1094 1096 1093
f 1094 1093 1092
f 1119 1095 1094
f 1119 1094 1091
f 1095 1098 1096
f 1095 1096 1094
f 1093 1096 1097
f 1093 1097 1127
f 1096 1098 1100
f 1096 1100 1097
f 1117 1099 1098
f 1117 1098 1095
f 1101 1100 1098
f 1101 1098 1099
f 1102 1103 1097
f 1102 1097 1100
f 1104 1102 1100
f 1104 1100 1101
f 1105 1104 1101
f 1105 1101 1106
f 1107 1105 1106
f 1107 1106 1109
f 1108 1107 1109
f 1108 1109 1110
f 1112 1110 1109
f 1112 1109 1111
f 1114 1111 1109
f 1114 1109 1106
f 1113 205 1112
f 1113 1112 1111
f 1113 1111 1114
f 1113 1114 1115
f 1115 1114 1099
f 1115 1099 1117
f 1106 1101 1099
f 1106 1099 1114
f 1116 1115 1117
f 1116 1117 1118
f 209 1113 1115
f 209 1115 1116
f 1118 1117 1095
f 1118 1095 1119
f 213 1116 1118
f 213 1118 220
f 220 1118 1119
f 220 1119 1120
f 1120 1119 1091
f 1120 1091 1121
f 221 1120 1121
f 221 1121 1122
f 1122 1121 1090
f 1122 1090 1123
f 223 221 1122
f 223 1122 667
f 1123 1090 1088
f 1123 1088 1124
f 676 672 1123
f 676 1123 1124
f 676 1124 701
f 676 701 697
f 1124 1088 1085
f 1124 1085 1031
f 198 1110 1112
f 198 1112 200
f 1125 1108 1110
f 1125 1110 198
f 1103 1126 1127
f 1103 1127 1097
f 1126 1077 1079
f 1126 1079 1127
f 1079 1081 1093
f 1079 1093 1127
f 1033 1086 1052
f 1033 1052 1035
f 1042 1044 147
f 1042 147 144
f 1128 1042 144
f 1128 144 142
f 1038 1128 131
f 1038 131 129
f 1128 142 133
f 1128 133 131
f 124 122 1032
f 124 1032 1036
f 122 12 10
f 122 10 1032
f 7 3 1017
f 7 1017 1022
f 956 749 1129
f 956 1129 958
f 954 751 749
f 954 749 956
f 776 770 947
f 776 947 1130
f 946 923 1131
f 946 1131 1130
f 1132 776 1130
f 1132 1130 1131
f 1135 1132 1131
f 1135 1131 1133
f 923 921 1133
f 923 1133 1131
f 921 919 1134
f 921 1134 1133
f 1136 1135 1133
f 1136 1133 1134
f 1135 1136 1138
f 1135 1138 786
f 1135 786 782
f 1132 1135 782
f 1132 782 775
f 1137 1136 1134
f 1137 1134 1140
f 1137 819 1138
f 1137 1138 1136
f 1139 1137 1140
f 1139 1140 1142
f 1137 1139 1143
f 1137 1143 821
f 1137 821 819
f 919 1141 1140
f 919 1140 1134
f 1140 1141 1142
f 918 1139 1142
f 918 1142 1141
f 1139 918 912
f 1139 912 908
f 1139 908 837
f 1139 837 1143
f 877 1144 75
f 877 75 77
f 53 65 1144
f 53 1144 51
f 65 67 75
f 65 75 1144
f 815 1145 1147
f 815 1147 1148
f 1145 1146 1149
f 1145 1149 1147
f 1149 1148 1147
f 1146 1152 1150
f 1146 1150 1149
f 1151 1148 1149
f 1151 1149 1150
f 1156 1151 1150
f 1156 1150 1153
f 1152 1154 1153
f 1152 1153 1150
f 1154 557 1155
f 1154 1155 1153
f 1157 1156 1153
f 1157 1153 1155
f 802 804 1156
f 802 1156 1157
f 804 1159 1151
f 804 1151 1156
f 1155 556 1158
f 1155 1158 1157
f 800 802 1157
f 800 1157 1158
f 1160 800 1158
f 1160 1158 560
f 1154 1152 543
f 1154 543 547
f 557 1154 547
f 557 547 550
f 543 1152 1146
f 543 1146 539
f 1159 815 1148
f 1159 1148 1151
f 793 586 590
f 793 590 773
f 1180 754 761
f 1180 761 1161
f 1162 1163 1161
f 1162 1161 761
f 1167 1163 1162
f 1167 1162 1164
f 760 1165 1164
f 760 1164 1162
f 1164 1165 595
f 1164 595 1166
f 1167 1164 1166
f 1167 1166 1169
f 1168 1167 1169
f 1168 1169 1170
f 1167 1168 1171
f 1167 1171 1163
f 1170 1169 634
f 1170 634 636
f 1169 1166 599
f 1169 599 634
f 1172 1168 1170
f 1172 1170 641
f 1171 1168 1172
f 1171 1172 1173
f 1173 1172 645
f 1173 645 1174
f 1173 1174 1176
f 1173 1176 1175
f 1171 1173 1175
f 1171 1175 1178
f 1175 1176 680
f 1175 680 1177
f 1178 1175 1177
f 1178 1177 1179
f 1163 1171 1178
f 1163 1178 1161
f 1179 1180 1161
f 1179 1161 1178
f 1181 753 1180
f 1181 1180 1179
f 685 1181 1179
f 685 1179 1177
f 1182 1181 685
f 1182 685 687
f 753 1181 1182
f 753 1182 747
f 1182 687 690
f 1182 690 742
f 1174 669 681
f 1174 681 1176
f 669 1174 645
f 669 645 647
f 697 695 678
f 697 678 676
f 1184 1183 619
f 1184 619 617
f 1183 242 240
f 1183 240 619
f 248 1183 1184
f 248 1184 255
f 1185 1184 617
f 1185 617 615
f 1185 258 255
f 1185 255 1184
f 263 1185 615
f 263 615 1186
f 265 263 1186
f 265 1186 562
f 529 527 549
f 529 549 546
f 531 529 546
f 531 546 544
f 278 526 524
f 278 524 281
f 1188 1187 181
f 1188 181 169
f 1190 1189 1191
f 1190 1191 1371
f 1189 1192 1193
f 1189 1193 1191
f 1192 1194 1195
f 1192 1195 1193
f 1194 1196 1197
f 1194 1197 1195
f 1196 1198 1199
f 1196 1199 1197
f 1198 1200 1201
f 1198 1201 1199
f 1200 1202 1203
f 1200 1203 1201
f 1202 1204 1205
f 1202 1205 1203
f 1204 1206 1207
f 1204 1207 1205
f 1206 1208 1210
f 1206 1210 1207
f 1208 1209 1212
f 1208 1212 1210
f 1211 1488 1207
f 1211 1207 1210
f 1213 1211 1210
f 1213 1210 1212
f 1216 1213 1212
f 1216 1212 1214
f 1209 1217 1214
f 1209 1214 1212
f 1217 1218 1215
f 1217 1215 1214
f 1534 1216 1214
f 1534 1214 1215
f 1218 1219 1220
f 1218 1220 1215
f 1219 1221 1222
f 1219 1222 1220
f 1221 1223 1225
f 1221 1225 1222
f 1223 1224 1226
f 1223 1226 1225
f 1228 1227 1225
f 1228 1225 1226
f 1227 1229 1222
f 1227 1222 1225
f 1228 1232 1230
f 1228 1230 1227
f 1227 1230 1234
f 1227 1234 1229
f 1233 1230 1231
f 1233 1231 1240
f 1249 1231 1230
f 1249 1230 1232
f 1230 1233 1237
f 1230 1237 1234
f 1229 1234 1235
f 1229 1235 1535
f 1236 1537 1235
f 1236 1235 1234
f 1238 1236 1234
f 1238 1234 1237
f 1240 1238 1237
f 1240 1237 1233
f 1239 1538 1236
f 1239 1236 1238
f 1241 1239 1238
f 1241 1238 1240
f 1242 1241 1240
f 1242 1240 1231
f 1248 1244 1241
f 1248 1241 1242
f 1241 1243 1297
f 1241 1297 1239
f 1244 1246 1243
f 1244 1243 1241
f 1245 1244 1247
f 1245 1247 1250
f 1245 1289 1246
f 1245 1246 1244
f 1244 1248 1249
f 1244 1249 1247
f 1248 1242 1231
f 1248 1231 1249
f 1247 1249 1232
f 1247 1232 1251
f 1250 1247 1251
f 1250 1251 1252
f 1253 1252 1251
f 1253 1251 1232
f 1252 1253 1255
f 1252 1255 1250
f 1254 1253 1232
f 1254 1232 1228
f 1258 1256 1253
f 1258 1253 1254
f 1257 1255 1253
f 1257 1253 1256
f 1261 1257 1256
f 1261 1256 1260
f 1472 1259 1256
f 1472 1256 1258
f 1259 1262 1260
f 1259 1260 1256
f 1263 1261 1260
f 1263 1260 1262
f 1262 1259 1265
f 1262 1265 1263
f 1266 1264 1263
f 1266 1263 1265
f 1264 1290 1261
f 1264 1261 1263
f 1269 1266 1265
f 1269 1265 1267
f 1267 1265 1259
f 1267 1259 1270
f 1268 1267 1270
f 1268 1270 1273
f 1278 1269 1267
f 1278 1267 1268
f 1393 1272 1270
f 1393 1270 1271
f 1271 1270 1259
f 1271 1259 1472
f 1272 1274 1273
f 1272 1273 1270
f 1275 1268 1273
f 1275 1273 1274
f 1274 1272 1276
f 1274 1276 1275
f 1279 1277 1275
f 1279 1275 1276
f 1277 1278 1268
f 1277 1268 1275
f 1277 1281 1284
f 1277 1284 1278
f 1464 1280 1277
f 1464 1277 1279
f 1280 1282 1281
f 1280 1281 1277
f 1281 1282 1414
f 1281 1414 1283
f 1284 1281 1283
f 1284 1283 1285
f 1278 1284 1286
f 1278 1286 1264
f 1286 1284 1285
f 1286 1285 1287
f 1288 1286 1287
f 1288 1287 1291
f 1264 1286 1288
f 1264 1288 1290
f 1290 1288 1289
f 1290 1289 1245
f 1289 1288 1291
f 1289 1291 1292
f 1246 1289 1292
f 1246 1292 1293
f 1243 1246 1293
f 1243 1293 1294
f 1297 1243 1294
f 1297 1294 1295
f 1298 1297 1295
f 1298 1295 1296
f 1239 1297 1298
f 1239 1298 1300
f 1299 1298 1296
f 1299 1296 1528
f 1300 1298 1299
f 1300 1299 1303
f 1538 1239 1300
f 1538 1300 1301
f 1301 1300 1302
f 1301 1302 1537
f 1300 1303 1304
f 1300 1304 1302
f 1303 1299 1529
f 1303 1529 1305
f 1303 1306 1307
f 1303 1307 1304
f 1306 1303 1305
f 1306 1305 1308
f 1306 1308 1309
f 1306 1309 1307
f 1308 1305 1310
f 1308 1310 1309
f 1313 1311 1309
f 1313 1309 1310
f 1307 1309 1311
f 1307 1311 1312
f 1534 1312 1311
f 1534 1311 1216
f 1311 1313 1316
f 1311 1316 1314
f 1216 1311 1314
f 1216 1314 1213
f 1213 1314 1317
f 1213 1317 1211
f 1315 1320 1317
f 1315 1317 1314
f 1530 1315 1314
f 1530 1314 1316
f 1211 1317 1318
f 1211 1318 1488
f 1317 1319 1532
f 1317 1532 1318
f 1319 1317 1320
f 1319 1320 1322
f 1321 1324 1322
f 1321 1322 1320
f 1531 1321 1320
f 1531 1320 1315
f 1322 1323 1532
f 1322 1532 1319
f 1324 1326 1323
f 1324 1323 1322
f 1325 1329 1327
f 1325 1327 1324
f 1531 1325 1324
f 1531 1324 1321
f 1324 1327 1328
f 1324 1328 1326
f 1328 1327 1330
f 1328 1330 1332
f 1327 1329 1331
f 1327 1331 1330
f 1334 1328 1332
f 1334 1332 1333
f 1337 1334 1333
f 1337 1333 1335
f 1339 1337 1335
f 1339 1335 1336
f 1494 1334 1337
f 1494 1337 1338
f 1338 1337 1339
f 1338 1339 1340
f 1340 1339 1341
f 1340 1341 1342
f 1341 1339 1336
f 1341 1336 1344
f 1342 1341 1343
f 1342 1343 1508
f 1343 1341 1344
f 1343 1344 1345
f 1347 1343 1345
f 1347 1345 1346
f 1350 1347 1346
f 1350 1346 1348
f 1352 1350 1348
f 1352 1348 1349
f 1510 1347 1350
f 1510 1350 1351
f 1351 1350 1352
f 1351 1352 1353
f 1354 1352 1349
f 1354 1349 1356
f 1353 1352 1354
f 1353 1354 1357
f 1355 1354 1356
f 1355 1356 1461
f 1357 1354 1355
f 1357 1355 1359
f 1521 1353 1357
f 1521 1357 1358
f 1358 1357 1360
f 1358 1360 1361
f 1357 1359 1362
f 1357 1362 1360
f 1363 1365 1361
f 1363 1361 1360
f 1360 1362 1364
f 1360 1364 1363
f 1365 1363 1364
f 1365 1364 1366
f 1368 1365 1366
f 1368 1366 1370
f 1520 1361 1365
f 1520 1365 1367
f 1369 1367 1365
f 1369 1365 1368
f 1369 1368 1371
f 1369 1371 1191
f 1368 1370 1372
f 1368 1372 1371
f 1374 1190 1371
f 1374 1371 1372
f 1370 1453 1373
f 1370 1373 1372
f 1375 1374 1372
f 1375 1372 1373
f 1376 1375 1373
f 1376 1373 1377
f 1378 1376 1377
f 1378 1377 1379
f 1380 1378 1379
f 1380 1379 1381
f 1382 1380 1381
f 1382 1381 1383
f 1384 1382 1383
f 1384 1383 1385
f 1386 1384 1385
f 1386 1385 1388
f 1387 1386 1388
f 1387 1388 1390
f 1437 1389 1388
f 1437 1388 1385
f 1389 1392 1390
f 1389 1390 1388
f 1392 1393 1391
f 1392 1391 1390
f 1466 1387 1390
f 1466 1390 1391
f 1392 1394 1272
f 1392 1272 1393
f 1389 1395 1394
f 1389 1394 1392
f 1395 1399 1397
f 1395 1397 1394
f 1396 1276 1272
f 1396 1272 1394
f 1398 1396 1394
f 1398 1394 1397
f 1400 1398 1397
f 1400 1397 1399
f 1399 1395 1402
f 1399 1402 1400
f 1401 1280 1398
f 1401 1398 1400
f 1404 1401 1400
f 1404 1400 1402
f 1403 1402 1395
f 1403 1395 1436
f 1405 1404 1402
f 1405 1402 1403
f 1405 1406 1401
f 1405 1401 1404
f 1406 1405 1403
f 1406 1403 1407
f 1408 1406 1407
f 1408 1407 1433
f 1408 1410 1409
f 1408 1409 1406
f 1406 1409 1412
f 1406 1412 1401
f 1409 1410 1415
f 1409 1415 1411
f 1412 1409 1411
f 1412 1411 1413
f 1282 1412 1413
f 1282 1413 1414
f 1401 1412 1282
f 1401 1282 1280
f 1410 1417 1416
f 1410 1416 1415
f 1417 1420 1418
f 1417 1418 1416
f 1420 1421 1419
f 1420 1419 1418
f 1423 1421 1420
f 1423 1420 1422
f 1422 1420 1417
f 1422 1417 1426
f 1463 1423 1422
f 1463 1422 1424
f 1424 1422 1425
f 1424 1425 1445
f 1422 1426 1427
f 1422 1427 1425
f 1426 1417 1410
f 1426 1410 1408
f 1426 1428 1429
f 1426 1429 1427
f 1428 1426 1408
f 1428 1408 1430
f 1428 1430 1431
f 1428 1431 1429
f 1430 1408 1433
f 1430 1433 1431
f 1429 1431 1432
f 1429 1432 1441
f 1434 1432 1431
f 1434 1431 1433
f 1433 1407 1435
f 1433 1435 1434
f 1432 1434 1435
f 1432 1435 1436
f 1407 1403 1436
f 1407 1436 1435
f 1438 1432 1436
f 1438 1436 1437
f 1437 1436 1395
f 1437 1395 1389
f 1438 1437 1385
f 1438 1385 1383
f 1439 1438 1383
f 1439 1383 1381
f 1439 1441 1432
f 1439 1432 1438
f 1440 1439 1381
f 1440 1381 1379
f 1440 1442 1441
f 1440 1441 1439
f 1427 1429 1441
f 1427 1441 1443
f 1442 1444 1443
f 1442 1443 1441
f 1425 1427 1443
f 1425 1443 1444
f 1444 1442 1445
f 1444 1445 1425
f 1447 1446 1442
f 1447 1442 1440
f 1448 1445 1442
f 1448 1442 1446
f 1453 1450 1446
f 1453 1446 1447
f 1462 1448 1446
f 1462 1446 1449
f 1450 1451 1449
f 1450 1449 1446
f 1454 1452 1450
f 1454 1450 1366
f 1370 1366 1450
f 1370 1450 1453
f 1451 1450 1452
f 1451 1452 1455
f 1453 1447 1377
f 1453 1377 1373
f 1458 1456 1452
f 1458 1452 1454
f 1456 1457 1455
f 1456 1455 1452
f 1458 1359 1457
f 1458 1457 1456
f 1359 1458 1454
f 1359 1454 1362
f 1359 1355 1459
f 1359 1459 1457
f 1457 1459 1421
f 1457 1421 1423
f 1457 1423 1462
f 1457 1462 1455
f 1421 1459 1460
f 1421 1460 1419
f 1459 1355 1461
f 1459 1461 1460
f 1455 1462 1449
f 1455 1449 1451
f 1423 1463 1448
f 1423 1448 1462
f 1362 1454 1366
f 1362 1366 1364
f 1463 1424 1445
f 1463 1445 1448
f 1447 1440 1379
f 1447 1379 1377
f 1280 1464 1396
f 1280 1396 1398
f 1464 1279 1276
f 1464 1276 1396
f 1393 1271 1465
f 1393 1465 1391
f 1467 1466 1391
f 1467 1391 1465
f 1468 1467 1465
f 1468 1465 1470
f 1469 1468 1470
f 1469 1470 1471
f 1472 1258 1471
f 1472 1471 1470
f 1271 1472 1470
f 1271 1470 1465
f 1474 1469 1471
f 1474 1471 1473
f 1258 1254 1473
f 1258 1473 1471
f 1254 1228 1226
f 1254 1226 1473
f 1224 1474 1473
f 1224 1473 1226
f 1475 1369 1191
f 1475 1191 1193
f 1475 1476 1367
f 1475 1367 1369
f 1477 1475 1193
f 1477 1193 1195
f 1477 1478 1476
f 1477 1476 1475
f 1479 1477 1195
f 1479 1195 1197
f 1479 1480 1478
f 1479 1478 1477
f 1481 1479 1197
f 1481 1197 1199
f 1481 1482 1480
f 1481 1480 1479
f 1483 1484 1482
f 1483 1482 1481
f 1483 1481 1199
f 1483 1199 1201
f 1485 1486 1484
f 1485 1484 1483
f 1485 1483 1201
f 1485 1201 1203
f 1487 1489 1486
f 1487 1486 1485
f 1487 1485 1203
f 1487 1203 1205
f 1488 1487 1205
f 1488 1205 1207
f 1488 1318 1489
f 1488 1489 1487
f 1491 1489 1490
f 1491 1490 1493
f 1526 1490 1489
f 1526 1489 1318
f 1489 1491 1492
f 1489 1492 1486
f 1493 1495 1492
f 1493 1492 1491
f 1524 1494 1493
f 1524 1493 1490
f 1494 1338 1495
f 1494 1495 1493
f 1338 1498 1496
f 1338 1496 1495
f 1495 1496 1486
f 1495 1486 1492
f 1496 1497 1484
f 1496 1484 1486
f 1498 1499 1497
f 1498 1497 1496
f 1498 1338 1340
f 1498 1340 1499
f 1499 1340 1500
f 1499 1500 1497
f 1502 1484 1497
f 1502 1497 1500
f 1500 1501 1503
f 1500 1503 1502
f 1340 1342 1501
f 1340 1501 1500
f 1484 1502 1503
f 1484 1503 1482
f 1501 1504 1482
f 1501 1482 1503
f 1342 1506 1504
f 1342 1504 1501
f 1506 1507 1505
f 1506 1505 1504
f 1504 1505 1480
f 1504 1480 1482
f 1506 1342 1508
f 1506 1508 1507
f 1507 1508 1509
f 1507 1509 1505
f 1508 1343 1347
f 1508 1347 1510
f 1508 1510 1511
f 1508 1511 1509
f 1510 1512 1513
f 1510 1513 1511
f 1512 1510 1351
f 1512 1351 1514
f 1512 1514 1515
f 1512 1515 1513
f 1514 1351 1516
f 1514 1516 1515
f 1513 1515 1476
f 1513 1476 1478
f 1518 1476 1515
f 1518 1515 1516
f 1351 1353 1517
f 1351 1517 1516
f 1516 1517 1519
f 1516 1519 1518
f 1476 1518 1519
f 1476 1519 1367
f 1367 1519 1517
f 1367 1517 1520
f 1353 1521 1520
f 1353 1520 1517
f 1521 1358 1361
f 1521 1361 1520
f 1511 1513 1478
f 1511 1478 1522
f 1509 1511 1522
f 1509 1522 1523
f 1480 1523 1522
f 1480 1522 1478
f 1523 1480 1505
f 1523 1505 1509
f 1525 1326 1494
f 1525 1494 1524
f 1326 1328 1334
f 1326 1334 1494
f 1525 1524 1490
f 1525 1490 1526
f 1326 1525 1526
f 1326 1526 1323
f 1323 1526 1318
f 1323 1318 1532
f 1329 1529 1527
f 1329 1527 1331
f 1529 1299 1528
f 1529 1528 1527
f 1305 1529 1329
f 1305 1329 1325
f 1325 1531 1315
f 1325 1315 1530
f 1305 1325 1530
f 1305 1530 1310
f 1310 1530 1316
f 1310 1316 1313
f 1304 1307 1312
f 1304 1312 1533
f 1235 1536 1533
f 1235 1533 1312
f 1535 1235 1312
f 1535 1312 1534
f 1535 1534 1215
f 1535 1215 1220
f 1229 1535 1220
f 1229 1220 1222
f 1302 1304 1533
f 1302 1533 1536
f 1536 1235 1537
f 1536 1537 1302
f 1538 1301 1537
f 1538 1537 1236
f 1539 1290 1245
f 1539 1245 1540
f 1290 1539 1257
f 1290 1257 1261
f 1539 1540 1255
f 1539 1255 1257
f 1540 1245 1250
f 1540 1250 1255
f 1269 1278 1264
f 1269 1264 1266
