# Arm6_L: 1540 verts, 2930 tris
v 0.02389013 0.04490280 0.01309459
v 0.01936696 0.04865584 0.00590378
v 0.02537977 0.04058463 0.00984762
v 0.02106373 0.04949333 0.01579060
v 0.02656133 0.03995332 0.02098401
v 0.02392456 0.04501187 0.02271654
v 0.02817413 0.03562629 0.01780739
v 0.02743017 0.03416776 0.02911570
v 0.02955896 0.02995259 0.02602985
v 0.02658293 0.02798830 0.03694426
v 0.02500617 0.03981489 0.02974976
v 0.02430293 0.03428349 0.03651622
v 0.02438213 0.04071561 0.02971612
v 0.02287256 0.04097564 0.02954489
v 0.02374293 0.03541295 0.03636843
v 0.02328693 0.04564009 0.02281274
v 0.02044456 0.04986582 0.01602246
v 0.02187574 0.04565844 0.02288742
v 0.01921337 0.04964406 0.01638685
v 0.01650298 0.04366011 0.02307179
v 0.01735656 0.03964993 0.02876835
v 0.01429575 0.04696486 0.01768500
v 0.01061176 0.04945112 0.01270145
v 0.01476457 0.05264526 0.01036551
v 0.00563096 0.05117479 0.00812019
v -0.00011941 0.05207496 0.00426621
v 0.00893415 0.05466264 0.00500202
v 0.00994137 0.05529984 0.00408944
v 0.00220136 0.05571717 0.00049063
v 0.00293578 0.05635140 -0.00052551
v -0.00516344 0.05561163 -0.00277240
v -0.01291861 0.05419253 -0.00445664
v -0.00621701 0.05198752 0.00156427
v -0.00478902 0.05618646 -0.00386924
v -0.00450502 0.05614335 -0.00444951
v -0.01289620 0.05475888 -0.00570634
v -0.02098102 0.05220449 -0.00603272
v -0.01277303 0.05468602 -0.00632445
v -0.02102102 0.05208275 -0.00666032
v -0.01110420 0.05019866 -0.01088246
v -0.00233703 0.05189984 -0.00891145
v -0.00967860 0.04584599 -0.01411399
v -0.01989459 0.04727391 -0.01123161
v -0.01849779 0.04290759 -0.01445821
v -0.02817939 0.04334724 -0.01000242
v -0.02680419 0.03896833 -0.01322355
v -0.03542741 0.03864026 -0.00723002
v -0.02880901 0.04850275 -0.00548393
v -0.03569939 0.04411862 -0.00282148
v -0.02862342 0.04870136 -0.00489209
v -0.03538902 0.04440290 -0.00228642
v -0.02809943 0.04834358 -0.00366856
v -0.03461459 0.04426509 -0.00124206
v -0.02562340 0.04580936 0.00084311
v -0.02070102 0.05167993 -0.00469704
v -0.01929621 0.04866306 -0.00003721
v -0.01264100 0.05081151 0.00016766
v -0.03101938 0.04243145 0.00285263
v -0.03532899 0.03851044 0.00609482
v -0.03981941 0.03952789 0.00267339
v -0.03861702 0.03412879 0.01041605
v -0.04366901 0.03439767 0.00773193
v -0.04072258 0.02967735 0.01536171
v -0.04613299 0.02918674 0.01352261
v -0.04132340 0.02554342 0.02056499
v -0.04025218 0.02180077 0.02600954
v -0.04686100 0.02419417 0.01980978
v -0.04556899 0.01968088 0.02638098
v -0.04797060 0.02354579 0.01952494
v -0.04822098 0.02284954 0.01932475
v -0.04736180 0.02877894 0.01293539
v -0.04663300 0.01874447 0.02638779
v -0.04353377 0.01459298 0.03318578
v -0.04670739 0.01785588 0.02630914
v -0.04340417 0.01351747 0.03322452
v -0.04513537 0.01146532 0.02430506
v -0.04396741 0.00688698 0.02124273
v -0.04113462 0.00693589 0.03227664
v -0.04728500 0.01659748 0.01642318
v -0.04590818 0.01218763 0.01324314
v -0.04727380 0.02211613 0.00907144
v -0.04517858 0.02778794 0.00252333
v -0.04773938 0.02822766 0.01262043
v -0.04583699 0.01775857 0.00585139
v -0.04296820 0.01820870 0.00650691
v -0.04377300 0.02341685 -0.00069431
v -0.04106419 0.02344898 0.00045335
v -0.03979380 0.02899382 -0.00620520
v -0.04117219 0.03337482 -0.00298804
v -0.03741062 0.02857768 -0.00460725
v -0.03406098 0.03425570 -0.01044777
v -0.03216341 0.03341358 -0.00848646
v -0.02548579 0.03777157 -0.01102821
v -0.03154100 0.03146872 -0.00992768
v -0.02485861 0.03582659 -0.01246687
v -0.03345058 0.03230182 -0.01188290
v -0.03678820 0.02663283 -0.00604844
v -0.04043457 0.02150605 -0.00098675
v -0.03917778 0.02704186 -0.00763924
v -0.03806098 0.02350643 -0.01023664
v -0.04314658 0.02146978 -0.00212900
v -0.04200899 0.01794239 -0.00472715
v -0.04519617 0.01581653 0.00441688
v -0.04528977 0.01022559 0.01182551
v -0.04403297 0.01229978 0.00181800
v -0.04232661 0.01626907 0.00506914
v -0.04240019 0.01099839 0.01197170
v -0.04301779 0.01295775 0.01339432
v -0.04063380 0.00583598 0.01949585
v -0.04115541 0.00786148 0.02086927
v -0.03669942 0.00095213 0.02760280
v -0.04344260 0.00485708 0.01987982
v -0.04247539 0.00117433 0.01739539
v -0.03935940 -0.00009760 0.02848026
v -0.03414338 -0.00408954 0.03636656
v -0.03866899 -0.00400744 0.02612370
v -0.03395622 -0.00816869 0.03390312
v -0.03593061 -0.00307852 0.02534201
v -0.03130501 -0.00728602 0.03284042
v -0.03963220 0.00208210 0.01709723
v -0.03558820 -0.00517214 0.02401422
v -0.03832581 -0.00610072 0.02479999
v -0.03122419 -0.00939248 0.03149813
v -0.03910902 0.00005459 0.01572275
v -0.04195058 -0.00085474 0.01603226
v -0.04064500 0.00546306 0.00802239
v -0.04353859 0.00471581 0.00783341
v -0.04126742 0.00742111 0.00944625
v -0.04052260 0.01081098 0.00103806
v -0.04116580 0.01275011 0.00247681
v -0.03866498 0.01603939 -0.00502447
v -0.04339058 0.01035833 0.00038246
v -0.04215061 0.00662112 -0.00238217
v -0.04138019 0.01599556 -0.00616107
v -0.03744338 0.02155544 -0.01167014
v -0.04016578 0.01224734 -0.00892322
v -0.03624981 0.01779894 -0.01443231
v -0.03745058 0.01229451 -0.00778678
v -0.03928339 0.00707032 -0.00171885
v -0.03681619 0.01035336 -0.00922660
v -0.03386181 0.01739253 -0.01283812
v -0.02864660 0.02221476 -0.01671575
v -0.03323462 0.01545020 -0.01427925
v -0.03562901 0.01584878 -0.01586605
v -0.02801941 0.02027088 -0.01815641
v -0.02131943 0.02464018 -0.02070491
v -0.02993062 0.02110017 -0.02011301
v -0.02265142 0.02582914 -0.02289871
v -0.02869142 0.01717881 -0.02299505
v -0.02678979 0.01634409 -0.02103430
v -0.03437941 0.01193148 -0.01874849
v -0.02140502 0.02191260 -0.02578390
v -0.02008580 0.02071800 -0.02358670
v -0.01301703 0.02589521 -0.02703831
v -0.01230421 0.02442873 -0.02473985
v -0.01428103 0.02980143 -0.02414835
v -0.00409384 0.02888833 -0.02671480
v -0.00402184 0.02721903 -0.02443452
v -0.00538102 0.03278255 -0.02382038
v 0.00479659 0.03065266 -0.02476955
v 0.00348777 0.03453666 -0.02187038
v 0.01312616 0.03099887 -0.02120476
v 0.00417975 0.02885640 -0.02263899
v 0.00483898 0.02692445 -0.02407906
v 0.01183255 0.02917810 -0.01936012
v 0.01249736 0.02724901 -0.02080190
v 0.01864617 0.02819579 -0.01475103
v 0.02052457 0.02993008 -0.01620357
v 0.02431814 0.02594838 -0.00900895
v 0.01931255 0.02626771 -0.01619477
v 0.02498533 0.02402162 -0.01045393
v 0.02118776 0.02800308 -0.01764932
v 0.01378534 0.02906959 -0.02264983
v 0.02253015 0.02410001 -0.02057867
v 0.02732536 0.02557172 -0.01144229
v 0.03186776 0.02182950 -0.00425726
v 0.02867333 0.02167176 -0.01437258
v 0.02633254 0.02012206 -0.01338518
v 0.03321892 0.01793173 -0.00718820
v 0.03059093 0.01660080 -0.00665037
v 0.03662134 0.01293045 0.00112215
v 0.03516694 0.01683675 0.00399287
v 0.03390533 0.01170248 0.00144757
v 0.03735572 0.01138903 0.00136417
v 0.04044934 0.00663431 0.00919818
v 0.03733893 0.01100186 -0.00029556
v 0.03463575 0.01016122 0.00165945
v 0.03462216 0.00977448 0.00002886
v 0.03125893 0.01467549 -0.00809581
v 0.03388616 0.01600606 -0.00863518
v 0.02699973 0.01819552 -0.01482941
v 0.02132137 0.02043751 -0.02056734
v 0.02933895 0.01974682 -0.01581978
v 0.02319414 0.02217302 -0.02202442
v 0.03070933 0.01578212 -0.01879821
v 0.03526055 0.01204341 -0.01161508
v 0.02837016 0.01423118 -0.01780963
v 0.02455976 0.01820603 -0.02500218
v 0.02268693 0.01647030 -0.02354584
v 0.01713655 0.01926018 -0.02999646
v 0.01577895 0.02323305 -0.02702131
v 0.01585176 0.01743901 -0.02814751
v 0.00876296 0.01889116 -0.03355100
v 0.00815738 0.01709606 -0.03141661
v 0.00742057 0.02287123 -0.03057972
v -0.00019065 0.01709242 -0.03548253
v -0.00011063 0.01542595 -0.03320144
v -0.00151301 0.02108459 -0.03251572
v -0.00918341 0.01406457 -0.03579139
v -0.01048183 0.01806769 -0.03282955
v -0.00846744 0.01259932 -0.03349414
v -0.01762580 0.01005221 -0.03452466
v -0.01890582 0.01406601 -0.03156604
v -0.01630582 0.00885819 -0.03232848
v -0.02493142 0.00530556 -0.03172858
v -0.02302741 0.00447239 -0.02976830
v -0.03059061 0.00006573 -0.02747929
v -0.02620500 0.00932356 -0.02877290
v -0.03187459 0.00408194 -0.02452391
v -0.02429141 0.00849786 -0.02681824
v -0.02947300 0.00369060 -0.02294346
v -0.01757383 0.01287765 -0.02937324
v -0.02492021 0.01044092 -0.02537733
v -0.02682260 0.01127515 -0.02733708
v -0.03010262 0.00563294 -0.02150233
v -0.01820740 0.01482058 -0.02793314
v -0.01952743 0.01601532 -0.03012953
v -0.01039700 0.01854610 -0.02909242
v -0.01111140 0.02001208 -0.03138988
v -0.00207863 0.02135534 -0.02879363
v -0.00975623 0.01660592 -0.03053168
v -0.00142661 0.01941908 -0.03023410
v 0.00681656 0.02107637 -0.02844455
v 0.01449497 0.02141211 -0.02517161
v 0.00615739 0.02300855 -0.02700372
v 0.00676855 0.02480435 -0.02913581
v 0.01383098 0.02334129 -0.02372985
v 0.01511977 0.02516233 -0.02557624
v 0.02065494 0.02236463 -0.01912414
v -0.00215383 0.02302286 -0.03107419
v 0.00544857 0.02871978 -0.02621268
v -0.00345302 0.02694947 -0.02815530
v -0.00337143 0.02528300 -0.02587422
v -0.01238742 0.02395128 -0.02847645
v -0.02078423 0.01996352 -0.02721965
v -0.01166420 0.02248854 -0.02617914
v -0.01945299 0.01877539 -0.02502608
v -0.02616180 0.01440093 -0.02247518
v -0.02807382 0.01522827 -0.02443036
v -0.03135942 0.00958669 -0.01859913
v -0.03490980 0.00450510 -0.01355111
v -0.03375700 0.00998108 -0.02018300
v -0.03198822 0.01152902 -0.01715801
v -0.03554580 0.00644624 -0.01211129
v -0.03826339 0.00639184 -0.01324134
v -0.03734262 0.00122866 -0.00603532
v -0.03757060 -0.00428165 0.00111168
v -0.04020898 0.00078156 -0.00670261
v -0.03669698 -0.00070951 -0.00747352
v -0.03956258 -0.00115893 -0.00813761
v -0.03694818 -0.00624019 -0.00031119
v -0.03984740 -0.00692174 -0.00059272
v -0.03601620 -0.01213147 0.00782733
v -0.03327859 -0.01734713 0.01596170
v -0.03653062 -0.01010082 0.00919835
v -0.03889139 -0.01297766 0.00794729
v -0.03782742 -0.01710872 0.00517617
v -0.03607381 -0.01832468 0.01643300
v -0.03466342 -0.02330532 0.01280433
v -0.03270019 -0.02273803 0.02395008
v -0.03248981 -0.02227982 0.02560423
v -0.02993782 -0.02174016 0.02335231
v -0.03139060 -0.02775183 0.02031385
v -0.02851461 -0.03117791 0.02627040
v -0.02891062 -0.03348180 0.01588850
v -0.03151062 -0.02945643 0.00926479
v -0.02569541 -0.03878467 0.01160165
v -0.02591380 -0.03686839 0.02185148
v -0.02229222 -0.04207032 0.01762777
v -0.02422503 -0.03830413 0.02633418
v -0.02691701 -0.03258993 0.03079607
v -0.02313379 -0.03959418 0.02876073
v -0.02035860 -0.04347155 0.02205911
v -0.01922340 -0.04457675 0.02453015
v -0.01539382 -0.04801296 0.01825195
v -0.00927300 -0.05168015 0.01538429
v -0.01750659 -0.04736692 0.01339504
v -0.01422424 -0.04880906 0.02073416
v -0.01358742 -0.04955411 0.02236619
v -0.00824022 -0.05210135 0.01767985
v -0.00765462 -0.05271227 0.01920539
v -0.00142422 -0.05426409 0.01558325
v -0.00204583 -0.05405087 0.01393872
v 0.00585336 -0.05517643 0.01424076
v -0.00096183 -0.05478587 0.01687798
v 0.00618538 -0.05565252 0.01529109
v -0.00049301 -0.05567322 0.01833484
v -0.00002661 -0.05700293 0.02097891
v -0.00715542 -0.05365618 0.02076035
v 0.00662059 -0.05648466 0.01664271
v 0.01386936 -0.05598496 0.01556269
v 0.00705017 -0.05734236 0.01860787
v 0.01428698 -0.05643435 0.01698936
v 0.00791734 -0.05060326 0.02267777
v 0.00231098 -0.05033394 0.02455604
v 0.01365016 -0.04988467 0.02139550
v 0.01928938 -0.04820613 0.02075780
v 0.02461974 -0.04563237 0.02079088
v 0.02140615 -0.05431573 0.01618459
v 0.02093017 -0.05406829 0.01497766
v 0.02813413 -0.05106761 0.01622643
v 0.03421174 -0.04681336 0.01711283
v 0.02750694 -0.05069878 0.01481240
v 0.03338453 -0.04611042 0.01516928
v 0.02709977 -0.04990522 0.01353759
v 0.02052457 -0.05329354 0.01373194
v 0.02688534 -0.04942739 0.01262044
v 0.03297016 -0.04526955 0.01381587
v 0.03794695 -0.03970343 0.01473507
v 0.03278777 -0.04473418 0.01275435
v 0.03781095 -0.03905249 0.01341975
v 0.03283974 -0.04442229 0.01164746
v 0.02685177 -0.04919865 0.01181106
v 0.03308135 -0.04436431 0.01025535
v 0.03800136 -0.03851648 0.01171794
v 0.03841573 -0.03830380 0.00931568
v 0.04199415 -0.03179734 0.01254826
v 0.04302693 -0.03010581 0.00752543
v 0.04437733 -0.02483839 0.01495406
v 0.04171096 -0.03273689 0.01492585
v 0.04427653 -0.02613161 0.01751109
v 0.04183493 -0.03352963 0.01648035
v 0.04226695 -0.03449893 0.01803966
v 0.04446292 -0.02705163 0.01917002
v 0.04491253 -0.02806813 0.02078616
v 0.04578772 -0.02049822 0.02263577
v 0.04578934 -0.01407454 0.02663790
v 0.04551091 -0.01948355 0.02096669
v 0.04625411 -0.02154293 0.02427465
v 0.04790611 -0.02345677 0.02796490
v 0.04626613 -0.01513175 0.02828222
v 0.04492293 -0.00904592 0.03258851
v 0.04801493 -0.01715812 0.03198216
v 0.04670935 -0.01115783 0.03623739
v 0.04036852 -0.01876930 0.03327224
v 0.03933492 -0.01401593 0.03664358
v 0.04028216 -0.02375897 0.03008999
v 0.03907896 -0.02879354 0.02721880
v 0.04638691 -0.02981084 0.02434037
v 0.03680535 -0.03367810 0.02476946
v 0.03354932 -0.03822580 0.02283601
v 0.04351736 -0.03597719 0.02124915
v 0.03940612 -0.04171824 0.01880840
v 0.03836933 -0.04060887 0.01619572
v 0.02943413 -0.04226200 0.02149273
v 0.03722054 -0.00968182 0.04007376
v 0.04404054 -0.00568536 0.04056832
v 0.03410693 -0.00593247 0.04343222
v 0.04011012 -0.00095329 0.04480762
v 0.03011333 -0.00291242 0.04658957
v 0.03507014 0.00285903 0.04879303
v 0.02539494 -0.00073875 0.04942323
v 0.02911255 0.00560382 0.05237021
v 0.02013094 0.00050707 0.05182663
v 0.02246854 0.00717583 0.05540299
v 0.01452454 0.00077567 0.05370512
v 0.01539176 0.00751453 0.05777424
v 0.00879177 0.00005707 0.05498739
v 0.00815495 0.00660734 0.05939251
v 0.00315255 -0.00162097 0.05562409
v 0.00103578 0.00448863 0.06019731
v -0.00217782 -0.00419546 0.05559124
v -0.00569225 0.00123969 0.06015569
v -0.00699225 -0.00756511 0.05488914
v -0.01176982 -0.00301374 0.05926907
v -0.01110744 -0.01160130 0.05354589
v -0.01696424 -0.00810959 0.05757372
v -0.01436343 -0.01614890 0.05161241
v -0.02107543 -0.01385073 0.05513300
v -0.01663703 -0.02103438 0.04916334
v -0.02394499 -0.02001626 0.05204152
v -0.01784024 -0.02606813 0.04629190
v -0.01792659 -0.03105757 0.04311044
v -0.02546419 -0.02637106 0.04841722
v -0.02557300 -0.03266898 0.04439973
v -0.02597860 -0.02364341 0.04490342
v -0.02650422 -0.02259507 0.04328517
v -0.02601942 -0.02995388 0.04074765
v -0.02455939 -0.01739016 0.04879234
v -0.02508901 -0.01635526 0.04721241
v -0.02176260 -0.01149112 0.05231853
v -0.01763219 -0.00619945 0.05536367
v -0.02228102 -0.01049228 0.05080462
v -0.02300500 -0.00949753 0.04956269
v -0.01811780 -0.00526500 0.05394106
v -0.01283941 -0.00073889 0.05638993
v -0.01870341 -0.00441185 0.05289143
v -0.01967062 -0.00327389 0.05192969
v -0.01325783 -0.00004408 0.05550257
v -0.00705142 0.00366671 0.05708858
v -0.01380343 0.00072074 0.05486901
v -0.01451940 0.00177218 0.05440717
v -0.00737701 0.00423740 0.05658714
v -0.00779224 0.00494976 0.05624518
v -0.00058022 0.00722321 0.05693626
v 0.00644139 0.00958753 0.05583257
v -0.00034343 0.00669219 0.05741404
v -0.00084263 0.00786806 0.05661718
v -0.00118581 0.00874028 0.05633391
v 0.00624136 0.01037735 0.05548979
v 0.00598615 0.01145730 0.05519148
v 0.01327494 0.01252302 0.05290786
v 0.01349814 0.01129317 0.05337923
v 0.02007177 0.01441512 0.04885734
v 0.01291178 0.01415970 0.05256356
v 0.01924217 0.01710091 0.04848393
v 0.01191495 0.01907326 0.05176358
v 0.01758134 0.02368020 0.04778714
v 0.01158455 0.02012157 0.05142969
v 0.00516938 0.01506186 0.05441800
v 0.00489258 0.01594015 0.05409114
v -0.00229784 0.01172982 0.05559644
v -0.00256425 0.01252060 0.05528428
v -0.01013460 0.00917969 0.05519272
v -0.01045704 0.01003639 0.05487488
v -0.00835304 0.00592252 0.05594913
v -0.01800742 0.00757386 0.05327988
v -0.01540260 0.00323127 0.05406132
v -0.02559141 0.00708729 0.04997555
v -0.01841940 0.00858163 0.05296156
v -0.02607220 0.00824242 0.04969131
v -0.01840662 0.00993675 0.05191924
v -0.01061220 0.01122741 0.05384530
v -0.01736583 0.01354602 0.04759709
v -0.02591942 0.00961890 0.04881386
v -0.03267062 0.01045644 0.04454175
v -0.02377943 0.01327037 0.04494190
v -0.02936343 0.01395954 0.04140479
v -0.03398259 0.01572824 0.03692024
v -0.03824661 0.01259183 0.03912928
v -0.03768418 0.01844962 0.03161923
v -0.04256980 0.01576916 0.03293531
v -0.03892581 0.01130924 0.03956980
v -0.03859460 0.01010662 0.03970791
v -0.03302658 0.00913097 0.04517820
v -0.03256019 0.00789820 0.04539896
v -0.02916659 0.00091784 0.04608473
v -0.02728098 -0.00604969 0.04439261
v -0.02227701 0.00107241 0.05068419
v -0.03568418 0.00326099 0.03980988
v -0.03446100 -0.00188928 0.03751593
v -0.03341382 -0.00336049 0.03784372
v -0.03983381 0.00204452 0.02969149
v -0.03197539 -0.00081640 0.03627214
v -0.03114899 -0.00224690 0.03629184
v -0.03166659 -0.00301506 0.03510891
v -0.03716662 0.00309455 0.02883482
v -0.02100023 -0.00147531 0.05107778
v -0.02443460 -0.00798019 0.04807785
v -0.02963141 -0.01240452 0.03954413
v -0.02727703 -0.01374183 0.04389351
v -0.03329380 -0.00969197 0.03415807
v -0.03034743 -0.01879734 0.03504052
v -0.03321379 -0.01601051 0.02993955
v -0.02997139 -0.02513687 0.03063030
v -0.02848023 -0.02003605 0.03959747
v -0.02834261 -0.02641858 0.03523029
v -0.02719940 -0.02155633 0.04175924
v -0.02583221 -0.01530958 0.04580387
v -0.02719062 -0.02788379 0.03752501
v -0.02582663 -0.03398457 0.03316391
v -0.02654022 -0.02890299 0.03911276
v -0.02519859 -0.03497775 0.03477974
v -0.02250661 -0.04054673 0.03039770
v -0.02468022 -0.03602525 0.03642028
v -0.02426742 -0.03867010 0.04014475
v -0.02198819 -0.04158791 0.03203969
v -0.01806902 -0.04647526 0.02781464
v -0.02159861 -0.04414151 0.03581434
v -0.01477861 -0.04014611 0.03630838
v -0.01766819 -0.04887463 0.03157452
v -0.01166501 -0.04389463 0.03294968
v -0.01262822 -0.05268663 0.02758987
v -0.00767222 -0.04691468 0.02979233
v -0.00667062 -0.05543069 0.02401246
v -0.01307382 -0.05054535 0.02397723
v -0.00295301 -0.04908940 0.02695813
v -0.01689300 -0.03581117 0.03973832
v -0.01858663 -0.04545041 0.02617927
v -0.03360742 -0.01652533 0.02830246
v -0.03046501 -0.01520282 0.02906577
v -0.03376258 -0.01446783 0.02971554
v -0.03771222 -0.01016377 0.02211028
v -0.03387778 -0.01027617 0.03255446
v -0.03101781 -0.01360416 0.02888335
v -0.03492258 -0.00926523 0.02147981
v -0.03086341 -0.01565950 0.02747214
v -0.03456819 -0.01131185 0.02009189
v -0.03756740 -0.00597050 0.01183101
v -0.03735778 -0.01221086 0.02072081
v -0.04043457 -0.00682478 0.01204366
v -0.03655141 -0.01632684 0.01785571
v -0.03375619 -0.01534952 0.01738364
v -0.03940742 -0.01094234 0.00930605
v -0.03308580 -0.02072623 0.02537776
v -0.03032258 -0.01973042 0.02478147
v -0.02970980 -0.02132818 0.02501374
v -0.04046981 -0.00496184 0.00082640
v -0.04171860 -0.00102068 0.00367993
v -0.03882101 -0.00030724 0.00391169
v -0.04150498 0.00467958 -0.00381771
v -0.03953459 0.01030100 -0.01035813
v -0.03863862 0.00513192 -0.00315783
v -0.03944261 0.00165154 0.00533533
v -0.04234020 0.00094004 0.00509879
v -0.03807938 -0.00393683 0.01320112
v -0.04094817 -0.00478791 0.01340195
v -0.03068979 -0.00883847 0.03297129
v -0.01070662 0.01465275 0.04924606
v -0.00436183 0.01657708 0.04963055
v 0.00157336 0.01938345 0.04860991
v -0.00295301 0.01354806 0.05430824
v 0.00420936 0.01693623 0.05307777
v 0.01065257 0.02112961 0.05041438
v 0.00708135 0.02296242 0.04633081
v 0.01613095 0.02581432 0.04663759
v 0.01718376 0.02487868 0.04748315
v 0.02016775 0.03080740 0.04180595
v 0.01176136 0.02695920 0.04310171
v 0.01510217 0.03108618 0.03910213
v 0.01692455 0.03533553 0.03428432
v 0.02236697 0.03593722 0.03599045
v 0.02133496 0.03003912 0.04240296
v 0.02181017 0.02879568 0.04264113
v 0.02391336 0.02199644 0.04364160
v 0.02714774 0.01561391 0.04182226
v 0.02925173 0.02157495 0.03489274
v 0.03274213 0.01244524 0.03656637
v 0.02684056 0.01188497 0.04526886
v 0.03249894 0.00942242 0.04061128
v 0.02038615 0.01224156 0.04974052
v 0.02694775 0.00986217 0.04681767
v 0.03266937 0.00736534 0.04258658
v 0.02720773 0.00868977 0.04808060
v 0.02053416 0.01079393 0.05073639
v 0.01367734 0.01039366 0.05402335
v 0.02079093 0.00981717 0.05179991
v 0.02123015 0.00886417 0.05322475
v 0.01394537 0.00964290 0.05491674
v 0.00691656 0.00835214 0.05714126
v 0.01437176 0.00877110 0.05624524
v 0.00733255 0.00753928 0.05839933
v 0.00035738 0.00532084 0.05942724
v -0.00630503 0.00225252 0.05915064
v -0.00005704 0.00611263 0.05819642
v -0.00672903 0.00306410 0.05789130
v -0.01239061 -0.00160233 0.05771840
v 0.00664137 0.00897198 0.05633753
v 0.02765977 0.00766627 0.04959862
v 0.03342696 0.00508596 0.04559994
v 0.03834453 0.00128974 0.04136318
v 0.03296214 0.00614599 0.04401743
v 0.03786932 0.00235745 0.03974242
v 0.03753572 0.00353532 0.03819622
v 0.04175492 -0.00243057 0.03535371
v 0.04223495 -0.00349676 0.03699070
v 0.04444375 -0.00798290 0.03094660
v 0.04139653 -0.00129909 0.03375049
v 0.04103895 0.00047434 0.03141123
v 0.04408212 -0.00688726 0.02931574
v 0.04545331 -0.01300900 0.02498519
v 0.04371972 -0.00521136 0.02690814
v 0.04515572 -0.01141122 0.02251510
v 0.04328375 -0.00255905 0.02282379
v 0.04250932 0.00170465 0.01676576
v 0.04071813 0.00303946 0.02723702
v 0.04477492 -0.00869156 0.01845722
v 0.04520693 -0.01516220 0.01438235
v 0.04343496 -0.00468262 0.01246603
v 0.04434214 -0.01089769 0.00827979
v 0.04261013 0.00010131 0.00568948
v 0.03972774 -0.00072013 0.00569502
v 0.04271493 -0.00022188 0.00401463
v 0.04215975 0.00173314 0.00546446
v 0.03881574 0.00703151 -0.00321546
v 0.03935252 0.00069973 0.00567603
v 0.03608452 0.00584235 -0.00287500
v 0.03990694 -0.00125630 0.00422816
v 0.03680135 0.00391425 -0.00429370
v 0.03330695 0.00878022 -0.01250973
v 0.03953253 0.00510342 -0.00463414
v 0.04095092 0.00128939 -0.00743745
v 0.03592774 0.01011896 -0.01306328
v 0.03724533 0.00631245 -0.01592484
v 0.03137495 0.01385635 -0.02024519
v 0.03269016 0.01004807 -0.02310703
v 0.02522294 0.01627871 -0.02644868
v 0.02903735 0.01230465 -0.01925385
v 0.02335336 0.01454244 -0.02498885
v 0.01651657 0.01550993 -0.02958928
v 0.00881656 0.01516378 -0.03285743
v 0.01779578 0.01733081 -0.03144150
v 0.00941494 0.01695805 -0.03499491
v 0.01909735 0.01351555 -0.03429872
v 0.02653334 0.01246778 -0.02930806
v 0.01070298 0.01313380 -0.03784860
v 0.01781738 0.01169411 -0.03244803
v 0.02466294 0.01073105 -0.02784976
v 0.01010216 0.01133988 -0.03571290
v 0.01848214 0.00976493 -0.03388979
v 0.01076215 0.00940760 -0.03715372
v 0.01975734 0.01158618 -0.03574376
v 0.02533013 0.00880393 -0.02929296
v 0.03101975 0.00657024 -0.02356087
v 0.02719733 0.01054079 -0.03075381
v 0.03335573 0.00812253 -0.02455323
v 0.02861816 0.00642119 -0.03384679
v 0.03478132 0.00400531 -0.02764692
v 0.02674934 0.00468465 -0.03238521
v 0.02116854 0.00746020 -0.03883314
v 0.01989257 0.00563968 -0.03697939
v 0.01275256 0.00706740 -0.04237802
v 0.01215656 0.00527419 -0.04024001
v 0.00373339 0.00523612 -0.04429555
v 0.01135495 0.01120164 -0.03929198
v 0.00235819 0.00938058 -0.04121426
v 0.00245179 0.00771792 -0.03893180
v -0.00668020 0.00632791 -0.04151395
v -0.00595141 0.00486901 -0.03921778
v -0.00532823 0.00217218 -0.04459099
v -0.01515860 0.00229730 -0.04023836
v -0.01382503 -0.00186888 -0.04331142
v -0.01382579 0.00110967 -0.03804578
v -0.02247700 -0.00245756 -0.03743647
v -0.02114982 -0.00662867 -0.04050638
v -0.02056102 -0.00328226 -0.03548378
v -0.02811702 -0.00769108 -0.03318574
v -0.02570981 -0.00807435 -0.03161190
v -0.02678102 -0.01186027 -0.03625456
v -0.03189538 -0.01318942 -0.02768268
v -0.03053702 -0.01734861 -0.03075203
v -0.02916420 -0.01311024 -0.02657849
v -0.03370979 -0.01874681 -0.02115157
v -0.03232420 -0.02289558 -0.02422236
v -0.03423541 -0.02470884 -0.01345546
v -0.03084500 -0.01830886 -0.02047567
v -0.03136099 -0.02391711 -0.01318546
v -0.03149140 -0.01637019 -0.01903844
v -0.02980021 -0.01116983 -0.02513845
v -0.03435619 -0.01680586 -0.01971503
v -0.03197139 -0.02195570 -0.01176431
v -0.03484581 -0.02274223 -0.01203921
v -0.03042339 -0.02723833 -0.00373006
v -0.02704581 -0.03198532 0.00442335
v -0.02963060 -0.02910465 -0.00519328
v -0.03316739 -0.02844476 -0.00362673
v -0.03472340 -0.02474858 -0.00072936
v -0.02966898 -0.03341205 0.00468004
v -0.03143862 -0.02978911 0.00758362
v -0.02878903 -0.03487287 0.00489273
v -0.02878021 -0.03523564 0.00321979
v -0.02619861 -0.03339123 0.00461862
v -0.02615698 -0.03380818 0.00296288
v -0.02687462 -0.03915569 0.00008165
v -0.03237622 -0.03030894 -0.00509144
v -0.03067062 -0.03429229 -0.00823138
v -0.02799061 -0.03295515 -0.00838583
v -0.03295062 -0.02893011 -0.01648099
v -0.03010338 -0.02803597 -0.01622352
v -0.02939542 -0.02994128 -0.01767497
v -0.02946819 -0.02244110 -0.02352471
v -0.02882260 -0.02438073 -0.02496247
v -0.02780503 -0.01727034 -0.02965087
v -0.02437619 -0.01224787 -0.03467859
v -0.02717141 -0.01921172 -0.03109147
v -0.02374901 -0.01419044 -0.03612047
v -0.02990583 -0.01929649 -0.03218645
v -0.02616023 -0.01380984 -0.03768932
v -0.02877858 -0.02279461 -0.03476254
v -0.03168018 -0.02483629 -0.02565813
v -0.03052738 -0.02832482 -0.02823541
v -0.03224342 -0.03083204 -0.01793513
v -0.03077939 -0.03412810 -0.02062232
v -0.02984422 -0.03611063 -0.00973498
v -0.02830022 -0.03931287 -0.01251565
v -0.02594822 -0.04091730 -0.00143072
v -0.02716101 -0.03477833 -0.00988632
v -0.02339863 -0.03937578 -0.00173879
v -0.02432579 -0.03761284 -0.00022764
v -0.02340740 -0.03892153 -0.00011687
v -0.02588261 -0.04055842 0.00027096
v -0.02179860 -0.04421274 0.00711610
v -0.01828579 -0.04880728 0.00282025
v -0.01137700 -0.05182345 0.01017978
v -0.01687784 -0.05068030 -0.00041249
v -0.02308739 -0.04531180 -0.00416080
v -0.02418903 -0.04401261 -0.00427793
v -0.02077702 -0.04348127 -0.00463545
v -0.02328180 -0.04561894 -0.00599006
v -0.02082981 -0.04393817 -0.00633515
v -0.02745622 -0.04104605 -0.01411932
v -0.02226819 -0.04742700 -0.00821292
v -0.02619141 -0.04361435 -0.01665176
v -0.01984662 -0.05388145 -0.01683931
v -0.02312020 -0.04996968 -0.02402202
v -0.01951379 -0.05415637 -0.01792205
v -0.01505460 -0.05697442 -0.01018027
v -0.01488423 -0.05727756 -0.01147008
v -0.00898261 -0.05908720 -0.00449052
v -0.00894580 -0.05938304 -0.00587530
v -0.00189143 -0.06008580 -0.00014306
v -0.01023702 -0.05328052 0.00563075
v -0.00267063 -0.05501461 0.00877874
v 0.00517095 -0.05558168 0.01007294
v -0.00263224 -0.05424536 0.01161587
v 0.00530456 -0.05515283 0.01181534
v 0.01295336 -0.05461254 0.01165647
v 0.00554618 -0.05501135 0.01316230
v 0.01303814 -0.05455752 0.01257828
v 0.01319335 -0.05473607 0.01337671
v 0.02020214 -0.05263113 0.01212484
v 0.02029173 -0.05283490 0.01285651
v 0.02022617 -0.05262245 0.01130914
v 0.02697737 -0.04916395 0.01086802
v 0.02032936 -0.05275084 0.01024654
v 0.02723176 -0.04927422 0.00962780
v 0.02174294 -0.05622504 0.00459314
v 0.01291097 -0.05484768 0.01044809
v 0.01386054 -0.05865703 0.00437857
v 0.00585254 -0.05994369 0.00280644
v 0.01382855 -0.05874695 0.00335532
v 0.01380375 -0.05817552 0.00186760
v 0.02173574 -0.05628716 0.00365342
v 0.00580777 -0.06009404 0.00161591
v -0.00192185 -0.06031854 -0.00147919
v 0.00599016 -0.05946481 0.00001801
v 0.00699738 -0.05587680 -0.00433034
v -0.00155464 -0.05977308 -0.00300838
v -0.00834103 -0.05894722 -0.00722514
v 0.00055336 -0.05613660 -0.00691090
v -0.00506182 -0.05544844 -0.01039589
v -0.00971060 -0.05372313 -0.01486904
v -0.01395144 -0.05686635 -0.01262450
v -0.01344103 -0.05107099 -0.02018926
v -0.01830820 -0.05376545 -0.01883638
v -0.01604022 -0.04779494 -0.02582893
v -0.01714663 -0.04411845 -0.03131283
v -0.02134422 -0.04993791 -0.02542043
v -0.02268022 -0.04550117 -0.03203205
v -0.02263383 -0.05021132 -0.02483403
v -0.02400902 -0.04560723 -0.03181872
v -0.02346662 -0.04052607 -0.03851282
v -0.02463859 -0.04539623 -0.03127989
v -0.02835620 -0.03926963 -0.02502220
v -0.02422823 -0.04033780 -0.03819361
v -0.02196983 -0.03504415 -0.04446048
v -0.02851542 -0.03444332 -0.03275496
v -0.02988742 -0.03026709 -0.02967073
v -0.02667302 -0.02931517 -0.03956768
v -0.02289699 -0.02409794 -0.04525164
v -0.02815059 -0.02474168 -0.03619723
v -0.02443460 -0.01926650 -0.04169912
v -0.02541140 -0.02465442 -0.03511049
v -0.02604259 -0.02271255 -0.03367089
v -0.02703222 -0.02974094 -0.02900723
v -0.02201942 -0.01964573 -0.04013402
v -0.01690263 -0.01486578 -0.04400224
v -0.02264503 -0.01770184 -0.03869337
v -0.01752900 -0.01292093 -0.04256102
v -0.02505301 -0.01731610 -0.04026461
v -0.01943702 -0.01208985 -0.04451733
v -0.02053303 -0.00858003 -0.04194144
v -0.01210341 -0.00732286 -0.04732622
v -0.01320662 -0.00381870 -0.04474695
v -0.00357943 -0.00326797 -0.04861248
v -0.01078100 -0.00851637 -0.04513104
v -0.00285783 -0.00473085 -0.04631595
v -0.01015062 -0.01046076 -0.04657070
v -0.00221863 -0.00667176 -0.04775499
v -0.01148581 -0.00927290 -0.04876250
v -0.00295225 -0.00521286 -0.05005117
v -0.00989942 -0.01424741 -0.05242896
v -0.01882261 -0.01404121 -0.04595240
v -0.01725301 -0.01899933 -0.04959788
v -0.01249380 -0.02479551 -0.05395479
v -0.00561862 -0.02035880 -0.05667572
v -0.01801061 -0.02977557 -0.04980560
v -0.01171622 -0.02505336 -0.05394801
v -0.01063943 -0.02553835 -0.05326521
v -0.00497704 -0.02072028 -0.05661094
v -0.01715941 -0.02997402 -0.04986772
v -0.02112183 -0.03522247 -0.04462227
v -0.01580023 -0.03028144 -0.04930784
v -0.01129060 -0.03125539 -0.04590041
v -0.01959542 -0.03539634 -0.04420713
v -0.02200421 -0.04056844 -0.03836802
v -0.01452980 -0.03562102 -0.04154554
v -0.01658663 -0.04003595 -0.03655912
v -0.00702024 -0.02733069 -0.04917460
v -0.00164505 -0.02393574 -0.05122437
v -0.00414982 -0.02144129 -0.05574075
v 0.00467576 -0.02105212 -0.05214714
v 0.01133254 -0.01886038 -0.05197874
v 0.00323819 -0.01806929 -0.05682010
v 0.01101979 -0.01550963 -0.05662316
v 0.00266699 -0.01715465 -0.05780722
v 0.01077417 -0.01452037 -0.05753167
v 0.00220775 -0.01667286 -0.05790245
v -0.00135942 -0.01013148 -0.05369019
v 0.01052297 -0.01393695 -0.05761164
v 0.01886776 -0.01234834 -0.05577798
v 0.00775179 -0.00695868 -0.05335820
v 0.01681817 -0.00503317 -0.05141064
v 0.00615414 -0.00212431 -0.04976563
v 0.01521576 -0.00027131 -0.04785633
v 0.00625738 -0.00378579 -0.04748187
v 0.00560855 -0.00184953 -0.04604142
v 0.01463335 -0.00206338 -0.04571451
v 0.01397574 -0.00013095 -0.04427288
v 0.02239497 -0.00168432 -0.04245880
v 0.02173173 0.00024486 -0.04101704
v 0.02926456 -0.00263068 -0.03786890
v 0.02366135 0.00013636 -0.04431763
v 0.02527253 -0.00458824 -0.04785642
v 0.03112694 -0.00089315 -0.03933579
v 0.03729893 -0.00330338 -0.03313930
v 0.03272773 -0.00555437 -0.04283355
v 0.03395416 -0.01301320 -0.04774333
v 0.03884536 -0.00779308 -0.03651168
v 0.03998695 -0.01512377 -0.04197988
v 0.04328452 -0.01115772 -0.02906371
v 0.04579735 -0.01550314 -0.02073986
v 0.04186454 -0.00703334 -0.02596048
v 0.04455176 -0.01829294 -0.03537136
v 0.04736614 -0.02239582 -0.02819867
v 0.04427815 -0.01890879 -0.03584485
v 0.04713412 -0.02294927 -0.02895001
v 0.03970695 -0.01580214 -0.04223142
v 0.04327493 -0.01976629 -0.03587856
v 0.03879414 -0.01683861 -0.04191114
v 0.04597254 -0.02367636 -0.02934648
v 0.03837415 -0.02245948 -0.03454360
v 0.04060932 -0.02569843 -0.02912989
v 0.03466536 -0.02003765 -0.03953863
v 0.02965976 -0.01836939 -0.04411237
v 0.03293334 -0.01488631 -0.04726584
v 0.02388375 -0.01751393 -0.04794284
v 0.02617175 -0.01388393 -0.05175064
v 0.01776698 -0.01764051 -0.05061374
v 0.01878374 -0.01403764 -0.05497658
v 0.01891415 -0.01300890 -0.05574075
v 0.02667815 -0.01276431 -0.05243779
v 0.03371974 -0.01372981 -0.04784463
v 0.02679975 -0.01205531 -0.05242277
v 0.04149495 -0.02964490 -0.02339154
v 0.04700775 -0.02828909 -0.02264498
v 0.04109736 -0.03390487 -0.01783350
v 0.03931652 -0.03813813 -0.01298712
v 0.04654455 -0.03326908 -0.01615269
v 0.04763494 -0.03285710 -0.01516145
v 0.04439335 -0.03837739 -0.01030191
v 0.04041334 -0.04340406 -0.00545678
v 0.04528695 -0.03819942 -0.00907795
v 0.04524694 -0.03789086 -0.00771205
v 0.04123092 -0.04346351 -0.00402830
v 0.04116932 -0.04325530 -0.00270148
v 0.03574053 -0.04840238 -0.00015225
v 0.03499256 -0.04815218 -0.00167423
v 0.02914216 -0.05276436 0.00245087
v 0.03569733 -0.04827791 0.00103271
v 0.02912456 -0.05269113 0.00347164
v 0.03344857 -0.04457639 0.00845588
v 0.03879653 -0.03887875 0.00641070
v 0.04296375 -0.03257980 0.00259722
v 0.04553733 -0.02639040 -0.00397170
v 0.04649172 -0.02064305 -0.01213032
v 0.04768214 -0.03245300 -0.01390544
v 0.04539495 -0.02337650 -0.00030025
v 0.04526773 -0.01746104 0.00387027
v 0.04582053 -0.01778506 -0.00754943
v 0.04602695 -0.01794684 -0.00938161
v 0.04572854 -0.01608981 -0.00771086
v 0.04285493 -0.01803372 -0.00778358
v 0.04277254 -0.01655484 -0.00777861
v 0.04307414 -0.01843283 -0.00943302
v 0.04213653 -0.01294537 -0.01748896
v 0.04169813 -0.01102818 -0.01591824
v 0.03921095 -0.00830034 -0.02539598
v 0.04500132 -0.01208315 -0.01770568
v 0.03854614 -0.00637407 -0.02395001
v 0.03496534 -0.00485511 -0.03214212
v 0.03430053 -0.00292834 -0.03069712
v 0.02859976 -0.00070355 -0.03642568
v 0.03663655 -0.00137771 -0.03169232
v 0.03046614 0.00103334 -0.03788906
v 0.03544613 0.00207954 -0.02909389
v 0.04120136 -0.00510840 -0.02451328
v 0.04457174 -0.01019241 -0.01611697
v 0.04000774 -0.00165174 -0.02191383
v 0.04379893 -0.00670078 -0.01334090
v 0.03738853 -0.00297311 -0.02131956
v 0.03311097 0.00052817 -0.02809847
v 0.04097572 -0.00768057 -0.01308200
v 0.03672134 -0.00104766 -0.01987333
v 0.03934136 0.00027248 -0.02046639
v 0.03244454 0.00245398 -0.02665403
v 0.04039655 -0.00574353 -0.01161420
v 0.04322215 -0.00476967 -0.01186797
v 0.04192215 -0.01117826 -0.00338615
v 0.04211336 -0.01269393 -0.00325552
v 0.04226375 -0.01316075 -0.00487450
v 0.04485011 -0.01054508 -0.00340090
v 0.04400773 -0.00620179 -0.00029187
v 0.04507175 -0.01224782 -0.00317288
v 0.04519172 -0.01252382 -0.00489038
v 0.04387656 -0.00588798 0.00137662
v 0.04112774 -0.00703352 -0.00018210
v 0.04167252 -0.00064006 -0.00885238
v 0.03791333 0.00438751 -0.01737204
v 0.03890372 -0.00175325 -0.00855659
v 0.03818375 0.00017406 -0.00714016
v 0.03529893 0.00304209 -0.01680729
v 0.03463174 0.00496753 -0.01536106
v 0.03035256 0.00849700 -0.02211589
v 0.04071332 -0.00503211 0.00125540
v 0.04359255 -0.00420037 0.00114565
v 0.04093576 -0.00644097 0.00129696
v 0.02741577 0.00275657 -0.03382896
v 0.02928054 0.00449420 -0.03529254
v 0.02055657 0.00370978 -0.03842093
v 0.01281574 0.00334273 -0.04168108
v 0.02182696 0.00553165 -0.04027843
v 0.02300455 0.00206541 -0.04287332
v 0.01340216 0.00513525 -0.04382137
v 0.01456616 0.00166180 -0.04641242
v 0.00437335 0.00329713 -0.04573683
v 0.00551575 -0.00018604 -0.04832410
v 0.00447177 0.00163542 -0.04345385
v -0.00470023 0.00022720 -0.04602965
v -0.00396901 -0.00123244 -0.04373328
v -0.00460821 0.00070848 -0.04229422
v -0.01187300 -0.00500656 -0.04255515
v -0.01250424 -0.00306217 -0.04111547
v -0.01861619 -0.00940340 -0.03998997
v -0.01924342 -0.00746107 -0.03854885
v 0.00382217 0.00357167 -0.04201340
v 0.04485655 -0.02249684 0.01038523
v 0.04839892 -0.02720260 -0.02088877
v 0.04824453 -0.02768875 -0.02192116
v 0.02859737 -0.05240501 0.00100543
v 0.02146218 -0.05583692 0.00227081
v 0.02593176 -0.04999862 -0.00346770
v 0.02002137 -0.05284351 -0.00241955
v 0.03139655 -0.04636067 -0.00575372
v 0.03602372 -0.04230019 -0.00898199
v 0.01367577 -0.05477890 -0.00275222
v -0.02767223 -0.02780154 -0.02757022
v -0.02713860 -0.03492245 -0.02188675
v -0.02483300 -0.03959938 -0.01426006
v -0.02994741 -0.03593461 -0.02213952
v -0.02797459 -0.03310051 -0.02038507
v -0.02568658 -0.03785171 -0.01266912
v -0.02174901 -0.04231785 -0.00463473
v 0.01345418 -0.05519450 0.01428882
v -0.02878259 -0.02840763 0.00741828
v -0.03195298 -0.02359994 -0.00073337
v -0.02887462 -0.02803546 0.00911678
v -0.02968100 -0.02658884 0.00887913
v -0.03233622 -0.02797114 0.00904472
v -0.03274658 -0.02173444 0.00073010
v -0.03551619 -0.02288586 0.00073579
v -0.03381698 -0.01614438 -0.00748465
v -0.03319939 -0.01810292 -0.00890752
v -0.03669379 -0.01689988 -0.00781153
v -0.03341301 -0.01058604 -0.01476563
v -0.03276661 -0.01252462 -0.01620289
v -0.03627699 -0.01102677 -0.01543985
v -0.03168581 -0.00538158 -0.02085769
v -0.03441141 -0.00544856 -0.02197393
v -0.02819303 -0.00032875 -0.02589539
v -0.03105062 -0.00732222 -0.02229848
v -0.03377860 -0.00739408 -0.02340909
v -0.02756422 -0.00227109 -0.02733652
v -0.02996820 -0.00188289 -0.02891349
v -0.02239941 0.00252900 -0.03120996
v -0.01567301 0.00691550 -0.03376783
v -0.02431382 0.00335525 -0.03316312
v -0.01700501 0.00810363 -0.03596138
v -0.02309541 -0.00050619 -0.03600140
v -0.02118982 -0.00133813 -0.03404234
v -0.01578020 0.00424661 -0.03880185
v -0.02874020 -0.00574173 -0.03175174
v -0.02633942 -0.00613201 -0.03017077
v -0.03252900 -0.01124382 -0.02624757
v -0.01445941 0.00305333 -0.03660590
v -0.00731063 0.00827279 -0.04007526
v 0.00171656 0.01131944 -0.03977375
v -0.00659223 0.00680910 -0.03777849
v -0.00855384 0.01211959 -0.03723005
v -0.00782662 0.01065923 -0.03493343
v 0.00045017 0.01515438 -0.03692328
v 0.00053977 0.01349066 -0.03464136
v 0.00180139 0.00965394 -0.03749211
v -0.03563221 -0.01296749 -0.01687563
v -0.03607538 -0.01886229 -0.00923072
v -0.03571542 -0.00144144 -0.01901833
v -0.03760822 -0.00703089 -0.01248252
v -0.03299139 -0.00137578 -0.01790084
v -0.03362739 0.00056550 -0.01646022
v -0.03474262 -0.00658378 -0.01181524
v -0.03507459 -0.01216035 -0.00454714
v -0.03538978 -0.00464489 -0.01037726
v -0.03825462 -0.00509017 -0.01104676
v -0.03569381 -0.01020099 -0.00312452
v -0.03858259 -0.01089235 -0.00347160
v -0.03496101 -0.01624120 0.00529293
v -0.03441699 -0.01768927 0.00534884
v -0.03430021 -0.01818474 0.00387555
v -0.03716581 -0.01905407 0.00376101
v -0.03796341 -0.01285381 -0.00489025
v -0.03723219 -0.01872014 0.00544932
v -0.03634899 0.00050407 -0.01758317
v -0.03249701 0.00603129 -0.02308991
v -0.03763139 0.00444550 -0.01467625
v 0.03263894 0.01070575 -0.01106354
v 0.04536934 -0.01799249 0.01843939
v 0.03715492 0.00810529 0.03180428
v 0.04016133 0.00667848 0.02211621
v 0.03953172 0.00822222 0.02189605
v 0.04046212 0.00642322 0.02043673
v 0.03742295 0.00549229 0.02183238
v 0.03771816 0.00522949 0.02024709
v 0.03678776 0.00702812 0.02170486
v 0.03504935 0.01228392 0.01405807
v 0.03588453 0.01036754 0.01268349
v 0.03173577 0.01752187 0.00569555
v 0.03777972 0.01352377 0.01399648
v 0.03444935 0.01876460 0.00541077
v 0.03586455 0.01730375 0.01676157
v 0.03315173 0.01603275 0.01661196
v 0.03300773 0.02263888 0.00825858
v 0.03738056 0.01176265 0.02489723
v 0.03470856 0.01047887 0.02445901
v 0.03690134 0.01193327 0.02657881
v 0.03425976 0.01064654 0.02599776
v 0.03624292 0.01343363 0.02636674
v 0.03357173 0.01214979 0.02592271
v 0.03492213 0.01917227 0.01812972
v 0.03378135 0.01667326 0.02932415
v 0.03310295 0.02279673 0.02078382
v 0.03310696 0.01675831 0.03099313
v 0.03112456 0.01549526 0.02861586
v 0.03036615 0.02162196 0.02044639
v 0.03051654 0.01558919 0.03007660
v 0.02988454 0.01713963 0.03002489
v 0.02943493 0.02349368 0.02182779
v 0.03253895 0.01831634 0.03074277
v 0.03014933 0.02149343 0.03333214
v 0.03217255 0.02466795 0.02215531
v 0.03049175 0.02808183 0.02465987
v 0.03019096 0.03020747 0.01382295
v 0.02743174 0.02903642 0.01392731
v 0.02724773 0.03517447 0.00577865
v 0.02889253 0.03369802 0.01639044
v 0.02611095 0.03257562 0.01641242
v 0.02604377 0.03866027 0.00839939
v 0.02151496 0.04240993 0.00121127
v 0.02338855 0.03736133 0.00888577
v 0.02272293 0.03928686 0.01033196
v 0.01917098 0.04086392 0.00219670
v 0.01850617 0.04279119 0.00364071
v 0.01351574 0.04312218 -0.00355366
v 0.01539815 0.04485392 -0.00500376
v 0.00673255 0.04412333 -0.00817261
v 0.01285174 0.04505027 -0.00210990
v 0.01473816 0.04678114 -0.00355725
v 0.00607175 0.04605346 -0.00673032
v 0.00737818 0.04787179 -0.00856922
v -0.00151945 0.04576454 -0.01002242
v -0.00962181 0.04417477 -0.01183481
v -0.00086342 0.04383130 -0.01146377
v -0.00088502 0.04756122 -0.01214892
v -0.00897541 0.04223769 -0.01327503
v -0.00023781 0.04562647 -0.01359234
v 0.00093578 0.04212515 -0.01620673
v -0.00904265 0.04390617 -0.01555505
v 0.00803417 0.04594169 -0.01001404
v 0.00922216 0.04244700 -0.01263125
v 0.01659415 0.04136379 -0.00762234
v 0.00791977 0.04062840 -0.01079060
v 0.01471098 0.03963183 -0.00617300
v 0.00030779 0.04032843 -0.01407770
v 0.00858215 0.03869922 -0.01223236
v 0.00096535 0.03839519 -0.01551905
v 0.00987895 0.04051763 -0.01407629
v 0.01537574 0.03770396 -0.00761600
v 0.01725576 0.03943752 -0.00906832
v 0.02103736 0.03545017 -0.00187033
v 0.02526457 0.03194268 0.00483025
v 0.02337978 0.03699773 -0.00285623
v 0.02037094 0.03737694 -0.00042533
v 0.02459814 0.03386822 0.00627644
v 0.02271573 0.03892341 -0.00140925
v 0.02465813 0.03329074 -0.00564253
v 0.02791254 0.03324930 0.00433068
v 0.02919494 0.02954482 0.00154445
v 0.03090855 0.02827888 0.01240525
v 0.02814852 0.02710795 0.01250705
v 0.03228933 0.02456747 0.00967627
v 0.02955815 0.02334322 0.00986185
v 0.02655336 0.02822933 0.00205588
v 0.03027574 0.02141417 0.00844261
v 0.03220855 0.01790198 0.01799075
v 0.02721974 0.02630403 0.00061046
v 0.02298214 0.02981641 -0.00610161
v 0.02986137 0.02761988 0.00009725
v 0.03120057 0.02375363 -0.00280979
v 0.02532293 0.03136506 -0.00708953
v 0.01919258 0.03380075 -0.01329871
v 0.02665974 0.02749749 -0.00999532
v 0.01731494 0.03206660 -0.01184537
v 0.01180294 0.03487461 -0.01830228
v 0.01051095 0.03305416 -0.01645689
v 0.00287336 0.03274077 -0.01973826
v 0.00984696 0.03498348 -0.01501432
v 0.01114457 0.03680398 -0.01685724
v 0.01664937 0.03399396 -0.01040139
v 0.00221418 0.03467305 -0.01829744
v -0.00595460 0.03305152 -0.02009858
v 0.00283736 0.03646931 -0.02042800
v -0.00602103 0.03472132 -0.02237985
v 0.00158538 0.04019145 -0.01764961
v -0.00725141 0.03845472 -0.01960571
v -0.00717941 0.03678575 -0.01732468
v -0.01611700 0.03549086 -0.01994054
v -0.01490902 0.03174641 -0.02270968
v -0.02446021 0.03153275 -0.01869604
v -0.01539702 0.03402657 -0.01764276
v -0.01603541 0.03596821 -0.01620392
v -0.02312902 0.03034344 -0.01650377
v -0.02375783 0.03228700 -0.01506386
v -0.02982019 0.02597932 -0.01396020
v -0.03505061 0.02115133 -0.01008250
v -0.03044422 0.02792417 -0.01251899
v -0.03173059 0.02681063 -0.01591573
v -0.03054660 0.02305186 -0.01867719
v -0.02326983 0.02777835 -0.02146218
v -0.02195143 0.02658302 -0.01926476
v -0.01419940 0.03027888 -0.02041175
v -0.01355943 0.02833796 -0.02185081
v -0.00530424 0.03111526 -0.02153905
v -0.03234342 0.02876378 -0.01448036
v -0.03567541 0.02309535 -0.00864106
v -0.03929698 0.01798150 -0.00358409
v -0.02507700 0.03348362 -0.01726000
v -0.01674261 0.03743679 -0.01850135
v -0.02618979 0.03701755 -0.01465964
v -0.01787381 0.04096092 -0.01589718
v -0.01715621 0.03949567 -0.01359993
v -0.01779222 0.04143755 -0.01216034
v -0.00788984 0.04039373 -0.01816440
v -0.00782743 0.03872251 -0.01588521
v 0.01853015 0.03572692 -0.01185271
v 0.02231576 0.03174295 -0.00465738
v 0.02856614 0.02243037 -0.00228515
v 0.02923414 0.02050589 -0.00373082
v 0.03245336 0.01559305 0.00427707
v 0.00590938 0.05220092 -0.00532722
v 0.00336136 0.05631772 -0.00106101
v 0.01325815 0.05110439 -0.00031262
v 0.01047176 0.05522997 0.00362253
v 0.01648534 0.05293692 0.00932989
v 0.01589654 0.05311793 0.00969141
v 0.02085254 0.04433570 0.00265824
v 0.02539336 0.03450417 0.01783263
v 0.02679416 0.02891150 0.02554848
v 0.02772776 0.02704259 0.02417044
v 0.02632453 0.02243058 0.03357998
v 0.02748696 0.02058075 0.03235661
v 0.02670776 0.02081430 0.03358220
v 0.02899095 0.02334911 0.03454122
v 0.03861576 0.01160655 0.01263299
v 0.03724934 0.00544083 0.03598172
v -0.04416101 0.00667521 0.00925352
v -0.04129460 0.03911601 0.00125594
v -0.04089219 0.03947834 0.00173406
v -0.04536979 0.03373445 0.00650065
v -0.04493539 0.03417981 0.00691026
v 0.02019255 -0.05136045 0.01824092
v 0.02627656 -0.04843055 0.01827768
v 0.02075098 -0.05298085 0.01701101
v 0.01375816 -0.05327290 0.01897595
v 0.01392215 -0.05501100 0.01779074
v 0.00722059 -0.05409606 0.02045439
v 0.00698455 -0.05588362 0.01936013
v 0.00083098 -0.05379632 0.02261932
v 0.00020379 -0.05556638 0.02165765
v -0.00516424 -0.05238580 0.02538828
v -0.00615864 -0.05406964 0.02459614
v -0.01053543 -0.04991901 0.02865326
v -0.01185941 -0.05145218 0.02806135
v -0.01507620 -0.04649078 0.03229078
v -0.01667861 -0.04781399 0.03192129
v -0.01861223 -0.04223327 0.03615938
v -0.02043060 -0.04329528 0.03602695
v -0.02100743 -0.03730974 0.04011113
v -0.02297300 -0.03806964 0.04022094
v -0.02216982 -0.03190877 0.04399484
v -0.02205461 -0.02623797 0.04765926
v -0.02420582 -0.03233783 0.04434242
v -0.02497381 -0.03261453 0.04463565
v -0.02408341 -0.02632015 0.04823139
v -0.02484902 -0.02645226 0.04861889
v -0.02260980 -0.02024751 0.05174029
v -0.01984100 -0.01435404 0.05473336
v -0.02334179 -0.02024501 0.05220581
v -0.02066583 -0.02051640 0.05096574
v -0.01805701 -0.01496310 0.05378654
v -0.01432900 -0.00979063 0.05601278
v -0.01588501 -0.00886556 0.05709572
v -0.00962501 -0.00519970 0.05755801
v -0.01089220 -0.00399336 0.05873655
v -0.00412503 -0.00136532 0.05836553
v 0.00195898 0.00156458 0.05840228
v -0.00505543 0.00007549 0.05959283
v 0.00140137 0.00318476 0.05963144
v -0.00538345 0.00055041 0.06024170
v 0.00122775 0.00373435 0.06028117
v -0.01135063 -0.00360954 0.05936613
v -0.00431462 -0.00250312 0.06463347
v -0.00394183 -0.00263701 0.06463545
v 0.00290536 0.00097431 0.06467632
v -0.00322261 -0.00525912 0.06863465
v -0.00973063 -0.00627860 0.06383827
v -0.01531381 -0.01172727 0.06200368
v -0.00972900 -0.00667220 0.06378573
v -0.00831704 -0.00881076 0.06788636
v -0.00834422 -0.00920079 0.06784529
v -0.00693064 -0.01090348 0.06629843
v -0.00284424 -0.00536663 0.06865205
v -0.00143061 -0.00706956 0.06710441
v -0.00267463 -0.00443632 0.06307010
v -0.00023223 -0.00960651 0.07099269
v 0.00465335 -0.00413943 0.06714194
v 0.01108778 -0.00222648 0.06640592
v 0.00585178 -0.00667651 0.07102942
v 0.00418857 -0.00198060 0.06869406
v 0.00340937 -0.00150642 0.06310686
v 0.00277819 0.00059880 0.06467515
v 0.01062296 -0.00006743 0.06795881
v 0.00434059 -0.00161727 0.06867968
v 0.01030057 0.00015444 0.06799883
v 0.00924218 0.00285760 0.06395261
v 0.00820855 0.00580927 0.05948376
v 0.00954855 0.00261179 0.06390226
v 0.01699975 0.00383395 0.06219813
v 0.01676858 0.00352011 0.06226860
v 0.01531256 0.00670319 0.05787699
v 0.02329175 0.00353903 0.06006602
v 0.01842697 0.00117671 0.06616114
v 0.01818054 0.00088441 0.06625019
v 0.02434537 0.00089922 0.06415580
v 0.02456934 0.00058435 0.06408454
v 0.02401416 -0.00170387 0.06276282
v 0.02349174 0.00320458 0.05999062
v 0.02277095 0.00092936 0.05872849
v 0.03011333 0.00164702 0.05693344
v 0.03150054 -0.00104581 0.06088380
v 0.02876612 -0.00048107 0.05595950
v 0.03040697 0.00186502 0.05678074
v 0.02875973 0.00484588 0.05251953
v 0.03569733 -0.00056367 0.05356443
v 0.03179814 -0.00085391 0.06071393
v 0.03677336 -0.00313797 0.05768877
v 0.03687173 -0.00351260 0.05761882
v 0.03576532 -0.00094850 0.05349672
v 0.03538133 -0.00558028 0.05672858
v 0.03000933 -0.00311408 0.05999459
v 0.03413736 -0.00294713 0.05269430
v 0.03992215 -0.00900827 0.05309183
v 0.03657976 -0.00811745 0.06061611
v 0.04112054 -0.01154618 0.05697956
v 0.03609654 -0.00883464 0.06053503
v 0.03120853 -0.00565116 0.06388206
v 0.03085734 -0.00642858 0.06372056
v 0.02521255 -0.00424096 0.06665030
v 0.02500936 -0.00505365 0.06642174
v 0.01882374 -0.00394195 0.06881545
v 0.01228617 -0.00476416 0.07029442
v 0.01762536 -0.00140405 0.06492770
v 0.01877654 -0.00476091 0.06853277
v 0.01240056 -0.00556304 0.06997563
v 0.00612377 -0.00742916 0.07069249
v 0.00018939 -0.01028700 0.07065656
v -0.00517540 -0.01402672 0.06986894
v -0.00976424 -0.01850519 0.06836165
v -0.00573221 -0.01344057 0.07018591
v -0.01043620 -0.01803182 0.06863995
v -0.01416421 -0.02320346 0.06641346
v -0.01163540 -0.01549414 0.06475145
v -0.01287861 -0.01286163 0.06071736
v -0.01378264 -0.01450840 0.06605757
v -0.01536340 -0.02066638 0.06252596
v -0.01751060 -0.01968005 0.06383108
v -0.01797141 -0.02621959 0.05970516
v -0.01660661 -0.01803265 0.05849066
v -0.01884741 -0.01718408 0.05973539
v -0.01921543 -0.02358645 0.05567085
v -0.02172822 -0.02331805 0.05662105
v -0.02052659 -0.02610027 0.06057164
v -0.02208022 -0.02341049 0.05646425
v -0.01898503 -0.01682025 0.05981111
v -0.02086100 -0.02621165 0.06039633
v -0.02344822 -0.02904570 0.05320860
v -0.02214660 -0.03151174 0.05733450
v -0.02318901 -0.02933817 0.05314225
v -0.02358502 -0.03577474 0.04885909
v -0.02244023 -0.04109348 0.04503494
v -0.02229060 -0.03856059 0.05277817
v -0.02331699 -0.03560102 0.04909410
v -0.02071942 -0.03497905 0.04869920
v -0.02204822 -0.03837736 0.05302788
v -0.02088660 -0.04377745 0.04914475
v -0.01947540 -0.03761196 0.05273426
v -0.01936020 -0.03194198 0.05639893
v -0.01831383 -0.04301302 0.04885057
v -0.01827702 -0.04014987 0.05662198
v -0.01711540 -0.04555093 0.05273830
v -0.01816181 -0.03447884 0.06028716
v -0.01741223 -0.04007870 0.05663896
v -0.01729941 -0.03454860 0.06021380
v -0.01627859 -0.04534787 0.05285168
v -0.01394262 -0.05015047 0.04899630
v -0.01472020 -0.05047446 0.04878655
v -0.01049380 -0.05430415 0.04522255
v -0.00606423 -0.05764762 0.04167478
v -0.01118421 -0.05473197 0.04491795
v -0.01238260 -0.05219512 0.04102970
v -0.00664344 -0.05816019 0.04128043
v -0.00784183 -0.05562302 0.03739292
v -0.00127144 -0.06062699 0.03801545
v -0.00247064 -0.05808931 0.03412695
v 0.00472378 -0.06203719 0.03524721
v -0.00082503 -0.06005369 0.03848923
v 0.00502375 -0.06142911 0.03578904
v 0.01125577 -0.06172135 0.03367703
v 0.01111334 -0.06233725 0.03308156
v 0.01763256 -0.06091890 0.03223491
v 0.02390854 -0.05905383 0.03151754
v 0.01765096 -0.06151409 0.03160312
v 0.01645177 -0.05897714 0.02771484
v 0.02408454 -0.05960164 0.03086809
v 0.02288616 -0.05706396 0.02697959
v 0.03016855 -0.05667174 0.03090485
v 0.03566853 -0.05283758 0.03171160
v 0.02984373 -0.05619526 0.03155325
v 0.02897016 -0.05413383 0.02701712
v 0.02772695 -0.05150082 0.02298203
v 0.03447014 -0.05029967 0.02782388
v 0.03038456 -0.05583675 0.02546948
v 0.02899334 -0.05329991 0.02141746
v 0.03588372 -0.05200260 0.02627624
v 0.03067896 -0.05576879 0.02521834
v 0.03577334 -0.05221739 0.02596586
v 0.02928373 -0.05325938 0.02115035
v 0.03470055 -0.04948234 0.02194510
v 0.02763097 -0.05055029 0.01671376
v 0.02206375 -0.05673548 0.02110628
v 0.02101977 -0.05373432 0.01667433
v 0.02227414 -0.05653595 0.02137699
v 0.02311656 -0.05941065 0.02517331
v 0.01572698 -0.05861950 0.02183021
v 0.01715658 -0.06118249 0.02585338
v 0.01403897 -0.05580916 0.01747170
v 0.00796937 -0.05959562 0.02358546
v 0.01550377 -0.05854872 0.02215063
v 0.00828374 -0.05945735 0.02378356
v 0.01520856 -0.05634390 0.02368053
v 0.01691654 -0.06113619 0.02616197
v 0.02335098 -0.05922383 0.02542697
v 0.00867098 -0.05716634 0.02515874
v 0.00991414 -0.05979934 0.02919383
v 0.00352539 -0.05949951 0.03135871
v 0.00935896 -0.06208780 0.02787134
v 0.00297016 -0.06178774 0.03003700
v 0.00903018 -0.06220462 0.02769185
v 0.00311178 -0.06192787 0.02969741
v 0.00167736 -0.05930071 0.02571755
v 0.00156058 -0.05914183 0.02606152
v -0.00543781 -0.05762743 0.02900305
v 0.00000376 -0.05637799 0.02142709
v 0.00693496 -0.05670317 0.01907848
v -0.00651221 -0.05484586 0.02443597
v -0.01233940 -0.05216983 0.02797874
v -0.01072821 -0.05519801 0.03221914
v -0.01727461 -0.04844450 0.03193105
v -0.01611623 -0.05113048 0.03653531
v -0.02111062 -0.04382530 0.03612838
v -0.02371300 -0.03847410 0.04042321
v -0.01959862 -0.04693655 0.04034539
v -0.01944903 -0.04672294 0.04064360
v -0.01823701 -0.04968422 0.04426884
v -0.01496181 -0.05362855 0.04068512
v -0.01811780 -0.04947035 0.04457617
v -0.01591863 -0.04793728 0.04489904
v -0.01458182 -0.05372810 0.04070680
v -0.01572823 -0.05120292 0.03657221
v -0.01071300 -0.05498875 0.03255542
v -0.01362662 -0.04956188 0.03699539
v -0.00908580 -0.05298988 0.03335862
v -0.00933223 -0.05769078 0.03650271
v -0.00396104 -0.06015780 0.03323698
v -0.00931702 -0.05789009 0.03616342
v -0.00434184 -0.06017496 0.03313853
v -0.00506101 -0.05758476 0.02911970
v -0.00371380 -0.05545690 0.03009288
v 0.00228137 -0.05686637 0.02732443
v -0.01716260 -0.04530413 0.04086476
v -0.01955780 -0.04037979 0.04481624
v -0.02209462 -0.04128381 0.04500797
v 0.02164295 -0.05443073 0.02294528
v 0.03359815 -0.04639044 0.01758937
v 0.02720696 -0.04987158 0.01704962
v 0.03304373 -0.04580273 0.01790589
v 0.03803655 -0.04093053 0.01954673
v 0.03177573 -0.04459639 0.01908443
v 0.03648053 -0.04000524 0.02063042
v 0.04020854 -0.03483276 0.02285668
v 0.04199253 -0.03544205 0.02190909
v 0.04281655 -0.02928051 0.02567696
v 0.04476052 -0.02954858 0.02490216
v 0.04420615 -0.02355821 0.02898321
v 0.04623494 -0.02347595 0.02841106
v 0.04432135 -0.01788719 0.03264839
v 0.04635735 -0.01745803 0.03230081
v 0.04315892 -0.01248635 0.03653132
v 0.04512372 -0.01172622 0.03642228
v 0.04076453 -0.00756283 0.04048305
v 0.03722855 -0.00330508 0.04435242
v 0.04258214 -0.00650082 0.04061550
v 0.04335814 -0.00617458 0.04082709
v 0.03883015 -0.00198270 0.04472216
v 0.03401095 0.00165535 0.04858132
v 0.03952213 -0.00155548 0.04502443
v 0.03458773 0.00216994 0.04897673
v 0.04108534 -0.00463096 0.04924904
v 0.04456773 -0.00882513 0.04543818
v 0.04241815 -0.00739936 0.05316787
v 0.04078055 -0.00473432 0.04947993
v 0.04212132 -0.00747529 0.05341474
v 0.03867894 -0.00637536 0.04905678
v 0.04565735 -0.01173303 0.04954536
v 0.04569335 -0.01134360 0.04958412
v 0.04345813 -0.01326602 0.04922246
v 0.04450136 -0.00921407 0.04540931
v 0.04714613 -0.01465343 0.04104417
v 0.04221411 -0.01063287 0.04518818
v 0.04460931 -0.01555713 0.04123665
v 0.04585333 -0.01819037 0.04527096
v 0.04842534 -0.01742594 0.04497678
v 0.04701495 -0.02359143 0.04138728
v 0.04705172 -0.02072745 0.04915846
v 0.04821334 -0.02612828 0.04527553
v 0.04631171 -0.02113416 0.04935889
v 0.04465652 -0.01580369 0.05311096
v 0.04397493 -0.01633179 0.05321349
v 0.04052616 -0.01217811 0.05698725
v 0.04744535 -0.02640250 0.04557138
v 0.04733253 -0.03193366 0.04199601
v 0.04809814 -0.03179931 0.04161035
v 0.04597812 -0.03751531 0.03877098
v 0.04343334 -0.04293214 0.03602015
v 0.04670935 -0.03752088 0.03830388
v 0.04410134 -0.04307395 0.03548385
v 0.04551091 -0.03498371 0.03441635
v 0.04290214 -0.04053700 0.03159557
v 0.04426694 -0.03235056 0.03038207
v 0.04806614 -0.03510311 0.03354992
v 0.04689975 -0.02926140 0.03772263
v 0.04945493 -0.02938163 0.03685642
v 0.04565573 -0.02662849 0.03368757
v 0.04824133 -0.02659907 0.03290992
v 0.04577093 -0.02095819 0.03735297
v 0.04836855 -0.02033614 0.03695801
v 0.04855413 -0.01998694 0.03692451
v 0.04958773 -0.02282676 0.04109388
v 0.04974694 -0.02246733 0.04107482
v 0.04867091 -0.01746450 0.04467172
v 0.04741016 -0.01466820 0.04074863
v 0.04596133 -0.01152587 0.03653229
v 0.04722214 -0.01738545 0.03231985
v 0.04709654 -0.02354772 0.02833661
v 0.04558935 -0.02975580 0.02474992
v 0.04841733 -0.02671597 0.03257500
v 0.04704933 -0.03235142 0.02931856
v 0.04960375 -0.02951617 0.03651849
v 0.04831734 -0.03481649 0.03345591
v 0.04678054 -0.03261992 0.02943134
v 0.04395414 -0.03894166 0.02597171
v 0.04275494 -0.03579048 0.02168500
v 0.04389973 -0.03875316 0.02631677
v 0.04507494 -0.04171953 0.02995025
v 0.04028292 -0.04403537 0.02377936
v 0.04162136 -0.04651006 0.02788783
v 0.03997656 -0.04419488 0.02397372
v 0.03871094 -0.04140116 0.01926927
v 0.03478132 -0.04926577 0.02226666
v 0.04132214 -0.04669499 0.02806396
v 0.03793093 -0.04307624 0.02533500
v 0.03917414 -0.04570852 0.02936986
v 0.03322693 -0.04766667 0.02378879
v 0.04037333 -0.04824643 0.03325759
v 0.03979736 -0.04797684 0.03384892
v 0.03520852 -0.05245568 0.03234009
v 0.04505015 -0.04152357 0.03028970
v 0.04165893 -0.03790377 0.02756124
v 0.02831012 0.00427304 0.05204728
v 0.03268696 0.00012291 0.04798919
v 0.02731573 0.00258993 0.05125492
v 0.02131975 0.00400023 0.05402313
v 0.01493094 0.00429947 0.05618903
v 0.02194774 0.00576947 0.05498505
v 0.01516698 0.00608776 0.05728307
v 0.02224457 0.00637801 0.05552840
v 0.00822938 0.00521491 0.05885171
v 0.00839337 0.00347703 0.05766725
v -0.01594500 -0.02896695 0.06343883
v -0.01340022 -0.02355012 0.06618966
v -0.01677303 -0.02875726 0.06359366
v -0.02191461 -0.03182176 0.05726511
v -0.02060422 -0.02930875 0.05236459
v -0.02121381 -0.04356333 0.04918124
v -0.01761779 -0.01930910 0.06390299
v -0.02050742 -0.01420949 0.05527049
v -0.01646261 -0.00859881 0.05768623
v -0.01416502 -0.01451786 0.06596517
v -0.01492500 -0.01174236 0.06207844
v -0.00817380 -0.00827048 0.06226334
v 0.01638134 0.00122919 0.06089339
v 0.00984376 0.00040676 0.06237161
f 1 2 1172
f 1 1172 4
f 2 1 3
f 2 3 1174
f 1 5 7
f 1 7 3
f 6 5 1
f 6 1 4
f 8 5 6
f 8 6 11
f 5 8 9
f 5 9 7
f 8 10 1181
f 8 1181 9
f 10 8 11
f 10 11 12
f 15 12 11
f 15 11 13
f 13 11 6
f 13 6 16
f 532 15 13
f 532 13 14
f 14 13 16
f 14 16 18
f 16 6 4
f 16 4 17
f 18 16 17
f 18 17 19
f 22 20 18
f 22 18 19
f 20 21 14
f 20 14 18
f 23 22 19
f 23 19 24
f 25 23 24
f 25 24 27
f 26 25 27
f 26 27 29
f 24 1173 28
f 24 28 27
f 27 28 30
f 27 30 29
f 29 30 34
f 29 34 31
f 33 26 29
f 33 29 31
f 36 32 31
f 36 31 34
f 57 33 31
f 57 31 32
f 30 1169 35
f 30 35 34
f 38 36 34
f 38 34 35
f 39 37 36
f 39 36 38
f 37 55 32
f 37 32 36
f 35 41 40
f 35 40 38
f 39 38 40
f 39 40 43
f 40 41 1082
f 40 1082 42
f 43 40 42
f 43 42 44
f 43 44 46
f 43 46 45
f 45 48 39
f 45 39 43
f 46 91 47
f 46 47 45
f 49 48 45
f 49 45 47
f 49 51 50
f 49 50 48
f 48 50 37
f 48 37 39
f 51 53 52
f 51 52 50
f 50 52 55
f 50 55 37
f 58 54 52
f 58 52 53
f 54 56 55
f 54 55 52
f 56 57 32
f 56 32 55
f 59 58 53
f 59 53 60
f 61 59 60
f 61 60 62
f 63 61 62
f 63 62 64
f 65 63 64
f 65 64 67
f 66 65 67
f 66 67 68
f 67 69 72
f 67 72 68
f 64 71 69
f 64 69 67
f 71 83 70
f 71 70 69
f 69 70 74
f 69 74 72
f 72 74 75
f 72 75 73
f 68 72 73
f 68 73 442
f 76 78 75
f 76 75 74
f 79 76 74
f 79 74 70
f 79 80 77
f 79 77 76
f 76 77 453
f 76 453 78
f 81 84 80
f 81 80 79
f 83 81 79
f 83 79 70
f 82 81 83
f 82 83 1187
f 82 86 84
f 82 84 81
f 84 85 108
f 84 108 80
f 86 87 85
f 86 85 84
f 89 88 86
f 89 86 82
f 88 90 87
f 88 87 86
f 89 47 91
f 89 91 88
f 91 92 90
f 91 90 88
f 46 93 92
f 46 92 91
f 93 95 94
f 93 94 92
f 97 90 92
f 97 92 94
f 96 94 95
f 96 95 1157
f 99 97 94
f 99 94 96
f 98 87 90
f 98 90 97
f 101 98 97
f 101 97 99
f 99 100 102
f 99 102 101
f 99 96 1152
f 99 1152 100
f 103 106 98
f 103 98 101
f 101 102 105
f 101 105 103
f 104 107 106
f 104 106 103
f 103 105 1184
f 103 1184 104
f 85 106 107
f 85 107 108
f 106 85 87
f 106 87 98
f 108 107 109
f 108 109 110
f 112 109 107
f 112 107 104
f 110 109 111
f 110 111 457
f 114 111 109
f 114 109 112
f 104 1184 113
f 104 113 112
f 112 113 116
f 112 116 114
f 115 456 111
f 115 111 114
f 115 114 116
f 115 116 117
f 116 118 119
f 116 119 117
f 113 120 118
f 113 118 116
f 118 121 123
f 118 123 119
f 120 124 121
f 120 121 118
f 122 121 124
f 122 124 125
f 494 123 121
f 494 121 122
f 128 126 124
f 128 124 120
f 125 124 126
f 125 126 127
f 127 126 129
f 127 129 132
f 130 129 126
f 130 126 128
f 129 130 1154
f 129 1154 131
f 132 129 131
f 132 131 134
f 132 133 515
f 132 515 127
f 134 136 133
f 134 133 132
f 134 131 1143
f 134 1143 135
f 135 137 136
f 135 136 134
f 137 141 138
f 137 138 136
f 136 138 139
f 136 139 133
f 513 139 138
f 513 138 140
f 140 138 141
f 140 141 143
f 1146 142 141
f 1146 141 137
f 143 141 142
f 143 142 145
f 512 140 143
f 512 143 144
f 144 143 145
f 144 145 147
f 1148 146 145
f 1148 145 142
f 147 145 146
f 147 146 148
f 144 147 149
f 144 149 151
f 152 149 147
f 152 147 148
f 152 153 150
f 152 150 149
f 149 150 253
f 149 253 151
f 154 155 153
f 154 153 152
f 156 154 152
f 156 152 148
f 157 158 155
f 157 155 154
f 156 159 157
f 156 157 154
f 160 163 158
f 160 158 157
f 159 161 160
f 159 160 157
f 162 160 161
f 162 161 1122
f 162 165 163
f 162 163 160
f 165 166 164
f 165 164 163
f 243 158 163
f 243 163 164
f 167 170 166
f 167 166 165
f 168 167 165
f 168 165 162
f 1120 169 167
f 1120 167 168
f 170 167 169
f 170 169 171
f 172 170 171
f 172 171 175
f 173 166 170
f 173 170 172
f 238 173 172
f 238 172 174
f 172 175 177
f 172 177 174
f 175 176 179
f 175 179 177
f 175 171 1166
f 175 1166 176
f 179 180 178
f 179 178 177
f 177 178 239
f 177 239 174
f 181 183 180
f 181 180 179
f 182 181 179
f 182 179 176
f 181 182 1182
f 181 1182 185
f 181 185 184
f 184 187 183
f 184 183 181
f 585 186 184
f 585 184 185
f 585 185 584
f 186 188 187
f 186 187 184
f 183 187 188
f 183 188 189
f 183 189 180
f 190 189 188
f 190 188 186
f 193 191 189
f 193 189 190
f 191 178 180
f 191 180 189
f 192 239 178
f 192 178 191
f 194 192 191
f 194 191 193
f 193 190 196
f 193 196 195
f 194 193 195
f 194 195 198
f 196 1025 197
f 196 197 195
f 195 197 199
f 195 199 198
f 198 199 202
f 198 202 200
f 200 201 194
f 200 194 198
f 200 203 205
f 200 205 201
f 200 202 204
f 200 204 203
f 203 204 207
f 203 207 206
f 208 205 203
f 208 203 206
f 206 207 211
f 206 211 209
f 210 208 206
f 210 206 209
f 210 209 212
f 210 212 213
f 209 211 214
f 209 214 212
f 212 215 218
f 212 218 213
f 212 214 216
f 212 216 215
f 215 216 980
f 215 980 217
f 219 218 215
f 219 215 217
f 219 221 220
f 219 220 218
f 218 220 222
f 218 222 213
f 221 225 223
f 221 223 220
f 226 222 220
f 226 220 223
f 224 223 225
f 224 225 1023
f 227 226 223
f 227 223 224
f 229 228 226
f 229 226 227
f 222 226 228
f 222 228 231
f 240 230 228
f 240 228 229
f 231 228 230
f 231 230 232
f 210 231 232
f 210 232 208
f 213 222 231
f 213 231 210
f 232 230 235
f 232 235 233
f 208 232 233
f 208 233 205
f 205 233 234
f 205 234 201
f 237 234 233
f 237 233 235
f 238 237 235
f 238 235 236
f 236 235 230
f 236 230 240
f 174 239 237
f 174 237 238
f 239 192 234
f 239 234 237
f 238 236 241
f 238 241 173
f 242 241 236
f 242 236 240
f 241 164 166
f 241 166 173
f 242 243 164
f 242 164 241
f 244 246 243
f 244 243 242
f 244 242 240
f 244 240 229
f 244 229 227
f 244 227 245
f 245 247 246
f 245 246 244
f 246 155 158
f 246 158 243
f 247 153 155
f 247 155 246
f 249 248 247
f 249 247 245
f 153 247 248
f 153 248 150
f 252 250 248
f 252 248 249
f 250 253 150
f 250 150 248
f 251 254 253
f 251 253 250
f 1024 251 250
f 1024 250 252
f 151 253 254
f 151 254 255
f 259 256 254
f 259 254 251
f 255 254 256
f 255 256 258
f 256 259 261
f 256 261 257
f 258 256 257
f 258 257 508
f 260 259 251
f 260 251 1024
f 262 261 259
f 262 259 260
f 266 263 261
f 266 261 262
f 257 261 263
f 257 263 265
f 265 263 264
f 265 264 503
f 268 264 263
f 268 263 266
f 266 267 1021
f 266 1021 269
f 266 269 268
f 262 1015 267
f 262 267 266
f 270 268 269
f 270 269 273
f 270 272 264
f 270 264 268
f 271 507 272
f 271 272 270
f 270 273 274
f 270 274 465
f 270 465 271
f 275 278 274
f 275 274 273
f 969 276 275
f 969 275 273
f 969 273 269
f 276 659 658
f 276 658 660
f 276 660 277
f 276 277 275
f 277 279 278
f 277 278 275
f 278 280 281
f 278 281 274
f 279 283 280
f 279 280 278
f 280 282 471
f 280 471 281
f 283 284 282
f 283 282 280
f 285 288 284
f 285 284 283
f 287 285 283
f 287 283 279
f 694 286 285
f 694 285 287
f 286 290 288
f 286 288 285
f 288 289 489
f 288 489 284
f 290 291 289
f 290 289 288
f 292 295 291
f 292 291 290
f 293 292 290
f 293 290 286
f 718 294 292
f 718 292 293
f 294 296 295
f 294 295 292
f 296 300 297
f 296 297 295
f 295 297 299
f 295 299 291
f 299 297 298
f 299 298 485
f 297 300 302
f 297 302 298
f 964 301 300
f 964 300 296
f 300 301 303
f 300 303 302
f 304 302 303
f 304 303 306
f 305 298 302
f 305 302 304
f 306 303 309
f 306 309 307
f 307 309 311
f 307 311 308
f 301 310 309
f 301 309 303
f 310 313 311
f 310 311 309
f 308 311 312
f 308 312 355
f 311 313 314
f 311 314 312
f 318 314 313
f 318 313 315
f 315 313 310
f 315 310 316
f 317 315 316
f 317 316 722
f 320 318 315
f 320 315 317
f 321 319 318
f 321 318 320
f 319 354 314
f 319 314 318
f 322 320 317
f 322 317 323
f 325 321 320
f 325 320 322
f 324 322 323
f 324 323 724
f 326 325 322
f 326 322 324
f 328 327 325
f 328 325 326
f 327 330 321
f 327 321 325
f 328 947 329
f 328 329 327
f 327 329 331
f 327 331 330
f 330 332 319
f 330 319 321
f 330 331 334
f 330 334 332
f 332 334 335
f 332 335 333
f 332 333 354
f 332 354 319
f 331 338 336
f 331 336 334
f 334 336 339
f 334 339 335
f 336 337 341
f 336 341 339
f 338 571 337
f 338 337 336
f 349 335 339
f 349 339 340
f 340 339 341
f 340 341 343
f 337 567 342
f 337 342 341
f 342 344 343
f 342 343 341
f 345 343 344
f 345 344 346
f 347 340 343
f 347 343 345
f 348 349 340
f 348 340 347
f 350 352 349
f 350 349 348
f 351 353 352
f 351 352 350
f 335 349 352
f 335 352 333
f 354 333 352
f 354 352 353
f 312 314 354
f 312 354 353
f 355 312 353
f 355 353 351
f 346 344 357
f 346 357 356
f 356 357 359
f 356 359 358
f 358 359 361
f 358 361 360
f 360 361 363
f 360 363 362
f 362 363 365
f 362 365 364
f 364 365 367
f 364 367 366
f 366 367 369
f 366 369 368
f 368 369 371
f 368 371 370
f 370 371 373
f 370 373 372
f 372 373 375
f 372 375 374
f 374 375 377
f 374 377 376
f 376 377 379
f 376 379 378
f 378 379 381
f 378 381 380
f 380 381 384
f 380 384 382
f 382 384 385
f 382 385 383
f 388 385 384
f 388 384 386
f 386 384 381
f 386 381 389
f 389 390 387
f 389 387 386
f 386 387 472
f 386 472 388
f 381 379 391
f 381 391 389
f 391 393 390
f 391 390 389
f 392 391 379
f 392 379 377
f 395 393 391
f 395 391 392
f 393 394 469
f 393 469 390
f 397 394 393
f 397 393 395
f 396 395 392
f 396 392 557
f 399 397 395
f 399 395 396
f 398 459 394
f 398 394 397
f 401 398 397
f 401 397 399
f 400 399 396
f 400 396 556
f 403 401 399
f 403 399 400
f 402 458 398
f 402 398 401
f 404 402 401
f 404 401 403
f 408 404 403
f 408 403 405
f 405 403 400
f 405 400 407
f 406 405 407
f 406 407 558
f 410 408 405
f 410 405 406
f 408 409 426
f 408 426 404
f 410 411 409
f 410 409 408
f 412 410 406
f 412 406 413
f 412 415 411
f 412 411 410
f 414 412 413
f 414 413 541
f 414 416 415
f 414 415 412
f 415 416 418
f 415 418 417
f 411 415 417
f 411 417 420
f 419 417 418
f 419 418 527
f 421 420 417
f 421 417 419
f 423 422 420
f 423 420 421
f 409 411 420
f 409 420 422
f 424 426 409
f 424 409 422
f 425 424 422
f 425 422 423
f 430 427 424
f 430 424 425
f 427 428 426
f 427 426 424
f 449 428 427
f 449 427 429
f 431 429 427
f 431 427 430
f 435 431 430
f 435 430 432
f 432 430 425
f 432 425 433
f 519 434 432
f 519 432 433
f 434 437 435
f 434 435 432
f 437 438 436
f 437 436 435
f 436 445 431
f 436 431 435
f 438 439 440
f 438 440 436
f 439 441 442
f 439 442 440
f 441 66 68
f 441 68 442
f 442 73 443
f 442 443 440
f 440 443 445
f 440 445 436
f 73 75 444
f 73 444 443
f 443 444 446
f 443 446 445
f 445 446 429
f 445 429 431
f 447 449 429
f 447 429 446
f 450 447 446
f 450 446 444
f 451 452 448
f 451 448 447
f 451 447 450
f 458 449 447
f 458 447 448
f 451 450 78
f 451 78 453
f 75 78 450
f 75 450 444
f 451 454 455
f 451 455 452
f 453 457 454
f 453 454 451
f 456 455 454
f 457 111 456
f 457 456 454
f 77 110 457
f 77 457 453
f 452 455 456
f 452 456 115
f 115 117 462
f 115 462 460
f 115 460 448
f 115 448 452
f 402 428 449
f 402 449 458
f 458 448 459
f 458 459 398
f 459 448 460
f 459 460 461
f 461 460 463
f 461 463 466
f 494 492 464
f 494 464 463
f 494 463 460
f 494 460 462
f 271 465 463
f 271 463 464
f 271 464 490
f 271 490 505
f 466 463 465
f 466 465 467
f 469 461 466
f 469 466 468
f 468 466 467
f 468 467 470
f 390 469 468
f 390 468 387
f 387 468 470
f 387 470 472
f 470 467 281
f 470 281 471
f 472 470 471
f 472 471 473
f 388 472 473
f 388 473 475
f 282 474 473
f 282 473 471
f 474 477 475
f 474 475 473
f 385 388 475
f 385 475 476
f 475 477 479
f 475 479 476
f 479 477 478
f 479 478 481
f 489 478 477
f 489 477 474
f 488 476 479
f 488 479 480
f 480 479 481
f 480 481 482
f 482 481 483
f 482 483 484
f 481 478 486
f 481 486 483
f 484 483 485
f 484 485 487
f 486 299 485
f 486 485 483
f 291 299 486
f 291 486 289
f 289 486 478
f 289 478 489
f 487 485 298
f 487 298 305
f 383 385 476
f 383 476 488
f 284 489 474
f 284 474 282
f 394 459 461
f 394 461 469
f 467 465 274
f 467 274 281
f 464 491 497
f 464 497 490
f 492 495 491
f 492 491 464
f 494 122 493
f 494 493 492
f 493 496 495
f 493 495 492
f 496 498 497
f 496 497 495
f 497 491 495
f 490 497 498
f 490 498 500
f 500 498 499
f 500 499 501
f 516 499 498
f 516 498 496
f 490 500 502
f 490 502 505
f 501 504 502
f 501 502 500
f 502 503 506
f 502 506 505
f 504 265 503
f 504 503 502
f 505 506 507
f 505 507 271
f 272 507 506
f 503 264 272
f 503 272 506
f 508 257 265
f 508 265 504
f 509 508 504
f 509 504 501
f 511 258 508
f 511 508 509
f 501 499 510
f 501 510 509
f 509 510 513
f 509 513 511
f 512 255 258
f 512 258 511
f 511 513 140
f 511 140 512
f 139 513 510
f 139 510 514
f 144 151 255
f 144 255 512
f 514 510 499
f 514 499 516
f 133 139 514
f 133 514 515
f 515 514 516
f 515 516 517
f 517 516 496
f 517 496 493
f 127 515 517
f 127 517 125
f 125 517 493
f 125 493 122
f 462 518 123
f 462 123 494
f 117 119 518
f 117 518 462
f 123 518 119
f 520 519 433
f 520 433 522
f 521 520 522
f 521 522 523
f 433 425 423
f 433 423 522
f 522 423 421
f 522 421 523
f 523 421 419
f 523 419 524
f 525 521 523
f 525 523 524
f 529 525 524
f 529 524 526
f 524 419 527
f 524 527 526
f 526 527 533
f 526 533 528
f 530 529 526
f 530 526 528
f 531 530 528
f 531 528 532
f 21 531 532
f 21 532 14
f 528 533 15
f 528 15 532
f 527 418 534
f 527 534 533
f 533 534 12
f 533 12 15
f 418 416 535
f 418 535 534
f 534 535 10
f 534 10 12
f 1181 10 535
f 1181 535 536
f 1181 536 537
f 536 535 416
f 536 416 414
f 1057 1058 537
f 1057 537 536
f 1057 536 538
f 1057 538 1051
f 538 536 539
f 538 539 540
f 536 414 541
f 536 541 539
f 540 539 542
f 540 542 543
f 539 541 545
f 539 545 542
f 543 542 544
f 543 544 562
f 542 545 547
f 542 547 544
f 541 413 546
f 541 546 545
f 545 546 549
f 545 549 547
f 544 547 548
f 544 548 559
f 547 549 551
f 547 551 548
f 546 558 550
f 546 550 549
f 549 550 552
f 549 552 551
f 365 548 551
f 365 551 367
f 367 551 552
f 367 552 369
f 552 553 371
f 552 371 369
f 550 555 553
f 550 553 552
f 371 553 554
f 371 554 373
f 555 556 554
f 555 554 553
f 407 400 556
f 407 556 555
f 558 407 555
f 558 555 550
f 556 396 557
f 556 557 554
f 373 554 557
f 373 557 375
f 557 392 377
f 557 377 375
f 413 406 558
f 413 558 546
f 363 559 548
f 363 548 365
f 562 544 559
f 562 559 560
f 363 361 560
f 363 560 559
f 361 359 561
f 361 561 560
f 563 562 560
f 563 560 561
f 564 543 562
f 564 562 563
f 568 564 563
f 568 563 565
f 565 563 561
f 565 561 566
f 567 565 566
f 567 566 342
f 570 568 565
f 570 565 567
f 569 1183 564
f 569 564 568
f 572 569 568
f 572 568 570
f 571 570 567
f 571 567 337
f 573 572 570
f 573 570 571
f 577 574 572
f 577 572 573
f 574 576 569
f 574 569 572
f 579 575 574
f 579 574 577
f 1028 576 574
f 1028 574 575
f 1028 575 1030
f 578 577 573
f 578 573 1026
f 577 578 580
f 577 580 579
f 916 926 583
f 916 583 581
f 916 581 579
f 916 579 580
f 581 584 185
f 581 185 575
f 581 575 579
f 581 582 586
f 581 586 584
f 583 588 582
f 583 582 581
f 584 586 587
f 584 587 585
f 586 588 589
f 586 589 587
f 586 582 588
f 591 589 588
f 591 588 583
f 593 590 589
f 593 589 591
f 587 589 590
f 587 590 1025
f 591 592 594
f 591 594 593
f 583 926 592
f 583 592 591
f 595 593 594
f 595 594 596
f 595 598 590
f 595 590 593
f 597 595 596
f 597 596 605
f 597 599 598
f 597 598 595
f 598 197 1025
f 598 1025 590
f 599 199 197
f 599 197 598
f 199 599 600
f 199 600 202
f 602 600 599
f 602 599 597
f 202 600 601
f 202 601 204
f 603 601 600
f 603 600 602
f 604 606 603
f 604 603 602
f 604 602 597
f 604 597 605
f 605 608 607
f 605 607 604
f 604 607 609
f 604 609 606
f 608 613 610
f 608 610 607
f 607 610 611
f 607 611 609
f 625 611 610
f 625 610 612
f 612 610 613
f 612 613 615
f 613 608 924
f 613 924 614
f 615 613 614
f 615 614 616
f 620 612 615
f 620 615 617
f 615 616 618
f 615 618 617
f 618 906 619
f 618 619 617
f 617 619 621
f 617 621 620
f 620 621 623
f 620 623 622
f 620 622 625
f 620 625 612
f 622 623 946
f 622 946 624
f 626 625 622
f 626 622 624
f 626 627 611
f 626 611 625
f 628 629 627
f 628 627 626
f 628 626 624
f 628 624 630
f 631 633 629
f 631 629 628
f 628 630 632
f 628 632 631
f 632 635 634
f 632 634 631
f 634 636 633
f 634 633 631
f 637 634 635
f 637 635 639
f 637 638 636
f 637 636 634
f 640 642 638
f 640 638 637
f 637 639 641
f 637 641 640
f 640 641 644
f 640 644 643
f 643 646 642
f 643 642 640
f 643 644 668
f 643 668 645
f 645 647 646
f 645 646 643
f 646 648 649
f 646 649 642
f 648 646 647
f 648 647 651
f 994 649 648
f 994 648 650
f 650 648 651
f 650 651 652
f 652 651 653
f 652 653 656
f 651 647 655
f 651 655 653
f 653 655 663
f 653 663 654
f 656 653 654
f 656 654 658
f 1005 652 656
f 1005 656 657
f 658 659 657
f 658 657 656
f 658 654 662
f 658 662 660
f 660 662 663
f 660 663 661
f 661 664 691
f 661 691 692
f 661 692 277
f 661 277 660
f 663 662 654
f 661 663 655
f 661 655 665
f 666 664 661
f 666 661 665
f 665 655 647
f 665 647 645
f 645 668 666
f 645 666 665
f 666 667 689
f 666 689 664
f 668 669 667
f 668 667 666
f 644 671 669
f 644 669 668
f 669 670 687
f 669 687 667
f 671 672 670
f 671 670 669
f 672 671 673
f 672 673 675
f 641 673 671
f 641 671 644
f 675 673 674
f 675 674 676
f 639 674 673
f 639 673 641
f 677 675 676
f 677 676 678
f 680 672 675
f 680 675 677
f 678 770 679
f 678 679 677
f 677 679 681
f 677 681 680
f 680 681 683
f 680 683 682
f 682 670 672
f 682 672 680
f 683 685 684
f 683 684 682
f 684 687 670
f 684 670 682
f 685 697 686
f 685 686 684
f 686 688 687
f 686 687 684
f 667 687 688
f 667 688 689
f 688 690 689
f 691 690 688
f 691 688 686
f 664 689 690
f 664 690 691
f 686 697 696
f 686 696 693
f 686 693 692
f 686 692 691
f 693 694 287
f 693 287 692
f 692 287 279
f 692 279 277
f 694 693 695
f 694 695 712
f 699 702 695
f 699 695 693
f 699 693 696
f 697 963 698
f 697 698 696
f 696 698 700
f 696 700 699
f 699 700 959
f 699 959 701
f 699 701 703
f 699 703 702
f 704 702 703
f 704 703 705
f 707 695 702
f 707 702 704
f 706 704 705
f 706 705 750
f 708 707 704
f 708 704 706
f 710 709 707
f 710 707 708
f 712 695 707
f 712 707 709
f 735 711 709
f 735 709 710
f 713 712 709
f 713 709 711
f 715 694 712
f 715 712 713
f 716 715 713
f 716 713 714
f 714 713 711
f 714 711 730
f 715 293 286
f 715 286 694
f 716 718 293
f 716 293 715
f 717 716 714
f 717 714 728
f 717 719 718
f 717 718 716
f 719 720 294
f 719 294 718
f 723 721 719
f 723 719 717
f 721 722 720
f 721 720 719
f 323 317 722
f 323 722 721
f 724 323 721
f 724 721 723
f 724 723 725
f 724 725 726
f 723 717 728
f 723 728 725
f 871 726 725
f 871 725 727
f 725 728 729
f 725 729 727
f 729 728 714
f 729 714 730
f 731 729 730
f 731 730 734
f 733 727 729
f 733 729 731
f 951 733 731
f 951 731 732
f 732 731 734
f 732 734 736
f 736 734 735
f 736 735 738
f 734 730 711
f 734 711 735
f 737 956 732
f 737 732 736
f 740 737 736
f 740 736 738
f 741 740 738
f 741 738 739
f 738 735 710
f 738 710 739
f 742 741 739
f 742 739 743
f 744 742 743
f 744 743 745
f 746 744 745
f 746 745 748
f 747 746 748
f 747 748 749
f 748 750 751
f 748 751 749
f 745 706 750
f 745 750 748
f 750 705 753
f 750 753 751
f 749 751 752
f 749 752 796
f 751 753 755
f 751 755 752
f 754 757 755
f 754 755 753
f 703 754 753
f 703 753 705
f 752 755 756
f 752 756 792
f 757 759 756
f 757 756 755
f 758 757 754
f 758 754 960
f 761 759 757
f 761 757 758
f 759 760 787
f 759 787 756
f 762 760 759
f 762 759 761
f 758 765 763
f 758 763 761
f 761 763 766
f 761 766 762
f 765 957 764
f 765 764 763
f 763 764 768
f 763 768 766
f 762 766 767
f 762 767 783
f 766 768 769
f 766 769 767
f 771 769 768
f 771 768 770
f 770 768 764
f 770 764 679
f 678 772 771
f 678 771 770
f 773 771 772
f 773 772 774
f 773 776 769
f 773 769 771
f 939 775 773
f 939 773 774
f 775 777 776
f 775 776 773
f 776 778 767
f 776 767 769
f 778 776 777
f 778 777 779
f 780 778 779
f 780 779 781
f 783 767 778
f 783 778 780
f 781 809 782
f 781 782 780
f 782 784 783
f 782 783 780
f 762 783 784
f 762 784 760
f 760 784 785
f 760 785 787
f 782 786 785
f 782 785 784
f 786 790 788
f 786 788 785
f 791 787 785
f 791 785 788
f 790 801 789
f 790 789 788
f 793 791 788
f 793 788 789
f 792 756 787
f 792 787 791
f 795 792 791
f 795 791 793
f 799 794 793
f 799 793 789
f 794 797 795
f 794 795 793
f 796 752 792
f 796 792 795
f 797 798 796
f 797 796 795
f 798 747 749
f 798 749 796
f 800 799 789
f 800 789 801
f 802 800 801
f 802 801 804
f 803 802 804
f 803 804 805
f 807 805 804
f 807 804 806
f 806 804 801
f 806 801 790
f 810 807 806
f 810 806 808
f 808 806 790
f 808 790 786
f 809 808 786
f 809 786 782
f 812 810 808
f 812 808 809
f 811 851 807
f 811 807 810
f 810 812 813
f 810 813 811
f 781 814 812
f 781 812 809
f 814 815 813
f 814 813 812
f 781 779 816
f 781 816 814
f 814 816 818
f 814 818 815
f 816 817 819
f 816 819 818
f 779 777 817
f 779 817 816
f 815 818 820
f 815 820 823
f 821 820 818
f 821 818 819
f 893 822 820
f 893 820 821
f 823 820 822
f 823 822 825
f 824 813 815
f 824 815 823
f 824 823 825
f 824 825 827
f 825 822 891
f 825 891 826
f 825 826 829
f 825 829 827
f 827 829 830
f 827 830 828
f 824 827 828
f 824 828 854
f 826 833 831
f 826 831 829
f 829 831 834
f 829 834 830
f 834 831 832
f 834 832 835
f 889 832 831
f 889 831 833
f 836 834 835
f 836 835 837
f 838 830 834
f 838 834 836
f 839 836 837
f 839 837 841
f 840 838 836
f 840 836 839
f 842 844 840
f 842 840 839
f 843 842 839
f 843 839 841
f 844 845 846
f 844 846 840
f 845 847 848
f 845 848 846
f 847 849 850
f 847 850 848
f 849 803 805
f 849 805 850
f 851 850 805
f 851 805 807
f 850 851 852
f 850 852 848
f 851 811 854
f 851 854 852
f 852 854 828
f 852 828 853
f 848 852 853
f 848 853 846
f 811 813 824
f 811 824 854
f 853 828 830
f 853 830 838
f 846 853 838
f 846 838 840
f 855 843 841
f 855 841 856
f 857 855 856
f 857 856 859
f 858 857 859
f 858 859 861
f 856 949 860
f 856 860 859
f 859 860 863
f 859 863 861
f 861 863 865
f 861 865 862
f 955 858 861
f 955 861 862
f 860 877 864
f 860 864 863
f 863 864 866
f 863 866 865
f 865 866 870
f 865 870 867
f 862 865 867
f 862 867 868
f 868 867 869
f 868 869 950
f 867 870 871
f 867 871 869
f 872 726 871
f 872 871 870
f 873 872 870
f 873 870 866
f 326 324 872
f 326 872 873
f 324 724 726
f 324 726 872
f 864 874 873
f 864 873 866
f 328 326 873
f 328 873 874
f 878 328 874
f 878 874 875
f 877 875 874
f 877 874 864
f 876 875 877
f 876 877 948
f 880 878 875
f 880 875 876
f 880 876 881
f 328 878 879
f 328 879 947
f 882 915 914
f 882 914 879
f 882 879 878
f 882 878 880
f 881 885 883
f 881 883 880
f 880 883 884
f 880 884 882
f 884 883 885
f 889 886 885
f 889 885 881
f 886 887 884
f 886 884 885
f 887 886 888
f 887 888 890
f 833 888 886
f 833 886 889
f 889 881 876
f 889 876 832
f 891 892 890
f 891 890 888
f 826 891 888
f 826 888 833
f 822 893 892
f 822 892 891
f 897 890 892
f 897 892 894
f 894 892 893
f 894 893 895
f 929 896 894
f 929 894 895
f 896 899 897
f 896 897 894
f 898 887 890
f 898 890 897
f 900 898 897
f 900 897 899
f 899 901 903
f 899 903 900
f 896 902 901
f 896 901 899
f 902 906 904
f 902 904 901
f 907 903 901
f 907 901 904
f 905 904 906
f 905 906 618
f 908 907 904
f 908 904 905
f 912 909 907
f 912 907 908
f 903 907 909
f 903 909 911
f 909 910 911
f 914 910 909
f 914 909 912
f 913 912 908
f 913 908 918
f 913 916 580
f 913 580 879
f 913 879 914
f 913 914 912
f 915 911 910
f 915 910 914
f 900 903 911
f 900 911 915
f 882 898 900
f 882 900 915
f 913 917 927
f 913 927 916
f 918 920 917
f 918 917 913
f 918 908 905
f 918 905 919
f 919 922 920
f 919 920 918
f 921 920 922
f 921 922 923
f 925 917 920
f 925 920 921
f 616 614 922
f 616 922 919
f 614 924 923
f 614 923 922
f 592 921 923
f 592 923 594
f 594 923 924
f 594 924 596
f 596 924 608
f 596 608 605
f 926 925 921
f 926 921 592
f 916 927 925
f 916 925 926
f 925 927 917
f 616 919 905
f 616 905 618
f 928 619 906
f 928 906 902
f 929 928 902
f 929 902 896
f 932 930 928
f 932 928 929
f 619 928 930
f 619 930 621
f 621 930 931
f 621 931 623
f 934 931 930
f 934 930 932
f 933 935 934
f 933 934 932
f 933 932 929
f 933 929 895
f 936 934 935
f 936 935 937
f 936 938 931
f 936 931 934
f 939 936 937
f 939 937 775
f 939 940 938
f 939 938 936
f 774 942 940
f 774 940 939
f 940 941 946
f 940 946 938
f 942 943 941
f 942 941 940
f 943 942 944
f 943 944 945
f 772 944 942
f 772 942 774
f 678 676 944
f 678 944 772
f 676 674 945
f 676 945 944
f 635 945 674
f 635 674 639
f 632 943 945
f 632 945 635
f 630 941 943
f 630 943 632
f 624 946 941
f 624 941 630
f 938 946 623
f 938 623 931
f 935 819 817
f 935 817 937
f 937 817 777
f 937 777 775
f 933 821 819
f 933 819 935
f 895 893 821
f 895 821 933
f 882 884 887
f 882 887 898
f 578 947 879
f 578 879 580
f 947 578 1026
f 947 1026 329
f 949 948 877
f 949 877 860
f 835 832 876
f 835 876 948
f 837 835 948
f 837 948 949
f 841 837 949
f 841 949 856
f 869 871 727
f 869 727 733
f 950 869 733
f 950 733 951
f 952 954 868
f 952 868 950
f 953 952 950
f 953 950 951
f 954 955 862
f 954 862 868
f 956 953 951
f 956 951 732
f 960 958 765
f 960 765 758
f 957 765 958
f 957 958 961
f 961 958 959
f 961 959 962
f 701 959 958
f 701 958 960
f 683 961 962
f 683 962 685
f 681 957 961
f 681 961 683
f 962 959 700
f 962 700 963
f 685 962 963
f 685 963 697
f 700 698 963
f 701 960 754
f 701 754 703
f 679 764 957
f 679 957 681
f 743 708 706
f 743 706 745
f 739 710 708
f 739 708 743
f 722 316 964
f 722 964 720
f 720 964 296
f 720 296 294
f 316 310 301
f 316 301 964
f 659 965 966
f 659 966 657
f 276 967 965
f 276 965 659
f 965 968 970
f 965 970 966
f 965 967 968
f 969 968 967
f 969 967 276
f 971 970 968
f 971 968 969
f 974 972 970
f 974 970 971
f 966 970 972
f 966 972 973
f 973 972 975
f 973 975 976
f 977 975 972
f 977 972 974
f 976 975 978
f 976 978 981
f 979 978 975
f 979 975 977
f 217 980 978
f 217 978 979
f 981 978 980
f 981 980 983
f 1004 976 981
f 1004 981 982
f 982 981 983
f 982 983 984
f 984 983 985
f 984 985 987
f 983 980 216
f 983 216 985
f 214 986 985
f 214 985 216
f 987 985 986
f 987 986 988
f 991 989 987
f 991 987 988
f 984 987 989
f 984 989 992
f 991 995 990
f 991 990 989
f 989 990 993
f 989 993 992
f 992 993 649
f 992 649 994
f 984 992 994
f 984 994 982
f 982 994 650
f 982 650 1004
f 638 993 990
f 638 990 636
f 642 649 993
f 642 993 638
f 996 998 995
f 996 995 991
f 999 996 991
f 999 991 988
f 997 1003 998
f 997 998 996
f 999 1001 997
f 999 997 996
f 999 1000 1002
f 999 1002 1001
f 988 986 1000
f 988 1000 999
f 1001 1002 601
f 1001 601 603
f 1001 603 606
f 1001 606 997
f 1002 207 204
f 1002 204 601
f 1000 211 207
f 1000 207 1002
f 986 214 211
f 986 211 1000
f 633 995 998
f 633 998 629
f 629 998 1003
f 629 1003 627
f 606 609 1003
f 606 1003 997
f 627 1003 609
f 627 609 611
f 995 633 636
f 995 636 990
f 1004 650 652
f 1004 652 1005
f 1005 973 976
f 1005 976 1004
f 657 966 973
f 657 973 1005
f 1006 979 977
f 1006 977 1007
f 219 217 979
f 219 979 1006
f 1007 1010 1008
f 1007 1008 1006
f 1006 1008 221
f 1006 221 219
f 1008 1009 225
f 1008 225 221
f 1010 1012 1009
f 1010 1009 1008
f 1020 1011 1010
f 1020 1010 1007
f 1012 1010 1011
f 1012 1011 1014
f 1022 1009 1012
f 1022 1012 1013
f 1013 1012 1014
f 1013 1014 1015
f 1014 1011 1018
f 1014 1018 1016
f 1015 1014 1016
f 1015 1016 267
f 267 1016 1017
f 267 1017 1021
f 1018 1017 1016
f 1019 1018 1011
f 1019 1011 1020
f 1021 1017 1018
f 1021 1018 1019
f 1020 974 971
f 1020 971 1019
f 1019 971 969
f 1019 969 269
f 1019 269 1021
f 1007 977 974
f 1007 974 1020
f 260 1013 1015
f 260 1015 262
f 1024 1022 1013
f 1024 1013 260
f 1023 225 1009
f 1023 1009 1022
f 252 1023 1022
f 252 1022 1024
f 252 249 224
f 252 224 1023
f 585 587 1025
f 585 1025 196
f 186 585 196
f 186 196 190
f 329 1026 338
f 329 338 331
f 1026 573 571
f 1026 571 338
f 576 1027 1183
f 576 1183 569
f 1029 1042 1044
f 1029 1044 1027
f 1029 1027 576
f 1029 576 1028
f 1028 1031 1033
f 1028 1033 1029
f 1030 1032 1031
f 1030 1031 1028
f 1033 1031 1032
f 1029 1033 1034
f 1029 1034 1037
f 1033 1032 1035
f 1033 1035 1034
f 1034 1035 1167
f 1034 1167 1036
f 1037 1034 1036
f 1037 1036 1038
f 1039 1037 1038
f 1039 1038 1041
f 1042 1029 1037
f 1042 1037 1039
f 1039 1040 1043
f 1039 1043 1042
f 1041 1112 1040
f 1041 1040 1039
f 1042 1043 1045
f 1042 1045 1044
f 1046 1049 1051
f 1046 1051 538
f 1046 538 1027
f 1046 1027 1044
f 1044 1045 1047
f 1044 1047 1046
f 1046 1047 1113
f 1046 1113 1048
f 1049 1046 1048
f 1049 1048 1050
f 1050 1053 1052
f 1050 1052 1049
f 1049 1052 1054
f 1049 1054 1051
f 1055 1052 1053
f 1055 1053 1056
f 1055 1054 1052
f 1051 1054 1055
f 1051 1055 1057
f 1057 1055 1056
f 1057 1056 1059
f 1058 1057 1059
f 1058 1059 1060
f 1060 1059 1061
f 1060 1061 1064
f 1059 1056 1062
f 1059 1062 1061
f 1061 1062 1102
f 1061 1102 1063
f 1064 1061 1063
f 1064 1063 1066
f 1066 1068 1065
f 1066 1065 1064
f 1064 1065 1177
f 1064 1177 1060
f 1067 1070 1068
f 1067 1068 1066
f 1067 1066 1063
f 1067 1063 1103
f 1070 1071 1069
f 1070 1069 1068
f 1175 1065 1068
f 1175 1068 1069
f 1072 1075 1071
f 1072 1071 1070
f 1073 1072 1070
f 1073 1070 1067
f 1087 1074 1072
f 1087 1072 1073
f 1075 1072 1074
f 1075 1074 1077
f 1076 1075 1077
f 1076 1077 1078
f 1174 1071 1075
f 1174 1075 1076
f 1078 1077 1079
f 1078 1079 1082
f 1077 1074 1081
f 1077 1081 1079
f 1083 1080 1079
f 1083 1079 1081
f 1082 1079 1080
f 1082 1080 42
f 1078 1082 41
f 1078 41 1168
f 1084 1081 1074
f 1084 1074 1087
f 1086 1083 1081
f 1086 1081 1084
f 1086 1084 1085
f 1086 1085 1161
f 1088 1085 1084
f 1088 1084 1087
f 1088 1087 1073
f 1088 1073 1089
f 1089 1091 1090
f 1089 1090 1088
f 1088 1090 1092
f 1088 1092 1085
f 1091 1096 1093
f 1091 1093 1090
f 1090 1093 1094
f 1090 1094 1092
f 1132 1094 1093
f 1132 1093 1095
f 1095 1093 1096
f 1095 1096 1097
f 1097 1096 1098
f 1097 1098 1100
f 1096 1091 1101
f 1096 1101 1098
f 1100 1098 1099
f 1100 1099 1105
f 1098 1101 1102
f 1098 1102 1099
f 1063 1102 1101
f 1063 1101 1103
f 1103 1101 1091
f 1103 1091 1089
f 1073 1067 1103
f 1073 1103 1089
f 1062 1108 1099
f 1062 1099 1102
f 1097 1100 1104
f 1097 1104 1163
f 1100 1105 1106
f 1100 1106 1104
f 1107 1109 1106
f 1107 1106 1105
f 1105 1099 1108
f 1105 1108 1107
f 1107 1108 1053
f 1107 1053 1050
f 1050 1048 1109
f 1050 1109 1107
f 1109 1110 1111
f 1109 1111 1106
f 1048 1113 1110
f 1048 1110 1109
f 1110 1112 1114
f 1110 1114 1111
f 1113 1040 1112
f 1113 1112 1110
f 1047 1043 1040
f 1047 1040 1113
f 1116 1114 1112
f 1116 1112 1041
f 1115 1164 1111
f 1115 1111 1114
f 1118 1115 1114
f 1118 1114 1116
f 1041 1038 1117
f 1041 1117 1116
f 1118 1116 1117
f 1118 1117 1120
f 1119 1121 1115
f 1119 1115 1118
f 1119 1118 1120
f 1119 1120 168
f 1117 1165 169
f 1117 169 1120
f 1122 1123 1121
f 1122 1121 1119
f 162 1122 1119
f 162 1119 168
f 161 1124 1123
f 161 1123 1122
f 1125 1123 1124
f 1125 1124 1128
f 1127 1121 1123
f 1127 1123 1125
f 1163 1127 1125
f 1163 1125 1126
f 1126 1125 1128
f 1126 1128 1130
f 1151 1129 1128
f 1151 1128 1124
f 1130 1128 1129
f 1130 1129 1131
f 1126 1130 1132
f 1126 1132 1095
f 1133 1132 1130
f 1133 1130 1131
f 1133 1134 1094
f 1133 1094 1132
f 1135 1138 1134
f 1135 1134 1133
f 1135 1133 1131
f 1135 1131 1136
f 1135 1136 1147
f 1135 1147 1137
f 1137 1140 1138
f 1137 1138 1135
f 1138 1139 1162
f 1138 1162 1134
f 1140 1141 1139
f 1140 1139 1138
f 1145 1142 1140
f 1145 1140 1137
f 1141 1140 1142
f 1141 1142 1144
f 135 1143 1142
f 135 1142 1145
f 1143 1153 1144
f 1143 1144 1142
f 1147 1146 1145
f 1147 1145 1137
f 135 1145 1146
f 135 1146 137
f 1147 1148 142
f 1147 142 1146
f 1136 1149 1148
f 1136 1148 1147
f 146 1148 1149
f 146 1149 1150
f 1150 1149 1129
f 1150 1129 1151
f 1131 1129 1149
f 1131 1149 1136
f 148 146 1150
f 148 1150 156
f 156 1150 1151
f 156 1151 159
f 159 1151 1124
f 159 1124 161
f 1155 1141 1144
f 1155 1144 1152
f 1152 1144 1153
f 1152 1153 100
f 131 1154 1153
f 131 1153 1143
f 100 1153 1154
f 100 1154 102
f 102 1154 130
f 102 130 105
f 1155 1152 96
f 1155 96 1157
f 1156 1139 1141
f 1156 1141 1155
f 1158 1156 1155
f 1158 1155 1157
f 1157 95 1159
f 1157 1159 1158
f 1158 1159 1083
f 1158 1083 1086
f 1158 1086 1161
f 1158 1161 1156
f 95 93 1160
f 95 1160 1159
f 1159 1160 1080
f 1159 1080 1083
f 42 1080 1160
f 42 1160 44
f 44 1160 93
f 44 93 46
f 1161 1162 1139
f 1161 1139 1156
f 1085 1092 1162
f 1085 1162 1161
f 1134 1162 1092
f 1134 1092 1094
f 1104 1164 1127
f 1104 1127 1163
f 1121 1127 1164
f 1121 1164 1115
f 1106 1111 1164
f 1106 1164 1104
f 1126 1095 1097
f 1126 1097 1163
f 1038 1036 1165
f 1038 1165 1117
f 1036 1167 1166
f 1036 1166 1165
f 171 169 1165
f 171 1165 1166
f 176 1166 1167
f 176 1167 182
f 182 1167 1035
f 182 1035 1182
f 1056 1053 1108
f 1056 1108 1062
f 1078 1168 1170
f 1078 1170 1076
f 1170 1168 1169
f 1170 1169 1171
f 1168 41 35
f 1168 35 1169
f 1170 2 1174
f 1170 1174 1076
f 2 1170 1171
f 2 1171 1172
f 28 1171 1169
f 28 1169 30
f 1173 1172 1171
f 1173 1171 28
f 17 4 1172
f 17 1172 1173
f 19 17 1173
f 19 1173 24
f 3 1069 1071
f 3 1071 1174
f 7 1175 1069
f 7 1069 3
f 1176 1177 1065
f 1176 1065 1175
f 9 1176 1175
f 9 1175 7
f 1181 1178 1176
f 1181 1176 9
f 1178 1179 1177
f 1178 1177 1176
f 1178 1180 1179
f 537 1180 1178
f 537 1178 1181
f 1058 1179 1180
f 1058 1180 537
f 1060 1177 1179
f 1060 1179 1058
f 1047 1045 1043
f 1182 1035 1032
f 1182 1032 1030
f 1030 575 185
f 1030 185 1182
f 1027 538 540
f 1027 540 1183
f 1183 540 543
f 1183 543 564
f 566 357 344
f 566 344 342
f 359 357 566
f 359 566 561
f 404 426 428
f 404 428 402
f 227 224 249
f 227 249 245
f 201 234 192
f 201 192 194
f 105 130 128
f 105 128 1184
f 1184 128 120
f 1184 120 113
f 80 108 110
f 80 110 77
f 1185 89 82
f 1185 82 1187
f 49 47 89
f 49 89 1185
f 1186 1185 1187
f 1186 1187 1188
f 51 49 1185
f 51 1185 1186
f 1188 1187 83
f 1188 83 71
f 62 1188 71
f 62 71 64
f 60 1186 1188
f 60 1188 62
f 53 51 1186
f 53 1186 60
f 1190 1423 1191
f 1190 1191 1189
f 1189 1191 1193
f 1189 1193 1192
f 1192 1193 1195
f 1192 1195 1194
f 1194 1195 1197
f 1194 1197 1196
f 1196 1197 1199
f 1196 1199 1198
f 1198 1199 1201
f 1198 1201 1200
f 1200 1201 1203
f 1200 1203 1202
f 1202 1203 1205
f 1202 1205 1204
f 1204 1205 1207
f 1204 1207 1206
f 1206 1207 1210
f 1206 1210 1208
f 1208 1210 1212
f 1208 1212 1209
f 1211 1210 1207
f 1211 1207 1399
f 1213 1212 1210
f 1213 1210 1211
f 1216 1214 1212
f 1216 1212 1213
f 1209 1212 1214
f 1209 1214 1217
f 1217 1214 1215
f 1217 1215 1218
f 1534 1215 1214
f 1534 1214 1216
f 1218 1215 1220
f 1218 1220 1219
f 1219 1220 1222
f 1219 1222 1221
f 1221 1222 1225
f 1221 1225 1223
f 1223 1225 1226
f 1223 1226 1224
f 1228 1226 1225
f 1228 1225 1227
f 1227 1225 1222
f 1227 1222 1229
f 1228 1227 1230
f 1228 1230 1232
f 1227 1229 1234
f 1227 1234 1230
f 1233 1240 1231
f 1233 1231 1230
f 1249 1232 1230
f 1249 1230 1231
f 1230 1234 1237
f 1230 1237 1233
f 1229 1535 1235
f 1229 1235 1234
f 1236 1234 1235
f 1236 1235 1537
f 1238 1237 1234
f 1238 1234 1236
f 1240 1233 1237
f 1240 1237 1238
f 1239 1238 1236
f 1239 1236 1538
f 1241 1240 1238
f 1241 1238 1239
f 1242 1231 1240
f 1242 1240 1241
f 1248 1242 1241
f 1248 1241 1244
f 1241 1239 1297
f 1241 1297 1243
f 1244 1241 1243
f 1244 1243 1246
f 1245 1250 1247
f 1245 1247 1244
f 1245 1244 1246
f 1245 1246 1289
f 1244 1247 1249
f 1244 1249 1248
f 1248 1249 1231
f 1248 1231 1242
f 1247 1251 1232
f 1247 1232 1249
f 1250 1252 1251
f 1250 1251 1247
f 1253 1232 1251
f 1253 1251 1252
f 1252 1250 1255
f 1252 1255 1253
f 1254 1228 1232
f 1254 1232 1253
f 1258 1254 1253
f 1258 1253 1256
f 1257 1256 1253
f 1257 1253 1255
f 1261 1260 1256
f 1261 1256 1257
f 1524 1258 1256
f 1524 1256 1259
f 1259 1256 1260
f 1259 1260 1262
f 1263 1262 1260
f 1263 1260 1261
f 1262 1263 1265
f 1262 1265 1259
f 1266 1265 1263
f 1266 1263 1264
f 1264 1263 1261
f 1264 1261 1290
f 1269 1267 1265
f 1269 1265 1266
f 1267 1270 1259
f 1267 1259 1265
f 1268 1273 1270
f 1268 1270 1267
f 1278 1268 1267
f 1278 1267 1269
f 1445 1271 1270
f 1445 1270 1272
f 1271 1524 1259
f 1271 1259 1270
f 1272 1270 1273
f 1272 1273 1274
f 1275 1274 1273
f 1275 1273 1268
f 1274 1275 1276
f 1274 1276 1272
f 1279 1276 1275
f 1279 1275 1277
f 1277 1275 1268
f 1277 1268 1278
f 1277 1278 1284
f 1277 1284 1281
f 1451 1279 1277
f 1451 1277 1280
f 1280 1277 1281
f 1280 1281 1282
f 1281 1283 1467
f 1281 1467 1282
f 1284 1285 1283
f 1284 1283 1281
f 1278 1264 1286
f 1278 1286 1284
f 1286 1287 1285
f 1286 1285 1284
f 1288 1291 1287
f 1288 1287 1286
f 1264 1290 1288
f 1264 1288 1286
f 1290 1245 1289
f 1290 1289 1288
f 1289 1292 1291
f 1289 1291 1288
f 1246 1293 1292
f 1246 1292 1289
f 1243 1294 1293
f 1243 1293 1246
f 1297 1295 1294
f 1297 1294 1243
f 1298 1296 1295
f 1298 1295 1297
f 1239 1300 1298
f 1239 1298 1297
f 1299 1528 1296
f 1299 1296 1298
f 1300 1303 1299
f 1300 1299 1298
f 1538 1301 1300
f 1538 1300 1239
f 1301 1537 1302
f 1301 1302 1300
f 1300 1302 1304
f 1300 1304 1303
f 1303 1305 1529
f 1303 1529 1299
f 1303 1304 1307
f 1303 1307 1306
f 1306 1308 1305
f 1306 1305 1303
f 1306 1307 1309
f 1306 1309 1308
f 1308 1309 1310
f 1308 1310 1305
f 1313 1310 1309
f 1313 1309 1311
f 1307 1312 1311
f 1307 1311 1309
f 1534 1216 1311
f 1534 1311 1312
f 1311 1314 1315
f 1311 1315 1313
f 1216 1213 1314
f 1216 1314 1311
f 1213 1211 1317
f 1213 1317 1314
f 1530 1315 1314
f 1530 1314 1316
f 1316 1314 1317
f 1316 1317 1320
f 1211 1399 1318
f 1211 1318 1317
f 1317 1318 1532
f 1317 1532 1319
f 1319 1322 1320
f 1319 1320 1317
f 1321 1320 1322
f 1321 1322 1324
f 1531 1316 1320
f 1531 1320 1321
f 1322 1319 1532
f 1322 1532 1323
f 1324 1322 1323
f 1324 1323 1326
f 1325 1324 1327
f 1325 1327 1329
f 1531 1321 1324
f 1531 1324 1325
f 1324 1326 1328
f 1324 1328 1327
f 1328 1332 1330
f 1328 1330 1327
f 1327 1330 1331
f 1327 1331 1329
f 1334 1333 1332
f 1334 1332 1328
f 1337 1335 1333
f 1337 1333 1334
f 1339 1336 1335
f 1339 1335 1337
f 1405 1338 1337
f 1405 1337 1334
f 1338 1340 1339
f 1338 1339 1337
f 1340 1342 1341
f 1340 1341 1339
f 1341 1344 1336
f 1341 1336 1339
f 1342 1383 1343
f 1342 1343 1341
f 1343 1345 1344
f 1343 1344 1341
f 1347 1346 1345
f 1347 1345 1343
f 1350 1348 1346
f 1350 1346 1347
f 1352 1349 1348
f 1352 1348 1350
f 1382 1351 1350
f 1382 1350 1347
f 1351 1353 1352
f 1351 1352 1350
f 1354 1356 1349
f 1354 1349 1352
f 1353 1357 1354
f 1353 1354 1352
f 1355 1514 1356
f 1355 1356 1354
f 1357 1359 1355
f 1357 1355 1354
f 1421 1358 1357
f 1421 1357 1353
f 1358 1361 1360
f 1358 1360 1357
f 1357 1360 1362
f 1357 1362 1359
f 1363 1360 1361
f 1363 1361 1365
f 1360 1363 1364
f 1360 1364 1362
f 1365 1366 1364
f 1365 1364 1363
f 1367 1422 1366
f 1367 1366 1365
f 1370 1368 1365
f 1370 1365 1361
f 1369 1367 1365
f 1369 1365 1368
f 1374 1369 1368
f 1374 1368 1372
f 1368 1370 1380
f 1368 1380 1371
f 1372 1368 1371
f 1372 1371 1373
f 1373 1379 1376
f 1373 1376 1372
f 1392 1374 1372
f 1392 1372 1375
f 1377 1375 1372
f 1377 1372 1376
f 1381 1377 1376
f 1381 1376 1378
f 1378 1376 1379
f 1378 1379 1351
f 1351 1379 1380
f 1351 1380 1353
f 1379 1373 1371
f 1379 1371 1380
f 1353 1380 1370
f 1353 1370 1421
f 1381 1378 1351
f 1381 1351 1382
f 1382 1384 1377
f 1382 1377 1381
f 1383 1382 1347
f 1383 1347 1343
f 1383 1385 1384
f 1383 1384 1382
f 1385 1387 1386
f 1385 1386 1384
f 1384 1386 1375
f 1384 1375 1377
f 1388 1375 1386
f 1388 1386 1387
f 1387 1385 1389
f 1387 1389 1388
f 1415 1390 1388
f 1415 1388 1389
f 1393 1391 1388
f 1393 1388 1390
f 1391 1392 1375
f 1391 1375 1388
f 1391 1197 1195
f 1391 1195 1392
f 1393 1199 1197
f 1393 1197 1391
f 1394 1393 1390
f 1394 1390 1395
f 1394 1201 1199
f 1394 1199 1393
f 1396 1394 1395
f 1396 1395 1397
f 1396 1203 1201
f 1396 1201 1394
f 1398 1396 1397
f 1398 1397 1400
f 1398 1205 1203
f 1398 1203 1396
f 1399 1207 1205
f 1399 1205 1398
f 1399 1398 1400
f 1399 1400 1318
f 1402 1404 1401
f 1402 1401 1400
f 1420 1318 1400
f 1420 1400 1401
f 1400 1397 1403
f 1400 1403 1402
f 1404 1402 1403
f 1404 1403 1406
f 1418 1401 1404
f 1418 1404 1405
f 1405 1404 1406
f 1405 1406 1338
f 1338 1406 1407
f 1338 1407 1409
f 1406 1403 1397
f 1406 1397 1407
f 1407 1397 1395
f 1407 1395 1408
f 1409 1407 1408
f 1409 1408 1410
f 1409 1410 1340
f 1409 1340 1338
f 1410 1408 1411
f 1410 1411 1340
f 1413 1411 1408
f 1413 1408 1395
f 1411 1413 1414
f 1411 1414 1412
f 1340 1411 1412
f 1340 1412 1342
f 1395 1390 1414
f 1395 1414 1413
f 1412 1414 1390
f 1412 1390 1415
f 1342 1412 1415
f 1342 1415 1416
f 1416 1415 1389
f 1416 1389 1417
f 1416 1417 1383
f 1416 1383 1342
f 1417 1389 1385
f 1417 1385 1383
f 1419 1418 1405
f 1419 1405 1326
f 1326 1405 1334
f 1326 1334 1328
f 1419 1420 1401
f 1419 1401 1418
f 1326 1323 1420
f 1326 1420 1419
f 1323 1532 1318
f 1323 1318 1420
f 1392 1195 1193
f 1392 1193 1374
f 1374 1193 1191
f 1374 1191 1369
f 1421 1370 1361
f 1421 1361 1358
f 1369 1191 1423
f 1369 1423 1367
f 1367 1423 1424
f 1367 1424 1422
f 1426 1424 1423
f 1426 1423 1190
f 1422 1424 1425
f 1422 1425 1506
f 1427 1425 1424
f 1427 1424 1426
f 1428 1429 1425
f 1428 1425 1427
f 1430 1431 1429
f 1430 1429 1428
f 1432 1433 1431
f 1432 1431 1430
f 1434 1435 1433
f 1434 1433 1432
f 1436 1437 1435
f 1436 1435 1434
f 1438 1440 1437
f 1438 1437 1436
f 1439 1442 1440
f 1439 1440 1438
f 1490 1437 1440
f 1490 1440 1441
f 1441 1440 1442
f 1441 1442 1444
f 1444 1442 1443
f 1444 1443 1445
f 1518 1443 1442
f 1518 1442 1439
f 1444 1445 1272
f 1444 1272 1446
f 1441 1444 1446
f 1441 1446 1447
f 1447 1446 1448
f 1447 1448 1453
f 1449 1446 1272
f 1449 1272 1276
f 1450 1448 1446
f 1450 1446 1449
f 1280 1450 1449
f 1280 1449 1451
f 1451 1449 1276
f 1451 1276 1279
f 1454 1452 1450
f 1454 1450 1280
f 1452 1453 1448
f 1452 1448 1450
f 1453 1452 1455
f 1453 1455 1447
f 1457 1455 1452
f 1457 1452 1454
f 1456 1489 1447
f 1456 1447 1455
f 1458 1456 1455
f 1458 1455 1457
f 1458 1457 1454
f 1458 1454 1459
f 1459 1460 1456
f 1459 1456 1458
f 1461 1486 1460
f 1461 1460 1459
f 1461 1459 1462
f 1461 1462 1463
f 1459 1454 1465
f 1459 1465 1462
f 1462 1464 1468
f 1462 1468 1463
f 1465 1466 1464
f 1465 1464 1462
f 1282 1467 1466
f 1282 1466 1465
f 1454 1280 1282
f 1454 1282 1465
f 1463 1468 1469
f 1463 1469 1470
f 1470 1469 1471
f 1470 1471 1473
f 1473 1471 1472
f 1473 1472 1474
f 1476 1475 1473
f 1476 1473 1474
f 1475 1479 1470
f 1475 1470 1473
f 1516 1477 1475
f 1516 1475 1476
f 1477 1498 1478
f 1477 1478 1475
f 1475 1478 1480
f 1475 1480 1479
f 1479 1461 1463
f 1479 1463 1470
f 1479 1480 1482
f 1479 1482 1481
f 1481 1483 1461
f 1481 1461 1479
f 1481 1482 1484
f 1481 1484 1483
f 1483 1484 1486
f 1483 1486 1461
f 1482 1494 1485
f 1482 1485 1484
f 1487 1486 1484
f 1487 1484 1485
f 1486 1487 1488
f 1486 1488 1460
f 1485 1489 1488
f 1485 1488 1487
f 1460 1488 1489
f 1460 1489 1456
f 1491 1490 1489
f 1491 1489 1485
f 1490 1441 1447
f 1490 1447 1489
f 1491 1435 1437
f 1491 1437 1490
f 1492 1433 1435
f 1492 1435 1491
f 1492 1491 1485
f 1492 1485 1494
f 1493 1431 1433
f 1493 1433 1492
f 1493 1492 1494
f 1493 1494 1495
f 1480 1496 1494
f 1480 1494 1482
f 1495 1494 1496
f 1495 1496 1497
f 1478 1497 1496
f 1478 1496 1480
f 1497 1478 1498
f 1497 1498 1495
f 1500 1493 1495
f 1500 1495 1499
f 1501 1499 1495
f 1501 1495 1498
f 1506 1500 1499
f 1506 1499 1503
f 1515 1502 1499
f 1515 1499 1501
f 1503 1499 1502
f 1503 1502 1504
f 1507 1366 1503
f 1507 1503 1505
f 1422 1506 1503
f 1422 1503 1366
f 1504 1508 1505
f 1504 1505 1503
f 1506 1425 1429
f 1506 1429 1500
f 1511 1507 1505
f 1511 1505 1509
f 1509 1505 1508
f 1509 1508 1510
f 1511 1509 1510
f 1511 1510 1359
f 1359 1362 1507
f 1359 1507 1511
f 1359 1510 1512
f 1359 1512 1355
f 1510 1476 1474
f 1510 1474 1512
f 1510 1508 1515
f 1510 1515 1476
f 1474 1472 1513
f 1474 1513 1512
f 1512 1513 1514
f 1512 1514 1355
f 1508 1504 1502
f 1508 1502 1515
f 1476 1515 1501
f 1476 1501 1516
f 1362 1364 1366
f 1362 1366 1507
f 1516 1501 1498
f 1516 1498 1477
f 1500 1429 1431
f 1500 1431 1493
f 1445 1443 1517
f 1445 1517 1271
f 1519 1517 1443
f 1519 1443 1518
f 1520 1522 1517
f 1520 1517 1519
f 1521 1523 1522
f 1521 1522 1520
f 1524 1522 1523
f 1524 1523 1258
f 1271 1517 1522
f 1271 1522 1524
f 1526 1525 1523
f 1526 1523 1521
f 1258 1523 1525
f 1258 1525 1254
f 1254 1525 1226
f 1254 1226 1228
f 1224 1226 1525
f 1224 1525 1526
f 1329 1331 1527
f 1329 1527 1529
f 1529 1527 1528
f 1529 1528 1299
f 1305 1325 1329
f 1305 1329 1529
f 1325 1530 1316
f 1325 1316 1531
f 1305 1310 1530
f 1305 1530 1325
f 1310 1313 1315
f 1310 1315 1530
f 1304 1533 1312
f 1304 1312 1307
f 1235 1312 1533
f 1235 1533 1536
f 1535 1534 1312
f 1535 1312 1235
f 1535 1220 1215
f 1535 1215 1534
f 1229 1222 1220
f 1229 1220 1535
f 1302 1536 1533
f 1302 1533 1304
f 1536 1302 1537
f 1536 1537 1235
f 1538 1236 1537
f 1538 1537 1301
f 1539 1540 1245
f 1539 1245 1290
f 1290 1261 1257
f 1290 1257 1539
f 1539 1257 1255
f 1539 1255 1540
f 1540 1255 1250
f 1540 1250 1245
f 1269 1266 1264
f 1269 1264 1278
