# Neck_1__Aluminium: 820 tris
v -0.01190186 0.02500604 -0.01288337
v -0.01190186 0.02724010 -0.01288679
v -0.01190186 0.02456316 -0.01728998
v -0.01414826 0.02500604 -0.01288337
v -0.01190186 0.02281502 -0.01244206
v -0.01190186 0.02152112 -0.01667790
v -0.01414826 0.02281427 -0.01244198
v -0.01190186 0.02075221 -0.01158347
v -0.01190186 0.01889716 -0.01033813
v -0.01414826 0.02075221 -0.01158347
v -0.01190186 0.01865626 -0.01548544
v -0.01190186 0.01608039 -0.01375599
v 0.01132534 0.01865626 -0.01548544
v 0.01132534 0.01608039 -0.01375599
v 0.01132534 0.02152112 -0.01667790
v 0.01132534 0.02075221 -0.01158347
v 0.01132534 0.02281502 -0.01244206
v 0.01357174 0.02075221 -0.01158347
v 0.01132534 0.01889716 -0.01033813
v 0.01357174 0.01889716 -0.01033813
v 0.01132534 0.01731944 -0.00875562
v 0.01357174 0.01731944 -0.00875562
v 0.01132534 0.01608257 -0.00689461
v 0.01132534 0.01389072 -0.01155800
v 0.01132534 0.01217243 -0.00897482
v -0.01190186 0.01389072 -0.01155800
v -0.01190186 0.01217243 -0.00897482
v -0.01190186 0.01731944 -0.00875562
v -0.01190186 0.01608257 -0.00689461
v -0.01414826 0.01731944 -0.00875562
v -0.01414826 0.01608257 -0.00689461
v -0.01414826 0.01889716 -0.01033813
v -0.01414826 0.01523127 -0.00482873
v -0.01414826 0.01480024 -0.00263623
v -0.01190186 0.01523127 -0.00482873
v -0.01190186 0.01480024 -0.00263623
v -0.01190186 0.01099023 -0.00610622
v -0.01190186 0.01039163 -0.00306150
v 0.01132534 0.01099023 -0.00610622
v 0.01132534 0.01039163 -0.00306150
v 0.01132534 0.01523127 -0.00482873
v 0.01357174 0.01523127 -0.00482873
v 0.01132534 0.01480024 -0.00263623
v 0.01357174 0.01480024 -0.00263623
v 0.01132534 0.01480374 -0.00040218
v 0.01357174 0.01480382 -0.00040138
v 0.01132534 0.01524496 0.00178869
v 0.01132534 0.01039716 0.00004150
v 0.01132534 0.01100915 0.00308275
v -0.01190186 0.01039716 0.00004150
v -0.01190186 0.01100915 0.00308275
v -0.01190186 0.01480374 -0.00040218
v -0.01190186 0.01524496 0.00178869
v -0.01414826 0.01480382 -0.00040138
v -0.01414826 0.01524496 0.00178869
v -0.01414826 0.01610367 0.00385156
v -0.01414826 0.01734905 0.00570672
v -0.01190186 0.01610367 0.00385156
v -0.01190186 0.01734905 0.00570672
v -0.01190186 0.01220167 0.00594745
v 0.01132534 0.01220167 0.00594745
v -0.01190186 0.01393107 0.00852344
v 0.01132534 0.01393107 0.00852344
v -0.01190186 0.01612912 0.01071380
v 0.01132534 0.01612912 0.01071380
v -0.01190186 0.01871231 0.01243130
v -0.01190186 0.01893152 0.00728438
v -0.01190186 0.02079260 0.00852127
v -0.01414826 0.01893152 0.00728438
v -0.01414826 0.02079260 0.00852127
v -0.01414826 0.02285838 0.00937256
v -0.01414826 0.02505079 0.00980347
v -0.01190186 0.02285838 0.00937256
v -0.01190186 0.02505079 0.00980347
v -0.01190186 0.02158082 0.01361357
v 0.01132534 0.02158082 0.01361357
v -0.01190186 0.02462568 0.01421208
v 0.01132534 0.02462568 0.01421208
v -0.01190186 0.02772868 0.01420656
v 0.01132534 0.02772868 0.01420656
v -0.01190186 0.03076901 0.01359465
v -0.01190186 0.02728580 0.00979995
v -0.01190186 0.02947586 0.00935874
v -0.01414826 0.02728580 0.00979995
v -0.01414826 0.02947586 0.00935874
v -0.01414826 0.03153867 0.00850015
v -0.01414826 0.03339391 0.00725479
v -0.01190186 0.03153867 0.00850015
v -0.01190186 0.03339391 0.00725479
v -0.01190186 0.03363462 0.01240212
v 0.01132534 0.03363462 0.01240212
v -0.01190186 0.03621049 0.01067266
v -0.01190186 0.03840016 0.00847468
v 0.01132534 0.03621049 0.01067266
v 0.01132534 0.03339391 0.00725479
v 0.01132534 0.03840016 0.00847468
v 0.01132534 0.04011846 0.00589150
v 0.01132534 0.03497068 0.00567238
v 0.01357174 0.03497144 0.00567230
v 0.01132534 0.03620832 0.00381129
v 0.01357174 0.03620832 0.00381129
v 0.01132534 0.03705962 0.00174540
v 0.01357174 0.03705886 0.00174548
v 0.01132534 0.03749064 -0.00044709
v 0.01132534 0.04130065 0.00302290
v 0.01132534 0.04189926 -0.00002183
v -0.01190186 0.04130065 0.00302290
v -0.01190186 0.03705962 0.00174540
v -0.01190186 0.04189926 -0.00002183
v -0.01190186 0.04011846 0.00589150
v -0.01190186 0.03620832 0.00381129
v -0.01414826 0.03620832 0.00381129
v -0.01190186 0.03497144 0.00567230
v -0.01414826 0.03497144 0.00567230
v -0.01414826 0.03705886 0.00174548
v -0.01414826 0.03748969 -0.00044699
v -0.01190186 0.03749064 -0.00044709
v -0.01414826 0.03748706 -0.00268194
v -0.01414826 0.03704592 -0.00487201
v -0.01190186 0.03748706 -0.00268194
v -0.01190186 0.03704592 -0.00487201
v -0.01190186 0.04189380 -0.00312403
v -0.01190186 0.04128174 -0.00616607
v 0.01132534 0.04189380 -0.00312403
v 0.01132534 0.03748706 -0.00268194
v 0.01132534 0.04128174 -0.00616607
v 0.01132534 0.03704592 -0.00487201
v 0.01132534 0.04008921 -0.00903078
v -0.01190186 0.04008921 -0.00903078
v 0.01132534 0.03835982 -0.01160676
v 0.01132534 0.03618721 -0.00693488
v 0.01357174 0.03618721 -0.00693488
v 0.01132534 0.03494184 -0.00879004
v 0.01132534 0.03335936 -0.01036770
v 0.01357174 0.03494184 -0.00879004
v 0.01357174 0.03335936 -0.01036770
v 0.01357174 0.03149847 -0.01160461
v 0.01357174 0.02943251 -0.01245588
v 0.01132534 0.03149847 -0.01160461
v 0.01132534 0.02943251 -0.01245588
v 0.01132534 0.03357857 -0.01551462
v 0.01132534 0.03616176 -0.01379712
v -0.01190186 0.03357857 -0.01551462
v 0.01132534 0.03071006 -0.01669689
v -0.01190186 0.03071006 -0.01669689
v 0.01132534 0.02766521 -0.01729540
v 0.01132534 0.02724010 -0.01288679
v 0.01132534 0.02456316 -0.01728998
v -0.01190186 0.02766521 -0.01729540
v 0.01132534 0.02500604 -0.01288337
v 0.01357174 0.02500604 -0.01288337
v 0.01357174 0.02281502 -0.01244206
v 0.01357174 0.02724010 -0.01288679
v -0.01190186 0.02943251 -0.01245588
v -0.01414826 0.02943251 -0.01245588
v -0.01190186 0.03149847 -0.01160461
v -0.01414826 0.03149847 -0.01160461
v -0.01190186 0.03335936 -0.01036770
v -0.01414826 0.03335936 -0.01036770
v -0.01190186 0.03494184 -0.00879004
v -0.01190186 0.03616176 -0.01379712
v -0.01190186 0.03835982 -0.01160676
v -0.01414826 0.03494184 -0.00879004
v -0.01190186 0.03618721 -0.00693488
v -0.01414826 0.03618721 -0.00693488
v -0.01414826 0.02724010 -0.01288679
v 0.01357174 0.03704592 -0.00487201
v 0.01357174 0.03748706 -0.00268194
v 0.01357174 0.03749064 -0.00044709
v 0.01357174 0.03339391 0.00725479
v 0.01357174 0.03153867 0.00850015
v 0.01132534 0.03153867 0.00850015
v 0.01357174 0.02947586 0.00935874
v 0.01357174 0.02728580 0.00979995
v 0.01132534 0.02947586 0.00935874
v 0.01132534 0.03076977 0.01359458
v 0.01132534 0.02728580 0.00979995
v 0.01132534 0.02505079 0.00980347
v 0.01357174 0.02505079 0.00980347
v 0.01132534 0.02285838 0.00937256
v 0.01132534 0.02079260 0.00852127
v 0.01357174 0.02285838 0.00937256
v 0.01357174 0.02079260 0.00852127
v 0.01357174 0.01893152 0.00728438
v 0.01132534 0.01893152 0.00728438
v 0.01357174 0.01734905 0.00570672
v 0.01357174 0.01610367 0.00385156
v 0.01132534 0.01734905 0.00570672
v 0.01132534 0.01610367 0.00385156
v 0.01357174 0.01524496 0.00178869
v 0.01132534 0.01871231 0.01243130
v 0.01357174 0.01608257 -0.00689461
v -0.00031226 0.06231464 -0.02705871
v 0.00356534 0.06235064 -0.02670052
v -0.00418986 0.06235064 -0.02670052
v -0.00031226 0.06233021 -0.02788039
v 0.00371574 0.06236749 -0.02750945
v -0.00434026 0.06236749 -0.02750945
v -0.00031226 0.07165078 -0.03832560
v 0.00545414 0.07170422 -0.03779388
v -0.00607866 0.07170422 -0.03779388
v -0.00031226 0.07181024 -0.03769840
v -0.00596106 0.07186256 -0.03717783
v 0.00533654 0.07186256 -0.03717783
v 0.01079254 0.07201708 -0.03563273
v 0.01587094 0.07226742 -0.03311715
v 0.01102374 0.07186024 -0.03621678
v 0.01620774 0.07211764 -0.03364803
v 0.00760614 0.06247650 -0.02640763
v 0.00731094 0.06245720 -0.02564026
v 0.01122694 0.06265606 -0.02461340
v 0.01079734 0.06263004 -0.02391288
v 0.01445494 0.06289906 -0.02218793
v 0.01718054 0.06319548 -0.01921386
v 0.01390534 0.06286222 -0.02157799
v 0.02082854 0.07246508 -0.03017577
v 0.02473014 0.07289053 -0.02591778
v 0.02039734 0.07260782 -0.02971494
v 0.02421974 0.07302379 -0.02554363
v 0.02720614 0.07350459 -0.02074445
v 0.02925494 0.07403033 -0.01548104
v 0.02777814 0.07337887 -0.02101885
v 0.02987014 0.07391564 -0.01564559
v 0.01931014 0.06353864 -0.01579183
v 0.02077094 0.06391261 -0.01203841
v 0.01857894 0.06347882 -0.01541999
v 0.01998534 0.06383947 -0.01180674
v 0.01652854 0.06314930 -0.01871394
v 0.02070134 0.06421905 -0.00799760
v 0.02070134 0.06460697 -0.00412257
v 0.02151414 0.06430869 -0.00808219
v 0.03093414 0.07448256 -0.00998190
v 0.02151414 0.06471003 -0.00405654
v 0.03093414 0.07505846 -0.00421941
v 0.02077094 0.06510611 -0.00010032
v 0.01931014 0.06548008 0.00365310
v 0.01998534 0.06498654 -0.00031343
v 0.02987014 0.07562367 0.00144447
v 0.02777814 0.07615969 0.00681780
v 0.02925494 0.07570161 0.00126055
v 0.02720614 0.07622905 0.00652379
v 0.03029734 0.07514724 -0.00428783
v 0.03029734 0.07458394 -0.00993259
v 0.02421974 0.07670815 0.01132314
v 0.02039734 0.07712412 0.01549445
v 0.02473014 0.07665049 0.01171648
v 0.02082854 0.07707594 0.01597447
v 0.01718054 0.06582316 0.00707434
v 0.01652854 0.06567680 0.00659457
v 0.01445494 0.06611890 0.01004928
v 0.01390534 0.06596388 0.00945862
v 0.01122694 0.06636266 0.01247466
v 0.00760614 0.06654146 0.01426898
v 0.01079734 0.06619613 0.01179430
v 0.01620694 0.07742168 0.01944691
v 0.01102374 0.07767908 0.02201564
v 0.01587094 0.07746452 0.01889665
v 0.01079254 0.07771580 0.02141213
v 0.00533654 0.07786938 0.02295734
v -0.00031226 0.07792170 0.02347791
v 0.00545414 0.07783672 0.02359178
v -0.00031226 0.07789016 0.02412350
v 0.00371574 0.06665047 0.01537079
v 0.00356534 0.06647545 0.01458114
v -0.00031226 0.06668775 0.01574173
v -0.00031226 0.06651145 0.01493933
v -0.00434026 0.06665047 0.01537079
v -0.00823066 0.06654146 0.01426898
v -0.00418986 0.06647545 0.01458114
v -0.00607866 0.07783672 0.02359178
v -0.01164826 0.07767908 0.02201564
v -0.00596106 0.07786938 0.02295734
v -0.01141706 0.07771580 0.02141213
v -0.01649546 0.07746452 0.01889665
v -0.01683146 0.07742168 0.01944691
v -0.02102186 0.07712412 0.01549445
v -0.02484426 0.07670815 0.01132314
v -0.02145306 0.07707594 0.01597447
v -0.02535466 0.07665049 0.01171648
v -0.01507946 0.06611890 0.01004928
v -0.01780506 0.06582316 0.00707434
v -0.01452986 0.06596388 0.00945862
v -0.01185146 0.06636266 0.01247466
v -0.01142186 0.06619613 0.01179430
v -0.00793546 0.06636889 0.01352088
v -0.01715306 0.06567680 0.00659457
v -0.01920346 0.06534898 0.00330044
v -0.02060986 0.06498654 -0.00031343
v -0.01993466 0.06548008 0.00365310
v -0.02840266 0.07615969 0.00681780
v -0.02139546 0.06510611 -0.00010032
v -0.02213866 0.06471003 -0.00405654
v -0.03049466 0.07562367 0.00144447
v -0.02987946 0.07570161 0.00126055
v -0.03155866 0.07505846 -0.00421941
v -0.03155866 0.07448256 -0.00998190
v -0.03092186 0.07514724 -0.00428783
v -0.03092186 0.07458394 -0.00993259
v -0.02987946 0.07403033 -0.01548104
v -0.03049466 0.07391564 -0.01564559
v -0.02783066 0.07350459 -0.02074445
v -0.02840266 0.07337887 -0.02101885
v -0.02484426 0.07302379 -0.02554363
v -0.02102186 0.07260782 -0.02971494
v -0.02535466 0.07289053 -0.02591778
v -0.02145306 0.07246508 -0.03017577
v -0.01780506 0.06319548 -0.01921386
v -0.01715306 0.06314930 -0.01871394
v -0.01993466 0.06353864 -0.01579183
v -0.01507946 0.06289906 -0.02218793
v -0.01185146 0.06265606 -0.02461340
v -0.01452986 0.06286222 -0.02157799
v -0.01142186 0.06263004 -0.02391288
v -0.00793546 0.06245720 -0.02564026
v -0.00823066 0.06247650 -0.02640763
v -0.01164826 0.07186024 -0.03621678
v -0.01141706 0.07201708 -0.03563273
v -0.01683226 0.07211764 -0.03364803
v -0.01649546 0.07226742 -0.03311715
v -0.01920346 0.06347882 -0.01541999
v -0.02139546 0.06391261 -0.01203841
v -0.02060986 0.06383947 -0.01180674
v -0.02213866 0.06430869 -0.00808219
v -0.02132586 0.06421905 -0.00799760
v -0.02132586 0.06460697 -0.00412257
v -0.02783066 0.07622905 0.00652379
v 0.00731094 0.06636889 0.01352088
v 0.01857894 0.06534898 0.00330044
v -0.00031226 0.02443763 -0.01663735
v -0.00031226 0.02471698 -0.01666542
v 0.00184854 0.02445971 -0.01641765
v -0.00247306 0.02445971 -0.01641765
v -0.00247306 0.02473906 -0.01644573
v -0.00430186 0.02452259 -0.01579201
v -0.00430186 0.02480194 -0.01582009
v -0.00599546 0.02462071 -0.01480809
v -0.00599546 0.02490006 -0.01483616
v -0.00749546 0.02475139 -0.01350020
v -0.00749546 0.02503074 -0.01352827
v -0.00875066 0.02490936 -0.01191123
v -0.00875066 0.02518966 -0.01193941
v -0.00971786 0.02509100 -0.01009630
v -0.01036586 0.02528912 -0.00811739
v -0.00971786 0.02537111 -0.01012446
v -0.00971786 0.06552021 -0.01442795
v -0.01036586 0.02556848 -0.00814547
v -0.01036586 0.06571738 -0.01244895
v -0.01067066 0.02577636 -0.00606945
v -0.01067066 0.02549700 -0.00604137
v -0.01067066 0.02658153 0.00195908
v -0.01067066 0.06592526 -0.01037293
v -0.01067066 0.06673070 -0.00234362
v -0.01067066 0.06620557 -0.01040110
v -0.01036586 0.06599768 -0.01247712
v -0.01067066 0.06701006 -0.00237170
v -0.01036586 0.06721862 -0.00029655
v -0.00971786 0.06741674 0.00168235
v -0.01036586 0.06693850 -0.00026840
v -0.01036586 0.02678941 0.00403510
v -0.00971786 0.06713644 0.00171052
v -0.00875066 0.06731732 0.00352554
v -0.00971786 0.02698753 0.00601400
v -0.00971786 0.02670818 0.00604208
v -0.00874986 0.02716841 0.00782902
v -0.00749546 0.02732714 0.00941791
v -0.00874986 0.02688811 0.00785719
v -0.00749546 0.02704703 0.00944606
v -0.00599546 0.02717847 0.01075387
v -0.00599546 0.02745783 0.01072580
v -0.00430186 0.02727659 0.01173779
v -0.00247306 0.02733947 0.01236344
v -0.00430186 0.02755595 0.01170971
v -0.00430186 0.06770485 0.00740623
v -0.00247306 0.02761883 0.01233536
v -0.00031226 0.02764267 0.01257256
v -0.00247306 0.06776773 0.00803188
v -0.00031226 0.06779157 0.00826908
v -0.00247306 0.06804803 0.00800371
v -0.00031226 0.06807187 0.00824091
v -0.00430186 0.06798515 0.00737806
v -0.00599546 0.06788703 0.00639414
v -0.00599546 0.06760692 0.00642230
v -0.00749546 0.06775559 0.00508633
v -0.00749546 0.06747624 0.00511441
v -0.00875066 0.06759667 0.00349746
v 0.00184854 0.06804803 0.00800371
v 0.00184854 0.06776773 0.00803188
v 0.00367734 0.06798515 0.00737806
v 0.00367734 0.06770485 0.00740623
v 0.00537094 0.06788703 0.00639414
v 0.00687094 0.06775559 0.00508633
v 0.00537094 0.06760692 0.00642230
v 0.00537094 0.02745783 0.01072580
v 0.00687094 0.06747624 0.00511441
v 0.00687094 0.02732714 0.00941791
v 0.00812614 0.06731732 0.00352554
v 0.00812534 0.02716841 0.00782902
v 0.00909334 0.06713644 0.00171052
v 0.00812614 0.06759667 0.00349746
v 0.00909334 0.06741674 0.00168235
v 0.00974134 0.06721862 -0.00029655
v 0.00974134 0.06693850 -0.00026840
v 0.01004614 0.06701006 -0.00237170
v 0.01004614 0.06673070 -0.00234362
v 0.01004614 0.06620557 -0.01040110
v 0.00974134 0.06599768 -0.01247712
v 0.01004614 0.06592526 -0.01037293
v 0.01004614 0.02577636 -0.00606945
v 0.00974134 0.06571738 -0.01244895
v 0.00909334 0.06552021 -0.01442795
v 0.00974134 0.02556848 -0.00814547
v 0.00974134 0.02528912 -0.00811739
v 0.00909334 0.02537111 -0.01012446
v 0.00909334 0.02509100 -0.01009630
v 0.00812614 0.02518966 -0.01193941
v 0.00812614 0.02490936 -0.01191123
v 0.00812614 0.06533857 -0.01624289
v 0.00687094 0.02503074 -0.01352827
v 0.00687094 0.06517973 -0.01783096
v 0.00687094 0.02475139 -0.01350020
v 0.00537094 0.02490006 -0.01483616
v 0.00537094 0.06504897 -0.01913964
v 0.00537094 0.02462071 -0.01480809
v 0.00367734 0.02480194 -0.01582009
v 0.00184854 0.02473906 -0.01644573
v 0.00367734 0.02452259 -0.01579201
v 0.00367734 0.06495103 -0.02012359
v 0.00184854 0.06488815 -0.02074923
v 0.00367734 0.06523115 -0.02015174
v 0.00184854 0.06516827 -0.02077738
v 0.00537094 0.06532927 -0.01916782
v 0.00687094 0.06546003 -0.01785913
v 0.00812614 0.06561792 -0.01627096
v 0.00909334 0.06579956 -0.01445603
v -0.00031226 0.06514619 -0.02099707
v -0.00247306 0.06516827 -0.02077738
v -0.00031226 0.06486607 -0.02096892
v -0.00247306 0.06488815 -0.02074923
v -0.00430186 0.06495103 -0.02012359
v -0.00599546 0.06504897 -0.01913964
v -0.00430186 0.06523115 -0.02015174
v -0.00599546 0.06532927 -0.01916782
v -0.00749546 0.06546003 -0.01785913
v -0.00875066 0.06561792 -0.01627096
v -0.00749546 0.06517973 -0.01783096
v -0.00875066 0.06533857 -0.01624289
v -0.00971786 0.06579956 -0.01445603
v 0.01004614 0.02549700 -0.00604137
v 0.01004614 0.02630142 0.00198723
v 0.01004614 0.02658153 0.00195908
v 0.00974134 0.02651006 0.00406318
v 0.00909334 0.02670818 0.00604208
v 0.00974134 0.02678941 0.00403510
v 0.00909334 0.02698753 0.00601400
v 0.00812534 0.02688811 0.00785719
v 0.00687094 0.02704703 0.00944606
v 0.00537094 0.02717847 0.01075387
v 0.00367734 0.02727659 0.01173779
v 0.00367734 0.02755595 0.01170971
v 0.00184854 0.02733947 0.01236344
v -0.00031226 0.02736331 0.01260064
v 0.00184854 0.02761883 0.01233536
v -0.01036586 0.02651006 0.00406318
v -0.01067066 0.02630142 0.00198723
vt 0.00288200 0.50874001
vt 0.00289100 0.50551498
vt 0.00617300 0.50550401
vt 0.00608300 0.50871700
vt 0.00617300 0.50550401
vt 0.01171300 0.50550300
vt 0.01174700 0.50872701
vt 0.00608300 0.50871700
vt 0.00608300 0.50871700
vt 0.01174700 0.50872701
vt 0.01168700 0.51195103
vt 0.00616000 0.51191801
vt 0.00616000 0.51191801
vt 0.00292200 0.51195198
vt 0.00288200 0.50874001
vt 0.00608300 0.50871700
vt 0.00616000 0.51191801
vt 0.01168700 0.51195103
vt 0.01169600 0.51517999
vt 0.00606900 0.51510501
vt 0.00606900 0.51510501
vt 0.00291900 0.51511401
vt 0.00292200 0.51195198
vt 0.00616000 0.51191801
vt 0.01169600 0.51517999
vt 0.01158800 0.51840502
vt 0.00610600 0.51827300
vt 0.00606900 0.51510501
vt 0.00610600 0.51827300
vt 0.00293200 0.51825398
vt 0.00291900 0.51511401
vt 0.00606900 0.51510501
vt 0.03528800 0.51523101
vt 0.03537000 0.51845801
vt 0.01158800 0.51840502
vt 0.01169600 0.51517999
vt 0.01168700 0.51195103
vt 0.03529800 0.51201099
vt 0.03528800 0.51523101
vt 0.01169600 0.51517999
vt 0.04085400 0.51834702
vt 0.03537000 0.51845801
vt 0.03528800 0.51523101
vt 0.04090600 0.51517701
vt 0.04090600 0.51517701
vt 0.03528800 0.51523101
vt 0.03529800 0.51201099
vt 0.04082100 0.51198798
vt 0.04082100 0.51198798
vt 0.04406100 0.51202601
vt 0.04406000 0.51519400
vt 0.04090600 0.51517701
vt 0.04406000 0.51519400
vt 0.04403600 0.51834399
vt 0.04085400 0.51834702
vt 0.04090600 0.51517701
vt 0.04085400 0.51834702
vt 0.04403600 0.51834399
vt 0.04408200 0.52143002
vt 0.04099300 0.52149200
vt 0.04099300 0.52149200
vt 0.03541900 0.52169901
vt 0.03537000 0.51845801
vt 0.04085400 0.51834702
vt 0.04408200 0.52143002
vt 0.04415500 0.52447897
vt 0.04105800 0.52462298
vt 0.04099300 0.52149200
vt 0.04105800 0.52462298
vt 0.03558600 0.52497900
vt 0.03541900 0.52169901
vt 0.04099300 0.52149200
vt 0.03541900 0.52169901
vt 0.03558600 0.52497900
vt 0.01134800 0.52492702
vt 0.01153800 0.52165502
vt 0.01158800 0.51840502
vt 0.03537000 0.51845801
vt 0.03541900 0.52169901
vt 0.01153800 0.52165502
vt 0.01153800 0.52165502
vt 0.01134800 0.52492702
vt 0.00584100 0.52455002
vt 0.00594500 0.52141702
vt 0.00610600 0.51827300
vt 0.01158800 0.51840502
vt 0.01153800 0.52165502
vt 0.00594500 0.52141702
vt 0.00584100 0.52455002
vt 0.00276600 0.52434897
vt 0.00287000 0.52132702
vt 0.00594500 0.52141702
vt 0.00594500 0.52141702
vt 0.00287000 0.52132702
vt 0.00293200 0.51825398
vt 0.00610600 0.51827300
vt 0.08864000 0.28981701
vt 0.08863900 0.29234299
vt 0.08814900 0.29482099
vt 0.08718200 0.29715401
vt 0.08578000 0.29925600
vt 0.08399400 0.30104199
vt 0.08189500 0.30244699
vt 0.07956100 0.30341300
vt 0.07708400 0.30390799
vt 0.07455800 0.30390799
vt 0.07208000 0.30341700
vt 0.06974600 0.30245000
vt 0.06764500 0.30104801
vt 0.06585900 0.29926199
vt 0.06445400 0.29716301
vt 0.06348700 0.29482901
vt 0.06299300 0.29235199
vt 0.06299300 0.28982601
vt 0.06348400 0.28734800
vt 0.06445100 0.28501400
vt 0.06585300 0.28291300
vt 0.06763800 0.28112701
vt 0.06973800 0.27972201
vt 0.07207200 0.27875501
vt 0.07454900 0.27826101
vt 0.07707500 0.27826101
vt 0.07955300 0.27875200
vt 0.08188600 0.27971900
vt 0.08398800 0.28112099
vt 0.08577400 0.28290701
vt 0.08717800 0.28500599
vt 0.08814500 0.28733999
vt 0.00554400 0.52765602
vt 0.00250900 0.52732599
vt 0.00276600 0.52434897
vt 0.00584100 0.52455002
vt 0.00521900 0.53076899
vt 0.00214600 0.53029197
vt 0.00250900 0.52732599
vt 0.00554400 0.52765602
vt 0.01117600 0.52827901
vt 0.01080700 0.53173900
vt 0.00521900 0.53076899
vt 0.00554400 0.52765602
vt 0.00584100 0.52455002
vt 0.01134800 0.52492702
vt 0.01117600 0.52827901
vt 0.00554400 0.52765602
vt 0.01134800 0.52492702
vt 0.03558600 0.52497900
vt 0.03576500 0.52830601
vt 0.01117600 0.52827901
vt 0.03576500 0.52830601
vt 0.03612300 0.53176600
vt 0.01080700 0.53173900
vt 0.01117600 0.52827901
vt 0.04165700 0.53080702
vt 0.03612300 0.53176600
vt 0.03576500 0.52830601
vt 0.04136800 0.52771598
vt 0.04136800 0.52771598
vt 0.03576500 0.52830601
vt 0.03558600 0.52497900
vt 0.04105800 0.52462298
vt 0.04105800 0.52462298
vt 0.04415500 0.52447897
vt 0.04435300 0.52743298
vt 0.04136800 0.52771598
vt 0.04435300 0.52743298
vt 0.04468900 0.53035700
vt 0.04165700 0.53080702
vt 0.04136800 0.52771598
vt 0.04165700 0.53080702
vt 0.04468900 0.53035700
vt 0.04515900 0.53328300
vt 0.04221800 0.53375500
vt 0.04221800 0.53375500
vt 0.03660100 0.53538698
vt 0.03612300 0.53176600
vt 0.04165700 0.53080702
vt 0.04231800 0.43214300
vt 0.04522400 0.43263900
vt 0.04477000 0.43552101
vt 0.04172000 0.43509501
vt 0.04172000 0.43509501
vt 0.03620200 0.43411401
vt 0.03669500 0.43048799
vt 0.04231800 0.43214300
vt 0.03669500 0.43048799
vt 0.03620200 0.43411401
vt 0.01086500 0.43404001
vt 0.01038300 0.43030700
vt 0.01080700 0.53173900
vt 0.03612300 0.53176600
vt 0.03660100 0.53538698
vt 0.01031300 0.53545702
vt 0.01038300 0.43030700
vt 0.01086500 0.43404001
vt 0.00523500 0.43500000
vt 0.00465600 0.43198901
vt 0.00521900 0.53076899
vt 0.01080700 0.53173900
vt 0.01031300 0.53545702
vt 0.00463300 0.53375697
vt 0.00523500 0.43500000
vt 0.00213600 0.43546900
vt 0.00165000 0.43247700
vt 0.00465600 0.43198901
vt 0.00463300 0.53375697
vt 0.00165000 0.53325897
vt 0.00214600 0.53029197
vt 0.00521900 0.53076899
vt 0.00248900 0.43845999
vt 0.00213600 0.43546900
vt 0.00523500 0.43500000
vt 0.00555200 0.43813699
vt 0.00584800 0.44126400
vt 0.00273900 0.44146800
vt 0.00248900 0.43845999
vt 0.00555200 0.43813699
vt 0.01121600 0.43753600
vt 0.01137700 0.44089499
vt 0.00584800 0.44126400
vt 0.00555200 0.43813699
vt 0.00523500 0.43500000
vt 0.01086500 0.43404001
vt 0.01121600 0.43753600
vt 0.00555200 0.43813699
vt 0.03582100 0.43755901
vt 0.03563000 0.44089600
vt 0.01137700 0.44089499
vt 0.01121600 0.43753600
vt 0.01086500 0.43404001
vt 0.03620200 0.43411401
vt 0.03582100 0.43755901
vt 0.01121600 0.43753600
vt 0.00584800 0.44126400
vt 0.01137700 0.44089499
vt 0.01156100 0.44417799
vt 0.00596400 0.44441399
vt 0.01137700 0.44089499
vt 0.03563000 0.44089600
vt 0.03545100 0.44418401
vt 0.01156100 0.44417799
vt 0.03545100 0.44418401
vt 0.03539400 0.44742700
vt 0.01160300 0.44743299
vt 0.01156100 0.44417799
vt 0.01156100 0.44417799
vt 0.01160300 0.44743299
vt 0.00611200 0.44756100
vt 0.00596400 0.44441399
vt 0.00611200 0.44756100
vt 0.00293000 0.44764701
vt 0.00284400 0.44452700
vt 0.00596400 0.44441399
vt 0.00596400 0.44441399
vt 0.00284400 0.44452700
vt 0.00273900 0.44146800
vt 0.00584800 0.44126400
vt 0.00606800 0.45073399
vt 0.00294500 0.45076701
vt 0.00293000 0.44764701
vt 0.00611200 0.44756100
vt 0.00619200 0.45391300
vt 0.00296600 0.45391199
vt 0.00294500 0.45076701
vt 0.00606800 0.45073399
vt 0.01170400 0.45065701
vt 0.01169200 0.45387900
vt 0.00619200 0.45391300
vt 0.00606800 0.45073399
vt 0.00611200 0.44756100
vt 0.01160300 0.44743299
vt 0.01170400 0.45065701
vt 0.00606800 0.45073399
vt 0.01160300 0.44743299
vt 0.03539400 0.44742700
vt 0.03530600 0.45065299
vt 0.01170400 0.45065701
vt 0.03530600 0.45065299
vt 0.03530800 0.45387101
vt 0.01169200 0.45387900
vt 0.01170400 0.45065701
vt 0.00619200 0.45391300
vt 0.01169200 0.45387900
vt 0.01175700 0.45709300
vt 0.00608700 0.45710701
vt 0.01169200 0.45387900
vt 0.03530800 0.45387101
vt 0.03525600 0.45708799
vt 0.01175700 0.45709300
vt 0.03525600 0.45708799
vt 0.03528300 0.46030799
vt 0.01172100 0.46031401
vt 0.01175700 0.45709300
vt 0.01175700 0.45709300
vt 0.01172100 0.46031401
vt 0.00617400 0.46031600
vt 0.00608700 0.45710701
vt 0.00617400 0.46031600
vt 0.00291300 0.46027499
vt 0.00292400 0.45708901
vt 0.00608700 0.45710701
vt 0.00608700 0.45710701
vt 0.00292400 0.45708901
vt 0.00296600 0.45391199
vt 0.00619200 0.45391300
vt 0.00609700 0.46353099
vt 0.00286900 0.46351299
vt 0.00291300 0.46027499
vt 0.00617400 0.46031600
vt 0.00615500 0.46675101
vt 0.00286800 0.46676400
vt 0.00286900 0.46351299
vt 0.00609700 0.46353099
vt 0.01177500 0.46353701
vt 0.01172500 0.46676499
vt 0.00615500 0.46675101
vt 0.00609700 0.46353099
vt 0.00617400 0.46031600
vt 0.01172100 0.46031401
vt 0.01177500 0.46353701
vt 0.00609700 0.46353099
vt 0.01172100 0.46031401
vt 0.03528300 0.46030799
vt 0.03524300 0.46353400
vt 0.01177500 0.46353701
vt 0.03524300 0.46353400
vt 0.03528300 0.46676499
vt 0.01172500 0.46676499
vt 0.01177500 0.46353701
vt 0.00615500 0.46675101
vt 0.01172500 0.46676499
vt 0.01177000 0.46999401
vt 0.00605700 0.46998700
vt 0.01172500 0.46676499
vt 0.03528300 0.46676499
vt 0.03525000 0.46999499
vt 0.01177000 0.46999401
vt 0.04086300 0.46674901
vt 0.03528300 0.46676499
vt 0.03524300 0.46353400
vt 0.04092000 0.46352401
vt 0.04096300 0.46998700
vt 0.03525000 0.46999499
vt 0.03528300 0.46676499
vt 0.04086300 0.46674901
vt 0.04089900 0.47322500
vt 0.03529000 0.47322699
vt 0.03525000 0.46999499
vt 0.04096300 0.46998700
vt 0.03525000 0.46999499
vt 0.03529000 0.47322699
vt 0.01171900 0.47322300
vt 0.01177000 0.46999401
vt 0.04086300 0.46674901
vt 0.04415400 0.46676001
vt 0.04418300 0.46999201
vt 0.04096300 0.46998700
vt 0.04418300 0.46999201
vt 0.04417400 0.47322601
vt 0.04089900 0.47322500
vt 0.04096300 0.46998700
vt 0.04089900 0.47322500
vt 0.04417400 0.47322601
vt 0.04419000 0.47646701
vt 0.04095400 0.47646099
vt 0.04095400 0.47646099
vt 0.03525100 0.47646299
vt 0.03529000 0.47322699
vt 0.04089900 0.47322500
vt 0.04095400 0.47646099
vt 0.04419000 0.47646701
vt 0.04416800 0.47971901
vt 0.04088400 0.47969401
vt 0.04088400 0.47969401
vt 0.03528900 0.47969899
vt 0.03525100 0.47646299
vt 0.04095400 0.47646099
vt 0.03525100 0.47646299
vt 0.03528900 0.47969899
vt 0.01171800 0.47968799
vt 0.01176800 0.47645500
vt 0.01171900 0.47322300
vt 0.03529000 0.47322699
vt 0.03525100 0.47646299
vt 0.01176800 0.47645500
vt 0.01176800 0.47645500
vt 0.01171800 0.47968799
vt 0.00613400 0.47968200
vt 0.00606500 0.47645199
vt 0.00612000 0.47321901
vt 0.01171900 0.47322300
vt 0.01176800 0.47645500
vt 0.00606500 0.47645199
vt 0.01177000 0.46999401
vt 0.01171900 0.47322300
vt 0.00612000 0.47321901
vt 0.00605700 0.46998700
vt 0.00283200 0.47645700
vt 0.00284900 0.47321999
vt 0.00612000 0.47321901
vt 0.00606500 0.47645199
vt 0.00612000 0.47321901
vt 0.00284900 0.47321999
vt 0.00284000 0.46999100
vt 0.00605700 0.46998700
vt 0.00605700 0.46998700
vt 0.00284000 0.46999100
vt 0.00286800 0.46676400
vt 0.00615500 0.46675101
vt 0.00613400 0.47968200
vt 0.00285100 0.47970799
vt 0.00283200 0.47645700
vt 0.00606500 0.47645199
vt 0.00604100 0.48291799
vt 0.00283600 0.48292801
vt 0.00285100 0.47970799
vt 0.00613400 0.47968200
vt 0.00615200 0.48615101
vt 0.00286300 0.48615500
vt 0.00283600 0.48292801
vt 0.00604100 0.48291799
vt 0.01176500 0.48291799
vt 0.01171700 0.48614901
vt 0.00615200 0.48615101
vt 0.00604100 0.48291799
vt 0.00613400 0.47968200
vt 0.01171800 0.47968799
vt 0.01176500 0.48291799
vt 0.00604100 0.48291799
vt 0.03525200 0.48293200
vt 0.03528400 0.48616701
vt 0.01171700 0.48614901
vt 0.01176500 0.48291799
vt 0.01171800 0.47968799
vt 0.03528900 0.47969899
vt 0.03525200 0.48293200
vt 0.01176500 0.48291799
vt 0.04098200 0.48293501
vt 0.03525200 0.48293200
vt 0.03528900 0.47969899
vt 0.04088400 0.47969401
vt 0.04088000 0.48617801
vt 0.03528400 0.48616701
vt 0.03525200 0.48293200
vt 0.04098200 0.48293501
vt 0.04094300 0.48941201
vt 0.03524100 0.48940399
vt 0.03528400 0.48616701
vt 0.04088000 0.48617801
vt 0.01171700 0.48614901
vt 0.03528400 0.48616701
vt 0.03524100 0.48940399
vt 0.01176300 0.48938000
vt 0.03524100 0.48940399
vt 0.03527600 0.49264199
vt 0.01171100 0.49260899
vt 0.01176300 0.48938000
vt 0.04086800 0.49264699
vt 0.03527600 0.49264199
vt 0.03524100 0.48940399
vt 0.04094300 0.48941201
vt 0.04418800 0.48941699
vt 0.04416300 0.49268001
vt 0.04086800 0.49264699
vt 0.04094300 0.48941201
vt 0.04088000 0.48617801
vt 0.04416900 0.48615599
vt 0.04418800 0.48941699
vt 0.04094300 0.48941201
vt 0.04086800 0.49264699
vt 0.04416300 0.49268001
vt 0.04416700 0.49591100
vt 0.04095100 0.49588799
vt 0.04095100 0.49588799
vt 0.03523700 0.49587700
vt 0.03527600 0.49264199
vt 0.04086800 0.49264699
vt 0.34846401 0.28862399
vt 0.34986800 0.28652400
vt 0.35165399 0.28473899
vt 0.35375601 0.28333700
vt 0.35609001 0.28237000
vt 0.35856700 0.28187901
vt 0.36109301 0.28187901
vt 0.36357099 0.28237301
vt 0.36590400 0.28334001
vt 0.36800399 0.28474501
vt 0.36978999 0.28653100
vt 0.37119099 0.28863299
vt 0.37215799 0.29096699
vt 0.37264901 0.29344499
vt 0.37264901 0.29597101
vt 0.37215400 0.29844701
vt 0.37118700 0.30078101
vt 0.36978301 0.30287999
vt 0.36799601 0.30466601
vt 0.36589500 0.30606800
vt 0.36356100 0.30703500
vt 0.36108401 0.30752599
vt 0.35855699 0.30752599
vt 0.35608000 0.30703101
vt 0.35374701 0.30606401
vt 0.35164800 0.30465901
vt 0.34986201 0.30287299
vt 0.34845999 0.30077201
vt 0.34749299 0.29843801
vt 0.34700200 0.29596001
vt 0.34700200 0.29343399
vt 0.34749699 0.29095700
vt 0.04416700 0.49591100
vt 0.04413700 0.49913499
vt 0.04087600 0.49912101
vt 0.04095100 0.49588799
vt 0.04087600 0.49912101
vt 0.04413700 0.49913499
vt 0.04413800 0.50235897
vt 0.04092500 0.50234902
vt 0.04092500 0.50234902
vt 0.03522700 0.50234199
vt 0.03527100 0.49910900
vt 0.04087600 0.49912101
vt 0.04087600 0.49912101
vt 0.03527100 0.49910900
vt 0.03523700 0.49587700
vt 0.04095100 0.49588799
vt 0.03523700 0.49587700
vt 0.03527100 0.49910900
vt 0.01170600 0.49905601
vt 0.01175500 0.49583399
vt 0.01170600 0.49905601
vt 0.03527100 0.49910900
vt 0.03522700 0.50234199
vt 0.01175300 0.50227797
vt 0.01175300 0.50227797
vt 0.03522700 0.50234199
vt 0.03527000 0.50556701
vt 0.01171300 0.50550300
vt 0.04081400 0.50557297
vt 0.03527000 0.50556701
vt 0.03522700 0.50234199
vt 0.04092500 0.50234902
vt 0.03523800 0.50879401
vt 0.03527000 0.50556701
vt 0.04081400 0.50557297
vt 0.04090100 0.50878698
vt 0.01171300 0.50550300
vt 0.03527000 0.50556701
vt 0.03523800 0.50879401
vt 0.01174700 0.50872701
vt 0.01175300 0.50227797
vt 0.01171300 0.50550300
vt 0.00617300 0.50550401
vt 0.00606900 0.50228399
vt 0.04082100 0.51198798
vt 0.03529800 0.51201099
vt 0.03523800 0.50879401
vt 0.04090100 0.50878698
vt 0.01174700 0.50872701
vt 0.03523800 0.50879401
vt 0.03529800 0.51201099
vt 0.01168700 0.51195103
vt 0.04090100 0.50878698
vt 0.04410300 0.50881201
vt 0.04406100 0.51202601
vt 0.04082100 0.51198798
vt 0.04081400 0.50557297
vt 0.04409600 0.50558800
vt 0.04410300 0.50881201
vt 0.04090100 0.50878698
vt 0.04413800 0.50235897
vt 0.04409600 0.50558800
vt 0.04081400 0.50557297
vt 0.04092500 0.50234902
vt 0.00613700 0.49906501
vt 0.01170600 0.49905601
vt 0.01175300 0.50227797
vt 0.00606900 0.50228399
vt 0.00606900 0.50228399
vt 0.00285200 0.50228000
vt 0.00286800 0.49904200
vt 0.00613700 0.49906501
vt 0.00617300 0.50550401
vt 0.00289100 0.50551498
vt 0.00285200 0.50228000
vt 0.00606900 0.50228399
vt 0.00613700 0.49906501
vt 0.00286800 0.49904200
vt 0.00285200 0.49583799
vt 0.00603800 0.49583501
vt 0.01175500 0.49583399
vt 0.01170600 0.49905601
vt 0.00613700 0.49906501
vt 0.00603800 0.49583501
vt 0.00603800 0.49583501
vt 0.00285200 0.49583799
vt 0.00286200 0.49263299
vt 0.00613300 0.49260399
vt 0.00613300 0.49260399
vt 0.01171100 0.49260899
vt 0.01175500 0.49583399
vt 0.00603800 0.49583501
vt 0.01171100 0.49260899
vt 0.03527600 0.49264199
vt 0.03523700 0.49587700
vt 0.01175500 0.49583399
vt 0.01176300 0.48938000
vt 0.01171100 0.49260899
vt 0.00613300 0.49260399
vt 0.00605800 0.48938000
vt 0.00613300 0.49260399
vt 0.00286200 0.49263299
vt 0.00283700 0.48939401
vt 0.00605800 0.48938000
vt 0.00605800 0.48938000
vt 0.00283700 0.48939401
vt 0.00286300 0.48615500
vt 0.00615200 0.48615101
vt 0.00615200 0.48615101
vt 0.01171700 0.48614901
vt 0.01176300 0.48938000
vt 0.00605800 0.48938000
vt 0.04418300 0.48293701
vt 0.04416900 0.48615599
vt 0.04088000 0.48617801
vt 0.04098200 0.48293501
vt 0.04088400 0.47969401
vt 0.04416800 0.47971901
vt 0.04418300 0.48293701
vt 0.04098200 0.48293501
vt 0.04415200 0.46350300
vt 0.04415400 0.46676001
vt 0.04086300 0.46674901
vt 0.04092000 0.46352401
vt 0.04083900 0.46030599
vt 0.04410300 0.46026000
vt 0.04415200 0.46350300
vt 0.04092000 0.46352401
vt 0.04408700 0.45706999
vt 0.04410300 0.46026000
vt 0.04083900 0.46030599
vt 0.04092200 0.45709401
vt 0.04083900 0.46030599
vt 0.03528300 0.46030799
vt 0.03525600 0.45708799
vt 0.04092200 0.45709401
vt 0.04092000 0.46352401
vt 0.03524300 0.46353400
vt 0.03528300 0.46030799
vt 0.04083900 0.46030599
vt 0.04081200 0.45389900
vt 0.04403700 0.45389101
vt 0.04408700 0.45706999
vt 0.04092200 0.45709401
vt 0.04092200 0.45709401
vt 0.03525600 0.45708799
vt 0.03530800 0.45387101
vt 0.04081200 0.45389900
vt 0.04081200 0.45389900
vt 0.03530800 0.45387101
vt 0.03530600 0.45065299
vt 0.04092900 0.45072100
vt 0.04404900 0.45074701
vt 0.04403700 0.45389101
vt 0.04081200 0.45389900
vt 0.04092900 0.45072100
vt 0.04087800 0.44755200
vt 0.04405400 0.44762799
vt 0.04404900 0.45074701
vt 0.04092900 0.45072100
vt 0.04092900 0.45072100
vt 0.03530600 0.45065299
vt 0.03539400 0.44742700
vt 0.04087800 0.44755200
vt 0.04412600 0.44451699
vt 0.04405400 0.44762799
vt 0.04087800 0.44755200
vt 0.04101900 0.44441599
vt 0.04112800 0.44127899
vt 0.04421800 0.44147199
vt 0.04412600 0.44451699
vt 0.04101900 0.44441599
vt 0.04444900 0.43848500
vt 0.04421800 0.44147199
vt 0.04112800 0.44127899
vt 0.04141700 0.43818301
vt 0.04112800 0.44127899
vt 0.03563000 0.44089600
vt 0.03582100 0.43755901
vt 0.04141700 0.43818301
vt 0.04101900 0.44441599
vt 0.03545100 0.44418401
vt 0.03563000 0.44089600
vt 0.04112800 0.44127899
vt 0.04172000 0.43509501
vt 0.04477000 0.43552101
vt 0.04444900 0.43848500
vt 0.04141700 0.43818301
vt 0.04141700 0.43818301
vt 0.03582100 0.43755901
vt 0.03620200 0.43411401
vt 0.04172000 0.43509501
vt 0.04087800 0.44755200
vt 0.03539400 0.44742700
vt 0.03545100 0.44418401
vt 0.04101900 0.44441599
vt 0.74632198 0.26329800
vt 0.75047600 0.26335701
vt 0.75055099 0.26423699
vt 0.74623197 0.26418599
vt 0.76973599 0.24919701
vt 0.76779300 0.25290999
vt 0.76519102 0.25621599
vt 0.76201898 0.25899300
vt 0.75844902 0.26116699
vt 0.75455701 0.26263699
vt 0.75047600 0.26335701
vt 0.74632198 0.26329800
vt 0.74223900 0.26251799
vt 0.73838103 0.26098901
vt 0.73486102 0.25876400
vt 0.73179799 0.25591299
vt 0.72925901 0.25254101
vt 0.72738999 0.24876800
vt 0.72624999 0.24473301
vt 0.72587597 0.24057600
vt 0.72625899 0.23641200
vt 0.72739899 0.23238800
vt 0.72926199 0.22863300
vt 0.73178601 0.22527900
vt 0.73493201 0.22244900
vt 0.73856503 0.22023100
vt 0.74255800 0.21870901
vt 0.74675000 0.21793900
vt 0.75101697 0.21801300
vt 0.75520498 0.21885499
vt 0.75917703 0.22044900
vt 0.76278800 0.22273099
vt 0.76584202 0.22564401
vt 0.76830900 0.22905999
vt 0.77008802 0.23286000
vt 0.77113801 0.23691601
vt 0.77143103 0.24107499
vt 0.77095598 0.24521300
vt 0.74623197 0.26418599
vt 0.74198699 0.26336601
vt 0.74223900 0.26251799
vt 0.74632198 0.26329800
vt 0.74623197 0.26418599
vt 0.75055099 0.26423699
vt 0.75155902 0.27958101
vt 0.74467301 0.27950400
vt 0.74198699 0.26336601
vt 0.74623197 0.26418599
vt 0.74467301 0.27950400
vt 0.73790801 0.27820000
vt 0.74467301 0.27950400
vt 0.75155902 0.27958101
vt 0.75161803 0.28039101
vt 0.74459499 0.28027901
vt 0.74459499 0.28027901
vt 0.73768800 0.27898201
vt 0.73790801 0.27820000
vt 0.74467301 0.27950400
vt 0.75155902 0.27958101
vt 0.75850201 0.27846900
vt 0.75870502 0.27926999
vt 0.75161803 0.28039101
vt 0.75850201 0.27846900
vt 0.76521301 0.27612600
vt 0.76555902 0.27688700
vt 0.75870502 0.27926999
vt 0.75479400 0.26348901
vt 0.75884199 0.26196700
vt 0.76521301 0.27612600
vt 0.75850201 0.27846900
vt 0.75055099 0.26423699
vt 0.75479400 0.26348901
vt 0.75850201 0.27846900
vt 0.75155902 0.27958101
vt 0.75047600 0.26335701
vt 0.75455701 0.26263699
vt 0.75479400 0.26348901
vt 0.75055099 0.26423699
vt 0.75455701 0.26263699
vt 0.75844902 0.26116699
vt 0.75884199 0.26196700
vt 0.75479400 0.26348901
vt 0.76255703 0.25970900
vt 0.75884199 0.26196700
vt 0.75844902 0.26116699
vt 0.76201898 0.25899300
vt 0.75884199 0.26196700
vt 0.76255703 0.25970900
vt 0.77145803 0.27256501
vt 0.76521301 0.27612600
vt 0.76255703 0.25970900
vt 0.76583999 0.25682500
vt 0.77704197 0.26777899
vt 0.77145803 0.27256501
vt 0.76583999 0.25682500
vt 0.76255703 0.25970900
vt 0.76201898 0.25899300
vt 0.76519102 0.25621599
vt 0.77768302 0.26839501
vt 0.77194601 0.27326199
vt 0.77145803 0.27256501
vt 0.77704197 0.26777899
vt 0.77194601 0.27326199
vt 0.76555902 0.27688700
vt 0.76521301 0.27612600
vt 0.77145803 0.27256501
vt 0.78232801 0.26246199
vt 0.77768302 0.26839501
vt 0.77704197 0.26777899
vt 0.78161103 0.26200101
vt 0.78569502 0.25591999
vt 0.78232801 0.26246199
vt 0.78161103 0.26200101
vt 0.78492498 0.25560400
vt 0.76854497 0.25339299
vt 0.77055597 0.24953100
vt 0.78492498 0.25560400
vt 0.78161103 0.26200101
vt 0.76583999 0.25682500
vt 0.76854497 0.25339299
vt 0.78161103 0.26200101
vt 0.77704197 0.26777899
vt 0.77055597 0.24953100
vt 0.76854497 0.25339299
vt 0.76779300 0.25290999
vt 0.76973599 0.24919701
vt 0.76854497 0.25339299
vt 0.76583999 0.25682500
vt 0.76519102 0.25621599
vt 0.76779300 0.25290999
vt 0.77182102 0.24539000
vt 0.77055597 0.24953100
vt 0.76973599 0.24919701
vt 0.77095598 0.24521300
vt 0.77231300 0.24109299
vt 0.77182102 0.24539000
vt 0.77095598 0.24521300
vt 0.77143103 0.24107499
vt 0.77055597 0.24953100
vt 0.77182102 0.24539000
vt 0.78700900 0.24887200
vt 0.78492498 0.25560400
vt 0.77182102 0.24539000
vt 0.77231300 0.24109299
vt 0.78788298 0.24188200
vt 0.78700900 0.24887200
vt 0.77231300 0.24109299
vt 0.77201200 0.23677200
vt 0.78753102 0.23470700
vt 0.78788298 0.24188200
vt 0.77201200 0.23677200
vt 0.77231300 0.24109299
vt 0.77143103 0.24107499
vt 0.77113801 0.23691601
vt 0.77092397 0.23255800
vt 0.77201200 0.23677200
vt 0.77113801 0.23691601
vt 0.77008802 0.23286000
vt 0.77201200 0.23677200
vt 0.77092397 0.23255800
vt 0.78587902 0.22765100
vt 0.78753102 0.23470700
vt 0.78668499 0.22738101
vt 0.78836501 0.23458900
vt 0.78753102 0.23470700
vt 0.78587902 0.22765100
vt 0.78836501 0.23458900
vt 0.78871298 0.24191301
vt 0.78788298 0.24188200
vt 0.78753102 0.23470700
vt 0.78871298 0.24191301
vt 0.78778899 0.24903999
vt 0.78700900 0.24887200
vt 0.78788298 0.24188200
vt 0.78778899 0.24903999
vt 0.78569502 0.25591999
vt 0.78492498 0.25560400
vt 0.78700900 0.24887200
vt 0.78368902 0.22055499
vt 0.78668499 0.22738101
vt 0.78587902 0.22765100
vt 0.78294098 0.22097100
vt 0.77945298 0.21435601
vt 0.78368902 0.22055499
vt 0.78294098 0.22097100
vt 0.77879000 0.21490800
vt 0.76907498 0.22860600
vt 0.76651198 0.22505701
vt 0.77879000 0.21490800
vt 0.78294098 0.22097100
vt 0.77092397 0.23255800
vt 0.76907498 0.22860600
vt 0.78294098 0.22097100
vt 0.78587902 0.22765100
vt 0.76907498 0.22860600
vt 0.77092397 0.23255800
vt 0.77008802 0.23286000
vt 0.76830900 0.22905999
vt 0.76651198 0.22505701
vt 0.76907498 0.22860600
vt 0.76830900 0.22905999
vt 0.76584202 0.22564401
vt 0.76651198 0.22505701
vt 0.76333499 0.22202000
vt 0.77354300 0.20968300
vt 0.77879000 0.21490800
vt 0.76333499 0.22202000
vt 0.76651198 0.22505701
vt 0.76584202 0.22564401
vt 0.76278800 0.22273099
vt 0.76278800 0.22273099
vt 0.75917703 0.22044900
vt 0.75958800 0.21964300
vt 0.76333499 0.22202000
vt 0.76333499 0.22202000
vt 0.75958800 0.21964300
vt 0.76735198 0.20549700
vt 0.77354300 0.20968300
vt 0.77354300 0.20968300
vt 0.76735198 0.20549700
vt 0.76777202 0.20472500
vt 0.77409601 0.20901100
vt 0.77409601 0.20901100
vt 0.77945298 0.21435601
vt 0.77879000 0.21490800
vt 0.77354300 0.20968300
vt 0.76066202 0.20167600
vt 0.76777202 0.20472500
vt 0.76735198 0.20549700
vt 0.76039302 0.20253100
vt 0.75290298 0.20002800
vt 0.76066202 0.20167600
vt 0.76039302 0.20253100
vt 0.75280499 0.20095900
vt 0.75546002 0.21798800
vt 0.75111300 0.21712400
vt 0.75280499 0.20095900
vt 0.76039302 0.20253100
vt 0.75958800 0.21964300
vt 0.75546002 0.21798800
vt 0.76039302 0.20253100
vt 0.76735198 0.20549700
vt 0.75546002 0.21798800
vt 0.75958800 0.21964300
vt 0.75917703 0.22044900
vt 0.75520498 0.21885499
vt 0.75111300 0.21712400
vt 0.75546002 0.21798800
vt 0.75520498 0.21885499
vt 0.75101697 0.21801300
vt 0.75111300 0.21712400
vt 0.74668199 0.21704599
vt 0.74505597 0.20092000
vt 0.75280499 0.20095900
vt 0.75101697 0.21801300
vt 0.74675000 0.21793900
vt 0.74668199 0.21704599
vt 0.75111300 0.21712400
vt 0.74668199 0.21704599
vt 0.74231702 0.21783800
vt 0.73763102 0.20238100
vt 0.74505597 0.20092000
vt 0.74675000 0.21793900
vt 0.74255800 0.21870901
vt 0.74231702 0.21783800
vt 0.74668199 0.21704599
vt 0.74505597 0.20092000
vt 0.73763102 0.20238100
vt 0.73738003 0.20153700
vt 0.74497098 0.20002800
vt 0.75280499 0.20095900
vt 0.74505597 0.20092000
vt 0.74497098 0.20002800
vt 0.75290298 0.20002800
vt 0.73029703 0.20442200
vt 0.73738003 0.20153700
vt 0.73763102 0.20238100
vt 0.73069799 0.20519599
vt 0.73069799 0.20519599
vt 0.72446501 0.20922600
vt 0.72393000 0.20854600
vt 0.73029703 0.20442200
vt 0.72446501 0.20922600
vt 0.71912801 0.21431001
vt 0.71848100 0.21374500
vt 0.72393000 0.20854600
vt 0.73439902 0.22172999
vt 0.73113298 0.22467300
vt 0.71912801 0.21431001
vt 0.72446501 0.20922600
vt 0.73816800 0.21941701
vt 0.73439902 0.22172999
vt 0.72446501 0.20922600
vt 0.73069799 0.20519599
vt 0.73493201 0.22244900
vt 0.73178601 0.22527900
vt 0.73113298 0.22467300
vt 0.73439902 0.22172999
vt 0.73856503 0.22023100
vt 0.73493201 0.22244900
vt 0.73439902 0.22172999
vt 0.73816800 0.21941701
vt 0.73816800 0.21941701
vt 0.74231702 0.21783800
vt 0.74255800 0.21870901
vt 0.73856503 0.22023100
vt 0.74231702 0.21783800
vt 0.73816800 0.21941701
vt 0.73069799 0.20519599
vt 0.73763102 0.20238100
vt 0.73178601 0.22527900
vt 0.72926199 0.22863300
vt 0.72850502 0.22816400
vt 0.73113298 0.22467300
vt 0.72926199 0.22863300
vt 0.72739899 0.23238800
vt 0.72657102 0.23206800
vt 0.72850502 0.22816400
vt 0.73113298 0.22467300
vt 0.72850502 0.22816400
vt 0.71485800 0.22025600
vt 0.71912801 0.21431001
vt 0.72850502 0.22816400
vt 0.72657102 0.23206800
vt 0.71177500 0.22684100
vt 0.71485800 0.22025600
vt 0.72739899 0.23238800
vt 0.72625899 0.23641200
vt 0.72538799 0.23624900
vt 0.72657102 0.23206800
vt 0.72657102 0.23206800
vt 0.72538799 0.23624900
vt 0.70994800 0.23381300
vt 0.71177500 0.22684100
vt 0.71485800 0.22025600
vt 0.71177500 0.22684100
vt 0.71097898 0.22655199
vt 0.71412200 0.21982300
vt 0.71177500 0.22684100
vt 0.70994800 0.23381300
vt 0.70912600 0.23367301
vt 0.71097898 0.22655199
vt 0.72538799 0.23624900
vt 0.72499001 0.24056900
vt 0.70936501 0.24085800
vt 0.70994800 0.23381300
vt 0.70994800 0.23381300
vt 0.70936501 0.24085800
vt 0.70856500 0.24086200
vt 0.70912600 0.23367301
vt 0.70936501 0.24085800
vt 0.71002799 0.24789800
vt 0.70920599 0.24805000
vt 0.70856500 0.24086200
vt 0.71002799 0.24789800
vt 0.71197098 0.25485799
vt 0.71117198 0.25516501
vt 0.70920599 0.24805000
vt 0.71197098 0.25485799
vt 0.71527803 0.26146701
vt 0.71452302 0.26194099
vt 0.71117198 0.25516501
vt 0.71527803 0.26146701
vt 0.71979201 0.26730400
vt 0.71916997 0.26788899
vt 0.71452302 0.26194099
vt 0.72849602 0.25300801
vt 0.73112601 0.25650701
vt 0.71979201 0.26730400
vt 0.71527803 0.26146701
vt 0.72655702 0.24908599
vt 0.72849602 0.25300801
vt 0.71527803 0.26146701
vt 0.71197098 0.25485799
vt 0.72738999 0.24876800
vt 0.72925901 0.25254101
vt 0.72849602 0.25300801
vt 0.72655702 0.24908599
vt 0.72925901 0.25254101
vt 0.73179799 0.25591299
vt 0.73112601 0.25650701
vt 0.72849602 0.25300801
vt 0.73179799 0.25591299
vt 0.73486102 0.25876400
vt 0.73431402 0.25946900
vt 0.73112601 0.25650701
vt 0.73112601 0.25650701
vt 0.73431402 0.25946900
vt 0.72520399 0.27206400
vt 0.71979201 0.26730400
vt 0.73797703 0.26177600
vt 0.73431402 0.25946900
vt 0.73486102 0.25876400
vt 0.73838103 0.26098901
vt 0.74198699 0.26336601
vt 0.73797703 0.26177600
vt 0.73838103 0.26098901
vt 0.74223900 0.26251799
vt 0.73797703 0.26177600
vt 0.74198699 0.26336601
vt 0.73790801 0.27820000
vt 0.73132002 0.27571499
vt 0.73431402 0.25946900
vt 0.73797703 0.26177600
vt 0.73132002 0.27571499
vt 0.72520399 0.27206400
vt 0.73768800 0.27898201
vt 0.73096001 0.27645999
vt 0.73132002 0.27571499
vt 0.73790801 0.27820000
vt 0.73096001 0.27645999
vt 0.72471100 0.27274001
vt 0.72520399 0.27206400
vt 0.73132002 0.27571499
vt 0.71979201 0.26730400
vt 0.72520399 0.27206400
vt 0.72471100 0.27274001
vt 0.71916997 0.26788899
vt 0.72624999 0.24473301
vt 0.72738999 0.24876800
vt 0.72655702 0.24908599
vt 0.72537702 0.24489200
vt 0.72537702 0.24489200
vt 0.72655702 0.24908599
vt 0.71197098 0.25485799
vt 0.71002799 0.24789800
vt 0.72499001 0.24056900
vt 0.72537702 0.24489200
vt 0.71002799 0.24789800
vt 0.70936501 0.24085800
vt 0.72587597 0.24057600
vt 0.72624999 0.24473301
vt 0.72537702 0.24489200
vt 0.72499001 0.24056900
vt 0.72625899 0.23641200
vt 0.72587597 0.24057600
vt 0.72499001 0.24056900
vt 0.72538799 0.23624900
vt 0.71912801 0.21431001
vt 0.71485800 0.22025600
vt 0.71412200 0.21982300
vt 0.71848100 0.21374500
vt 0.48659900 0.49682200
vt 0.48659900 0.49927700
vt 0.48628101 0.49927700
vt 0.48628101 0.49682200
vt 0.48659900 0.40706399
vt 0.48659900 0.40952000
vt 0.48628101 0.40952000
vt 0.48628101 0.40706399
vt 0.48659900 0.49463600
vt 0.48659900 0.49682200
vt 0.48628101 0.49682200
vt 0.48628101 0.49463600
vt 0.48660001 0.49241900
vt 0.48659900 0.49463600
vt 0.48628101 0.49463600
vt 0.48628199 0.49241900
vt 0.48660100 0.49016401
vt 0.48660001 0.49241900
vt 0.48628199 0.49241900
vt 0.48628300 0.49016401
vt 0.48660201 0.48786801
vt 0.48660100 0.49016401
vt 0.48628300 0.49016401
vt 0.48628399 0.48786801
vt 0.48660299 0.48553401
vt 0.48660201 0.48786801
vt 0.48628399 0.48786801
vt 0.48628500 0.48553401
vt 0.48660499 0.48317000
vt 0.48660299 0.48553401
vt 0.48628500 0.48553401
vt 0.48628700 0.48317000
vt 0.44837201 0.48786801
vt 0.44837299 0.48553401
vt 0.48628500 0.48553401
vt 0.48628399 0.48786801
vt 0.44837299 0.48553401
vt 0.44837400 0.48317000
vt 0.48628700 0.48317000
vt 0.48628500 0.48553401
vt 0.44837400 0.48317000
vt 0.44837600 0.48078600
vt 0.48628801 0.48078701
vt 0.48628700 0.48317000
vt 0.48660600 0.48078701
vt 0.48660499 0.48317000
vt 0.48628700 0.48317000
vt 0.48628801 0.48078701
vt 0.48660699 0.47166401
vt 0.48660600 0.48078701
vt 0.48628801 0.48078701
vt 0.48628899 0.47166401
vt 0.44837600 0.48078600
vt 0.44837701 0.47166401
vt 0.48628899 0.47166401
vt 0.48628801 0.48078701
vt 0.44837600 0.48078600
vt 0.44837400 0.48317000
vt 0.44805601 0.48317000
vt 0.44805801 0.48078600
vt 0.44837701 0.47166401
vt 0.44837600 0.48078600
vt 0.44805801 0.48078600
vt 0.44805899 0.47166401
vt 0.44837800 0.46928000
vt 0.44837701 0.47166401
vt 0.44805899 0.47166401
vt 0.44806001 0.46928000
vt 0.44837999 0.46691599
vt 0.44837800 0.46928000
vt 0.44806001 0.46928000
vt 0.44806200 0.46691599
vt 0.44837701 0.47166401
vt 0.44837800 0.46928000
vt 0.48629001 0.46928000
vt 0.48628899 0.47166401
vt 0.44837800 0.46928000
vt 0.44837999 0.46691599
vt 0.48629200 0.46691599
vt 0.48629001 0.46928000
vt 0.44838101 0.46458200
vt 0.44837999 0.46691599
vt 0.44806200 0.46691599
vt 0.44806299 0.46458200
vt 0.44837999 0.46691599
vt 0.44838101 0.46458200
vt 0.48629299 0.46458200
vt 0.48629200 0.46691599
vt 0.48661000 0.46691599
vt 0.48660800 0.46928000
vt 0.48629001 0.46928000
vt 0.48629200 0.46691599
vt 0.48661101 0.46458200
vt 0.48661000 0.46691599
vt 0.48629200 0.46691599
vt 0.48629299 0.46458200
vt 0.44838101 0.46458200
vt 0.44838199 0.46228600
vt 0.48629400 0.46228600
vt 0.48629299 0.46458200
vt 0.48661199 0.46228600
vt 0.48661101 0.46458200
vt 0.48629299 0.46458200
vt 0.48629400 0.46228600
vt 0.48661301 0.46003100
vt 0.48661199 0.46228600
vt 0.48629400 0.46228600
vt 0.48629501 0.46003100
vt 0.48661399 0.45781499
vt 0.48661301 0.46003100
vt 0.48629501 0.46003100
vt 0.48629600 0.45781499
vt 0.48661399 0.45562801
vt 0.48661399 0.45781499
vt 0.48629600 0.45781499
vt 0.48629600 0.45562801
vt 0.44838300 0.46003100
vt 0.44838399 0.45781499
vt 0.48629600 0.45781499
vt 0.48629501 0.46003100
vt 0.44838399 0.45781499
vt 0.44838399 0.45562801
vt 0.48629600 0.45562801
vt 0.48629600 0.45781499
vt 0.48661399 0.45317101
vt 0.48661399 0.45562801
vt 0.48629600 0.45562801
vt 0.48629600 0.45317101
vt 0.44838399 0.45562801
vt 0.44838399 0.45317101
vt 0.48629600 0.45317101
vt 0.48629600 0.45562801
vt 0.44838399 0.45562801
vt 0.44838399 0.45781499
vt 0.44806600 0.45781499
vt 0.44806600 0.45562801
vt 0.44838399 0.45317101
vt 0.44838399 0.45562801
vt 0.44806600 0.45562801
vt 0.44806600 0.45317101
vt 0.44838399 0.45781499
vt 0.44838300 0.46003100
vt 0.44806501 0.46003100
vt 0.44806600 0.45781499
vt 0.44838300 0.46003100
vt 0.44838199 0.46228600
vt 0.44806400 0.46228600
vt 0.44806501 0.46003100
vt 0.44838199 0.46228600
vt 0.44838101 0.46458200
vt 0.44806299 0.46458200
vt 0.44806400 0.46228600
vt 0.44838199 0.46228600
vt 0.44838300 0.46003100
vt 0.48629501 0.46003100
vt 0.48629400 0.46228600
vt 0.44838399 0.45071301
vt 0.44838399 0.45317101
vt 0.44806600 0.45317101
vt 0.44806600 0.45071301
vt 0.44838399 0.44852701
vt 0.44838399 0.45071301
vt 0.44806600 0.45071301
vt 0.44806600 0.44852701
vt 0.44838300 0.44631100
vt 0.44838399 0.44852701
vt 0.44806600 0.44852701
vt 0.44806501 0.44631100
vt 0.44838199 0.44405600
vt 0.44838300 0.44631100
vt 0.44806501 0.44631100
vt 0.44806400 0.44405600
vt 0.44838300 0.44631100
vt 0.44838199 0.44405600
vt 0.48629400 0.44405600
vt 0.48629501 0.44631001
vt 0.44838399 0.44852701
vt 0.44838300 0.44631100
vt 0.48629501 0.44631001
vt 0.48629600 0.44852701
vt 0.44838199 0.44405600
vt 0.44838101 0.44176000
vt 0.48629299 0.44176000
vt 0.48629400 0.44405600
vt 0.44838101 0.44176000
vt 0.44838199 0.44405600
vt 0.44806400 0.44405600
vt 0.44806299 0.44176000
vt 0.44838101 0.44176000
vt 0.44837999 0.43942600
vt 0.48629200 0.43942600
vt 0.48629299 0.44176000
vt 0.44837999 0.43942600
vt 0.44838101 0.44176000
vt 0.44806299 0.44176000
vt 0.44806200 0.43942600
vt 0.44837800 0.43706101
vt 0.44837999 0.43942600
vt 0.44806200 0.43942600
vt 0.44806001 0.43706101
vt 0.44837701 0.43467799
vt 0.44837800 0.43706101
vt 0.44806001 0.43706101
vt 0.44805899 0.43467799
vt 0.44837600 0.42555499
vt 0.44837701 0.43467799
vt 0.44805899 0.43467799
vt 0.44805801 0.42555499
vt 0.44837400 0.42317200
vt 0.44837600 0.42555499
vt 0.44805801 0.42555499
vt 0.44805601 0.42317200
vt 0.44837701 0.43467799
vt 0.44837600 0.42555499
vt 0.48628801 0.42555499
vt 0.48628899 0.43467799
vt 0.44837600 0.42555499
vt 0.44837400 0.42317200
vt 0.48628700 0.42317200
vt 0.48628801 0.42555499
vt 0.44837299 0.42080799
vt 0.44837400 0.42317200
vt 0.44805601 0.42317200
vt 0.44805500 0.42080799
vt 0.44837400 0.42317200
vt 0.44837299 0.42080799
vt 0.48628500 0.42080700
vt 0.48628700 0.42317200
vt 0.48660499 0.42317200
vt 0.48660600 0.42555499
vt 0.48628801 0.42555499
vt 0.48628700 0.42317200
vt 0.48660299 0.42080700
vt 0.48660499 0.42317200
vt 0.48628700 0.42317200
vt 0.48628500 0.42080700
vt 0.48660201 0.41847399
vt 0.48660299 0.42080700
vt 0.48628500 0.42080700
vt 0.48628399 0.41847399
vt 0.44837299 0.42080799
vt 0.44837201 0.41847399
vt 0.48628399 0.41847399
vt 0.48628500 0.42080700
vt 0.48660100 0.41617799
vt 0.48660201 0.41847399
vt 0.48628399 0.41847399
vt 0.48628300 0.41617799
vt 0.44837201 0.41847399
vt 0.44837099 0.41617799
vt 0.48628300 0.41617799
vt 0.48628399 0.41847399
vt 0.44837099 0.41617799
vt 0.44837001 0.41392300
vt 0.48628199 0.41392300
vt 0.48628300 0.41617799
vt 0.48660001 0.41392300
vt 0.48660100 0.41617799
vt 0.48628300 0.41617799
vt 0.48628199 0.41392300
vt 0.44837001 0.41392300
vt 0.44836900 0.41170600
vt 0.48628101 0.41170600
vt 0.48628199 0.41392300
vt 0.48659900 0.41170600
vt 0.48660001 0.41392300
vt 0.48628199 0.41392300
vt 0.48628101 0.41170600
vt 0.44836900 0.41170600
vt 0.44836900 0.40952000
vt 0.48628101 0.40952000
vt 0.48628101 0.41170600
vt 0.48659900 0.40952000
vt 0.48659900 0.41170600
vt 0.48628101 0.41170600
vt 0.48628101 0.40952000
vt 0.44836900 0.41170600
vt 0.44837001 0.41392300
vt 0.44805199 0.41392300
vt 0.44805101 0.41170600
vt 0.44836900 0.40952000
vt 0.44836900 0.41170600
vt 0.44805101 0.41170600
vt 0.44805101 0.40952000
vt 0.44837001 0.41392300
vt 0.44837099 0.41617799
vt 0.44805300 0.41617799
vt 0.44805199 0.41392300
vt 0.44837099 0.41617799
vt 0.44837201 0.41847399
vt 0.44805399 0.41847399
vt 0.44805300 0.41617799
vt 0.44837201 0.41847399
vt 0.44837299 0.42080799
vt 0.44805500 0.42080799
vt 0.44805399 0.41847399
vt 0.44836900 0.40706500
vt 0.44836900 0.40952000
vt 0.44805101 0.40952000
vt 0.44805101 0.40706500
vt 0.44836900 0.49682200
vt 0.44836900 0.49927700
vt 0.44805101 0.49927700
vt 0.44805101 0.49682200
vt 0.44836900 0.40952000
vt 0.44836900 0.40706500
vt 0.48628101 0.40706399
vt 0.48628101 0.40952000
vt 0.44836900 0.49927700
vt 0.44836900 0.49682200
vt 0.48628101 0.49682200
vt 0.48628101 0.49927700
vt 0.44836900 0.49682200
vt 0.44836900 0.49463499
vt 0.48628101 0.49463600
vt 0.48628101 0.49682200
vt 0.44836900 0.49463499
vt 0.44836900 0.49682200
vt 0.44805101 0.49682200
vt 0.44805101 0.49463499
vt 0.44836900 0.49463499
vt 0.44837001 0.49241900
vt 0.48628199 0.49241900
vt 0.48628101 0.49463600
vt 0.44837001 0.49241900
vt 0.44836900 0.49463499
vt 0.44805101 0.49463499
vt 0.44805199 0.49241900
vt 0.44837099 0.49016401
vt 0.44837001 0.49241900
vt 0.44805199 0.49241900
vt 0.44805300 0.49016401
vt 0.44837201 0.48786801
vt 0.44837099 0.49016401
vt 0.44805300 0.49016401
vt 0.44805399 0.48786801
vt 0.44837099 0.49016401
vt 0.44837201 0.48786801
vt 0.48628399 0.48786801
vt 0.48628300 0.49016401
vt 0.44837001 0.49241900
vt 0.44837099 0.49016401
vt 0.48628300 0.49016401
vt 0.48628199 0.49241900
vt 0.44837299 0.48553401
vt 0.44837201 0.48786801
vt 0.44805399 0.48786801
vt 0.44805500 0.48553401
vt 0.44837400 0.48317000
vt 0.44837299 0.48553401
vt 0.44805500 0.48553401
vt 0.44805601 0.48317000
vt 0.48660600 0.42555499
vt 0.48660699 0.43467799
vt 0.48628899 0.43467799
vt 0.48628801 0.42555499
vt 0.48660699 0.43467799
vt 0.48660800 0.43706101
vt 0.48629001 0.43706101
vt 0.48628899 0.43467799
vt 0.48660800 0.43706101
vt 0.48661000 0.43942600
vt 0.48629200 0.43942600
vt 0.48629001 0.43706101
vt 0.44837800 0.43706101
vt 0.44837701 0.43467799
vt 0.48628899 0.43467799
vt 0.48629001 0.43706101
vt 0.44837999 0.43942600
vt 0.44837800 0.43706101
vt 0.48629001 0.43706101
vt 0.48629200 0.43942600
vt 0.48661000 0.43942600
vt 0.48661101 0.44176000
vt 0.48629299 0.44176000
vt 0.48629200 0.43942600
vt 0.48661101 0.44176000
vt 0.48661199 0.44405600
vt 0.48629400 0.44405600
vt 0.48629299 0.44176000
vt 0.48661199 0.44405600
vt 0.48661301 0.44631001
vt 0.48629501 0.44631001
vt 0.48629400 0.44405600
vt 0.48661301 0.44631001
vt 0.48661399 0.44852701
vt 0.48629600 0.44852701
vt 0.48629501 0.44631001
vt 0.48661399 0.44852701
vt 0.48661399 0.45071301
vt 0.48629600 0.45071301
vt 0.48629600 0.44852701
vt 0.48661399 0.45071301
vt 0.48661399 0.45317101
vt 0.48629600 0.45317101
vt 0.48629600 0.45071301
vt 0.44838399 0.45317101
vt 0.44838399 0.45071301
vt 0.48629600 0.45071301
vt 0.48629600 0.45317101
vt 0.44838399 0.45071301
vt 0.44838399 0.44852701
vt 0.48629600 0.44852701
vt 0.48629600 0.45071301
vt 0.48660800 0.46928000
vt 0.48660699 0.47166401
vt 0.48628899 0.47166401
vt 0.48629001 0.46928000
f 4/1 166/2 2/3
f 4/1 2/3 1/4
f 2/5 149/6 3/7
f 2/5 3/7 1/8
f 1/9 3/10 6/11
f 1/9 6/11 5/12
f 5/13 7/14 4/15
f 5/13 4/15 1/16
f 5/17 6/18 11/19
f 5/17 11/19 8/20
f 8/21 10/22 7/23
f 8/21 7/23 5/24
f 11/25 12/26 9/27
f 11/25 9/27 8/28
f 9/29 32/30 10/31
f 9/29 10/31 8/32
f 13/33 14/34 12/35
f 13/33 12/35 11/36
f 6/37 15/38 13/39
f 6/37 13/39 11/40
f 19/41 14/42 13/43
f 19/41 13/43 16/44
f 16/45 13/46 15/47
f 16/45 15/47 17/48
f 17/49 152/50 18/51
f 17/49 18/51 16/52
f 18/53 20/54 19/55
f 18/53 19/55 16/56
f 19/57 20/58 22/59
f 19/57 22/59 21/60
f 21/61 24/62 14/63
f 21/61 14/63 19/64
f 22/65 192/66 23/67
f 22/65 23/67 21/68
f 23/69 25/70 24/71
f 23/69 24/71 21/72
f 24/73 25/74 27/75
f 24/73 27/75 26/76
f 12/77 14/78 24/79
f 12/77 24/79 26/80
f 26/81 27/82 29/83
f 26/81 29/83 28/84
f 9/85 12/86 26/87
f 9/85 26/87 28/88
f 29/89 31/90 30/91
f 29/89 30/91 28/92
f 28/93 30/94 32/95
f 28/93 32/95 9/96
f 10/97 32/98 30/99
f 10/97 30/99 31/100
f 10/97 31/100 33/101
f 10/97 33/101 34/102
f 10/97 34/102 54/103
f 10/97 54/103 55/104
f 10/97 55/104 56/105
f 10/97 56/105 57/106
f 10/97 57/106 69/107
f 10/97 69/107 70/108
f 10/97 70/108 71/109
f 10/97 71/109 72/110
f 10/97 72/110 84/111
f 10/97 84/111 85/112
f 10/97 85/112 86/113
f 10/97 86/113 87/114
f 10/97 87/114 114/115
f 10/97 114/115 112/116
f 10/97 112/116 115/117
f 10/97 115/117 116/118
f 10/97 116/118 118/119
f 10/97 118/119 119/120
f 10/97 119/120 165/121
f 10/97 165/121 163/122
f 10/97 163/122 159/123
f 10/97 159/123 157/124
f 10/97 157/124 155/125
f 10/97 155/125 166/126
f 10/97 166/126 4/127
f 10/97 4/127 7/128
f 35/129 33/130 31/131
f 35/129 31/131 29/132
f 36/133 34/134 33/135
f 36/133 33/135 35/136
f 37/137 38/138 36/139
f 37/137 36/139 35/140
f 29/141 27/142 37/143
f 29/141 37/143 35/144
f 27/145 25/146 39/147
f 27/145 39/147 37/148
f 39/149 40/150 38/151
f 39/149 38/151 37/152
f 43/153 40/154 39/155
f 43/153 39/155 41/156
f 41/157 39/158 25/159
f 41/157 25/159 23/160
f 23/161 192/162 42/163
f 23/161 42/163 41/164
f 42/165 44/166 43/167
f 42/165 43/167 41/168
f 43/169 44/170 46/171
f 43/169 46/171 45/172
f 45/173 48/174 40/175
f 45/173 40/175 43/176
f 45/177 46/178 190/179
f 45/177 190/179 47/180
f 47/181 49/182 48/183
f 47/181 48/183 45/184
f 48/185 49/186 51/187
f 48/185 51/187 50/188
f 38/189 40/190 48/191
f 38/189 48/191 50/192
f 50/193 51/194 53/195
f 50/193 53/195 52/196
f 36/197 38/198 50/199
f 36/197 50/199 52/200
f 53/201 55/202 54/203
f 53/201 54/203 52/204
f 52/205 54/206 34/207
f 52/205 34/207 36/208
f 56/209 55/210 53/211
f 56/209 53/211 58/212
f 59/213 57/214 56/215
f 59/213 56/215 58/216
f 60/217 62/218 59/219
f 60/217 59/219 58/220
f 53/221 51/222 60/223
f 53/221 60/223 58/224
f 61/225 63/226 62/227
f 61/225 62/227 60/228
f 51/229 49/230 61/231
f 51/229 61/231 60/232
f 59/233 62/234 64/235
f 59/233 64/235 67/236
f 62/237 63/238 65/239
f 62/237 65/239 64/240
f 65/241 191/242 66/243
f 65/241 66/243 64/244
f 64/245 66/246 68/247
f 64/245 68/247 67/248
f 68/249 70/250 69/251
f 68/249 69/251 67/252
f 67/253 69/254 57/255
f 67/253 57/255 59/256
f 73/257 71/258 70/259
f 73/257 70/259 68/260
f 74/261 72/262 71/263
f 74/261 71/263 73/264
f 75/265 77/266 74/267
f 75/265 74/267 73/268
f 68/269 66/270 75/271
f 68/269 75/271 73/272
f 66/273 191/274 76/275
f 66/273 76/275 75/276
f 76/277 78/278 77/279
f 76/277 77/279 75/280
f 74/281 77/282 79/283
f 74/281 79/283 82/284
f 77/285 78/286 80/287
f 77/285 80/287 79/288
f 80/289 176/290 81/291
f 80/289 81/291 79/292
f 79/293 81/294 83/295
f 79/293 83/295 82/296
f 83/297 85/298 84/299
f 83/297 84/299 82/300
f 82/301 84/302 72/303
f 82/301 72/303 74/304
f 88/305 86/306 85/307
f 88/305 85/307 83/308
f 89/309 87/310 86/311
f 89/309 86/311 88/312
f 90/313 92/314 89/315
f 90/313 89/315 88/316
f 83/317 81/318 90/319
f 83/317 90/319 88/320
f 81/321 176/322 91/323
f 81/321 91/323 90/324
f 91/325 94/326 92/327
f 91/325 92/327 90/328
f 89/329 92/330 93/331
f 89/329 93/331 113/332
f 92/333 94/334 96/335
f 92/333 96/335 93/336
f 95/337 94/338 91/339
f 95/337 91/339 172/340
f 98/341 96/342 94/343
f 98/341 94/343 95/344
f 100/345 97/346 96/347
f 100/345 96/347 98/348
f 96/349 97/350 110/351
f 96/349 110/351 93/352
f 95/353 170/354 99/355
f 95/353 99/355 98/356
f 99/357 101/358 100/359
f 99/357 100/359 98/360
f 100/361 101/362 103/363
f 100/361 103/363 102/364
f 102/365 105/366 97/367
f 102/365 97/367 100/368
f 102/369 103/370 169/371
f 102/369 169/371 104/372
f 104/373 106/374 105/375
f 104/373 105/375 102/376
f 105/377 106/378 109/379
f 105/377 109/379 107/380
f 110/381 97/382 105/383
f 110/381 105/383 107/384
f 107/385 109/386 117/387
f 107/385 117/387 108/388
f 111/389 110/390 107/391
f 111/389 107/391 108/392
f 93/393 110/394 111/395
f 93/393 111/395 113/396
f 115/397 112/398 111/399
f 115/397 111/399 108/400
f 111/401 112/402 114/403
f 111/401 114/403 113/404
f 113/405 114/406 87/407
f 113/405 87/407 89/408
f 117/409 116/410 115/411
f 117/409 115/411 108/412
f 120/413 118/414 116/415
f 120/413 116/415 117/416
f 121/417 119/418 118/419
f 121/417 118/419 120/420
f 122/421 123/422 121/423
f 122/421 121/423 120/424
f 117/425 109/426 122/427
f 117/425 122/427 120/428
f 124/429 126/430 123/431
f 124/429 123/431 122/432
f 109/433 106/434 124/435
f 109/433 124/435 122/436
f 125/437 124/438 106/439
f 125/437 106/439 104/440
f 127/441 126/442 124/443
f 127/441 124/443 125/444
f 131/445 128/446 126/447
f 131/445 126/447 127/448
f 123/449 126/450 128/451
f 123/449 128/451 129/452
f 128/453 130/454 162/455
f 128/453 162/455 129/456
f 133/457 130/458 128/459
f 133/457 128/459 131/460
f 132/461 135/462 133/463
f 132/461 133/463 131/464
f 127/465 167/466 132/467
f 127/465 132/467 131/468
f 133/469 135/470 136/471
f 133/469 136/471 134/472
f 134/473 142/474 130/475
f 134/473 130/475 133/476
f 151/477 153/478 138/479
f 151/477 138/479 137/480
f 151/477 137/480 136/481
f 151/477 136/481 135/482
f 151/477 135/482 132/483
f 151/477 132/483 167/484
f 151/477 167/484 168/485
f 151/477 168/485 169/486
f 151/477 169/486 103/487
f 151/477 103/487 101/488
f 151/477 101/488 99/489
f 151/477 99/489 170/490
f 151/477 170/490 171/491
f 151/477 171/491 173/492
f 151/477 173/492 174/493
f 151/477 174/493 179/494
f 151/477 179/494 182/495
f 151/477 182/495 183/496
f 151/477 183/496 184/497
f 151/477 184/497 186/498
f 151/477 186/498 187/499
f 151/477 187/499 190/500
f 151/477 190/500 46/501
f 151/477 46/501 44/502
f 151/477 44/502 42/503
f 151/477 42/503 192/504
f 151/477 192/504 22/505
f 151/477 22/505 20/506
f 151/477 20/506 18/507
f 151/477 18/507 152/508
f 136/509 137/510 139/511
f 136/509 139/511 134/512
f 139/513 137/514 138/515
f 139/513 138/515 140/516
f 140/517 144/518 141/519
f 140/517 141/519 139/520
f 139/521 141/522 142/523
f 139/521 142/523 134/524
f 142/525 141/526 143/527
f 142/525 143/527 161/528
f 143/529 141/530 144/531
f 143/529 144/531 145/532
f 145/533 144/534 146/535
f 145/533 146/535 149/536
f 147/537 146/538 144/539
f 147/537 144/539 140/540
f 148/541 146/542 147/543
f 148/541 147/543 150/544
f 149/545 146/546 148/547
f 149/545 148/547 3/548
f 145/549 149/550 2/551
f 145/549 2/551 154/552
f 17/553 15/554 148/555
f 17/553 148/555 150/556
f 3/557 148/558 15/559
f 3/557 15/559 6/560
f 150/561 151/562 152/563
f 150/561 152/563 17/564
f 147/565 153/566 151/567
f 147/565 151/567 150/568
f 138/569 153/570 147/571
f 138/569 147/571 140/572
f 156/573 143/574 145/575
f 156/573 145/575 154/576
f 154/577 155/578 157/579
f 154/577 157/579 156/580
f 2/581 166/582 155/583
f 2/581 155/583 154/584
f 156/585 157/586 159/587
f 156/585 159/587 158/588
f 161/589 143/590 156/591
f 161/589 156/591 158/592
f 158/593 159/594 163/595
f 158/593 163/595 160/596
f 160/597 162/598 161/599
f 160/597 161/599 158/600
f 162/601 130/602 142/603
f 162/601 142/603 161/604
f 129/605 162/606 160/607
f 129/605 160/607 164/608
f 160/609 163/610 165/611
f 160/609 165/611 164/612
f 164/613 165/614 119/615
f 164/613 119/615 121/616
f 121/617 123/618 129/619
f 121/617 129/619 164/620
f 168/621 167/622 127/623
f 168/621 127/623 125/624
f 104/625 169/626 168/627
f 104/625 168/627 125/628
f 171/629 170/630 95/631
f 171/629 95/631 172/632
f 175/633 173/634 171/635
f 175/633 171/635 172/636
f 174/637 173/638 175/639
f 174/637 175/639 177/640
f 175/641 176/642 80/643
f 175/641 80/643 177/644
f 172/645 91/646 176/647
f 172/645 176/647 175/648
f 178/649 179/650 174/651
f 178/649 174/651 177/652
f 177/653 80/654 78/655
f 177/653 78/655 178/656
f 178/657 78/658 76/659
f 178/657 76/659 180/660
f 182/661 179/662 178/663
f 182/661 178/663 180/664
f 181/665 183/666 182/667
f 181/665 182/667 180/668
f 180/669 76/670 191/671
f 180/669 191/671 181/672
f 184/673 183/674 181/675
f 184/673 181/675 185/676
f 188/677 186/678 184/679
f 188/677 184/679 185/680
f 187/681 186/682 188/683
f 187/681 188/683 189/684
f 188/685 63/686 61/687
f 188/685 61/687 189/688
f 185/689 65/690 63/691
f 185/689 63/691 188/692
f 47/693 190/694 187/695
f 47/693 187/695 189/696
f 189/697 61/698 49/699
f 189/697 49/699 47/700
f 181/701 191/702 65/703
f 181/701 65/703 185/704
f 193/705 194/706 197/707
f 193/705 197/707 196/708
f 227/709 226/710 228/711
f 227/709 228/711 215/712
f 227/709 215/712 212/713
f 227/709 212/713 210/714
f 227/709 210/714 194/715
f 227/709 194/715 193/716
f 227/709 193/716 195/717
f 227/709 195/717 314/718
f 227/709 314/718 313/719
f 227/709 313/719 312/720
f 227/709 312/720 308/721
f 227/709 308/721 320/722
f 227/709 320/722 322/723
f 227/709 322/723 324/724
f 227/709 324/724 325/725
f 227/709 325/725 288/726
f 227/709 288/726 287/727
f 227/709 287/727 286/728
f 227/709 286/728 282/729
f 227/709 282/729 284/730
f 227/709 284/730 285/731
f 227/709 285/731 269/732
f 227/709 269/732 266/733
f 227/709 266/733 264/734
f 227/709 264/734 327/735
f 227/709 327/735 254/736
f 227/709 254/736 251/737
f 227/709 251/737 249/738
f 227/709 249/738 328/739
f 227/709 328/739 237/740
f 227/709 237/740 230/741
f 227/709 230/741 229/742
f 196/743 198/744 195/745
f 196/743 195/745 193/746
f 196/747 197/748 200/749
f 196/747 200/749 199/750
f 198/751 196/752 199/753
f 198/751 199/753 201/754
f 199/755 200/756 204/757
f 199/755 204/757 202/758
f 202/759 203/760 201/761
f 202/759 201/761 199/762
f 200/763 207/764 205/765
f 200/763 205/765 204/766
f 207/767 208/768 206/769
f 207/767 206/769 205/770
f 209/771 211/772 208/773
f 209/771 208/773 207/774
f 197/775 209/776 207/777
f 197/775 207/777 200/778
f 194/779 210/780 209/781
f 194/779 209/781 197/782
f 210/783 212/784 211/785
f 210/783 211/785 209/786
f 213/787 211/788 212/789
f 213/787 212/789 215/790
f 211/791 213/792 216/793
f 211/791 216/793 208/794
f 213/795 214/796 217/797
f 213/795 217/797 216/798
f 214/799 213/800 215/801
f 214/799 215/801 228/802
f 219/803 218/804 216/805
f 219/803 216/805 217/806
f 218/807 206/808 208/809
f 218/807 208/809 216/810
f 220/811 219/812 217/813
f 220/811 217/813 222/814
f 221/815 220/816 222/817
f 221/815 222/817 223/818
f 224/819 225/820 223/821
f 224/819 223/821 222/822
f 214/823 224/824 222/825
f 214/823 222/825 217/826
f 225/827 224/828 226/829
f 225/827 226/829 227/830
f 224/831 214/832 228/833
f 224/831 228/833 226/834
f 231/835 225/836 227/837
f 231/835 227/837 229/838
f 233/839 231/840 229/841
f 233/839 229/841 230/842
f 225/843 231/844 232/845
f 225/843 232/845 223/846
f 231/847 233/848 234/849
f 231/847 234/849 232/850
f 233/851 235/852 238/853
f 233/851 238/853 234/854
f 235/855 233/856 230/857
f 235/855 230/857 237/858
f 236/859 235/860 237/861
f 236/859 237/861 328/862
f 235/863 236/864 239/865
f 235/863 239/865 238/866
f 241/867 240/868 238/869
f 241/867 238/869 239/870
f 240/871 242/872 234/873
f 240/871 234/873 238/874
f 242/875 243/876 232/877
f 242/875 232/877 234/878
f 243/879 221/880 223/881
f 243/879 223/881 232/882
f 244/883 241/884 239/885
f 244/883 239/885 246/886
f 245/887 244/888 246/889
f 245/887 246/889 247/890
f 248/891 250/892 247/893
f 248/891 247/893 246/894
f 236/895 248/896 246/897
f 236/895 246/897 239/898
f 248/899 236/900 328/901
f 248/899 328/901 249/902
f 250/903 248/904 249/905
f 250/903 249/905 251/906
f 250/907 252/908 255/909
f 250/907 255/909 247/910
f 252/911 250/912 251/913
f 252/911 251/913 254/914
f 254/915 327/916 253/917
f 254/915 253/917 252/918
f 252/919 253/920 256/921
f 252/919 256/921 255/922
f 255/923 256/924 258/925
f 255/923 258/925 257/926
f 257/927 245/928 247/929
f 257/927 247/929 255/930
f 259/931 258/932 256/933
f 259/931 256/933 261/934
f 260/935 259/936 261/937
f 260/935 261/937 262/938
f 263/939 265/940 262/941
f 263/939 262/941 261/942
f 253/943 263/944 261/945
f 253/943 261/945 256/946
f 263/947 253/948 327/949
f 263/947 327/949 264/950
f 265/951 263/952 264/953
f 265/951 264/953 266/954
f 265/955 267/956 270/957
f 265/955 270/957 262/958
f 266/959 269/960 267/961
f 266/959 267/961 265/962
f 267/963 268/964 271/965
f 267/963 271/965 270/966
f 269/967 285/968 268/969
f 269/967 268/969 267/970
f 270/971 271/972 273/973
f 270/971 273/973 272/974
f 262/975 270/976 272/977
f 262/975 272/977 260/978
f 274/979 273/980 271/981
f 274/979 271/981 275/982
f 275/983 278/984 276/985
f 275/983 276/985 274/986
f 278/987 279/988 277/989
f 278/987 277/989 276/990
f 280/991 281/992 279/993
f 280/991 279/993 278/994
f 283/995 280/996 278/997
f 283/995 278/997 275/998
f 282/999 286/1000 281/1001
f 282/999 281/1001 280/1002
f 284/1003 282/1004 280/1005
f 284/1003 280/1005 283/1006
f 283/1007 268/1008 285/1009
f 283/1007 285/1009 284/1010
f 268/1011 283/1012 275/1013
f 268/1011 275/1013 271/1014
f 286/1015 287/1016 289/1017
f 286/1015 289/1017 281/1018
f 287/1019 288/1020 291/1021
f 287/1019 291/1021 289/1022
f 281/1023 289/1024 290/1025
f 281/1023 290/1025 279/1026
f 289/1027 291/1028 293/1029
f 289/1027 293/1029 290/1030
f 288/1031 325/1032 292/1033
f 288/1031 292/1033 291/1034
f 291/1035 292/1036 295/1037
f 291/1035 295/1037 293/1038
f 290/1039 293/1040 294/1041
f 290/1039 294/1041 326/1042
f 293/1043 295/1044 297/1045
f 293/1043 297/1045 294/1046
f 292/1047 323/1048 296/1049
f 292/1047 296/1049 295/1050
f 295/1051 296/1052 298/1053
f 295/1051 298/1053 297/1054
f 296/1055 300/1056 299/1057
f 296/1055 299/1057 298/1058
f 300/1059 302/1060 301/1061
f 300/1059 301/1061 299/1062
f 302/1063 305/1064 303/1065
f 302/1063 303/1065 301/1066
f 305/1067 306/1068 304/1069
f 305/1067 304/1069 303/1070
f 307/1071 310/1072 306/1073
f 307/1071 306/1073 305/1074
f 309/1075 307/1076 305/1077
f 309/1075 305/1077 302/1078
f 320/1079 308/1080 307/1081
f 320/1079 307/1081 309/1082
f 308/1083 312/1084 310/1085
f 308/1083 310/1085 307/1086
f 312/1087 313/1088 311/1089
f 312/1087 311/1089 310/1090
f 310/1091 311/1092 318/1093
f 310/1091 318/1093 306/1094
f 315/1095 311/1096 313/1097
f 315/1095 313/1097 314/1098
f 198/1099 315/1100 314/1101
f 198/1099 314/1101 195/1102
f 315/1103 198/1104 201/1105
f 315/1103 201/1105 316/1106
f 311/1107 315/1108 316/1109
f 311/1107 316/1109 318/1110
f 203/1111 317/1112 316/1113
f 203/1111 316/1113 201/1114
f 317/1115 319/1116 318/1117
f 317/1115 318/1117 316/1118
f 306/1119 318/1120 319/1121
f 306/1119 319/1121 304/1122
f 322/1123 320/1124 309/1125
f 322/1123 309/1125 321/1126
f 321/1127 309/1128 302/1129
f 321/1127 302/1129 300/1130
f 323/1131 321/1132 300/1133
f 323/1131 300/1133 296/1134
f 324/1135 322/1136 321/1137
f 324/1135 321/1137 323/1138
f 325/1139 324/1140 323/1141
f 325/1139 323/1141 292/1142
f 279/1143 290/1144 326/1145
f 279/1143 326/1145 277/1146
f 332/1147 329/1148 330/1149
f 332/1147 330/1149 333/1150
f 329/1151 331/1152 425/1153
f 329/1151 425/1153 330/1154
f 334/1155 332/1156 333/1157
f 334/1155 333/1157 335/1158
f 336/1159 334/1160 335/1161
f 336/1159 335/1161 337/1162
f 338/1163 336/1164 337/1165
f 338/1163 337/1165 339/1166
f 340/1167 338/1168 339/1169
f 340/1167 339/1169 341/1170
f 342/1171 340/1172 341/1173
f 342/1171 341/1173 344/1174
f 343/1175 342/1176 344/1177
f 343/1175 344/1177 346/1178
f 446/1179 345/1180 344/1181
f 446/1179 344/1181 341/1182
f 345/1183 347/1184 346/1185
f 345/1183 346/1185 344/1186
f 347/1187 351/1188 348/1189
f 347/1187 348/1189 346/1190
f 349/1191 343/1192 346/1193
f 349/1191 346/1193 348/1194
f 464/1195 349/1196 348/1197
f 464/1195 348/1197 350/1198
f 351/1199 352/1200 350/1201
f 351/1199 350/1201 348/1202
f 351/1203 347/1204 354/1205
f 351/1203 354/1205 353/1206
f 352/1207 351/1208 353/1209
f 352/1207 353/1209 355/1210
f 358/1211 352/1212 355/1213
f 358/1211 355/1213 356/1214
f 360/1215 358/1216 356/1217
f 360/1215 356/1217 357/1218
f 352/1219 358/1220 359/1221
f 352/1219 359/1221 350/1222
f 358/1223 360/1224 362/1225
f 358/1223 362/1225 359/1226
f 361/1227 360/1228 357/1229
f 361/1227 357/1229 385/1230
f 360/1231 361/1232 364/1233
f 360/1231 364/1233 362/1234
f 363/1235 463/1236 359/1237
f 363/1235 359/1237 362/1238
f 366/1239 363/1240 362/1241
f 366/1239 362/1241 364/1242
f 361/1243 384/1244 365/1245
f 361/1243 365/1245 364/1246
f 367/1247 366/1248 364/1249
f 367/1247 364/1249 365/1250
f 368/1251 367/1252 365/1253
f 368/1251 365/1253 369/1254
f 370/1255 368/1256 369/1257
f 370/1255 369/1257 372/1258
f 371/1259 370/1260 372/1261
f 371/1259 372/1261 374/1262
f 382/1263 373/1264 372/1265
f 382/1263 372/1265 369/1266
f 373/1267 376/1268 374/1269
f 373/1267 374/1269 372/1270
f 461/1271 371/1272 374/1273
f 461/1271 374/1273 375/1274
f 376/1275 377/1276 375/1277
f 376/1275 375/1277 374/1278
f 376/1279 373/1280 380/1281
f 376/1279 380/1281 378/1282
f 377/1283 376/1284 378/1285
f 377/1283 378/1285 379/1286
f 373/1287 382/1288 381/1289
f 373/1287 381/1289 380/1290
f 382/1291 384/1292 383/1293
f 382/1291 383/1293 381/1294
f 384/1295 361/1296 385/1297
f 384/1295 385/1297 383/1298
f 384/1299 382/1300 369/1301
f 384/1299 369/1301 365/1302
f 387/1303 377/1304 379/1305
f 387/1303 379/1305 386/1306
f 389/1307 387/1308 386/1309
f 389/1307 386/1309 388/1310
f 392/1311 389/1312 388/1313
f 392/1311 388/1313 390/1314
f 394/1315 392/1316 390/1317
f 394/1315 390/1317 391/1318
f 392/1319 394/1320 395/1321
f 392/1319 395/1321 393/1322
f 389/1323 392/1324 393/1325
f 389/1323 393/1325 459/1326
f 394/1327 396/1328 397/1329
f 394/1327 397/1329 395/1330
f 396/1331 394/1332 391/1333
f 396/1331 391/1333 399/1334
f 396/1335 398/1336 454/1337
f 396/1335 454/1337 397/1338
f 398/1339 396/1340 399/1341
f 398/1339 399/1341 400/1342
f 402/1343 398/1344 400/1345
f 402/1343 400/1345 401/1346
f 404/1347 402/1348 401/1349
f 404/1347 401/1349 403/1350
f 407/1351 404/1352 403/1353
f 407/1351 403/1353 405/1354
f 409/1355 407/1356 405/1357
f 409/1355 405/1357 406/1358
f 404/1359 407/1360 408/1361
f 404/1359 408/1361 450/1362
f 407/1363 409/1364 411/1365
f 407/1363 411/1365 408/1366
f 410/1367 409/1368 406/1369
f 410/1367 406/1369 434/1370
f 409/1371 410/1372 413/1373
f 409/1371 413/1373 411/1374
f 412/1375 448/1376 408/1377
f 412/1375 408/1377 411/1378
f 414/1379 412/1380 411/1381
f 414/1379 411/1381 413/1382
f 416/1383 414/1384 413/1385
f 416/1383 413/1385 415/1386
f 410/1387 417/1388 415/1389
f 410/1387 415/1389 413/1390
f 420/1391 416/1392 415/1393
f 420/1391 415/1393 418/1394
f 417/1395 419/1396 418/1397
f 417/1395 418/1397 415/1398
f 419/1399 422/1400 421/1401
f 419/1399 421/1401 418/1402
f 423/1403 420/1404 418/1405
f 423/1403 418/1405 421/1406
f 422/1407 427/1408 424/1409
f 422/1407 424/1409 421/1410
f 426/1411 423/1412 421/1413
f 426/1411 421/1413 424/1414
f 427/1415 428/1416 425/1417
f 427/1415 425/1417 424/1418
f 331/1419 426/1420 424/1421
f 331/1419 424/1421 425/1422
f 427/1423 422/1424 431/1425
f 427/1423 431/1425 429/1426
f 428/1427 427/1428 429/1429
f 428/1427 429/1429 430/1430
f 422/1431 419/1432 432/1433
f 422/1431 432/1433 431/1434
f 419/1435 417/1436 433/1437
f 419/1435 433/1437 432/1438
f 417/1439 410/1440 434/1441
f 417/1439 434/1441 433/1442
f 437/1443 428/1444 430/1445
f 437/1443 430/1445 435/1446
f 438/1447 437/1448 435/1449
f 438/1447 435/1449 436/1450
f 428/1451 437/1452 330/1453
f 428/1451 330/1453 425/1454
f 437/1455 438/1456 333/1457
f 437/1455 333/1457 330/1458
f 438/1459 439/1460 335/1461
f 438/1459 335/1461 333/1462
f 439/1463 438/1464 436/1465
f 439/1463 436/1465 441/1466
f 439/1467 440/1468 337/1469
f 439/1467 337/1469 335/1470
f 440/1471 439/1472 441/1473
f 440/1471 441/1473 442/1474
f 445/1475 440/1476 442/1477
f 445/1475 442/1477 443/1478
f 446/1479 445/1480 443/1481
f 446/1479 443/1481 444/1482
f 445/1483 446/1484 341/1485
f 445/1483 341/1485 339/1486
f 440/1487 445/1488 339/1489
f 440/1487 339/1489 337/1490
f 345/1491 446/1492 444/1493
f 345/1491 444/1493 447/1494
f 347/1495 345/1496 447/1497
f 347/1495 447/1497 354/1498
f 448/1499 449/1500 450/1501
f 448/1499 450/1501 408/1502
f 449/1503 451/1504 453/1505
f 449/1503 453/1505 450/1506
f 451/1507 452/1508 454/1509
f 451/1507 454/1509 453/1510
f 402/1511 404/1512 450/1513
f 402/1511 450/1513 453/1514
f 398/1515 402/1516 453/1517
f 398/1515 453/1517 454/1518
f 452/1519 455/1520 397/1521
f 452/1519 397/1521 454/1522
f 455/1523 456/1524 395/1525
f 455/1523 395/1525 397/1526
f 456/1527 457/1528 393/1529
f 456/1527 393/1529 395/1530
f 457/1531 458/1532 459/1533
f 457/1531 459/1533 393/1534
f 458/1535 460/1536 462/1537
f 458/1535 462/1537 459/1538
f 460/1539 461/1540 375/1541
f 460/1539 375/1541 462/1542
f 377/1543 387/1544 462/1545
f 377/1543 462/1545 375/1546
f 387/1547 389/1548 459/1549
f 387/1547 459/1549 462/1550
f 463/1551 464/1552 350/1553
f 463/1551 350/1553 359/1554
