# Neck_1: 464 verts, 820 tris
v -0.01190186 0.02500604 -0.01288337
v -0.01190186 0.02724010 -0.01288679
v -0.01190186 0.02456316 -0.01728998
v -0.01414826 0.02500604 -0.01288337
v -0.01190186 0.02281502 -0.01244206
v -0.01190186 0.02152112 -0.01667790
v -0.01414826 0.02281427 -0.01244198
v -0.01190186 0.02075221 -0.01158347
v -0.01190186 0.01889716 -0.01033813
v -0.01414826 0.02075221 -0.01158347
v -0.01190186 0.01865626 -0.01548544
v -0.01190186 0.01608039 -0.01375599
v 0.01132534 0.01865626 -0.01548544
v 0.01132534 0.01608039 -0.01375599
v 0.01132534 0.02152112 -0.01667790
v 0.01132534 0.02075221 -0.01158347
v 0.01132534 0.02281502 -0.01244206
v 0.01357174 0.02075221 -0.01158347
v 0.01132534 0.01889716 -0.01033813
v 0.01357174 0.01889716 -0.01033813
v 0.01132534 0.01731944 -0.00875562
v 0.01357174 0.01731944 -0.00875562
v 0.01132534 0.01608257 -0.00689461
v 0.01132534 0.01389072 -0.01155800
v 0.01132534 0.01217243 -0.00897482
v -0.01190186 0.01389072 -0.01155800
v -0.01190186 0.01217243 -0.00897482
v -0.01190186 0.01731944 -0.00875562
v -0.01190186 0.01608257 -0.00689461
v -0.01414826 0.01731944 -0.00875562
v -0.01414826 0.01608257 -0.00689461
v -0.01414826 0.01889716 -0.01033813
v -0.01414826 0.01523127 -0.00482873
v -0.01414826 0.01480024 -0.00263623
v -0.01190186 0.01523127 -0.00482873
v -0.01190186 0.01480024 -0.00263623
v -0.01190186 0.01099023 -0.00610622
v -0.01190186 0.01039163 -0.00306150
v 0.01132534 0.01099023 -0.00610622
v 0.01132534 0.01039163 -0.00306150
v 0.01132534 0.01523127 -0.00482873
v 0.01357174 0.01523127 -0.00482873
v 0.01132534 0.01480024 -0.00263623
v 0.01357174 0.01480024 -0.00263623
v 0.01132534 0.01480374 -0.00040218
v 0.01357174 0.01480382 -0.00040138
v 0.01132534 0.01524496 0.00178869
v 0.01132534 0.01039716 0.00004150
v 0.01132534 0.01100915 0.00308275
v -0.01190186 0.01039716 0.00004150
v -0.01190186 0.01100915 0.00308275
v -0.01190186 0.01480374 -0.00040218
v -0.01190186 0.01524496 0.00178869
v -0.01414826 0.01480382 -0.00040138
v -0.01414826 0.01524496 0.00178869
v -0.01414826 0.01610367 0.00385156
v -0.01414826 0.01734905 0.00570672
v -0.01190186 0.01610367 0.00385156
v -0.01190186 0.01734905 0.00570672
v -0.01190186 0.01220167 0.00594745
v 0.01132534 0.01220167 0.00594745
v -0.01190186 0.01393107 0.00852344
v 0.01132534 0.01393107 0.00852344
v -0.01190186 0.01612912 0.01071380
v 0.01132534 0.01612912 0.01071380
v -0.01190186 0.01871231 0.01243130
v -0.01190186 0.01893152 0.00728438
v -0.01190186 0.02079260 0.00852127
v -0.01414826 0.01893152 0.00728438
v -0.01414826 0.02079260 0.00852127
v -0.01414826 0.02285838 0.00937256
v -0.01414826 0.02505079 0.00980347
v -0.01190186 0.02285838 0.00937256
v -0.01190186 0.02505079 0.00980347
v -0.01190186 0.02158082 0.01361357
v 0.01132534 0.02158082 0.01361357
v -0.01190186 0.02462568 0.01421208
v 0.01132534 0.02462568 0.01421208
v -0.01190186 0.02772868 0.01420656
v 0.01132534 0.02772868 0.01420656
v -0.01190186 0.03076901 0.01359465
v -0.01190186 0.02728580 0.00979995
v -0.01190186 0.02947586 0.00935874
v -0.01414826 0.02728580 0.00979995
v -0.01414826 0.02947586 0.00935874
v -0.01414826 0.03153867 0.00850015
v -0.01414826 0.03339391 0.00725479
v -0.01190186 0.03153867 0.00850015
v -0.01190186 0.03339391 0.00725479
v -0.01190186 0.03363462 0.01240212
v 0.01132534 0.03363462 0.01240212
v -0.01190186 0.03621049 0.01067266
v -0.01190186 0.03840016 0.00847468
v 0.01132534 0.03621049 0.01067266
v 0.01132534 0.03339391 0.00725479
v 0.01132534 0.03840016 0.00847468
v 0.01132534 0.04011846 0.00589150
v 0.01132534 0.03497068 0.00567238
v 0.01357174 0.03497144 0.00567230
v 0.01132534 0.03620832 0.00381129
v 0.01357174 0.03620832 0.00381129
v 0.01132534 0.03705962 0.00174540
v 0.01357174 0.03705886 0.00174548
v 0.01132534 0.03749064 -0.00044709
v 0.01132534 0.04130065 0.00302290
v 0.01132534 0.04189926 -0.00002183
v -0.01190186 0.04130065 0.00302290
v -0.01190186 0.03705962 0.00174540
v -0.01190186 0.04189926 -0.00002183
v -0.01190186 0.04011846 0.00589150
v -0.01190186 0.03620832 0.00381129
v -0.01414826 0.03620832 0.00381129
v -0.01190186 0.03497144 0.00567230
v -0.01414826 0.03497144 0.00567230
v -0.01414826 0.03705886 0.00174548
v -0.01414826 0.03748969 -0.00044699
v -0.01190186 0.03749064 -0.00044709
v -0.01414826 0.03748706 -0.00268194
v -0.01414826 0.03704592 -0.00487201
v -0.01190186 0.03748706 -0.00268194
v -0.01190186 0.03704592 -0.00487201
v -0.01190186 0.04189380 -0.00312403
v -0.01190186 0.04128174 -0.00616607
v 0.01132534 0.04189380 -0.00312403
v 0.01132534 0.03748706 -0.00268194
v 0.01132534 0.04128174 -0.00616607
v 0.01132534 0.03704592 -0.00487201
v 0.01132534 0.04008921 -0.00903078
v -0.01190186 0.04008921 -0.00903078
v 0.01132534 0.03835982 -0.01160676
v 0.01132534 0.03618721 -0.00693488
v 0.01357174 0.03618721 -0.00693488
v 0.01132534 0.03494184 -0.00879004
v 0.01132534 0.03335936 -0.01036770
v 0.01357174 0.03494184 -0.00879004
v 0.01357174 0.03335936 -0.01036770
v 0.01357174 0.03149847 -0.01160461
v 0.01357174 0.02943251 -0.01245588
v 0.01132534 0.03149847 -0.01160461
v 0.01132534 0.02943251 -0.01245588
v 0.01132534 0.03357857 -0.01551462
v 0.01132534 0.03616176 -0.01379712
v -0.01190186 0.03357857 -0.01551462
v 0.01132534 0.03071006 -0.01669689
v -0.01190186 0.03071006 -0.01669689
v 0.01132534 0.02766521 -0.01729540
v 0.01132534 0.02724010 -0.01288679
v 0.01132534 0.02456316 -0.01728998
v -0.01190186 0.02766521 -0.01729540
v 0.01132534 0.02500604 -0.01288337
v 0.01357174 0.02500604 -0.01288337
v 0.01357174 0.02281502 -0.01244206
v 0.01357174 0.02724010 -0.01288679
v -0.01190186 0.02943251 -0.01245588
v -0.01414826 0.02943251 -0.01245588
v -0.01190186 0.03149847 -0.01160461
v -0.01414826 0.03149847 -0.01160461
v -0.01190186 0.03335936 -0.01036770
v -0.01414826 0.03335936 -0.01036770
v -0.01190186 0.03494184 -0.00879004
v -0.01190186 0.03616176 -0.01379712
v -0.01190186 0.03835982 -0.01160676
v -0.01414826 0.03494184 -0.00879004
v -0.01190186 0.03618721 -0.00693488
v -0.01414826 0.03618721 -0.00693488
v -0.01414826 0.02724010 -0.01288679
v 0.01357174 0.03704592 -0.00487201
v 0.01357174 0.03748706 -0.00268194
v 0.01357174 0.03749064 -0.00044709
v 0.01357174 0.03339391 0.00725479
v 0.01357174 0.03153867 0.00850015
v 0.01132534 0.03153867 0.00850015
v 0.01357174 0.02947586 0.00935874
v 0.01357174 0.02728580 0.00979995
v 0.01132534 0.02947586 0.00935874
v 0.01132534 0.03076977 0.01359458
v 0.01132534 0.02728580 0.00979995
v 0.01132534 0.02505079 0.00980347
v 0.01357174 0.02505079 0.00980347
v 0.01132534 0.02285838 0.00937256
v 0.01132534 0.02079260 0.00852127
v 0.01357174 0.02285838 0.00937256
v 0.01357174 0.02079260 0.00852127
v 0.01357174 0.01893152 0.00728438
v 0.01132534 0.01893152 0.00728438
v 0.01357174 0.01734905 0.00570672
v 0.01357174 0.01610367 0.00385156
v 0.01132534 0.01734905 0.00570672
v 0.01132534 0.01610367 0.00385156
v 0.01357174 0.01524496 0.00178869
v 0.01132534 0.01871231 0.01243130
v 0.01357174 0.01608257 -0.00689461
v -0.00031226 0.06231464 -0.02705871
v 0.00356534 0.06235064 -0.02670052
v -0.00418986 0.06235064 -0.02670052
v -0.00031226 0.06233021 -0.02788039
v 0.00371574 0.06236749 -0.02750945
v -0.00434026 0.06236749 -0.02750945
v -0.00031226 0.07165078 -0.03832560
v 0.00545414 0.07170422 -0.03779388
v -0.00607866 0.07170422 -0.03779388
v -0.00031226 0.07181024 -0.03769840
v -0.00596106 0.07186256 -0.03717783
v 0.00533654 0.07186256 -0.03717783
v 0.01079254 0.07201708 -0.03563273
v 0.01587094 0.07226742 -0.03311715
v 0.01102374 0.07186024 -0.03621678
v 0.01620774 0.07211764 -0.03364803
v 0.00760614 0.06247650 -0.02640763
v 0.00731094 0.06245720 -0.02564026
v 0.01122694 0.06265606 -0.02461340
v 0.01079734 0.06263004 -0.02391288
v 0.01445494 0.06289906 -0.02218793
v 0.01718054 0.06319548 -0.01921386
v 0.01390534 0.06286222 -0.02157799
v 0.02082854 0.07246508 -0.03017577
v 0.02473014 0.07289053 -0.02591778
v 0.02039734 0.07260782 -0.02971494
v 0.02421974 0.07302379 -0.02554363
v 0.02720614 0.07350459 -0.02074445
v 0.02925494 0.07403033 -0.01548104
v 0.02777814 0.07337887 -0.02101885
v 0.02987014 0.07391564 -0.01564559
v 0.01931014 0.06353864 -0.01579183
v 0.02077094 0.06391261 -0.01203841
v 0.01857894 0.06347882 -0.01541999
v 0.01998534 0.06383947 -0.01180674
v 0.01652854 0.06314930 -0.01871394
v 0.02070134 0.06421905 -0.00799760
v 0.02070134 0.06460697 -0.00412257
v 0.02151414 0.06430869 -0.00808219
v 0.03093414 0.07448256 -0.00998190
v 0.02151414 0.06471003 -0.00405654
v 0.03093414 0.07505846 -0.00421941
v 0.02077094 0.06510611 -0.00010032
v 0.01931014 0.06548008 0.00365310
v 0.01998534 0.06498654 -0.00031343
v 0.02987014 0.07562367 0.00144447
v 0.02777814 0.07615969 0.00681780
v 0.02925494 0.07570161 0.00126055
v 0.02720614 0.07622905 0.00652379
v 0.03029734 0.07514724 -0.00428783
v 0.03029734 0.07458394 -0.00993259
v 0.02421974 0.07670815 0.01132314
v 0.02039734 0.07712412 0.01549445
v 0.02473014 0.07665049 0.01171648
v 0.02082854 0.07707594 0.01597447
v 0.01718054 0.06582316 0.00707434
v 0.01652854 0.06567680 0.00659457
v 0.01445494 0.06611890 0.01004928
v 0.01390534 0.06596388 0.00945862
v 0.01122694 0.06636266 0.01247466
v 0.00760614 0.06654146 0.01426898
v 0.01079734 0.06619613 0.01179430
v 0.01620694 0.07742168 0.01944691
v 0.01102374 0.07767908 0.02201564
v 0.01587094 0.07746452 0.01889665
v 0.01079254 0.07771580 0.02141213
v 0.00533654 0.07786938 0.02295734
v -0.00031226 0.07792170 0.02347791
v 0.00545414 0.07783672 0.02359178
v -0.00031226 0.07789016 0.02412350
v 0.00371574 0.06665047 0.01537079
v 0.00356534 0.06647545 0.01458114
v -0.00031226 0.06668775 0.01574173
v -0.00031226 0.06651145 0.01493933
v -0.00434026 0.06665047 0.01537079
v -0.00823066 0.06654146 0.01426898
v -0.00418986 0.06647545 0.01458114
v -0.00607866 0.07783672 0.02359178
v -0.01164826 0.07767908 0.02201564
v -0.00596106 0.07786938 0.02295734
v -0.01141706 0.07771580 0.02141213
v -0.01649546 0.07746452 0.01889665
v -0.01683146 0.07742168 0.01944691
v -0.02102186 0.07712412 0.01549445
v -0.02484426 0.07670815 0.01132314
v -0.02145306 0.07707594 0.01597447
v -0.02535466 0.07665049 0.01171648
v -0.01507946 0.06611890 0.01004928
v -0.01780506 0.06582316 0.00707434
v -0.01452986 0.06596388 0.00945862
v -0.01185146 0.06636266 0.01247466
v -0.01142186 0.06619613 0.01179430
v -0.00793546 0.06636889 0.01352088
v -0.01715306 0.06567680 0.00659457
v -0.01920346 0.06534898 0.00330044
v -0.02060986 0.06498654 -0.00031343
v -0.01993466 0.06548008 0.00365310
v -0.02840266 0.07615969 0.00681780
v -0.02139546 0.06510611 -0.00010032
v -0.02213866 0.06471003 -0.00405654
v -0.03049466 0.07562367 0.00144447
v -0.02987946 0.07570161 0.00126055
v -0.03155866 0.07505846 -0.00421941
v -0.03155866 0.07448256 -0.00998190
v -0.03092186 0.07514724 -0.00428783
v -0.03092186 0.07458394 -0.00993259
v -0.02987946 0.07403033 -0.01548104
v -0.03049466 0.07391564 -0.01564559
v -0.02783066 0.07350459 -0.02074445
v -0.02840266 0.07337887 -0.02101885
v -0.02484426 0.07302379 -0.02554363
v -0.02102186 0.07260782 -0.02971494
v -0.02535466 0.07289053 -0.02591778
v -0.02145306 0.07246508 -0.03017577
v -0.01780506 0.06319548 -0.01921386
v -0.01715306 0.06314930 -0.01871394
v -0.01993466 0.06353864 -0.01579183
v -0.01507946 0.06289906 -0.02218793
v -0.01185146 0.06265606 -0.02461340
v -0.01452986 0.06286222 -0.02157799
v -0.01142186 0.06263004 -0.02391288
v -0.00793546 0.06245720 -0.02564026
v -0.00823066 0.06247650 -0.02640763
v -0.01164826 0.07186024 -0.03621678
v -0.01141706 0.07201708 -0.03563273
v -0.01683226 0.07211764 -0.03364803
v -0.01649546 0.07226742 -0.03311715
v -0.01920346 0.06347882 -0.01541999
v -0.02139546 0.06391261 -0.01203841
v -0.02060986 0.06383947 -0.01180674
v -0.02213866 0.06430869 -0.00808219
v -0.02132586 0.06421905 -0.00799760
v -0.02132586 0.06460697 -0.00412257
v -0.02783066 0.07622905 0.00652379
v 0.00731094 0.06636889 0.01352088
v 0.01857894 0.06534898 0.00330044
v -0.00031226 0.02443763 -0.01663735
v -0.00031226 0.02471698 -0.01666542
v 0.00184854 0.02445971 -0.01641765
v -0.00247306 0.02445971 -0.01641765
v -0.00247306 0.02473906 -0.01644573
v -0.00430186 0.02452259 -0.01579201
v -0.00430186 0.02480194 -0.01582009
v -0.00599546 0.02462071 -0.01480809
v -0.00599546 0.02490006 -0.01483616
v -0.00749546 0.02475139 -0.01350020
v -0.00749546 0.02503074 -0.01352827
v -0.00875066 0.02490936 -0.01191123
v -0.00875066 0.02518966 -0.01193941
v -0.00971786 0.02509100 -0.01009630
v -0.01036586 0.02528912 -0.00811739
v -0.00971786 0.02537111 -0.01012446
v -0.00971786 0.06552021 -0.01442795
v -0.01036586 0.02556848 -0.00814547
v -0.01036586 0.06571738 -0.01244895
v -0.01067066 0.02577636 -0.00606945
v -0.01067066 0.02549700 -0.00604137
v -0.01067066 0.02658153 0.00195908
v -0.01067066 0.06592526 -0.01037293
v -0.01067066 0.06673070 -0.00234362
v -0.01067066 0.06620557 -0.01040110
v -0.01036586 0.06599768 -0.01247712
v -0.01067066 0.06701006 -0.00237170
v -0.01036586 0.06721862 -0.00029655
v -0.00971786 0.06741674 0.00168235
v -0.01036586 0.06693850 -0.00026840
v -0.01036586 0.02678941 0.00403510
v -0.00971786 0.06713644 0.00171052
v -0.00875066 0.06731732 0.00352554
v -0.00971786 0.02698753 0.00601400
v -0.00971786 0.02670818 0.00604208
v -0.00874986 0.02716841 0.00782902
v -0.00749546 0.02732714 0.00941791
v -0.00874986 0.02688811 0.00785719
v -0.00749546 0.02704703 0.00944606
v -0.00599546 0.02717847 0.01075387
v -0.00599546 0.02745783 0.01072580
v -0.00430186 0.02727659 0.01173779
v -0.00247306 0.02733947 0.01236344
v -0.00430186 0.02755595 0.01170971
v -0.00430186 0.06770485 0.00740623
v -0.00247306 0.02761883 0.01233536
v -0.00031226 0.02764267 0.01257256
v -0.00247306 0.06776773 0.00803188
v -0.00031226 0.06779157 0.00826908
v -0.00247306 0.06804803 0.00800371
v -0.00031226 0.06807187 0.00824091
v -0.00430186 0.06798515 0.00737806
v -0.00599546 0.06788703 0.00639414
v -0.00599546 0.06760692 0.00642230
v -0.00749546 0.06775559 0.00508633
v -0.00749546 0.06747624 0.00511441
v -0.00875066 0.06759667 0.00349746
v 0.00184854 0.06804803 0.00800371
v 0.00184854 0.06776773 0.00803188
v 0.00367734 0.06798515 0.00737806
v 0.00367734 0.06770485 0.00740623
v 0.00537094 0.06788703 0.00639414
v 0.00687094 0.06775559 0.00508633
v 0.00537094 0.06760692 0.00642230
v 0.00537094 0.02745783 0.01072580
v 0.00687094 0.06747624 0.00511441
v 0.00687094 0.02732714 0.00941791
v 0.00812614 0.06731732 0.00352554
v 0.00812534 0.02716841 0.00782902
v 0.00909334 0.06713644 0.00171052
v 0.00812614 0.06759667 0.00349746
v 0.00909334 0.06741674 0.00168235
v 0.00974134 0.06721862 -0.00029655
v 0.00974134 0.06693850 -0.00026840
v 0.01004614 0.06701006 -0.00237170
v 0.01004614 0.06673070 -0.00234362
v 0.01004614 0.06620557 -0.01040110
v 0.00974134 0.06599768 -0.01247712
v 0.01004614 0.06592526 -0.01037293
v 0.01004614 0.02577636 -0.00606945
v 0.00974134 0.06571738 -0.01244895
v 0.00909334 0.06552021 -0.01442795
v 0.00974134 0.02556848 -0.00814547
v 0.00974134 0.02528912 -0.00811739
v 0.00909334 0.02537111 -0.01012446
v 0.00909334 0.02509100 -0.01009630
v 0.00812614 0.02518966 -0.01193941
v 0.00812614 0.02490936 -0.01191123
v 0.00812614 0.06533857 -0.01624289
v 0.00687094 0.02503074 -0.01352827
v 0.00687094 0.06517973 -0.01783096
v 0.00687094 0.02475139 -0.01350020
v 0.00537094 0.02490006 -0.01483616
v 0.00537094 0.06504897 -0.01913964
v 0.00537094 0.02462071 -0.01480809
v 0.00367734 0.02480194 -0.01582009
v 0.00184854 0.02473906 -0.01644573
v 0.00367734 0.02452259 -0.01579201
v 0.00367734 0.06495103 -0.02012359
v 0.00184854 0.06488815 -0.02074923
v 0.00367734 0.06523115 -0.02015174
v 0.00184854 0.06516827 -0.02077738
v 0.00537094 0.06532927 -0.01916782
v 0.00687094 0.06546003 -0.01785913
v 0.00812614 0.06561792 -0.01627096
v 0.00909334 0.06579956 -0.01445603
v -0.00031226 0.06514619 -0.02099707
v -0.00247306 0.06516827 -0.02077738
v -0.00031226 0.06486607 -0.02096892
v -0.00247306 0.06488815 -0.02074923
v -0.00430186 0.06495103 -0.02012359
v -0.00599546 0.06504897 -0.01913964
v -0.00430186 0.06523115 -0.02015174
v -0.00599546 0.06532927 -0.01916782
v -0.00749546 0.06546003 -0.01785913
v -0.00875066 0.06561792 -0.01627096
v -0.00749546 0.06517973 -0.01783096
v -0.00875066 0.06533857 -0.01624289
v -0.00971786 0.06579956 -0.01445603
v 0.01004614 0.02549700 -0.00604137
v 0.01004614 0.02630142 0.00198723
v 0.01004614 0.02658153 0.00195908
v 0.00974134 0.02651006 0.00406318
v 0.00909334 0.02670818 0.00604208
v 0.00974134 0.02678941 0.00403510
v 0.00909334 0.02698753 0.00601400
v 0.00812534 0.02688811 0.00785719
v 0.00687094 0.02704703 0.00944606
v 0.00537094 0.02717847 0.01075387
v 0.00367734 0.02727659 0.01173779
v 0.00367734 0.02755595 0.01170971
v 0.00184854 0.02733947 0.01236344
v -0.00031226 0.02736331 0.01260064
v 0.00184854 0.02761883 0.01233536
v -0.01036586 0.02651006 0.00406318
v -0.01067066 0.02630142 0.00198723
f 4 166 2
f 4 2 1
f 2 149 3
f 2 3 1
f 1 3 6
f 1 6 5
f 5 7 4
f 5 4 1
f 5 6 11
f 5 11 8
f 8 10 7
f 8 7 5
f 11 12 9
f 11 9 8
f 9 32 10
f 9 10 8
f 13 14 12
f 13 12 11
f 6 15 13
f 6 13 11
f 19 14 13
f 19 13 16
f 16 13 15
f 16 15 17
f 17 152 18
f 17 18 16
f 18 20 19
f 18 19 16
f 19 20 22
f 19 22 21
f 21 24 14
f 21 14 19
f 22 192 23
f 22 23 21
f 23 25 24
f 23 24 21
f 24 25 27
f 24 27 26
f 12 14 24
f 12 24 26
f 26 27 29
f 26 29 28
f 9 12 26
f 9 26 28
f 29 31 30
f 29 30 28
f 28 30 32
f 28 32 9
f 10 32 30
f 10 30 31
f 10 31 33
f 10 33 34
f 10 34 54
f 10 54 55
f 10 55 56
f 10 56 57
f 10 57 69
f 10 69 70
f 10 70 71
f 10 71 72
f 10 72 84
f 10 84 85
f 10 85 86
f 10 86 87
f 10 87 114
f 10 114 112
f 10 112 115
f 10 115 116
f 10 116 118
f 10 118 119
f 10 119 165
f 10 165 163
f 10 163 159
f 10 159 157
f 10 157 155
f 10 155 166
f 10 166 4
f 10 4 7
f 35 33 31
f 35 31 29
f 36 34 33
f 36 33 35
f 37 38 36
f 37 36 35
f 29 27 37
f 29 37 35
f 27 25 39
f 27 39 37
f 39 40 38
f 39 38 37
f 43 40 39
f 43 39 41
f 41 39 25
f 41 25 23
f 23 192 42
f 23 42 41
f 42 44 43
f 42 43 41
f 43 44 46
f 43 46 45
f 45 48 40
f 45 40 43
f 45 46 190
f 45 190 47
f 47 49 48
f 47 48 45
f 48 49 51
f 48 51 50
f 38 40 48
f 38 48 50
f 50 51 53
f 50 53 52
f 36 38 50
f 36 50 52
f 53 55 54
f 53 54 52
f 52 54 34
f 52 34 36
f 56 55 53
f 56 53 58
f 59 57 56
f 59 56 58
f 60 62 59
f 60 59 58
f 53 51 60
f 53 60 58
f 61 63 62
f 61 62 60
f 51 49 61
f 51 61 60
f 59 62 64
f 59 64 67
f 62 63 65
f 62 65 64
f 65 191 66
f 65 66 64
f 64 66 68
f 64 68 67
f 68 70 69
f 68 69 67
f 67 69 57
f 67 57 59
f 73 71 70
f 73 70 68
f 74 72 71
f 74 71 73
f 75 77 74
f 75 74 73
f 68 66 75
f 68 75 73
f 66 191 76
f 66 76 75
f 76 78 77
f 76 77 75
f 74 77 79
f 74 79 82
f 77 78 80
f 77 80 79
f 80 176 81
f 80 81 79
f 79 81 83
f 79 83 82
f 83 85 84
f 83 84 82
f 82 84 72
f 82 72 74
f 88 86 85
f 88 85 83
f 89 87 86
f 89 86 88
f 90 92 89
f 90 89 88
f 83 81 90
f 83 90 88
f 81 176 91
f 81 91 90
f 91 94 92
f 91 92 90
f 89 92 93
f 89 93 113
f 92 94 96
f 92 96 93
f 95 94 91
f 95 91 172
f 98 96 94
f 98 94 95
f 100 97 96
f 100 96 98
f 96 97 110
f 96 110 93
f 95 170 99
f 95 99 98
f 99 101 100
f 99 100 98
f 100 101 103
f 100 103 102
f 102 105 97
f 102 97 100
f 102 103 169
f 102 169 104
f 104 106 105
f 104 105 102
f 105 106 109
f 105 109 107
f 110 97 105
f 110 105 107
f 107 109 117
f 107 117 108
f 111 110 107
f 111 107 108
f 93 110 111
f 93 111 113
f 115 112 111
f 115 111 108
f 111 112 114
f 111 114 113
f 113 114 87
f 113 87 89
f 117 116 115
f 117 115 108
f 120 118 116
f 120 116 117
f 121 119 118
f 121 118 120
f 122 123 121
f 122 121 120
f 117 109 122
f 117 122 120
f 124 126 123
f 124 123 122
f 109 106 124
f 109 124 122
f 125 124 106
f 125 106 104
f 127 126 124
f 127 124 125
f 131 128 126
f 131 126 127
f 123 126 128
f 123 128 129
f 128 130 162
f 128 162 129
f 133 130 128
f 133 128 131
f 132 135 133
f 132 133 131
f 127 167 132
f 127 132 131
f 133 135 136
f 133 136 134
f 134 142 130
f 134 130 133
f 151 153 138
f 151 138 137
f 151 137 136
f 151 136 135
f 151 135 132
f 151 132 167
f 151 167 168
f 151 168 169
f 151 169 103
f 151 103 101
f 151 101 99
f 151 99 170
f 151 170 171
f 151 171 173
f 151 173 174
f 151 174 179
f 151 179 182
f 151 182 183
f 151 183 184
f 151 184 186
f 151 186 187
f 151 187 190
f 151 190 46
f 151 46 44
f 151 44 42
f 151 42 192
f 151 192 22
f 151 22 20
f 151 20 18
f 151 18 152
f 136 137 139
f 136 139 134
f 139 137 138
f 139 138 140
f 140 144 141
f 140 141 139
f 139 141 142
f 139 142 134
f 142 141 143
f 142 143 161
f 143 141 144
f 143 144 145
f 145 144 146
f 145 146 149
f 147 146 144
f 147 144 140
f 148 146 147
f 148 147 150
f 149 146 148
f 149 148 3
f 145 149 2
f 145 2 154
f 17 15 148
f 17 148 150
f 3 148 15
f 3 15 6
f 150 151 152
f 150 152 17
f 147 153 151
f 147 151 150
f 138 153 147
f 138 147 140
f 156 143 145
f 156 145 154
f 154 155 157
f 154 157 156
f 2 166 155
f 2 155 154
f 156 157 159
f 156 159 158
f 161 143 156
f 161 156 158
f 158 159 163
f 158 163 160
f 160 162 161
f 160 161 158
f 162 130 142
f 162 142 161
f 129 162 160
f 129 160 164
f 160 163 165
f 160 165 164
f 164 165 119
f 164 119 121
f 121 123 129
f 121 129 164
f 168 167 127
f 168 127 125
f 104 169 168
f 104 168 125
f 171 170 95
f 171 95 172
f 175 173 171
f 175 171 172
f 174 173 175
f 174 175 177
f 175 176 80
f 175 80 177
f 172 91 176
f 172 176 175
f 178 179 174
f 178 174 177
f 177 80 78
f 177 78 178
f 178 78 76
f 178 76 180
f 182 179 178
f 182 178 180
f 181 183 182
f 181 182 180
f 180 76 191
f 180 191 181
f 184 183 181
f 184 181 185
f 188 186 184
f 188 184 185
f 187 186 188
f 187 188 189
f 188 63 61
f 188 61 189
f 185 65 63
f 185 63 188
f 47 190 187
f 47 187 189
f 189 61 49
f 189 49 47
f 181 191 65
f 181 65 185
f 193 194 197
f 193 197 196
f 227 226 228
f 227 228 215
f 227 215 212
f 227 212 210
f 227 210 194
f 227 194 193
f 227 193 195
f 227 195 314
f 227 314 313
f 227 313 312
f 227 312 308
f 227 308 320
f 227 320 322
f 227 322 324
f 227 324 325
f 227 325 288
f 227 288 287
f 227 287 286
f 227 286 282
f 227 282 284
f 227 284 285
f 227 285 269
f 227 269 266
f 227 266 264
f 227 264 327
f 227 327 254
f 227 254 251
f 227 251 249
f 227 249 328
f 227 328 237
f 227 237 230
f 227 230 229
f 196 198 195
f 196 195 193
f 196 197 200
f 196 200 199
f 198 196 199
f 198 199 201
f 199 200 204
f 199 204 202
f 202 203 201
f 202 201 199
f 200 207 205
f 200 205 204
f 207 208 206
f 207 206 205
f 209 211 208
f 209 208 207
f 197 209 207
f 197 207 200
f 194 210 209
f 194 209 197
f 210 212 211
f 210 211 209
f 213 211 212
f 213 212 215
f 211 213 216
f 211 216 208
f 213 214 217
f 213 217 216
f 214 213 215
f 214 215 228
f 219 218 216
f 219 216 217
f 218 206 208
f 218 208 216
f 220 219 217
f 220 217 222
f 221 220 222
f 221 222 223
f 224 225 223
f 224 223 222
f 214 224 222
f 214 222 217
f 225 224 226
f 225 226 227
f 224 214 228
f 224 228 226
f 231 225 227
f 231 227 229
f 233 231 229
f 233 229 230
f 225 231 232
f 225 232 223
f 231 233 234
f 231 234 232
f 233 235 238
f 233 238 234
f 235 233 230
f 235 230 237
f 236 235 237
f 236 237 328
f 235 236 239
f 235 239 238
f 241 240 238
f 241 238 239
f 240 242 234
f 240 234 238
f 242 243 232
f 242 232 234
f 243 221 223
f 243 223 232
f 244 241 239
f 244 239 246
f 245 244 246
f 245 246 247
f 248 250 247
f 248 247 246
f 236 248 246
f 236 246 239
f 248 236 328
f 248 328 249
f 250 248 249
f 250 249 251
f 250 252 255
f 250 255 247
f 252 250 251
f 252 251 254
f 254 327 253
f 254 253 252
f 252 253 256
f 252 256 255
f 255 256 258
f 255 258 257
f 257 245 247
f 257 247 255
f 259 258 256
f 259 256 261
f 260 259 261
f 260 261 262
f 263 265 262
f 263 262 261
f 253 263 261
f 253 261 256
f 263 253 327
f 263 327 264
f 265 263 264
f 265 264 266
f 265 267 270
f 265 270 262
f 266 269 267
f 266 267 265
f 267 268 271
f 267 271 270
f 269 285 268
f 269 268 267
f 270 271 273
f 270 273 272
f 262 270 272
f 262 272 260
f 274 273 271
f 274 271 275
f 275 278 276
f 275 276 274
f 278 279 277
f 278 277 276
f 280 281 279
f 280 279 278
f 283 280 278
f 283 278 275
f 282 286 281
f 282 281 280
f 284 282 280
f 284 280 283
f 283 268 285
f 283 285 284
f 268 283 275
f 268 275 271
f 286 287 289
f 286 289 281
f 287 288 291
f 287 291 289
f 281 289 290
f 281 290 279
f 289 291 293
f 289 293 290
f 288 325 292
f 288 292 291
f 291 292 295
f 291 295 293
f 290 293 294
f 290 294 326
f 293 295 297
f 293 297 294
f 292 323 296
f 292 296 295
f 295 296 298
f 295 298 297
f 296 300 299
f 296 299 298
f 300 302 301
f 300 301 299
f 302 305 303
f 302 303 301
f 305 306 304
f 305 304 303
f 307 310 306
f 307 306 305
f 309 307 305
f 309 305 302
f 320 308 307
f 320 307 309
f 308 312 310
f 308 310 307
f 312 313 311
f 312 311 310
f 310 311 318
f 310 318 306
f 315 311 313
f 315 313 314
f 198 315 314
f 198 314 195
f 315 198 201
f 315 201 316
f 311 315 316
f 311 316 318
f 203 317 316
f 203 316 201
f 317 319 318
f 317 318 316
f 306 318 319
f 306 319 304
f 322 320 309
f 322 309 321
f 321 309 302
f 321 302 300
f 323 321 300
f 323 300 296
f 324 322 321
f 324 321 323
f 325 324 323
f 325 323 292
f 279 290 326
f 279 326 277
f 332 329 330
f 332 330 333
f 329 331 425
f 329 425 330
f 334 332 333
f 334 333 335
f 336 334 335
f 336 335 337
f 338 336 337
f 338 337 339
f 340 338 339
f 340 339 341
f 342 340 341
f 342 341 344
f 343 342 344
f 343 344 346
f 446 345 344
f 446 344 341
f 345 347 346
f 345 346 344
f 347 351 348
f 347 348 346
f 349 343 346
f 349 346 348
f 464 349 348
f 464 348 350
f 351 352 350
f 351 350 348
f 351 347 354
f 351 354 353
f 352 351 353
f 352 353 355
f 358 352 355
f 358 355 356
f 360 358 356
f 360 356 357
f 352 358 359
f 352 359 350
f 358 360 362
f 358 362 359
f 361 360 357
f 361 357 385
f 360 361 364
f 360 364 362
f 363 463 359
f 363 359 362
f 366 363 362
f 366 362 364
f 361 384 365
f 361 365 364
f 367 366 364
f 367 364 365
f 368 367 365
f 368 365 369
f 370 368 369
f 370 369 372
f 371 370 372
f 371 372 374
f 382 373 372
f 382 372 369
f 373 376 374
f 373 374 372
f 461 371 374
f 461 374 375
f 376 377 375
f 376 375 374
f 376 373 380
f 376 380 378
f 377 376 378
f 377 378 379
f 373 382 381
f 373 381 380
f 382 384 383
f 382 383 381
f 384 361 385
f 384 385 383
f 384 382 369
f 384 369 365
f 387 377 379
f 387 379 386
f 389 387 386
f 389 386 388
f 392 389 388
f 392 388 390
f 394 392 390
f 394 390 391
f 392 394 395
f 392 395 393
f 389 392 393
f 389 393 459
f 394 396 397
f 394 397 395
f 396 394 391
f 396 391 399
f 396 398 454
f 396 454 397
f 398 396 399
f 398 399 400
f 402 398 400
f 402 400 401
f 404 402 401
f 404 401 403
f 407 404 403
f 407 403 405
f 409 407 405
f 409 405 406
f 404 407 408
f 404 408 450
f 407 409 411
f 407 411 408
f 410 409 406
f 410 406 434
f 409 410 413
f 409 413 411
f 412 448 408
f 412 408 411
f 414 412 411
f 414 411 413
f 416 414 413
f 416 413 415
f 410 417 415
f 410 415 413
f 420 416 415
f 420 415 418
f 417 419 418
f 417 418 415
f 419 422 421
f 419 421 418
f 423 420 418
f 423 418 421
f 422 427 424
f 422 424 421
f 426 423 421
f 426 421 424
f 427 428 425
f 427 425 424
f 331 426 424
f 331 424 425
f 427 422 431
f 427 431 429
f 428 427 429
f 428 429 430
f 422 419 432
f 422 432 431
f 419 417 433
f 419 433 432
f 417 410 434
f 417 434 433
f 437 428 430
f 437 430 435
f 438 437 435
f 438 435 436
f 428 437 330
f 428 330 425
f 437 438 333
f 437 333 330
f 438 439 335
f 438 335 333
f 439 438 436
f 439 436 441
f 439 440 337
f 439 337 335
f 440 439 441
f 440 441 442
f 445 440 442
f 445 442 443
f 446 445 443
f 446 443 444
f 445 446 341
f 445 341 339
f 440 445 339
f 440 339 337
f 345 446 444
f 345 444 447
f 347 345 447
f 347 447 354
f 448 449 450
f 448 450 408
f 449 451 453
f 449 453 450
f 451 452 454
f 451 454 453
f 402 404 450
f 402 450 453
f 398 402 453
f 398 453 454
f 452 455 397
f 452 397 454
f 455 456 395
f 455 395 397
f 456 457 393
f 456 393 395
f 457 458 459
f 457 459 393
f 458 460 462
f 458 462 459
f 460 461 375
f 460 375 462
f 377 387 462
f 377 462 375
f 387 389 459
f 387 459 462
f 463 464 350
f 463 350 359
